<svg width="121" height="123" viewBox="0 0 121 123" fill="none" xmlns="http://www.w3.org/2000/svg">
<g clip-path="url(#clip0_293_2592)">
<path d="M66.6098 13.97C68.1598 12.34 68.9198 10.23 68.8898 8.12003C68.8598 6.01003 68.0498 3.92003 66.4498 2.33003L66.3298 2.21004C64.7498 0.710037 62.7298 -0.0199673 60.7198 0.0100327C58.7098 0.0400327 56.7098 0.830035 55.1698 2.38004C37.5098 20.04 20.0398 37.99 2.48976 55.78C2.41976 55.83 2.35977 55.88 2.29977 55.94C0.749767 57.57 -0.0102399 59.7 0.0197601 61.81C0.0497601 63.92 0.869765 66.02 2.46976 67.61L2.73976 67.87C20.2098 85.41 37.6598 103.01 55.1798 120.52C56.7098 122.06 58.7098 122.85 60.7198 122.88C62.7298 122.91 64.7498 122.18 66.3298 120.67L66.4798 120.52C68.0498 118.94 68.8598 116.86 68.8898 114.76C68.9198 112.66 68.1598 110.54 66.6098 108.91L19.3898 61.64L66.6098 13.97ZM118.38 15.97C119.92 14.35 120.67 12.24 120.64 10.14C120.61 8.03004 119.8 5.94004 118.2 4.35004L118.08 4.23003C116.51 2.73003 114.48 2.00003 112.47 2.02003C110.46 2.05003 108.45 2.84004 106.92 4.39004C89.6298 21.68 71.7698 38.68 54.2498 55.76C54.1798 55.81 54.1098 55.87 54.0398 55.93C52.4898 57.56 51.7298 59.69 51.7598 61.8C51.7898 63.91 52.6098 66.01 54.2098 67.6C71.6998 84.55 89.2798 101.44 106.81 118.37L106.93 118.5C108.46 120.04 110.46 120.82 112.47 120.85C114.48 120.88 116.5 120.15 118.08 118.65L118.23 118.5C119.8 116.92 120.61 114.83 120.64 112.74C120.67 110.64 119.91 108.52 118.36 106.89L71.1798 61.65L118.38 15.97Z" fill="#727885"/>
</g>
<defs>
<clipPath id="clip0_293_2592">
<rect width="120.64" height="122.88" fill="white" transform="matrix(-1 0 0 -1 120.64 122.88)"/>
</clipPath>
</defs>
</svg>
