<svg width="101" height="101" viewBox="0 0 101 101" fill="none" xmlns="http://www.w3.org/2000/svg">
<path d="M50.4 54.5C60.5 54.5 68.6 46.3 68.6 36.3C68.6 26.3 60.5 18 50.4 18C40.3 18 32.2 26.2 32.2 36.2C32.2 46.2 40.3 54.5 50.4 54.5ZM50.4 22.8C57.8 22.8 63.8 28.8 63.8 36.2C63.8 43.6 57.8 49.6 50.4 49.6C43 49.6 37 43.7 37 36.3C37 28.9 43 22.8 50.4 22.8ZM18.8 83H82.2C83.5 83 84.6 81.9 84.6 80.6C84.6 68 74.3 57.7 61.7 57.7C61.7 57.7 54.9464 60.5191 50.4 60.5C45.9295 60.4812 39.3 57.7 39.3 57.7C26.7 57.7 16.4 68 16.4 80.6C16.4 81.9 17.5 83 18.8 83ZM39.3 62.5C39.3 62.5 45.9567 64.9831 50.4 65C54.9196 65.0172 61.7 62.5 61.7 62.5C70.9 62.5 78.4 69.3 79.6 78.2H21.4C22.6 69.3 30.1 62.5 39.3 62.5Z" fill="#564DCA"/>
</svg>
