<svg width="527" height="112" viewBox="0 0 527 112" fill="none" xmlns="http://www.w3.org/2000/svg">
<path d="M108.089 39H99.7033L96.3699 30.3281H81.1095L77.9585 39H69.7814L84.6512 0.822948H92.8022L108.089 39ZM93.896 23.8958L88.6356 9.72919L83.4793 23.8958H93.896ZM112.203 39V0.822948H124.573C129.261 0.822948 132.316 1.01392 133.74 1.39586C135.927 1.96878 137.759 3.21878 139.234 5.14586C140.71 7.05558 141.448 9.52954 141.448 12.5677C141.448 14.9115 141.023 16.882 140.172 18.4792C139.321 20.0764 138.236 21.3351 136.917 22.2552C135.615 23.158 134.287 23.757 132.932 24.0521C131.092 24.4167 128.427 24.599 124.938 24.599H119.912V39H112.203ZM119.912 7.28128V18.1146H124.13C127.169 18.1146 129.2 17.9149 130.224 17.5156C131.248 17.1163 132.047 16.4913 132.62 15.6406C133.21 14.79 133.505 13.8004 133.505 12.6719C133.505 11.283 133.097 10.1372 132.281 9.2344C131.465 8.33162 130.432 7.76739 129.182 7.54169C128.262 7.36808 126.413 7.28128 123.636 7.28128H119.912ZM147.542 39V0.822948H155.25V39H147.542ZM174.208 11.3438H178.271V9.26044C178.271 6.93405 178.514 5.19794 179 4.05211C179.504 2.90628 180.415 1.97746 181.734 1.26566C183.071 0.53649 184.755 0.171906 186.787 0.171906C188.87 0.171906 190.91 0.484406 192.906 1.10941L191.917 6.21357C190.754 5.93579 189.634 5.7969 188.557 5.7969C187.498 5.7969 186.734 6.04864 186.266 6.55211C185.814 7.03822 185.589 7.9844 185.589 9.39065V11.3438H191.057V17.099H185.589V39H178.271V17.099H174.208V11.3438ZM193.479 24.7813C193.479 22.3507 194.078 19.9983 195.276 17.724C196.474 15.4497 198.167 13.7136 200.354 12.5156C202.559 11.3177 205.016 10.7188 207.724 10.7188C211.908 10.7188 215.337 12.0816 218.01 14.8073C220.684 17.5156 222.021 20.9445 222.021 25.0938C222.021 29.2778 220.667 32.75 217.958 35.5104C215.267 38.2535 211.873 39.625 207.776 39.625C205.241 39.625 202.819 39.0521 200.51 37.9063C198.219 36.7604 196.474 35.0851 195.276 32.8802C194.078 30.658 193.479 27.9583 193.479 24.7813ZM200.979 25.1719C200.979 27.9149 201.63 30.0156 202.932 31.474C204.234 32.9323 205.84 33.6615 207.75 33.6615C209.66 33.6615 211.257 32.9323 212.542 31.474C213.844 30.0156 214.495 27.8976 214.495 25.1198C214.495 22.4115 213.844 20.3281 212.542 18.8698C211.257 17.4115 209.66 16.6823 207.75 16.6823C205.84 16.6823 204.234 17.4115 202.932 18.8698C201.63 20.3281 200.979 22.4288 200.979 25.1719ZM234.781 39H227.464V11.3438H234.26V15.2761C235.424 13.4184 236.465 12.1945 237.385 11.6042C238.323 11.0139 239.382 10.7188 240.563 10.7188C242.229 10.7188 243.835 11.1788 245.38 12.099L243.115 18.4792C241.882 17.6806 240.736 17.2813 239.677 17.2813C238.653 17.2813 237.785 17.5677 237.073 18.1406C236.361 18.6962 235.797 19.7118 235.38 21.1875C234.981 22.6632 234.781 25.7535 234.781 30.4583V39ZM260.823 31.1094L268.167 29.9896C268.479 31.4132 269.113 32.4983 270.068 33.2448C271.023 33.974 272.359 34.3385 274.078 34.3385C275.97 34.3385 277.394 33.9913 278.349 33.2969C278.991 32.8108 279.312 32.1597 279.312 31.3438C279.312 30.7882 279.139 30.3281 278.792 29.9635C278.427 29.6163 277.611 29.2951 276.344 29C270.441 27.6979 266.7 26.5087 265.12 25.4323C262.932 23.9392 261.839 21.8646 261.839 19.2083C261.839 16.8125 262.785 14.7986 264.677 13.1667C266.569 11.5347 269.503 10.7188 273.479 10.7188C277.264 10.7188 280.076 11.3351 281.917 12.5677C283.757 13.8004 285.024 15.6233 285.719 18.0365L278.818 19.3125C278.523 18.2361 277.958 17.4115 277.125 16.8386C276.309 16.2656 275.137 15.9792 273.609 15.9792C271.682 15.9792 270.302 16.2483 269.469 16.7865C268.913 17.1684 268.635 17.6632 268.635 18.2709C268.635 18.7917 268.878 19.2344 269.365 19.599C270.024 20.0851 272.299 20.7708 276.187 21.6563C280.094 22.5417 282.819 23.6267 284.365 24.9115C285.892 26.2136 286.656 28.0278 286.656 30.3542C286.656 32.8889 285.597 35.0677 283.479 36.8906C281.361 38.7135 278.227 39.625 274.078 39.625C270.311 39.625 267.325 38.8611 265.12 37.3333C262.932 35.8056 261.5 33.7309 260.823 31.1094ZM311.292 39V34.8594C310.285 36.3351 308.957 37.4983 307.307 38.349C305.675 39.1997 303.948 39.625 302.125 39.625C300.267 39.625 298.601 39.217 297.125 38.401C295.649 37.5851 294.582 36.4392 293.922 34.9635C293.262 33.4879 292.932 31.4479 292.932 28.8438V11.3438H300.25V24.0521C300.25 27.941 300.38 30.3281 300.641 31.2135C300.918 32.0816 301.413 32.776 302.125 33.2969C302.837 33.8004 303.74 34.0521 304.833 34.0521C306.083 34.0521 307.203 33.7135 308.193 33.0365C309.182 32.342 309.859 31.4913 310.224 30.4844C310.588 29.4601 310.771 26.9688 310.771 23.0104V11.3438H318.088V39H311.292ZM325.484 11.3438H332.307V15.4063C333.193 14.0174 334.391 12.8889 335.901 12.0209C337.411 11.1528 339.087 10.7188 340.927 10.7188C344.139 10.7188 346.865 11.9775 349.104 14.4948C351.344 17.0122 352.463 20.5191 352.463 25.0156C352.463 29.6337 351.335 33.2274 349.078 35.7969C346.821 38.349 344.087 39.625 340.875 39.625C339.347 39.625 337.958 39.3212 336.708 38.7135C335.476 38.1059 334.174 37.0642 332.802 35.5885V49.5208H325.484V11.3438ZM332.724 24.7031C332.724 27.8108 333.34 30.1111 334.573 31.6042C335.805 33.0799 337.307 33.8177 339.078 33.8177C340.779 33.8177 342.194 33.1406 343.323 31.7865C344.451 30.4149 345.016 28.1754 345.016 25.0677C345.016 22.1684 344.434 20.0156 343.271 18.6094C342.108 17.2031 340.667 16.5 338.948 16.5C337.16 16.5 335.675 17.1945 334.495 18.5833C333.314 19.9549 332.724 21.9948 332.724 24.7031ZM358.088 11.3438H364.911V15.4063C365.797 14.0174 366.995 12.8889 368.505 12.0209C370.016 11.1528 371.691 10.7188 373.531 10.7188C376.743 10.7188 379.469 11.9775 381.708 14.4948C383.948 17.0122 385.068 20.5191 385.068 25.0156C385.068 29.6337 383.939 33.2274 381.682 35.7969C379.425 38.349 376.691 39.625 373.479 39.625C371.951 39.625 370.562 39.3212 369.312 38.7135C368.08 38.1059 366.778 37.0642 365.406 35.5885V49.5208H358.088V11.3438ZM365.328 24.7031C365.328 27.8108 365.944 30.1111 367.177 31.6042C368.41 33.0799 369.911 33.8177 371.682 33.8177C373.384 33.8177 374.799 33.1406 375.927 31.7865C377.055 30.4149 377.62 28.1754 377.62 25.0677C377.62 22.1684 377.038 20.0156 375.875 18.6094C374.712 17.2031 373.271 16.5 371.552 16.5C369.764 16.5 368.279 17.1945 367.099 18.5833C365.918 19.9549 365.328 21.9948 365.328 24.7031ZM389.208 24.7813C389.208 22.3507 389.807 19.9983 391.005 17.724C392.203 15.4497 393.896 13.7136 396.083 12.5156C398.288 11.3177 400.745 10.7188 403.453 10.7188C407.637 10.7188 411.066 12.0816 413.739 14.8073C416.413 17.5156 417.75 20.9445 417.75 25.0938C417.75 29.2778 416.396 32.75 413.687 35.5104C410.996 38.2535 407.602 39.625 403.505 39.625C400.97 39.625 398.549 39.0521 396.239 37.9063C393.948 36.7604 392.203 35.0851 391.005 32.8802C389.807 30.658 389.208 27.9583 389.208 24.7813ZM396.708 25.1719C396.708 27.9149 397.359 30.0156 398.661 31.474C399.963 32.9323 401.569 33.6615 403.479 33.6615C405.389 33.6615 406.986 32.9323 408.271 31.474C409.573 30.0156 410.224 27.8976 410.224 25.1198C410.224 22.4115 409.573 20.3281 408.271 18.8698C406.986 17.4115 405.389 16.6823 403.479 16.6823C401.569 16.6823 399.963 17.4115 398.661 18.8698C397.359 20.3281 396.708 22.4288 396.708 25.1719ZM430.51 39H423.193V11.3438H429.989V15.2761C431.153 13.4184 432.194 12.1945 433.114 11.6042C434.052 11.0139 435.111 10.7188 436.292 10.7188C437.958 10.7188 439.564 11.1788 441.109 12.099L438.844 18.4792C437.611 17.6806 436.465 17.2813 435.406 17.2813C434.382 17.2813 433.514 17.5677 432.802 18.1406C432.09 18.6962 431.526 19.7118 431.109 21.1875C430.71 22.6632 430.51 25.7535 430.51 30.4583V39ZM456.969 11.3438V17.1771H451.969V28.3229C451.969 30.5799 452.012 31.8993 452.099 32.2813C452.203 32.6458 452.42 32.9497 452.75 33.1927C453.097 33.4358 453.514 33.5573 454 33.5573C454.677 33.5573 455.658 33.3229 456.943 32.8542L457.568 38.5313C455.866 39.2604 453.939 39.625 451.786 39.625C450.467 39.625 449.278 39.408 448.219 38.974C447.16 38.5226 446.378 37.9497 445.875 37.2552C445.389 36.5434 445.05 35.5885 444.859 34.3906C444.703 33.5399 444.625 31.8212 444.625 29.2344V17.1771H441.265V11.3438H444.625V5.84899L451.969 1.57816V11.3438H456.969ZM7.82833 80.7813L1.18771 79.5833C1.93424 76.9097 3.21896 74.9306 5.04188 73.6459C6.86479 72.3611 9.57312 71.7188 13.1669 71.7188C16.4308 71.7188 18.8613 72.1094 20.4585 72.8906C22.0558 73.6545 23.1755 74.6354 23.8179 75.8334C24.4776 77.0139 24.8075 79.1927 24.8075 82.3698L24.7294 90.9115C24.7294 93.342 24.8422 95.1389 25.0679 96.3021C25.311 97.4479 25.7537 98.6806 26.396 100H19.1564C18.9655 99.5139 18.7311 98.7934 18.4533 97.8385C18.3318 97.4045 18.245 97.1181 18.1929 96.9792C16.9429 98.1944 15.6061 99.1059 14.1825 99.7135C12.7589 100.321 11.2398 100.625 9.6252 100.625C6.77798 100.625 4.52972 99.8524 2.88042 98.3073C1.24848 96.7622 0.432504 94.809 0.432504 92.4479C0.432504 90.8854 0.805767 89.4965 1.55229 88.2813C2.29882 87.0486 3.34049 86.1111 4.67729 85.4688C6.03146 84.809 7.9759 84.2361 10.5106 83.75C13.9308 83.1077 16.3005 82.5087 17.62 81.9531V81.224C17.62 79.8177 17.2728 78.8195 16.5783 78.2292C15.8839 77.6215 14.5731 77.3177 12.646 77.3177C11.344 77.3177 10.3283 77.5781 9.59916 78.099C8.87 78.6024 8.27972 79.4965 7.82833 80.7813ZM17.62 86.7188C16.6825 87.0313 15.1981 87.4045 13.1669 87.8386C11.1356 88.2726 9.8075 88.6979 9.1825 89.1146C8.22764 89.7917 7.75021 90.651 7.75021 91.6927C7.75021 92.717 8.13215 93.6024 8.89604 94.349C9.65993 95.0955 10.6321 95.4688 11.8127 95.4688C13.1321 95.4688 14.3908 95.0347 15.5887 94.1667C16.4742 93.5069 17.0558 92.6997 17.3335 91.7448C17.5245 91.1198 17.62 89.9306 17.62 88.1771V86.7188ZM57.4116 100H50.6148V95.9375C49.4863 97.5174 48.1495 98.6979 46.6043 99.4792C45.0766 100.243 43.5314 100.625 41.9689 100.625C38.7918 100.625 36.0662 99.349 33.7919 96.7969C31.5349 94.2274 30.4064 90.651 30.4064 86.0677C30.4064 81.3802 31.5089 77.8212 33.7137 75.3906C35.9186 72.9427 38.705 71.7188 42.0731 71.7188C45.1634 71.7188 47.837 73.0035 50.0939 75.5729V61.8229H57.4116V100ZM37.8804 85.5729C37.8804 88.5243 38.2884 90.6597 39.1043 91.9792C40.2849 93.8889 41.9342 94.8438 44.0523 94.8438C45.7363 94.8438 47.1686 94.1319 48.3491 92.7083C49.5297 91.2674 50.12 89.1233 50.12 86.2761C50.12 83.099 49.547 80.816 48.4012 79.4271C47.2554 78.0209 45.7884 77.3177 44.0002 77.3177C42.2641 77.3177 40.8057 78.0122 39.6252 79.4011C38.462 80.7726 37.8804 82.8299 37.8804 85.5729ZM90.0158 100H83.2189V95.9375C82.0904 97.5174 80.7536 98.6979 79.2085 99.4792C77.6807 100.243 76.1356 100.625 74.5731 100.625C71.396 100.625 68.6703 99.349 66.396 96.7969C64.1391 94.2274 63.0106 90.651 63.0106 86.0677C63.0106 81.3802 64.113 77.8212 66.3179 75.3906C68.5227 72.9427 71.3092 71.7188 74.6772 71.7188C77.7675 71.7188 80.4411 73.0035 82.6981 75.5729V61.8229H90.0158V100ZM70.4845 85.5729C70.4845 88.5243 70.8925 90.6597 71.7085 91.9792C72.889 93.8889 74.5383 94.8438 76.6564 94.8438C78.3404 94.8438 79.7727 94.1319 80.9533 92.7083C82.1338 91.2674 82.7241 89.1233 82.7241 86.2761C82.7241 83.099 82.1512 80.816 81.0054 79.4271C79.8595 78.0209 78.3925 77.3177 76.6043 77.3177C74.8682 77.3177 73.4099 78.0122 72.2293 79.4011C71.0661 80.7726 70.4845 82.8299 70.4845 85.5729ZM97.2553 68.5938V61.8229H104.573V68.5938H97.2553ZM97.2553 100V72.3438H104.573V100H97.2553ZM124.781 72.3438V78.1771H119.781V89.3229C119.781 91.5799 119.825 92.8993 119.912 93.2813C120.016 93.6458 120.233 93.9497 120.563 94.1927C120.91 94.4358 121.327 94.5573 121.813 94.5573C122.49 94.5573 123.471 94.3229 124.755 93.8542L125.38 99.5313C123.679 100.26 121.752 100.625 119.599 100.625C118.28 100.625 117.09 100.408 116.031 99.974C114.972 99.5226 114.191 98.9497 113.688 98.2552C113.202 97.5434 112.863 96.5885 112.672 95.3906C112.516 94.5399 112.438 92.8212 112.438 90.2344V78.1771H109.078V72.3438H112.438V66.849L119.781 62.5782V72.3438H124.781ZM129.859 68.5938V61.8229H137.177V68.5938H129.859ZM129.859 100V72.3438H137.177V100H129.859ZM143.011 85.7813C143.011 83.3507 143.609 80.9983 144.807 78.724C146.005 76.4497 147.698 74.7136 149.886 73.5156C152.09 72.3177 154.547 71.7188 157.255 71.7188C161.439 71.7188 164.868 73.0816 167.542 75.8073C170.215 78.5156 171.552 81.9445 171.552 86.0938C171.552 90.2778 170.198 93.75 167.49 96.5104C164.799 99.2535 161.405 100.625 157.307 100.625C154.773 100.625 152.351 100.052 150.042 98.9063C147.75 97.7604 146.005 96.0851 144.807 93.8802C143.609 91.658 143.011 88.9583 143.011 85.7813ZM150.511 86.1719C150.511 88.9149 151.162 91.0156 152.464 92.474C153.766 93.9323 155.372 94.6615 157.281 94.6615C159.191 94.6615 160.788 93.9323 162.073 92.474C163.375 91.0156 164.026 88.8976 164.026 86.1198C164.026 83.4115 163.375 81.3281 162.073 79.8698C160.788 78.4115 159.191 77.6823 157.281 77.6823C155.372 77.6823 153.766 78.4115 152.464 79.8698C151.162 81.3281 150.511 83.4288 150.511 86.1719ZM202.464 100H195.146V85.8854C195.146 82.8993 194.99 80.9722 194.677 80.1042C194.365 79.2188 193.852 78.533 193.141 78.0469C192.446 77.5608 191.604 77.3177 190.615 77.3177C189.347 77.3177 188.21 77.6649 187.203 78.3594C186.196 79.0538 185.502 79.974 185.12 81.1198C184.755 82.2656 184.573 84.3837 184.573 87.474V100H177.255V72.3438H184.052V76.4063C186.465 73.2813 189.504 71.7188 193.167 71.7188C194.781 71.7188 196.257 72.0139 197.594 72.6042C198.931 73.1771 199.938 73.915 200.615 74.8177C201.309 75.7205 201.787 76.7448 202.047 77.8906C202.325 79.0365 202.464 80.6771 202.464 82.8125V100ZM215.38 80.7813L208.74 79.5833C209.486 76.9097 210.771 74.9306 212.594 73.6459C214.417 72.3611 217.125 71.7188 220.719 71.7188C223.983 71.7188 226.413 72.1094 228.01 72.8906C229.608 73.6545 230.727 74.6354 231.37 75.8334C232.03 77.0139 232.359 79.1927 232.359 82.3698L232.281 90.9115C232.281 93.342 232.394 95.1389 232.62 96.3021C232.863 97.4479 233.306 98.6806 233.948 100H226.708C226.517 99.5139 226.283 98.7934 226.005 97.8385C225.884 97.4045 225.797 97.1181 225.745 96.9792C224.495 98.1944 223.158 99.1059 221.734 99.7135C220.311 100.321 218.792 100.625 217.177 100.625C214.33 100.625 212.082 99.8524 210.432 98.3073C208.8 96.7622 207.984 94.809 207.984 92.4479C207.984 90.8854 208.358 89.4965 209.104 88.2813C209.851 87.0486 210.892 86.1111 212.229 85.4688C213.583 84.809 215.528 84.2361 218.063 83.75C221.483 83.1077 223.852 82.5087 225.172 81.9531V81.224C225.172 79.8177 224.825 78.8195 224.13 78.2292C223.436 77.6215 222.125 77.3177 220.198 77.3177C218.896 77.3177 217.88 77.5781 217.151 78.099C216.422 78.6024 215.832 79.4965 215.38 80.7813ZM225.172 86.7188C224.234 87.0313 222.75 87.4045 220.719 87.8386C218.688 88.2726 217.359 88.6979 216.734 89.1146C215.78 89.7917 215.302 90.651 215.302 91.6927C215.302 92.717 215.684 93.6024 216.448 94.349C217.212 95.0955 218.184 95.4688 219.365 95.4688C220.684 95.4688 221.943 95.0347 223.141 94.1667C224.026 93.5069 224.608 92.6997 224.885 91.7448C225.076 91.1198 225.172 89.9306 225.172 88.1771V86.7188ZM239.599 100V61.8229H246.917V100H239.599ZM269.286 100V61.8229H276.604V100H269.286ZM289.599 80.7813L282.958 79.5833C283.705 76.9097 284.99 74.9306 286.812 73.6459C288.635 72.3611 291.344 71.7188 294.937 71.7188C298.201 71.7188 300.632 72.1094 302.229 72.8906C303.826 73.6545 304.946 74.6354 305.589 75.8334C306.248 77.0139 306.578 79.1927 306.578 82.3698L306.5 90.9115C306.5 93.342 306.613 95.1389 306.838 96.3021C307.082 97.4479 307.524 98.6806 308.167 100H300.927C300.736 99.5139 300.502 98.7934 300.224 97.8385C300.102 97.4045 300.016 97.1181 299.964 96.9792C298.714 98.1944 297.377 99.1059 295.953 99.7135C294.529 100.321 293.01 100.625 291.396 100.625C288.549 100.625 286.3 99.8524 284.651 98.3073C283.019 96.7622 282.203 94.809 282.203 92.4479C282.203 90.8854 282.576 89.4965 283.323 88.2813C284.069 87.0486 285.111 86.1111 286.448 85.4688C287.802 84.809 289.746 84.2361 292.281 83.75C295.701 83.1077 298.071 82.5087 299.391 81.9531V81.224C299.391 79.8177 299.043 78.8195 298.349 78.2292C297.654 77.6215 296.344 77.3177 294.417 77.3177C293.115 77.3177 292.099 77.5781 291.37 78.099C290.641 78.6024 290.05 79.4965 289.599 80.7813ZM299.391 86.7188C298.453 87.0313 296.969 87.4045 294.937 87.8386C292.906 88.2726 291.578 88.6979 290.953 89.1146C289.998 89.7917 289.521 90.651 289.521 91.6927C289.521 92.717 289.903 93.6024 290.667 94.349C291.431 95.0955 292.403 95.4688 293.583 95.4688C294.903 95.4688 296.161 95.0347 297.359 94.1667C298.245 93.5069 298.826 92.6997 299.104 91.7448C299.295 91.1198 299.391 89.9306 299.391 88.1771V86.7188ZM338.974 100H331.656V85.8854C331.656 82.8993 331.5 80.9722 331.187 80.1042C330.875 79.2188 330.363 78.533 329.651 78.0469C328.957 77.5608 328.115 77.3177 327.125 77.3177C325.858 77.3177 324.72 77.6649 323.713 78.3594C322.707 79.0538 322.012 79.974 321.63 81.1198C321.266 82.2656 321.083 84.3837 321.083 87.474V100H313.766V72.3438H320.562V76.4063C322.976 73.2813 326.014 71.7188 329.677 71.7188C331.292 71.7188 332.767 72.0139 334.104 72.6042C335.441 73.1771 336.448 73.915 337.125 74.8177C337.819 75.7205 338.297 76.7448 338.557 77.8906C338.835 79.0365 338.974 80.6771 338.974 82.8125V100ZM345.745 101.823L354.104 102.839C354.243 103.811 354.564 104.479 355.068 104.844C355.762 105.365 356.856 105.625 358.349 105.625C360.259 105.625 361.691 105.339 362.646 104.766C363.288 104.384 363.774 103.767 364.104 102.917C364.33 102.309 364.443 101.189 364.443 99.5573V95.5208C362.255 98.5069 359.495 100 356.161 100C352.446 100 349.503 98.4288 347.333 95.2865C345.632 92.8038 344.781 89.7136 344.781 86.0156C344.781 81.3802 345.892 77.8386 348.115 75.3906C350.354 72.9427 353.132 71.7188 356.448 71.7188C359.868 71.7188 362.689 73.2205 364.911 76.224V72.3438H371.76V97.1615C371.76 100.425 371.491 102.865 370.953 104.479C370.415 106.094 369.66 107.361 368.687 108.281C367.715 109.201 366.413 109.922 364.781 110.443C363.167 110.964 361.118 111.224 358.635 111.224C353.948 111.224 350.623 110.417 348.661 108.802C346.7 107.205 345.719 105.174 345.719 102.708C345.719 102.465 345.727 102.17 345.745 101.823ZM352.281 85.599C352.281 88.533 352.845 90.6858 353.974 92.0573C355.12 93.4115 356.526 94.0885 358.193 94.0885C359.981 94.0885 361.491 93.3941 362.724 92.0052C363.957 90.599 364.573 88.5243 364.573 85.7813C364.573 82.9167 363.983 80.7899 362.802 79.4011C361.621 78.0122 360.128 77.3177 358.323 77.3177C356.569 77.3177 355.12 78.0035 353.974 79.375C352.845 80.7292 352.281 82.8038 352.281 85.599ZM397.229 100V95.8594C396.222 97.3351 394.894 98.4983 393.245 99.349C391.613 100.2 389.885 100.625 388.062 100.625C386.205 100.625 384.538 100.217 383.062 99.401C381.587 98.5851 380.519 97.4392 379.859 95.9635C379.2 94.4879 378.87 92.4479 378.87 89.8438V72.3438H386.187V85.0521C386.187 88.941 386.318 91.3281 386.578 92.2135C386.856 93.0816 387.351 93.776 388.062 94.2969C388.774 94.8004 389.677 95.0521 390.771 95.0521C392.021 95.0521 393.141 94.7135 394.13 94.0365C395.12 93.342 395.797 92.4913 396.161 91.4844C396.526 90.4601 396.708 87.9688 396.708 84.0104V72.3438H404.026V100H397.229ZM417.099 80.7813L410.458 79.5833C411.205 76.9097 412.489 74.9306 414.312 73.6459C416.135 72.3611 418.844 71.7188 422.437 71.7188C425.701 71.7188 428.132 72.1094 429.729 72.8906C431.326 73.6545 432.446 74.6354 433.088 75.8334C433.748 77.0139 434.078 79.1927 434.078 82.3698L434 90.9115C434 93.342 434.113 95.1389 434.338 96.3021C434.581 97.4479 435.024 98.6806 435.667 100H428.427C428.236 99.5139 428.002 98.7934 427.724 97.8385C427.602 97.4045 427.515 97.1181 427.463 96.9792C426.213 98.1944 424.877 99.1059 423.453 99.7135C422.029 100.321 420.51 100.625 418.896 100.625C416.048 100.625 413.8 99.8524 412.151 98.3073C410.519 96.7622 409.703 94.809 409.703 92.4479C409.703 90.8854 410.076 89.4965 410.823 88.2813C411.569 87.0486 412.611 86.1111 413.948 85.4688C415.302 84.809 417.246 84.2361 419.781 83.75C423.201 83.1077 425.571 82.5087 426.89 81.9531V81.224C426.89 79.8177 426.543 78.8195 425.849 78.2292C425.154 77.6215 423.844 77.3177 421.917 77.3177C420.614 77.3177 419.599 77.5781 418.87 78.099C418.141 78.6024 417.55 79.4965 417.099 80.7813ZM426.89 86.7188C425.953 87.0313 424.469 87.4045 422.437 87.8386C420.406 88.2726 419.078 88.6979 418.453 89.1146C417.498 89.7917 417.021 90.651 417.021 91.6927C417.021 92.717 417.403 93.6024 418.167 94.349C418.93 95.0955 419.903 95.4688 421.083 95.4688C422.403 95.4688 423.661 95.0347 424.859 94.1667C425.745 93.5069 426.326 92.6997 426.604 91.7448C426.795 91.1198 426.89 89.9306 426.89 88.1771V86.7188ZM440.64 101.823L449 102.839C449.139 103.811 449.46 104.479 449.963 104.844C450.658 105.365 451.752 105.625 453.245 105.625C455.154 105.625 456.587 105.339 457.542 104.766C458.184 104.384 458.67 103.767 459 102.917C459.226 102.309 459.338 101.189 459.338 99.5573V95.5208C457.151 98.5069 454.39 100 451.057 100C447.342 100 444.399 98.4288 442.229 95.2865C440.528 92.8038 439.677 89.7136 439.677 86.0156C439.677 81.3802 440.788 77.8386 443.01 75.3906C445.25 72.9427 448.028 71.7188 451.344 71.7188C454.764 71.7188 457.585 73.2205 459.807 76.224V72.3438H466.656V97.1615C466.656 100.425 466.387 102.865 465.849 104.479C465.311 106.094 464.555 107.361 463.583 108.281C462.611 109.201 461.309 109.922 459.677 110.443C458.062 110.964 456.014 111.224 453.531 111.224C448.844 111.224 445.519 110.417 443.557 108.802C441.595 107.205 440.614 105.174 440.614 102.708C440.614 102.465 440.623 102.17 440.64 101.823ZM447.177 85.599C447.177 88.533 447.741 90.6858 448.87 92.0573C450.015 93.4115 451.422 94.0885 453.088 94.0885C454.877 94.0885 456.387 93.3941 457.62 92.0052C458.852 90.599 459.469 88.5243 459.469 85.7813C459.469 82.9167 458.878 80.7899 457.698 79.4011C456.517 78.0122 455.024 77.3177 453.219 77.3177C451.465 77.3177 450.015 78.0035 448.87 79.375C447.741 80.7292 447.177 82.8038 447.177 85.599ZM489.937 91.1979L497.229 92.4219C496.291 95.0955 494.807 97.1354 492.776 98.5417C490.762 99.9306 488.236 100.625 485.198 100.625C480.389 100.625 476.83 99.0538 474.521 95.9115C472.698 93.3941 471.786 90.217 471.786 86.3802C471.786 81.7969 472.984 78.2118 475.38 75.625C477.776 73.0209 480.805 71.7188 484.469 71.7188C488.583 71.7188 491.83 73.0816 494.208 75.8073C496.587 78.5156 497.724 82.6736 497.62 88.2813H479.286C479.338 90.4514 479.929 92.1441 481.057 93.3594C482.186 94.5573 483.592 95.1563 485.276 95.1563C486.422 95.1563 487.385 94.8438 488.166 94.2188C488.948 93.5938 489.538 92.5868 489.937 91.1979ZM490.354 83.8021C490.302 81.684 489.755 80.0781 488.713 78.9844C487.672 77.8733 486.404 77.3177 484.911 77.3177C483.314 77.3177 481.995 77.8993 480.953 79.0625C479.911 80.2257 479.399 81.8056 479.417 83.8021H490.354ZM501.031 92.1094L508.375 90.9896C508.687 92.4132 509.321 93.4983 510.276 94.2448C511.231 94.974 512.568 95.3385 514.286 95.3385C516.179 95.3385 517.602 94.9913 518.557 94.2969C519.199 93.8108 519.521 93.1597 519.521 92.3438C519.521 91.7882 519.347 91.3281 519 90.9635C518.635 90.6163 517.819 90.2951 516.552 90C510.649 88.6979 506.908 87.5087 505.328 86.4323C503.14 84.9392 502.047 82.8646 502.047 80.2083C502.047 77.8125 502.993 75.7986 504.885 74.1667C506.778 72.5347 509.712 71.7188 513.687 71.7188C517.472 71.7188 520.285 72.3351 522.125 73.5677C523.965 74.8004 525.232 76.6233 525.927 79.0365L519.026 80.3125C518.731 79.2361 518.166 78.4115 517.333 77.8386C516.517 77.2656 515.345 76.9792 513.818 76.9792C511.89 76.9792 510.51 77.2483 509.677 77.7865C509.121 78.1684 508.844 78.6632 508.844 79.2709C508.844 79.7917 509.087 80.2344 509.573 80.599C510.232 81.0851 512.507 81.7708 516.396 82.6563C520.302 83.5417 523.028 84.6267 524.573 85.9115C526.1 87.2136 526.864 89.0278 526.864 91.3542C526.864 93.8889 525.805 96.0677 523.687 97.8906C521.569 99.7135 518.436 100.625 514.286 100.625C510.519 100.625 507.533 99.8611 505.328 98.3333C503.14 96.8056 501.708 94.7309 501.031 92.1094Z" fill="white"/>
</svg>
