<svg width="317" height="40" viewBox="0 0 317 40" fill="none" xmlns="http://www.w3.org/2000/svg">
<path d="M39.9166 39V1.42191H30.8021L20.125 28.0625H19.9166L9.23957 1.42191H0.124997V39H7.1302V13.6354H7.33853L17.5469 38.6354H22.4948L32.7031 13.6354H32.9114V39H39.9166ZM55.6718 33.9479C53.0937 33.9479 51.375 32.6458 51.375 30.5625C51.375 28.5833 52.9895 27.3073 55.8281 27.099L61.7135 26.7344V28.7656C61.7135 31.7865 58.9791 33.9479 55.6718 33.9479ZM53.1718 39.4427C56.6614 39.4427 60.1249 37.6979 61.6874 34.7292H61.8437V39H69.1874V19.8073C69.1874 14.1823 64.526 10.4844 57.3645 10.4844C49.9687 10.4844 45.3593 14.2084 45.0729 19.625H52.026C52.3906 17.5677 54.1875 16.1615 57.026 16.1615C59.8906 16.1615 61.7135 17.6719 61.7135 20.2761V22.125L54.6822 22.5417C47.7291 22.9583 43.8229 25.9011 43.8229 30.9792C43.8229 36.0052 47.8593 39.4427 53.1718 39.4427ZM99.4739 21.474C99.1353 15.1459 94.3437 10.4844 86.7916 10.4844C78.4322 10.4844 73.0937 16.0573 73.0937 25.0156C73.0937 34.1302 78.4322 39.599 86.8437 39.599C94.1874 39.599 99.1093 35.3542 99.4999 28.7656H92.4166C91.9478 31.8125 89.9687 33.6354 86.9218 33.6354C83.1458 33.6354 80.802 30.5104 80.802 25.0156C80.802 19.625 83.1458 16.4479 86.8958 16.4479C90.0208 16.4479 91.9739 18.5313 92.4166 21.474H99.4739ZM120.776 0.770864C109.63 0.770864 102.651 8.24482 102.651 20.224C102.651 32.1771 109.63 39.651 120.776 39.651C131.896 39.651 138.901 32.1771 138.901 20.224C138.901 8.24482 131.896 0.770864 120.776 0.770864ZM120.776 7.33336C126.922 7.33336 130.854 12.3334 130.854 20.224C130.854 28.0886 126.922 33.0625 120.776 33.0625C114.604 33.0625 110.672 28.0886 110.672 20.224C110.672 12.3334 114.63 7.33336 120.776 7.33336ZM142.573 28.2969C142.807 35.3542 148.562 39.651 157.599 39.651C166.922 39.651 172.833 35.0417 172.833 27.75C172.833 22.0208 169.552 18.7917 162.026 17.1771L157.469 16.2136C153.146 15.224 151.323 13.9219 151.323 11.6042C151.323 8.81773 153.927 6.96878 157.807 6.96878C161.739 6.96878 164.526 8.89586 164.786 12.0729H172.156C172.026 5.27607 166.531 0.770864 157.781 0.770864C149.396 0.770864 143.406 5.35419 143.406 12.2813C143.406 17.7761 146.818 21.2917 153.745 22.7761L158.64 23.8438C163.172 24.8594 164.969 26.2136 164.969 28.6615C164.969 31.4219 162.104 33.4271 157.911 33.4271C153.745 33.4271 150.516 31.3958 150.151 28.2969H142.573ZM174.89 39H183.38L191.661 25.849H191.87L200.099 39H209.057L196.922 20.3021V20.1198L209.213 1.42191H200.437L192.39 14.9636H192.182L184.213 1.42191H174.969L186.818 19.9636V20.1719L174.89 39ZM234.864 29.3125L240.177 39H248.432L239.786 24.8854L248.51 11.0834H240.229L235.281 20.5104H235.125L230.099 11.0834H221.531L230.229 25.0938L221.479 39H229.474L234.708 29.3125H234.864ZM266.896 39.8594C275.307 39.8594 281.323 34.3125 281.323 26.5781C281.323 19.4427 276.036 14.1823 268.901 14.1823C264.109 14.1823 260.411 16.6302 258.901 20.3021H258.745C258.562 11.8125 261.739 6.78648 266.974 6.78648C269.916 6.78648 272.338 8.45315 273.094 10.9531H280.828C279.786 4.80732 274.187 0.562531 267.026 0.562531C257.312 0.562531 251.271 8.06253 251.271 20.5104C251.271 25.5104 252.338 29.7552 254.422 32.9323C257.052 37.4115 261.505 39.8594 266.896 39.8594ZM266.817 33.5833C262.963 33.5833 259.969 30.5625 259.969 26.7344C259.969 22.9323 262.937 20.0938 266.844 20.0938C270.776 20.0938 273.666 22.9323 273.666 26.8125C273.666 30.5885 270.646 33.5833 266.817 33.5833ZM303.979 39H311.453V32.3073H316.349V26.0052H311.453V1.42191H300.359C292.651 12.7761 288.562 19.3646 285.281 25.6146V32.3073H303.979V39ZM292.182 26.0313C295.229 20.1458 298.51 15.0156 303.979 6.99482H304.135V26.2396H292.182V26.0313Z" fill="white"/>
</svg>
