<svg width="1366" height="1366" viewBox="0 0 1366 1366" fill="none" xmlns="http://www.w3.org/2000/svg">
<g clip-path="url(#clip0_271_2593)">
<path fill-rule="evenodd" clip-rule="evenodd" d="M1365.33 1365.33H0V0H1365.33V1365.33Z" fill="#EE2622"/>
<path fill-rule="evenodd" clip-rule="evenodd" d="M792.123 532.407C767.489 531.844 747.856 552.513 747.531 575.757C747.195 599.897 766.889 619.28 788.956 620.512C815.445 621.991 835.728 600.337 835.739 577.079C835.751 552.448 816.929 532.857 792.123 532.407ZM704.9 554.155C704.9 483.263 704.9 412.371 704.901 341.479C704.901 335.401 704.984 335.319 711.233 335.319C733.257 335.316 755.287 335.02 777.305 335.376C831.035 336.249 875.959 374.52 885.783 425.959C887.341 434.119 888.109 442.553 888.131 450.864C888.312 520.653 888.248 590.444 888.227 660.235C888.211 708.225 859.073 750.371 814.372 766.929C801.949 771.532 789.001 773.737 775.773 773.831C754.576 773.979 733.376 773.871 712.177 773.869C704.9 773.869 704.9 773.867 704.9 766.417C704.9 695.663 704.9 624.909 704.9 554.155Z" fill="white"/>
<path fill-rule="evenodd" clip-rule="evenodd" d="M625.305 738.093C625.305 615.58 625.305 493.312 625.305 370.805C623.521 370.805 622.024 370.805 620.527 370.805C602.081 370.807 583.633 370.672 565.189 370.883C559.049 370.952 552.837 371.444 546.801 372.536C512.205 378.788 485.161 411.284 485.143 446.465C485.105 518.736 484.92 591.007 485.26 663.276C485.361 684.852 494.263 703.145 510.088 717.871C525.284 732.009 543.581 738.236 564.116 738.317C583.251 738.396 602.385 738.339 621.52 738.325C622.724 738.324 623.927 738.183 625.305 738.093ZM661.112 554.629C661.112 625.68 661.112 696.732 661.111 767.784C661.111 773.328 660.527 773.901 654.981 773.9C624.825 773.889 594.671 773.876 564.516 773.871C533.667 773.865 506.653 763.752 484.237 742.492C467.581 726.695 456.831 707.291 452.164 684.751C450.809 678.204 449.737 671.455 449.721 664.796C449.553 591.404 448.603 517.992 449.992 444.627C450.864 398.636 474.451 365.371 515.956 345.341C531.247 337.963 547.685 335.253 564.635 335.295C594.651 335.368 624.669 335.305 654.688 335.3C660.904 335.299 661.112 335.509 661.112 341.888C661.112 412.803 661.112 483.716 661.112 554.629Z" fill="white"/>
<path fill-rule="evenodd" clip-rule="evenodd" d="M448.68 922.835C455.836 922.835 462.565 922.72 469.279 922.972C470.169 923.004 471.459 924.76 471.775 925.932C478.021 949.14 484.151 972.38 490.617 996.793C491.759 993.369 492.652 990.956 493.372 988.492C499.427 967.797 505.527 947.113 511.393 926.364C512.191 923.548 513.263 922.551 516.123 922.756C519.547 923.005 523.023 923.053 526.437 922.756C529.751 922.469 531.257 923.659 532.177 926.869C538.413 948.672 544.825 970.424 551.185 992.191C551.56 993.473 551.987 994.744 552.711 997.036C554.295 991.427 555.673 986.776 556.917 982.088C561.931 963.213 566.869 944.32 571.976 925.472C572.263 924.419 573.801 922.996 574.797 922.963C581.38 922.737 587.973 922.847 595.197 922.847C593.88 927.763 592.724 932.307 591.44 936.816C583.26 965.572 575.019 994.308 566.915 1023.08C566.144 1025.82 564.931 1026.78 562.107 1026.67C556.333 1026.46 550.541 1026.47 544.767 1026.66C541.804 1026.76 540.437 1025.79 539.625 1022.84C534.007 1002.42 528.2 982.044 522.453 961.656C522.311 961.151 522.156 960.652 521.703 959.133C519.807 965.644 518.14 971.24 516.551 976.855C512.195 992.232 507.809 1007.6 503.596 1023.02C502.852 1025.74 501.735 1026.8 498.808 1026.68C492.761 1026.43 486.697 1026.58 480.64 1026.62C478.723 1026.63 477.471 1026.45 476.797 1024.05C467.579 991.192 458.208 958.375 448.896 925.541C448.716 924.907 448.78 924.201 448.68 922.835Z" fill="white"/>
<path fill-rule="evenodd" clip-rule="evenodd" d="M918.541 922.828C918.541 935.273 918.653 947.085 918.473 958.892C918.419 962.472 919.14 963.961 923.193 963.872C935.993 963.593 948.805 963.612 961.605 963.86C965.723 963.939 966.731 962.497 966.636 958.635C966.38 948.176 966.484 937.709 966.472 927.248C966.471 925.901 966.621 924.556 966.712 923.023C973.755 923.023 980.593 923.023 987.824 923.023C987.824 957.337 987.824 991.643 987.824 1026.3C980.867 1026.3 973.925 1026.3 966.544 1026.3C966.544 1012.86 966.544 999.444 966.544 985.724C950.508 985.724 934.901 985.724 918.805 985.724C918.805 999.065 918.805 1012.46 918.805 1026.48C911.688 1026.48 905.027 1026.59 898.381 1026.31C897.765 1026.28 896.773 1023.81 896.763 1022.47C896.651 1007.05 896.695 991.631 896.696 976.208C896.697 959.687 896.753 943.163 896.64 926.64C896.623 923.851 897.315 922.683 900.295 922.773C906.177 922.956 912.071 922.828 918.541 922.828Z" fill="white"/>
<path fill-rule="evenodd" clip-rule="evenodd" d="M341.333 1017.9C344.443 1012.3 347.604 1006.61 350.612 1001.2C357.603 1003.6 364.057 1006.28 370.755 1008.03C382.071 1010.98 393.536 1011.22 404.867 1007.81C406.923 1007.19 409.043 1006.27 410.711 1004.96C417.781 999.379 416.843 991.309 408.36 988.4C401.164 985.931 393.567 984.532 386.067 983.073C374.661 980.855 363.088 979.187 353.071 972.735C339.836 964.211 338.244 946.035 349.663 935.181C360.724 924.668 374.419 921.74 389.069 921.647C401.965 921.565 414.295 924.536 426.409 928.636C427.023 928.844 427.536 929.348 428.305 929.851C425.889 935.728 423.515 941.507 421.261 946.988C413.599 945.007 406.336 942.459 398.86 941.368C389.649 940.028 380.237 939.608 371.243 943.208C367.628 944.655 364.649 946.771 364.505 951.12C364.357 955.631 367.469 958.025 371.107 959.013C379.371 961.261 387.855 962.7 396.128 964.916C404.423 967.135 412.784 969.369 420.736 972.552C430.849 976.597 436.847 984.176 436.805 995.629C436.763 1007.24 432.248 1016.29 421.881 1022.12C413.421 1026.89 404.097 1028.36 394.689 1029.07C376.997 1030.41 360.059 1027.1 343.923 1019.72C343.305 1019.44 342.709 1019.1 342.131 1018.74C341.907 1018.61 341.752 1018.35 341.333 1017.9Z" fill="white"/>
<path fill-rule="evenodd" clip-rule="evenodd" d="M873.344 944.273C867.753 949.133 862.372 953.811 856.659 958.779C849.82 948.408 840.268 942.813 828.1 942.773C819.319 942.744 811.495 945.931 805.148 952.323C792.353 965.205 792.203 984.193 805.147 997.212C812.633 1004.74 821.879 1008.01 832.509 1006.54C842.828 1005.12 850.748 999.697 856.636 990.859C862.349 995.805 867.735 1000.47 873.085 1005.1C865.227 1020.68 842.508 1032.16 822.352 1029.83C793.479 1026.49 775.147 1004.69 772.791 981.075C770.079 953.909 785.941 929.957 810.989 922.136C834.396 914.825 861.68 924.38 873.344 944.273Z" fill="white"/>
<path fill-rule="evenodd" clip-rule="evenodd" d="M724.519 1026.4C716.611 1026.4 709.511 1026.4 701.924 1026.4C701.924 999.335 701.924 972.455 701.924 945.073C690.677 945.073 679.901 945.073 668.953 945.073C668.953 937.493 668.953 930.423 668.953 923.079C698.072 923.079 726.912 923.079 756.216 923.079C756.216 930.224 756.216 937.392 756.216 944.924C745.852 944.924 735.453 944.924 724.519 944.924C724.519 972.14 724.519 999.011 724.519 1026.4Z" fill="white"/>
<path fill-rule="evenodd" clip-rule="evenodd" d="M643.424 1026.61C637.193 1026.61 631.039 1026.62 624.887 1026.6C623.675 1026.59 622.461 1026.48 620.945 1026.4C620.945 991.936 620.945 957.659 620.945 923.101C628.359 923.101 635.721 923.101 643.424 923.101C643.424 957.409 643.424 991.8 643.424 1026.61Z" fill="white"/>
<path fill-rule="evenodd" clip-rule="evenodd" d="M962.609 850.827C953.284 850.928 946.035 858.559 946.111 868.192C946.184 877.328 953.875 884.805 963.093 884.697C972.111 884.595 979.951 876.648 979.844 867.721C979.735 858.479 971.825 850.727 962.609 850.827ZM933.755 867.713C932.94 853.161 945.644 838.333 962.855 838.471C979.077 838.597 992.12 850.851 992.097 867.787C992.073 885.629 977.924 897.037 962.781 897.067C946.527 897.097 933.752 884.107 933.755 867.713Z" fill="white"/>
<path fill-rule="evenodd" clip-rule="evenodd" d="M790.013 875.737C790.013 863.327 790.013 852.073 790.013 840.207C793.311 840.207 796.448 839.944 799.481 840.38C800.305 840.5 801.384 842.727 801.397 843.996C801.533 858.027 801.484 872.056 801.484 886.087C801.484 888.961 801.484 891.836 801.484 895.364C797.976 895.364 794.727 895.573 791.528 895.248C790.464 895.139 789.34 893.816 788.576 892.799C780.445 881.959 772.383 871.068 763.549 859.183C763.549 871.856 763.549 883.399 763.549 895.151C759.491 895.151 755.989 895.151 752.239 895.151C752.239 876.972 752.239 858.888 752.239 840.197C755.547 840.197 758.805 840.033 762.029 840.299C762.995 840.377 764.055 841.507 764.74 842.408C772.12 852.12 779.429 861.885 786.768 871.631C787.58 872.709 788.44 873.751 790.013 875.737Z" fill="white"/>
<path fill-rule="evenodd" clip-rule="evenodd" d="M489.463 840.228C493.085 840.228 496.251 839.941 499.317 840.361C500.664 840.544 502.091 841.955 503.013 843.164C510.493 852.992 517.861 862.905 525.269 872.789C525.721 873.392 526.213 873.963 527.467 875.511C527.467 865.501 527.467 856.643 527.467 847.787C527.467 840.136 527.467 840.136 535.037 840.16C536.115 840.164 537.192 840.161 538.551 840.161C538.551 858.549 538.551 876.64 538.551 895.108C533.269 895.3 528.195 896.769 524.161 890.461C518.123 881.012 510.917 872.305 504.199 863.291C503.388 862.203 502.521 861.156 501.016 859.248C501.016 871.767 501.016 883.325 501.016 894.584C500.303 895.024 500.084 895.268 499.855 895.281C489.463 895.839 489.463 895.837 489.463 885.497C489.463 870.653 489.463 855.811 489.463 840.228Z" fill="white"/>
<path fill-rule="evenodd" clip-rule="evenodd" d="M383.513 840.359C387.625 840.359 391.024 840.359 394.751 840.359C394.751 858.616 394.751 876.797 394.751 895.359C392.237 895.359 389.741 895.681 387.381 895.251C385.601 894.927 383.44 894.069 382.401 892.716C374.877 882.925 367.601 872.945 360.232 863.036C359.443 861.975 358.548 860.991 357.099 859.244C357.099 871.721 357.099 883.307 357.099 894.679C356.465 895.019 356.24 895.24 356.001 895.252C345.624 895.804 345.624 895.803 345.624 885.533C345.624 871.78 345.713 858.027 345.559 844.275C345.521 841.012 346.576 840.297 349.765 840.035C354.995 839.604 358.291 841.305 361.3 845.672C367.756 855.039 374.823 863.988 381.648 873.101C382.025 873.604 382.489 874.037 383.513 875.165C383.513 863.165 383.513 851.991 383.513 840.359Z" fill="white"/>
<path fill-rule="evenodd" clip-rule="evenodd" d="M858.704 867.32C858.704 871.588 858.753 875.857 858.684 880.123C858.647 882.3 859.325 883.507 861.744 883.405C865.451 883.251 869.189 883.483 872.869 883.119C880.391 882.372 886.397 875.613 886.595 868.027C886.787 860.689 880.789 853.388 873.456 852.447C869.656 851.959 865.775 852.132 861.937 851.876C859.312 851.701 858.608 852.969 858.672 855.344C858.781 859.335 858.701 863.328 858.704 867.32ZM847.42 894.664C847.42 876.801 847.42 858.839 847.42 840.172C853.603 840.172 859.596 839.988 865.571 840.233C869.917 840.412 874.399 840.589 878.541 841.753C891.705 845.453 899.223 856.863 898.219 870.812C897.38 882.455 887.629 893.096 875 894.475C866.072 895.449 856.952 894.664 847.42 894.664Z" fill="white"/>
<path fill-rule="evenodd" clip-rule="evenodd" d="M676.197 850.707C675.703 851.408 675.568 851.513 675.555 851.633C674.357 862.339 674.357 862.339 685.147 862.339C691.464 862.339 697.78 862.339 704.396 862.339C704.396 865.687 704.396 868.755 704.396 872.204C694.849 872.204 685.411 872.204 675.632 872.204C675.632 876.472 675.632 880.373 675.632 884.623C685.949 884.623 696.073 884.623 706.512 884.623C706.512 888.289 706.512 891.613 706.512 895.161C692.453 895.161 678.633 895.161 664.524 895.161C664.524 876.908 664.524 858.827 664.524 840.456C678.429 840.456 692.261 840.456 706.901 840.456C706.901 843.259 707.085 846.229 706.752 849.14C706.683 849.769 704.752 850.612 703.667 850.631C695.964 850.761 688.257 850.704 680.555 850.707C679.051 850.707 677.547 850.707 676.197 850.707Z" fill="white"/>
<path fill-rule="evenodd" clip-rule="evenodd" d="M595.203 852.231C589.099 852.231 583.645 852.231 577.935 852.231C577.935 848.191 577.935 844.535 577.935 840.511C593.076 840.511 608.263 840.511 623.816 840.511C623.816 844.2 623.816 847.952 623.816 852.167C618.451 852.167 613.145 852.167 607.369 852.167C607.369 866.709 607.369 880.807 607.369 895.133C603.12 895.133 599.356 895.133 595.203 895.133C595.203 880.903 595.203 866.919 595.203 852.231Z" fill="white"/>
<path fill-rule="evenodd" clip-rule="evenodd" d="M436.68 840.379C440.735 840.379 444.409 840.379 448.388 840.379C448.388 858.657 448.388 876.725 448.388 895.091C444.584 895.091 440.808 895.091 436.68 895.091C436.68 876.981 436.68 858.808 436.68 840.379Z" fill="white"/>
<path fill-rule="evenodd" clip-rule="evenodd" d="M1020.56 1018.85C1019.98 1020.47 1019.56 1022.17 1018.77 1023.69C1018.28 1024.63 1017.25 1025.3 1016.46 1026.09C1015.84 1025.32 1015.07 1024.63 1014.64 1023.77C1013.94 1022.32 1013.47 1020.76 1012.69 1018.73C1012.23 1021.61 1011.84 1023.98 1011.46 1026.35C1010.97 1026.26 1010.48 1026.18 1009.99 1026.1C1009.99 1021.81 1009.99 1017.52 1009.99 1013.23C1011.97 1012.97 1011.97 1012.97 1016.73 1021.02C1019.26 1018.69 1017.11 1012.39 1023.4 1012.89C1024.56 1021.2 1024.09 1024.97 1021.5 1026.13C1021.5 1023.7 1021.5 1021.41 1021.5 1019.12C1021.19 1019.03 1020.88 1018.94 1020.56 1018.85Z" fill="white"/>
<path fill-rule="evenodd" clip-rule="evenodd" d="M1000.69 1016.15C999.661 1016.05 998.896 1016.17 998.356 1015.87C997.676 1015.49 997.181 1014.79 996.605 1014.22C997.301 1013.76 997.967 1012.98 998.695 1012.92C1000.87 1012.73 1003.07 1012.69 1005.24 1012.88C1006.13 1012.95 1006.96 1013.74 1007.82 1014.2C1007.09 1014.77 1006.41 1015.44 1005.6 1015.87C1005.05 1016.17 1004.32 1016.13 1003.63 1016.24C1003.63 1018.73 1003.81 1021.04 1003.56 1023.31C1003.43 1024.41 1002.52 1025.43 1001.96 1026.49C1001.53 1025.5 1000.83 1024.54 1000.75 1023.52C1000.56 1021.22 1000.69 1018.9 1000.69 1016.15Z" fill="white"/>
<path fill-rule="evenodd" clip-rule="evenodd" d="M518.055 466.613C517.395 445.272 535.352 425.508 559.001 425.588C582.061 425.665 600.585 443.005 600.439 467.547C600.292 491.928 579.792 508.641 558.536 508.117C535.636 507.553 517.905 489.721 518.055 466.613Z" fill="white"/>
</g>
<defs>
<clipPath id="clip0_271_2593">
<rect width="1365.33" height="1365.33" fill="white"/>
</clipPath>
</defs>
</svg>
