<svg width="2152" height="486" viewBox="0 0 2152 486" fill="none" xmlns="http://www.w3.org/2000/svg">
<g clip-path="url(#clip0_277_2628)">
<path fill-rule="evenodd" clip-rule="evenodd" d="M1475.65 95.574C1431.72 95.5743 1396.1 131.189 1396.1 175.123V310.859C1396.1 335.695 1375.97 355.829 1351.13 355.828H1198.01V389.529H1380.13C1424.06 389.529 1459.67 353.912 1459.67 309.978V174.242C1459.67 149.406 1479.81 129.273 1504.64 129.273L1660.62 129.273V95.574H1475.65Z" fill="white"/>
<path fill-rule="evenodd" clip-rule="evenodd" d="M789.379 95.574V129.273H1109.23C1134.72 129.273 1155.39 149.939 1155.39 175.431C1155.39 200.924 1134.72 221.589 1109.23 221.59H868.928C824.994 221.59 789.379 257.205 789.379 301.138V389.529H852.949V300.26C852.95 275.423 873.084 255.29 897.92 255.291H1139.1C1183.21 255.29 1218.96 219.536 1218.96 175.431C1218.96 131.327 1183.21 95.5743 1139.1 95.574H789.379Z" fill="white"/>
<path d="M235.268 0V452.933L337.768 485.479V105.554C337.768 87.8001 345.704 75.8606 358.502 80.0294C375.232 84.6552 378.487 101.038 378.487 118.828V270.549C442.408 301.395 492.671 270.53 492.671 189.112C492.671 105.554 463.252 68.4921 376.476 38.6342C342.321 27.1884 278.875 8.04499 235.268 0Z" fill="white"/>
<path d="M357.184 419.303L522.052 360.52C540.738 353.828 543.627 344.32 528.433 339.365C513.257 334.41 485.758 335.854 467.071 342.528L357.184 381.254V319.673L363.51 317.552C363.51 317.552 395.27 306.289 439.865 301.334C484.514 296.489 539.184 301.974 582.06 318.283C630.439 333.587 635.87 356.058 623.601 371.545C611.278 387.068 581.2 398.148 581.2 398.148L357.184 478.598V419.303Z" fill="white"/>
<path d="M47.2401 413.035C-2.38287 399.048 -10.6656 369.995 11.9335 353.21C32.9054 337.687 68.4496 326.058 68.4496 326.058L215.38 273.857V333.353L109.644 371.22C90.9389 377.912 88.1232 387.419 103.244 392.338C118.475 397.347 145.937 395.921 164.66 389.193L215.38 370.817V424.097C212.144 424.646 208.579 425.212 205.287 425.743C154.531 434.025 100.483 430.588 47.2401 413.035Z" fill="white"/>
<path d="M1768.12 358.635H2097.25C2098.26 358.635 2098.94 359.324 2098.94 360.013V387.932C2098.94 389.311 2099.99 390 2101 390H2160.33C2161.38 390 2162.38 389.311 2162.38 387.932V360.703C2162.38 359.667 2163.43 358.635 2164.44 358.635H2223.39C2224.77 358.635 2225.45 357.599 2225.45 356.572V328.995C2225.45 327.959 2224.77 326.927 2223.39 326.927H2164.44C2163.43 326.927 2162.38 325.891 2162.38 324.859V125.991C2162.38 109.763 2156.35 99.4282 2146.21 96H2129.04C2123.69 97.374 2117.88 99.8345 2111.64 103.582L1757.15 322.445C1743.44 331.058 1738.63 340.704 1742.07 347.944C1744.81 354.152 1752.67 358.635 1768.12 358.635ZM1819.54 322.102L2094.15 152.184C2095.88 150.806 2099.31 151.153 2099.31 154.942V324.859C2099.31 325.896 2098.26 326.927 2097.25 326.927H1821.24C1818.86 326.927 1817.8 326.243 1817.48 325.549C1817.11 324.17 1817.8 323.134 1819.54 322.102Z" fill="white"/>
</g>
<defs>
<clipPath id="clip0_277_2628">
<rect width="2151.84" height="485.478" fill="white"/>
</clipPath>
</defs>
</svg>
