<svg width="596" height="166" viewBox="0 0 596 166" fill="none" xmlns="http://www.w3.org/2000/svg">
<g clip-path="url(#clip0_289_2614)">
<path d="M204.902 43.4947H207.045V25.9287L213.624 43.4947H215.344L221.862 25.9287V43.4947H224.306V23.3635H220.624L214.68 39.4514L208.644 23.3635H204.902V43.4947Z" fill="white"/>
<path fill-rule="evenodd" clip-rule="evenodd" d="M231.45 28.614H229.126V43.4947H231.45V28.614ZM231.54 23.3635H229.035V25.9287H231.54V23.3635Z" fill="white"/>
<path d="M244.845 38.2737C244.361 40.7189 243.094 41.9857 241.223 41.9857C238.749 41.9857 237.301 39.7519 237.301 36.0103C237.301 32.3876 238.809 30.1248 241.253 30.1248C242.4 30.1248 243.396 30.6366 244.06 31.5432C244.452 32.1166 244.664 32.6592 244.845 33.8066L246.927 33.4149C246.323 30.0343 244.332 28.2229 241.284 28.2229C237.421 28.2229 234.886 31.3615 234.886 36.0707C234.886 40.8081 237.361 43.8883 241.163 43.8883C242.823 43.8883 244.12 43.3752 245.176 42.2882C246.142 41.3218 246.564 40.4473 246.926 38.6359L244.845 38.2737Z" fill="white"/>
<path d="M252.448 43.4947V35.6174C252.509 32.448 254.651 30.2141 257.458 30.4562V28.2531C257.126 28.2223 256.794 28.1927 256.613 28.1927C255.466 28.1927 254.349 28.7045 253.685 29.4904C253.143 30.1537 252.87 30.6064 252.147 32.0852V28.614H250.125V43.4947H252.448Z" fill="white"/>
<path fill-rule="evenodd" clip-rule="evenodd" d="M265.179 28.2223C261.196 28.2223 258.45 31.3917 258.45 36.0103C258.45 40.7478 261.045 43.8877 264.938 43.8877C268.951 43.8877 271.818 40.6874 271.818 36.2203C271.818 31.3609 269.223 28.2223 265.179 28.2223ZM265.089 30.1248C266.296 30.1248 267.473 30.7278 268.227 31.7237C268.951 32.7504 269.283 34.0776 269.283 36.1003C269.283 39.7827 267.715 41.9858 265.119 41.9858C262.494 41.9858 260.985 39.8123 260.985 35.9795C260.985 34.1682 261.347 32.719 262.011 31.7539C262.705 30.758 263.912 30.1248 265.089 30.1248Z" fill="white"/>
<path d="M273.258 39.6318C273.62 40.9295 274.012 41.5633 274.797 42.2278C276.065 43.3438 277.754 43.8883 279.866 43.8883C283.547 43.8883 285.992 42.0461 285.992 39.33C285.992 36.9157 284.513 35.4665 281.466 34.9239L278.539 34.4109C276.97 34.1091 276.215 33.4445 276.215 32.3279C276.215 30.9994 277.483 30.1248 279.414 30.1248C281.315 30.1248 282.522 30.8479 283.217 32.448L285.328 31.9959C284.604 29.52 282.582 28.2223 279.474 28.2223C276.094 28.2223 273.861 29.9733 273.861 32.5989C273.861 34.7108 275.34 36.2203 277.874 36.7038L281.013 37.2772C282.703 37.6086 283.578 38.3643 283.578 39.5708C283.578 41.02 282.16 41.9851 280.077 41.9851C278.69 41.9851 277.271 41.5626 276.426 40.8691C275.943 40.4762 275.702 40.0229 275.46 39.1785L273.258 39.6318Z" fill="white"/>
<path fill-rule="evenodd" clip-rule="evenodd" d="M294.835 28.2223C290.851 28.2223 288.105 31.3917 288.105 36.0103C288.105 40.7478 290.701 43.8877 294.593 43.8877C298.606 43.8877 301.473 40.6874 301.473 36.2203C301.473 31.3609 298.879 28.2223 294.835 28.2223ZM294.745 30.1248C295.951 30.1248 297.128 30.7278 297.883 31.7237C298.606 32.7504 298.939 34.0776 298.939 36.1003C298.939 39.7827 297.37 41.9858 294.775 41.9858C292.149 41.9858 290.641 39.8123 290.641 35.9795C290.641 34.1682 291.003 32.719 291.667 31.7539C292.361 30.758 293.568 30.1248 294.745 30.1248Z" fill="white"/>
<path d="M311.092 28.614H307.47C307.47 26.9856 307.47 26.8643 307.742 26.2305C308.074 25.295 309.039 24.8121 310.579 24.8121C311.032 24.8121 311.333 24.8416 311.967 25.0233V23.1523C310.941 23.0014 310.398 22.941 309.764 22.941C307.833 22.941 306.323 23.8457 305.811 25.295C305.479 26.1708 305.389 26.7737 305.328 28.614H302.703V30.4254H305.328V43.4947H307.47V30.4254H311.092V28.614Z" fill="white"/>
<path d="M321.562 41.8946C320.747 42.0455 320.325 42.0763 319.781 42.0763C318.182 42.0763 317.368 41.2916 317.368 39.7519V30.4254H320.717V28.614H317.368V24.6908L315.195 24.8725L315.104 28.614H312.479V30.4254H315.104V39.3898C315.104 42.3775 316.552 43.9172 319.359 43.9172C320.053 43.9172 320.536 43.8877 321.562 43.7368V41.8946Z" fill="white"/>
<path fill-rule="evenodd" clip-rule="evenodd" d="M325.846 30.9007L325.22 29.5206C325.59 29.3917 325.801 29.1057 325.801 28.7435C325.801 28.2374 325.379 27.884 324.775 27.884H323.5V30.9013H323.945V29.6193H324.775L325.348 30.9013H325.846V30.9007ZM323.945 29.2641V28.2607H324.775C325.114 28.2607 325.325 28.4411 325.325 28.736C325.325 29.0604 325.099 29.2641 324.721 29.2641H323.945ZM324.661 26.7882C323.198 26.7882 322.021 27.9362 322.021 29.3691C322.021 30.8252 323.176 31.9871 324.624 31.9871C326.057 31.9871 327.22 30.8252 327.22 29.3836C327.219 27.9733 326.057 26.7882 324.661 26.7882ZM324.654 27.1579C325.846 27.1579 326.849 28.177 326.849 29.3842C326.849 30.6221 325.854 31.6181 324.624 31.6181C323.379 31.6181 322.391 30.6221 322.391 29.3697C322.391 28.8341 322.602 28.2977 322.964 27.8985C323.41 27.4068 323.975 27.1579 324.654 27.1579Z" fill="white"/>
<path d="M536.247 82.0293H542.525L549.978 70.2589L556.779 82.0293H565.149L554.36 63.7849L563.449 49.792H557.368L551.351 59.2732L546.056 49.792H537.687L546.972 65.419L536.247 82.0293Z" fill="#F4793B"/>
<path fill-rule="evenodd" clip-rule="evenodd" d="M574.292 92.9496V77.5176C576.385 81.1145 579.13 82.6838 583.185 82.6838C586.911 82.6838 589.659 81.3761 591.619 78.6939C594.105 75.3598 595.414 70.8474 595.414 65.6818C595.414 60.8425 594.235 56.6571 591.946 53.3883C589.919 50.5113 587.238 49.1369 583.708 49.1369C579.326 49.1369 576.188 51.0991 573.899 55.4141V49.7914H566.901V92.949L574.292 92.9496ZM574.292 64.2426C574.292 58.9463 577.168 55.0878 581.223 55.0878C585.341 55.0878 587.697 59.1412 587.697 66.2049C587.697 72.9392 585.277 76.9291 581.289 76.9291C577.235 76.9291 574.292 73.5289 574.292 68.821V64.2426Z" fill="#F4793B"/>
<path d="M216.308 49.7933H204.72L221.195 110.174H232.33L243.284 65.8157L255.324 110.174H266.729L282.843 49.7933H273.247L261.842 93.7884L249.801 49.7933H238.757L227.895 93.7884L216.308 49.7933Z" fill="white"/>
<path fill-rule="evenodd" clip-rule="evenodd" d="M295.968 110.174V65.5447H285.919V110.174H295.968ZM295.968 60.2936V49.7933H285.919V60.2936H295.968Z" fill="white"/>
<path d="M341.408 110.174V81.3867C341.408 76.7694 340.866 73.8728 339.507 71.2473C337.515 67.3542 332.446 64.6394 327.286 64.6394C321.221 64.6394 317.328 67.8075 313.617 75.8647V65.5447H304.474V110.174H314.521V87.2704C314.521 83.8306 315.065 81.1158 316.151 78.9435C317.871 75.5937 321.039 73.4214 324.389 73.4214C328.644 73.4214 331.36 76.8612 331.36 82.2921V110.174H341.408Z" fill="white"/>
<path fill-rule="evenodd" clip-rule="evenodd" d="M386.5 110.174V49.7933H376.453V71.6101C374.006 66.269 370.205 63.7334 364.502 63.7334C359.797 63.7334 355.992 65.3643 353.187 68.6224C349.204 73.1486 346.942 79.9382 346.942 87.2704C346.942 94.1505 349.022 101.393 352.011 105.376C354.906 109.088 359.072 111.078 363.959 111.078C370.296 111.078 374.279 108.001 377.087 101.212V110.174H386.5ZM376.452 91.4357C376.452 97.8632 372.287 102.841 366.945 102.841C360.881 102.841 357.622 97.5915 357.622 87.8148C357.622 77.8571 361.063 72.335 367.218 72.335C369.844 72.335 372.287 73.5113 374.097 75.6836C375.818 77.7666 376.452 79.9388 376.452 83.8312V91.4357Z" fill="white"/>
<path fill-rule="evenodd" clip-rule="evenodd" d="M412.933 64.6394C400.622 64.6394 392.021 74.1445 392.021 87.7231C392.021 93.4256 393.47 98.4963 396.456 102.841C400.079 108.272 405.509 111.078 412.388 111.078C424.882 111.078 433.573 101.574 433.573 87.9041C433.573 82.1117 432.486 78.0375 429.86 73.7823C425.876 67.5365 420.446 64.6394 412.933 64.6394ZM412.933 72.8769C419.361 72.8769 422.89 78.0369 422.89 87.6325C422.89 97.4098 419.27 102.841 412.752 102.841C406.324 102.841 402.702 97.4092 402.702 87.8142C402.702 78.2192 406.415 72.8769 412.933 72.8769Z" fill="white"/>
<path d="M443.893 65.5447H433.21L446.97 110.174H456.295L464.26 78.8524L472.318 110.174H481.368L494.496 65.5447H485.986L477.387 95.5997L469.511 65.5447H460.368L452.764 95.5997L443.893 65.5447Z" fill="white"/>
<path d="M492.413 99.9442C493.501 103.384 494.678 105.104 497.031 106.914C500.744 109.63 505.632 111.078 511.334 111.078C523.194 111.078 530.798 105.466 530.798 96.5956C530.798 89.535 526.996 85.0981 519.572 83.6501L509.976 81.6583C505.45 80.7536 503.549 79.2145 503.549 76.5889C503.549 73.6924 506.626 71.7899 511.425 71.7899C516.042 71.7899 518.395 73.2391 519.571 76.8599L528.623 74.9593C526.54 68.1697 520.659 64.6387 511.425 64.6387C505.179 64.6387 500.834 66.1772 497.755 69.5277C495.493 71.9716 494.226 75.3214 494.226 78.8517C494.226 86.0934 498.48 90.2574 507.714 91.9776L515.86 93.6073C518.849 94.1499 520.75 95.8707 520.75 98.0429C520.75 101.573 517.4 103.565 511.695 103.565C506.265 103.565 503.73 102.116 501.83 98.1335L492.413 99.9442Z" fill="white"/>
<path fill-rule="evenodd" clip-rule="evenodd" d="M530.569 68.5362L529.942 67.1555C530.311 67.0267 530.522 66.7406 530.522 66.3784C530.522 65.8723 530.1 65.5177 529.495 65.5177H528.221V68.5362H528.668V67.2536H529.495L530.07 68.5362H530.569ZM528.668 66.899V65.8956H529.495C529.837 65.8956 530.048 66.076 530.048 66.3709C530.048 66.6953 529.82 66.899 529.444 66.899H528.668ZM529.383 64.4231C527.919 64.4231 526.743 65.5699 526.743 67.004C526.743 68.4601 527.897 69.6227 529.346 69.6227C530.781 69.6227 531.942 68.4608 531.942 67.0191C531.942 65.6082 530.78 64.4231 529.383 64.4231ZM529.375 64.7928C530.569 64.7928 531.571 65.812 531.571 67.0191C531.571 68.2571 530.576 69.253 529.346 69.253C528.101 69.253 527.113 68.2571 527.113 67.004C527.113 66.4683 527.324 65.932 527.685 65.5328C528.13 65.0424 528.698 64.7928 529.375 64.7928Z" fill="white"/>
<path d="M160.189 150.945V157.325H161.082V150.945H163.133V150.16H158.139V150.945H160.189Z" fill="black"/>
<path d="M165.486 150.16H164.153V157.325H164.916V151.073L167.257 157.325H167.87L170.189 151.073V157.325H171.058V150.16H169.748L167.633 155.885L165.486 150.16Z" fill="black"/>
<path d="M183.894 22.7769C148.286 37.5007 131.159 29.2507 115.731 18.8662C115.766 18.7302 115.83 18.4669 115.727 18.2144C131.155 28.6011 148.625 36.9601 184.23 22.2385C183.994 22.4554 183.994 22.5633 183.894 22.7769Z" fill="#83B641"/>
<path fill-rule="evenodd" clip-rule="evenodd" d="M96.8924 79.0993L95.5521 80.1601L95.5532 80.0209L113.011 19.5989L114.283 18.6902L96.8924 79.0993Z" fill="#8AA742"/>
<path d="M98.2025 79.7738C97.6608 79.4705 97.2701 78.8597 96.7888 79.0486L114.222 18.7172C114.49 18.5975 115.164 18.3665 115.801 18.8683L98.2025 79.7738Z" fill="url(#paint0_linear_289_2614)"/>
<path fill-rule="evenodd" clip-rule="evenodd" d="M114.447 18.2985L114.268 18.7302L112.996 19.6485C113.104 19.2363 114.073 18.5489 114.372 18.3406C114.428 18.3018 114.447 18.2985 114.447 18.2985Z" fill="#8AA742"/>
<path d="M115.741 18.8251C115.081 18.4183 114.487 18.6158 114.217 18.7323C114.259 18.6039 114.373 18.3406 114.373 18.3406C114.946 17.978 115.196 17.9608 115.731 18.2165C115.8 18.4162 115.829 18.6082 115.741 18.8251Z" fill="url(#paint1_linear_289_2614)"/>
<path fill-rule="evenodd" clip-rule="evenodd" d="M185.214 23.2259C185.214 23.2259 184.816 22.6766 183.863 22.8525C183.947 22.6269 183.947 22.4154 184.23 22.2374C184.803 22.151 185.082 22.3021 185.204 22.4198C185.272 22.4867 185.292 22.5417 185.292 22.5417C185.369 22.8784 185.214 23.2259 185.214 23.2259Z" fill="url(#paint2_linear_289_2614)"/>
<path fill-rule="evenodd" clip-rule="evenodd" d="M185.205 22.4197L186.613 23.5496C186.697 23.9273 186.516 24.3104 186.516 24.3104L185.103 23.1762C185.103 23.1762 185.28 22.7554 185.205 22.4197Z" fill="url(#paint3_linear_289_2614)"/>
<path fill-rule="evenodd" clip-rule="evenodd" d="M185.132 23.0964L186.57 24.2392L168.865 84.9417L167.529 83.7622L185.132 23.0964Z" fill="#595E48"/>
<path fill-rule="evenodd" clip-rule="evenodd" d="M169.211 85.381C169.249 85.0345 168.88 84.7486 168.88 84.7486L186.551 24.1841C186.551 24.1841 186.832 24.4367 186.908 24.619L169.211 85.381Z" fill="#767E47"/>
<path fill-rule="evenodd" clip-rule="evenodd" d="M186.903 24.6417C186.903 24.6417 186.84 24.468 186.538 24.2144C186.676 23.6446 186.585 23.5302 186.585 23.5302L186.612 23.5485C186.612 23.5496 187.054 23.9521 186.903 24.6417Z" fill="url(#paint4_linear_289_2614)"/>
<path fill-rule="evenodd" clip-rule="evenodd" d="M168.621 85.9464C159.105 90.2673 150.098 92.4968 141.735 93.2263C127.293 94.8666 115.614 91.7252 106.073 87.0385C102.363 85.3356 99.0032 83.4083 96.0312 81.4065L96.192 81.2673C99.205 83.295 102.49 85.2763 106.073 87.0385C115.768 91.4899 127.866 94.4284 141.735 93.2263C149.634 92.3328 158.359 90.0018 168.016 85.7187C168.288 85.9378 168.621 85.9464 168.621 85.9464Z" fill="#595E48"/>
<path d="M166.699 84.8198C166.699 84.8198 166.018 84.209 166.142 83.3144C167.057 83.0802 167.643 83.6597 167.643 83.6597C167.643 83.6597 167.474 84.4831 166.699 84.8198Z" fill="url(#paint5_linear_289_2614)"/>
<path fill-rule="evenodd" clip-rule="evenodd" d="M167.643 83.6608L168.923 84.7777C168.923 84.7777 168.726 85.4781 167.949 85.8191L166.649 84.7054C167.428 84.3644 167.643 83.6608 167.643 83.6608Z" fill="url(#paint6_linear_289_2614)"/>
<path d="M166.353 83.296C166.229 84.1917 166.889 84.8457 166.889 84.8457C131.275 99.5705 112.927 90.8996 97.5129 80.4579C97.7838 80.2594 97.8259 80.2615 98.0018 79.6335C113.414 90.0773 136.71 97.395 166.353 83.296Z" fill="url(#paint7_linear_289_2614)"/>
<path fill-rule="evenodd" clip-rule="evenodd" d="M96.1996 81.3299L97.5237 80.445C112.945 90.373 131.159 98.9597 166.735 84.6644L168.023 85.7824C133.865 100.851 112.012 92.459 96.1996 81.3299Z" fill="#767E47"/>
<path fill-rule="evenodd" clip-rule="evenodd" d="M169.211 85.381C169.034 85.7058 168.724 85.8914 168.62 85.9453C168.599 85.9583 168.585 85.9583 168.585 85.9583C168.585 85.9583 168.342 85.9917 168.018 85.7813C168.714 85.4015 168.916 84.6428 168.916 84.6428C168.916 84.6428 169.321 84.9806 169.211 85.381Z" fill="#767E47"/>
<path fill-rule="evenodd" clip-rule="evenodd" d="M96.2481 81.3126L96.0895 81.4432C96.0895 81.4432 95.2219 80.9748 95.5542 80.0209C95.6319 80.9586 96.2481 81.3126 96.2481 81.3126Z" fill="#767E47"/>
<path d="M95.5531 80.0209L96.8308 79.0108C96.7564 79.9842 97.5981 80.3889 97.5981 80.3889L96.2988 81.3881C96.2988 81.3881 95.4797 80.9964 95.5531 80.0209Z" fill="url(#paint8_linear_289_2614)"/>
<path d="M96.8028 79.0108C97.2399 78.8781 97.6348 79.3313 98.1701 79.7468C97.9963 80.377 97.8431 80.2691 97.5722 80.4698C97.255 80.2799 96.7219 79.8115 96.8028 79.0108Z" fill="url(#paint9_linear_289_2614)"/>
<path d="M166.185 83.4331L183.809 22.7975C184.762 22.6216 185.218 23.1611 185.218 23.1611L167.644 83.6608C167.644 83.6608 166.939 83.1212 166.185 83.4331Z" fill="url(#paint10_linear_289_2614)"/>
<path d="M183.893 22.7597C148.286 37.4813 131.166 29.2054 115.735 18.8208L98.1689 79.7511C113.584 90.195 132.195 98.7817 166.357 83.4881L183.893 22.7597Z" fill="url(#paint11_linear_289_2614)"/>
<path fill-rule="evenodd" clip-rule="evenodd" d="M1.46863 142.82C1.58517 142.837 1.79992 142.736 1.79992 142.736C2.04705 142.904 2.24345 143.023 2.24345 143.023C2.24345 143.023 1.85712 143.115 1.46863 142.82Z" fill="#313C7E"/>
<path d="M67.5226 145.939C67.5226 145.939 67.7589 146.158 68.0308 146.082L66.9636 146.715C66.6226 146.867 66.2719 146.626 66.2719 146.626L67.5226 145.939Z" fill="#313C7E"/>
<path d="M1.8139 142.744C1.8139 142.744 1.60563 142.849 1.488 142.832L0.31714 141.939L0.290161 141.914C0.459586 141.973 0.65491 141.943 0.733687 141.927L1.8139 142.744Z" fill="#313C7E"/>
<path d="M68.1215 145.067C68.2435 145.155 68.3719 145.253 68.4927 145.496C68.4248 145.817 68.1571 145.981 68.006 146.1C67.7881 146.15 67.4827 145.943 67.4827 145.943C67.6532 145.8 67.9445 145.594 68.1215 145.067Z" fill="#2E499E"/>
<path d="M17.7074 80.5076H17.3578V80.527H17.7074V80.5076Z" fill="#2E499E"/>
<path fill-rule="evenodd" clip-rule="evenodd" d="M17.5553 80.5162L0.224318 141.151L0.0257568 141.1L17.3599 80.4612L17.5553 80.5162Z" fill="#2E499E"/>
<path fill-rule="evenodd" clip-rule="evenodd" d="M0.317173 141.939C0.0927124 141.744 -0.0626834 141.412 0.0247268 141.1L0.233 141.02C0.14559 141.471 0.476885 141.796 0.718612 141.935C0.72077 141.934 0.543792 142.023 0.317173 141.939Z" fill="#2E499E"/>
<path d="M67.5118 145.981C52.0456 135.573 36.0172 127.623 0.741242 141.956C0.498436 141.812 0.129371 141.467 0.215702 141.012C36.0344 125.764 52.6758 134.672 68.142 145.083C67.9845 145.636 67.6823 145.842 67.5118 145.981Z" fill="url(#paint12_linear_289_2614)"/>
<path fill-rule="evenodd" clip-rule="evenodd" d="M1.74377 142.697C35.6978 129.423 50.9168 136.652 66.3755 146.605C57.1165 140.645 47.5877 135.873 34.4395 135.792C25.6402 135.741 15.2405 137.975 2.22615 143.021C2.22615 143.022 1.95744 142.921 1.74377 142.697Z" fill="#313C7E"/>
<path fill-rule="evenodd" clip-rule="evenodd" d="M67.5302 145.977L66.2795 146.63C50.8208 136.677 35.1755 129.797 1.81504 142.743L0.712158 141.937C35.9881 127.602 52.0651 135.565 67.5302 145.977Z" fill="#2E499E"/>
<path fill-rule="evenodd" clip-rule="evenodd" d="M68.1107 145.1L85.9456 84.0569C86.1366 84.1896 86.2381 84.2932 86.3373 84.4065L68.4863 145.526C68.3859 145.269 68.1107 145.1 68.1107 145.1Z" fill="#313C7E"/>
<path fill-rule="evenodd" clip-rule="evenodd" d="M85.9381 84.086C70.487 73.6141 53.06 66.0342 17.5176 80.541C17.6061 80.2378 17.6784 80.0943 17.6784 80.0943C53.3773 65.3338 70.6165 73.1705 86.0665 83.6436L85.9381 84.086Z" fill="#3F87C7"/>
<mask id="mask0_289_2614" style="mask-type:luminance" maskUnits="userSpaceOnUse" x="0" y="72" width="86" height="74">
<path d="M68.1323 145.118C52.6672 134.706 35.9006 126.271 0.209229 141.025L17.524 80.5076C53.2208 65.745 70.5172 73.6011 85.9694 84.072L68.1323 145.118Z" fill="white"/>
</mask>
<g mask="url(#mask0_289_2614)">
<path d="M68.1388 145.248C52.6737 134.84 35.8618 126.279 0.17041 141.037L17.647 79.9939C53.346 65.2335 70.4956 73.586 85.9457 84.058L68.1388 145.248Z" fill="url(#paint13_linear_289_2614)"/>
</g>
<path fill-rule="evenodd" clip-rule="evenodd" d="M86.0612 83.6393L86.0903 83.6565C86.3105 83.813 86.4 84.1162 86.3374 84.4065L86.3245 84.4443C86.2263 84.3321 86.1238 84.2252 85.9338 84.0925L86.0612 83.6393Z" fill="#313C7E"/>
<path fill-rule="evenodd" clip-rule="evenodd" d="M17.5531 80.527L17.3578 80.4698C17.4322 80.213 17.6081 80.1245 17.6783 80.0943L17.7074 80.0856C17.7085 80.0856 17.6427 80.2205 17.5531 80.527Z" fill="url(#paint14_linear_289_2614)"/>
<path fill-rule="evenodd" clip-rule="evenodd" d="M88.3046 73.9184C71.688 62.3867 51.3204 55.1446 21.0732 70.1759L22.3099 71.0489C55.3607 57.5414 72.6031 64.8525 87.1024 74.4029L88.3046 73.9184Z" fill="#D75329"/>
<path fill-rule="evenodd" clip-rule="evenodd" d="M88.8873 73.0238L106.445 12.4043C106.635 12.5338 106.728 12.659 106.828 12.7712L89.2629 73.4425C89.1625 73.1878 88.8873 73.0238 88.8873 73.0238Z" fill="#AB4533"/>
<path fill-rule="evenodd" clip-rule="evenodd" d="M22.3208 71.0295C27.9453 68.7223 33.1543 67.0097 37.9877 65.8346C39.1597 65.5507 40.201 65.2939 41.4377 65.0554C42.5762 64.8288 43.7007 64.6076 44.8003 64.4457C46.5237 64.1824 48.1953 63.9655 49.8226 63.8403C51.2147 63.7302 52.569 63.6493 53.8953 63.6374C55.1773 63.6223 56.4302 63.6396 57.6539 63.7097C58.7438 63.7723 59.81 63.8511 60.86 63.9752C61.7471 64.0788 62.6147 64.1878 63.4726 64.3356C65.2845 64.6464 67.0349 65.0284 68.7269 65.5087C75.56 67.4414 81.6291 70.736 87.2093 74.4569C87.1726 74.4741 87.0388 74.418 86.9806 74.3867C86.9266 74.3608 86.9018 74.3587 86.8543 74.3263C79.3101 69.5436 71.2046 65.3846 61.2032 64.1576C50.9665 62.8993 39.0377 64.6615 22.9661 71.0403C22.9661 71.0403 22.5917 71.199 22.4492 71.2249C22.3208 71.2454 22.3445 71.1472 22.3208 71.0295Z" fill="#AB4533"/>
<path d="M88.2765 73.9076C88.2765 73.9076 88.515 74.0749 88.7848 74.0133L87.6765 74.5022C87.3776 74.5896 87.0226 74.4051 87.0226 74.4051L88.2765 73.9076Z" fill="#AB4533"/>
<path d="M22.3358 71.0403C22.3358 71.0403 22.4038 71.1536 22.4491 71.227C22.3401 71.2421 22.3272 71.2702 22.0585 71.1504C22.0229 71.1363 21.9689 71.0921 21.9247 71.0727L20.7775 70.1705L20.674 70.0853C20.8304 70.0745 20.9502 70.15 21.029 70.1349L22.3358 71.0403Z" fill="#AB4533"/>
<path d="M88.8993 73.0259C89.0223 73.1079 89.169 73.1565 89.2716 73.4112C89.2036 73.7338 88.9295 73.8957 88.7762 74.0144C88.5043 74.091 88.2356 73.8817 88.2356 73.8817C88.4072 73.7446 88.7223 73.5504 88.8993 73.0259Z" fill="#D75329"/>
<path fill-rule="evenodd" clip-rule="evenodd" d="M106.563 12.0104L106.584 12.0234C106.801 12.1788 106.892 12.4831 106.829 12.7712L106.818 12.81C106.717 12.6967 106.652 12.5845 106.454 12.4345L106.563 12.0104Z" fill="#D75329"/>
<path fill-rule="evenodd" clip-rule="evenodd" d="M20.6977 70.1176C20.5316 69.9871 20.3643 69.4766 20.4506 69.1658L20.6837 69.0849C20.5974 69.5349 20.8758 70.0475 21.1175 70.1867C21.1186 70.1867 20.9481 70.2827 20.6977 70.1176Z" fill="#D75329"/>
<mask id="mask1_289_2614" style="mask-type:luminance" maskUnits="userSpaceOnUse" x="38" y="7" width="1" height="2">
<path d="M38.2369 8.39746L38.0405 8.34135C38.1161 8.08451 38.293 7.99279 38.3621 7.96365L38.3912 7.95502C38.3923 7.9561 38.3265 8.09099 38.2369 8.39746V8.39746Z" fill="white"/>
</mask>
<g mask="url(#mask1_289_2614)">
<path d="M38.3912 7.95609H38.0405V7.98198H38.3912V7.95609Z" fill="#FAAA4F"/>
</g>
<mask id="mask2_289_2614" style="mask-type:luminance" maskUnits="userSpaceOnUse" x="38" y="7" width="1" height="2">
<path d="M38.2369 8.39746L38.0405 8.34135C38.1161 8.08451 38.293 7.99279 38.3621 7.96365L38.3912 7.95502C38.3923 7.9561 38.3265 8.09099 38.2369 8.39746V8.39746Z" fill="white"/>
</mask>
<g mask="url(#mask2_289_2614)">
<path d="M38.3912 7.98199H38.0405V8.01113H38.3912V7.98199Z" fill="#F6A34C"/>
</g>
<mask id="mask3_289_2614" style="mask-type:luminance" maskUnits="userSpaceOnUse" x="38" y="7" width="1" height="2">
<path d="M38.2369 8.39746L38.0405 8.34135C38.1161 8.08451 38.293 7.99279 38.3621 7.96365L38.3912 7.95502C38.3923 7.9561 38.3265 8.09099 38.2369 8.39746V8.39746Z" fill="white"/>
</mask>
<g mask="url(#mask3_289_2614)">
<path d="M38.3912 8.01114H38.0405V8.03704H38.3912V8.01114Z" fill="#F39D48"/>
</g>
<mask id="mask4_289_2614" style="mask-type:luminance" maskUnits="userSpaceOnUse" x="38" y="7" width="1" height="2">
<path d="M38.2369 8.39746L38.0405 8.34135C38.1161 8.08451 38.293 7.99279 38.3621 7.96365L38.3912 7.95502C38.3923 7.9561 38.3265 8.09099 38.2369 8.39746V8.39746Z" fill="white"/>
</mask>
<g mask="url(#mask4_289_2614)">
<path d="M38.3912 8.03812H38.0405V8.06725H38.3912V8.03812Z" fill="#F09745"/>
</g>
<mask id="mask5_289_2614" style="mask-type:luminance" maskUnits="userSpaceOnUse" x="38" y="7" width="1" height="2">
<path d="M38.2369 8.39746L38.0405 8.34135C38.1161 8.08451 38.293 7.99279 38.3621 7.96365L38.3912 7.95502C38.3923 7.9561 38.3265 8.09099 38.2369 8.39746V8.39746Z" fill="white"/>
</mask>
<g mask="url(#mask5_289_2614)">
<path d="M38.3912 8.06726H38.0405V8.09424H38.3912V8.06726Z" fill="#ED9142"/>
</g>
<mask id="mask6_289_2614" style="mask-type:luminance" maskUnits="userSpaceOnUse" x="38" y="7" width="1" height="2">
<path d="M38.2369 8.39746L38.0405 8.34135C38.1161 8.08451 38.293 7.99279 38.3621 7.96365L38.3912 7.95502C38.3923 7.9561 38.3265 8.09099 38.2369 8.39746V8.39746Z" fill="white"/>
</mask>
<g mask="url(#mask6_289_2614)">
<path d="M38.3912 8.09424H38.0405V8.12014H38.3912V8.09424Z" fill="#EB8C3F"/>
</g>
<mask id="mask7_289_2614" style="mask-type:luminance" maskUnits="userSpaceOnUse" x="38" y="7" width="1" height="2">
<path d="M38.2369 8.39746L38.0405 8.34135C38.1161 8.08451 38.293 7.99279 38.3621 7.96365L38.3912 7.95502C38.3923 7.9561 38.3265 8.09099 38.2369 8.39746V8.39746Z" fill="white"/>
</mask>
<g mask="url(#mask7_289_2614)">
<path d="M38.3912 8.12122H38.0405V8.14819H38.3912V8.12122Z" fill="#E8863C"/>
</g>
<mask id="mask8_289_2614" style="mask-type:luminance" maskUnits="userSpaceOnUse" x="38" y="7" width="1" height="2">
<path d="M38.2369 8.39746L38.0405 8.34135C38.1161 8.08451 38.293 7.99279 38.3621 7.96365L38.3912 7.95502C38.3923 7.9561 38.3265 8.09099 38.2369 8.39746V8.39746Z" fill="white"/>
</mask>
<g mask="url(#mask8_289_2614)">
<path d="M38.3912 8.14819H38.0405V8.17409H38.3912V8.14819Z" fill="#E68139"/>
</g>
<mask id="mask9_289_2614" style="mask-type:luminance" maskUnits="userSpaceOnUse" x="38" y="7" width="1" height="2">
<path d="M38.2369 8.39746L38.0405 8.34135C38.1161 8.08451 38.293 7.99279 38.3621 7.96365L38.3912 7.95502C38.3923 7.9561 38.3265 8.09099 38.2369 8.39746V8.39746Z" fill="white"/>
</mask>
<g mask="url(#mask9_289_2614)">
<path d="M38.3912 8.17517H38.0405V8.20215H38.3912V8.17517Z" fill="#E57B37"/>
</g>
<mask id="mask10_289_2614" style="mask-type:luminance" maskUnits="userSpaceOnUse" x="38" y="7" width="1" height="2">
<path d="M38.2369 8.39746L38.0405 8.34135C38.1161 8.08451 38.293 7.99279 38.3621 7.96365L38.3912 7.95502C38.3923 7.9561 38.3265 8.09099 38.2369 8.39746V8.39746Z" fill="white"/>
</mask>
<g mask="url(#mask10_289_2614)">
<path d="M38.3912 8.20215H38.0405V8.22913H38.3912V8.20215Z" fill="#E27634"/>
</g>
<mask id="mask11_289_2614" style="mask-type:luminance" maskUnits="userSpaceOnUse" x="38" y="7" width="1" height="2">
<path d="M38.2369 8.39746L38.0405 8.34135C38.1161 8.08451 38.293 7.99279 38.3621 7.96365L38.3912 7.95502C38.3923 7.9561 38.3265 8.09099 38.2369 8.39746V8.39746Z" fill="white"/>
</mask>
<g mask="url(#mask11_289_2614)">
<path d="M38.3912 8.22913H38.0405V8.25718H38.3912V8.22913Z" fill="#E07132"/>
</g>
<mask id="mask12_289_2614" style="mask-type:luminance" maskUnits="userSpaceOnUse" x="38" y="7" width="1" height="2">
<path d="M38.2369 8.39746L38.0405 8.34135C38.1161 8.08451 38.293 7.99279 38.3621 7.96365L38.3912 7.95502C38.3923 7.9561 38.3265 8.09099 38.2369 8.39746V8.39746Z" fill="white"/>
</mask>
<g mask="url(#mask12_289_2614)">
<path d="M38.3912 8.25827H38.0405V8.28525H38.3912V8.25827Z" fill="#DF6B30"/>
</g>
<mask id="mask13_289_2614" style="mask-type:luminance" maskUnits="userSpaceOnUse" x="38" y="7" width="1" height="2">
<path d="M38.2369 8.39746L38.0405 8.34135C38.1161 8.08451 38.293 7.99279 38.3621 7.96365L38.3912 7.95502C38.3923 7.9561 38.3265 8.09099 38.2369 8.39746V8.39746Z" fill="white"/>
</mask>
<g mask="url(#mask13_289_2614)">
<path d="M38.3912 8.28525H38.0405V8.31115H38.3912V8.28525Z" fill="#DC662E"/>
</g>
<mask id="mask14_289_2614" style="mask-type:luminance" maskUnits="userSpaceOnUse" x="38" y="7" width="1" height="2">
<path d="M38.2369 8.39746L38.0405 8.34135C38.1161 8.08451 38.293 7.99279 38.3621 7.96365L38.3912 7.95502C38.3923 7.9561 38.3265 8.09099 38.2369 8.39746V8.39746Z" fill="white"/>
</mask>
<g mask="url(#mask14_289_2614)">
<path d="M38.3912 8.31223H38.0405V8.34136H38.3912V8.31223Z" fill="#DB602C"/>
</g>
<mask id="mask15_289_2614" style="mask-type:luminance" maskUnits="userSpaceOnUse" x="38" y="7" width="1" height="2">
<path d="M38.2369 8.39746L38.0405 8.34135C38.1161 8.08451 38.293 7.99279 38.3621 7.96365L38.3912 7.95502C38.3923 7.9561 38.3265 8.09099 38.2369 8.39746V8.39746Z" fill="white"/>
</mask>
<g mask="url(#mask15_289_2614)">
<path d="M38.3912 8.34134H38.0405V8.36724H38.3912V8.34134Z" fill="#D95A2A"/>
</g>
<mask id="mask16_289_2614" style="mask-type:luminance" maskUnits="userSpaceOnUse" x="38" y="7" width="1" height="2">
<path d="M38.2369 8.39746L38.0405 8.34135C38.1161 8.08451 38.293 7.99279 38.3621 7.96365L38.3912 7.95502C38.3923 7.9561 38.3265 8.09099 38.2369 8.39746V8.39746Z" fill="white"/>
</mask>
<g mask="url(#mask16_289_2614)">
<path d="M38.3912 8.36725H38.0405V8.39639H38.3912V8.36725Z" fill="#D75329"/>
</g>
<path d="M88.2723 73.9119C78.7608 67.6939 69.8568 62.5464 55.7579 62.1407C45.4478 62.3446 37.5442 63.6579 21.1035 70.1878C20.8607 70.0497 20.5532 69.7054 20.6384 69.2533C34.8733 63.1917 46.1741 60.577 55.5528 60.6687C69.7543 60.8101 79.5993 66.7518 88.9079 73.014C88.7503 73.5622 88.4439 73.7727 88.2723 73.9119Z" fill="url(#paint15_linear_289_2614)"/>
<path fill-rule="evenodd" clip-rule="evenodd" d="M38.0459 8.33054L38.2089 8.38233L20.6783 69.2327C20.6383 69.2155 20.4517 69.1658 20.4517 69.1658L38.0459 8.33054Z" fill="#D75329"/>
<path fill-rule="evenodd" clip-rule="evenodd" d="M106.448 12.4744C91.0079 2.0122 73.7093 -6.06622 38.1917 8.42983C38.2823 8.12551 38.3622 7.96364 38.3622 7.96364C74.0374 -6.78493 91.1395 1.5568 106.583 12.0234L106.448 12.4744Z" fill="#F89C3E"/>
<path d="M88.9133 73.0367C79.6025 66.7669 69.5892 60.9148 55.3683 60.8068C45.9852 60.7345 34.8161 63.4 20.6373 69.263L38.2089 8.37587C73.8841 -6.37487 91.0198 1.97334 106.459 12.4377L88.9133 73.0367Z" fill="url(#paint16_linear_289_2614)"/>
<path fill-rule="evenodd" clip-rule="evenodd" d="M148.914 156.668C148.742 156.988 148.43 157.178 148.326 157.232C148.304 157.245 148.288 157.245 148.288 157.245C148.288 157.245 147.992 157.283 147.722 157.068C148.418 156.688 148.624 155.925 148.624 155.925C148.624 155.925 149.026 156.267 148.914 156.668Z" fill="url(#paint17_linear_289_2614)"/>
<path fill-rule="evenodd" clip-rule="evenodd" d="M148.914 156.668C148.956 156.322 148.585 156.031 148.585 156.031L165.493 97.0961C165.493 97.0961 165.776 97.3443 165.854 97.5299L148.914 156.668Z" fill="#D4A52E"/>
<path fill-rule="evenodd" clip-rule="evenodd" d="M165.843 97.5547C165.843 97.5547 165.788 97.3864 165.484 97.1328C165.624 96.5598 165.527 96.4367 165.527 96.4367L165.554 96.454C165.554 96.454 165.999 96.8641 165.843 97.5547Z" fill="url(#paint18_linear_289_2614)"/>
<path fill-rule="evenodd" clip-rule="evenodd" d="M164.157 96.1346C164.157 96.1346 163.689 95.5659 162.737 95.7428C162.788 95.5281 162.868 95.2669 163.171 95.1439C163.746 95.0554 164.022 95.2076 164.144 95.3252C164.213 95.3964 164.233 95.4472 164.233 95.4472C164.308 95.7849 164.157 96.1346 164.157 96.1346Z" fill="url(#paint19_linear_289_2614)"/>
<path fill-rule="evenodd" clip-rule="evenodd" d="M164.144 95.3252L165.555 96.4551C165.637 96.8382 165.486 97.218 165.486 97.218L164.082 96.0925C164.081 96.0925 164.22 95.6619 164.144 95.3252Z" fill="url(#paint20_linear_289_2614)"/>
<path fill-rule="evenodd" clip-rule="evenodd" d="M165.51 97.15L148.623 156.064L148.556 156.225L147.074 154.948L164.075 96.004L165.51 97.15Z" fill="#A87C3C"/>
<path d="M146.241 156.005C146.241 156.005 145.563 155.398 145.685 154.5C146.6 154.268 147.19 154.845 147.19 154.845C147.19 154.845 147.022 155.664 146.241 156.005Z" fill="url(#paint21_linear_289_2614)"/>
<path d="M162.795 95.8011C126.994 107.996 110.521 100.708 95.0752 90.3126C95.1119 90.1734 95.2069 89.9457 95.1022 89.6889C110.548 100.084 127.631 107.183 163.17 95.1439C162.901 95.3296 162.867 95.5821 162.795 95.8011Z" fill="#FFCD02"/>
<path fill-rule="evenodd" clip-rule="evenodd" d="M76.3575 150.281L75.015 151.343L75.0183 151.2L92.3762 91.068L93.6463 90.1443L76.3575 150.281Z" fill="#D4A52E"/>
<path d="M77.8284 150.567C77.3245 150.268 76.7374 150.041 76.2561 150.234L93.5903 90.1691C93.8601 90.0558 94.5011 89.8777 95.1583 90.3375L77.8284 150.567Z" fill="url(#paint22_linear_289_2614)"/>
<path d="M145.728 154.623L162.733 95.7213C162.764 95.7126 162.806 95.6705 162.834 95.6662C163.738 95.5734 164.158 96.0536 164.158 96.0536L147.2 154.862C147.2 154.862 146.482 154.307 145.728 154.623Z" fill="url(#paint23_linear_289_2614)"/>
<path fill-rule="evenodd" clip-rule="evenodd" d="M148.326 157.232C113.367 172.176 90.942 162.986 75.4963 152.586L75.6582 152.452C91.1039 162.847 114.873 171.505 147.721 157.004C147.993 157.219 148.326 157.232 148.326 157.232Z" fill="#A87C3C"/>
<path fill-rule="evenodd" clip-rule="evenodd" d="M147.188 154.855L148.627 156.064C148.627 156.064 148.433 156.764 147.654 157.106L146.192 155.892C146.971 155.551 147.188 154.855 147.188 154.855Z" fill="url(#paint24_linear_289_2614)"/>
<path d="M145.896 154.484C145.774 155.381 146.433 156.031 146.433 156.031C110.782 170.776 92.523 161.937 77.0913 151.478C77.3633 151.28 77.496 151.107 77.6697 150.483C77.6924 150.496 77.9082 150.462 77.9298 150.475C93.8589 160.284 114.247 168.036 145.896 154.484Z" fill="url(#paint25_linear_289_2614)"/>
<path fill-rule="evenodd" clip-rule="evenodd" d="M75.6647 152.511L77.0913 151.478C91.2463 160.305 111.085 169.976 146.279 155.854L147.734 157.068C115.022 171.557 91.1104 162.911 75.6647 152.511Z" fill="#C19236"/>
<path fill-rule="evenodd" clip-rule="evenodd" d="M75.7856 152.557L75.6237 152.671C75.6237 152.671 74.6848 152.153 75.0183 151.2C75.0949 152.14 75.7856 152.557 75.7856 152.557Z" fill="#D4A52E"/>
<path d="M75.0183 151.2L76.3586 150.103C76.2852 151.085 77.236 151.448 77.236 151.448L75.764 152.573C75.7651 152.575 74.9439 152.179 75.0183 151.2Z" fill="url(#paint26_linear_289_2614)"/>
<path d="M76.2593 150.142C76.7395 149.948 77.1895 150.176 77.6956 150.471C77.5197 151.099 77.4139 151.318 77.142 151.517C76.8247 151.327 76.1783 150.939 76.2593 150.142Z" fill="url(#paint27_linear_289_2614)"/>
<mask id="mask17_289_2614" style="mask-type:luminance" maskUnits="userSpaceOnUse" x="77" y="90" width="86" height="72">
<path d="M95.1064 90.3051C110.552 100.7 127.288 107.905 162.833 95.6673L145.887 154.564C114.614 168.315 93.505 160.057 77.6848 150.496L95.1064 90.3051Z" fill="white"/>
</mask>
<g mask="url(#mask17_289_2614)">
<path d="M95.2089 89.9295C110.655 100.329 127.812 108.613 163.457 93.8792L145.887 154.563C110.236 169.309 93.1143 160.958 77.6848 150.495L95.2089 89.9295Z" fill="url(#paint28_linear_289_2614)"/>
</g>
<path fill-rule="evenodd" clip-rule="evenodd" d="M93.8136 89.7655L93.6301 90.195L92.3589 91.1144C92.4409 90.7313 93.4208 90.0223 93.7229 89.8119C93.7628 89.7817 93.8136 89.7655 93.8136 89.7655Z" fill="#FFCD02"/>
<path d="M95.1086 90.3094C94.3996 89.8961 93.8212 90.1454 93.5514 90.263C93.5935 90.1324 93.7392 89.8033 93.7392 89.8033C94.3133 89.4364 94.5744 89.4364 95.1107 89.6932C95.2143 89.9468 95.1464 90.1486 95.1086 90.3094Z" fill="url(#paint29_linear_289_2614)"/>
<path d="M245.587 124.126L242.073 125.084C240.872 121.921 238.681 120.339 235.502 120.339C229.662 120.339 226.673 125.168 226.536 134.826C227.464 132.682 228.78 131.092 230.483 130.058C232.187 129.024 233.989 128.507 235.89 128.507C238.78 128.507 241.199 129.518 243.145 131.541C245.108 133.549 246.089 135.959 246.089 138.773C246.089 141.694 245.047 144.218 242.963 146.348C240.894 148.462 238.24 149.519 235.001 149.519C231.32 149.519 228.384 148.135 226.194 145.367C224.019 142.583 222.931 138.804 222.931 134.028C222.931 129.358 223.958 125.373 226.011 122.073C228.08 118.772 231.274 117.122 235.594 117.122C240.567 117.122 243.898 119.457 245.587 124.126ZM234.932 146.393C237.138 146.393 238.94 145.671 240.339 144.226C241.754 142.766 242.461 141.017 242.461 138.979C242.461 136.971 241.769 135.252 240.385 133.822C239.016 132.377 237.312 131.655 235.274 131.655C233.175 131.655 231.343 132.408 229.776 133.914C228.209 135.419 227.426 137.184 227.426 139.207C227.426 141.078 228.126 142.743 229.525 144.203C230.924 145.663 232.727 146.393 234.932 146.393Z" fill="white" stroke="black" stroke-width="1.16813"/>
<path d="M268.858 148.903H265.093V141.488H249.693V138.865L263.976 117.099H268.858V138.408H273.9V141.488H268.858V148.903ZM265.093 138.408V123.67C265.093 122.605 265.116 121.457 265.162 120.225C264.508 121.426 263.945 122.4 263.474 123.145L253.754 138.408H265.093Z" fill="white" stroke="black" stroke-width="1.16813"/>
<path d="M286.676 135.83V138.614H276.364V135.83H286.676Z" fill="white" stroke="black" stroke-width="1.16813"/>
<path d="M291.262 148.903V117.761H303.582C306.685 117.761 308.982 118.521 310.472 120.042C311.978 121.563 312.731 123.328 312.731 125.335C312.731 128.864 310.891 131.206 307.21 132.362C309.4 132.925 311.028 133.929 312.092 135.374C313.157 136.819 313.689 138.454 313.689 140.279C313.689 142.728 312.86 144.781 311.203 146.439C309.56 148.082 307.02 148.903 303.582 148.903H291.262ZM295.027 131.107H301.803C304.617 131.107 306.495 130.575 307.438 129.51C308.381 128.43 308.853 127.168 308.853 125.723C308.853 124.293 308.343 123.137 307.324 122.255C306.32 121.373 304.814 120.932 302.807 120.932H295.027V131.107ZM295.027 145.481H303.377C305.415 145.481 306.989 144.987 308.1 143.998C309.21 143.009 309.765 141.724 309.765 140.142C309.765 139.032 309.514 138.005 309.012 137.062C308.51 136.104 307.803 135.366 306.89 134.849C305.978 134.332 304.617 134.073 302.807 134.073H295.027V145.481Z" fill="white" stroke="black" stroke-width="1.16813"/>
<path d="M322.929 117.761V121.73H319.074V117.761H322.929ZM322.815 125.86V148.903H319.233V125.86H322.815Z" fill="white" stroke="black" stroke-width="1.16813"/>
<path d="M340.451 146.439V149.268C339.189 149.435 338.094 149.519 337.166 149.519C332.709 149.519 330.481 147.192 330.481 142.538V128.666H326.397V125.86H330.481L330.641 120.065L333.972 119.746V125.86H339.128V128.666H333.972V143.131C333.972 145.504 335.204 146.69 337.668 146.69C338.489 146.69 339.417 146.606 340.451 146.439Z" fill="white" stroke="black" stroke-width="1.16813"/>
<path d="M376.567 145.481V148.903H356.422V117.761H376.134V121.183H360.323V131.085H372.871V134.256H360.323V145.481H376.567Z" fill="white" stroke="black" stroke-width="1.16813"/>
<path d="M399.747 117.761V148.903H396.485V144.956C394.873 147.998 392.447 149.519 389.207 149.519C386.515 149.519 384.302 148.394 382.568 146.143C380.834 143.876 379.967 141.017 379.967 137.564C379.967 134.035 380.826 131.1 382.545 128.757C384.264 126.4 386.545 125.221 389.389 125.221C392.158 125.221 394.416 126.484 396.165 129.008V117.761H399.747ZM396.165 134.758C396.165 132.735 395.549 131.115 394.317 129.898C393.085 128.681 391.648 128.073 390.005 128.073C388.226 128.073 386.758 128.864 385.602 130.446C384.461 132.028 383.891 134.248 383.891 137.108C383.891 140.195 384.416 142.545 385.465 144.158C386.53 145.77 387.982 146.576 389.823 146.576C391.496 146.576 392.971 145.876 394.249 144.477C395.527 143.078 396.165 141.435 396.165 139.549V134.758Z" fill="white" stroke="black" stroke-width="1.16813"/>
<path d="M410.63 117.761V121.73H406.774V117.761H410.63ZM410.516 125.86V148.903H406.934V125.86H410.516Z" fill="white" stroke="black" stroke-width="1.16813"/>
<path d="M428.152 146.439V149.268C426.89 149.435 425.795 149.519 424.867 149.519C420.41 149.519 418.182 147.192 418.182 142.538V128.666H414.098V125.86H418.182L418.342 120.065L421.673 119.746V125.86H426.829V128.666H421.673V143.131C421.673 145.504 422.905 146.69 425.369 146.69C426.19 146.69 427.118 146.606 428.152 146.439Z" fill="white" stroke="black" stroke-width="1.16813"/>
<path d="M435.818 117.761V121.73H431.962V117.761H435.818ZM435.704 125.86V148.903H432.122V125.86H435.704Z" fill="white" stroke="black" stroke-width="1.16813"/>
<path d="M451.15 149.519C447.986 149.519 445.514 148.348 443.735 146.006C441.97 143.663 441.088 140.758 441.088 137.29C441.088 133.625 442.084 130.697 444.077 128.507C446.069 126.316 448.549 125.221 451.515 125.221C454.693 125.221 457.195 126.377 459.021 128.689C460.861 130.986 461.781 133.86 461.781 137.313C461.781 140.903 460.793 143.838 458.815 146.12C456.838 148.386 454.283 149.519 451.15 149.519ZM451.423 146.576C453.249 146.576 454.777 145.823 456.009 144.317C457.241 142.812 457.857 140.469 457.857 137.29C457.857 134.096 457.211 131.784 455.918 130.355C454.625 128.91 453.112 128.187 451.378 128.187C449.598 128.187 448.092 128.917 446.86 130.377C445.628 131.822 445.012 134.119 445.012 137.267C445.012 140.598 445.628 142.986 446.86 144.431C448.092 145.861 449.613 146.576 451.423 146.576Z" fill="white" stroke="black" stroke-width="1.16813"/>
<path d="M485.326 148.903H481.973V134.096C481.973 131.967 481.509 130.469 480.581 129.602C479.653 128.735 478.527 128.301 477.204 128.301C475.379 128.301 473.843 129.031 472.596 130.491C471.364 131.952 470.748 133.876 470.748 136.264V148.903H467.166V125.86H470.497V130.104C472.367 126.849 474.793 125.221 477.775 125.221C479.493 125.221 480.953 125.67 482.155 126.567C483.372 127.449 484.201 128.446 484.642 129.556C485.098 130.666 485.326 132.674 485.326 135.579V148.903Z" fill="white" stroke="black" stroke-width="1.16813"/>
</g>
<defs>
<linearGradient id="paint0_linear_289_2614" x1="107.08" y1="49.2853" x2="105.457" y2="48.82" gradientUnits="userSpaceOnUse">
<stop stop-color="#8AA742"/>
<stop offset="0.1" stop-color="#8AA742"/>
<stop offset="0.25" stop-color="#B7CA33"/>
<stop offset="0.4045" stop-color="#B7CA33"/>
<stop offset="1" stop-color="#8AA742"/>
</linearGradient>
<linearGradient id="paint1_linear_289_2614" x1="115.804" y1="18.4661" x2="114.244" y2="18.357" gradientUnits="userSpaceOnUse">
<stop stop-color="#83B641"/>
<stop offset="0.2" stop-color="#B7CA33"/>
<stop offset="0.525" stop-color="#B7CA33"/>
<stop offset="1" stop-color="#8AA742"/>
</linearGradient>
<linearGradient id="paint2_linear_289_2614" x1="184.284" y1="22.2058" x2="184.981" y2="23.3665" gradientUnits="userSpaceOnUse">
<stop stop-color="#83B641"/>
<stop offset="1" stop-color="#595E48"/>
</linearGradient>
<linearGradient id="paint3_linear_289_2614" x1="186.081" y1="23.1036" x2="185.641" y2="23.6278" gradientUnits="userSpaceOnUse">
<stop stop-color="#8AA742"/>
<stop offset="1" stop-color="#595E48"/>
</linearGradient>
<linearGradient id="paint4_linear_289_2614" x1="186.736" y1="23.5315" x2="186.736" y2="24.6422" gradientUnits="userSpaceOnUse">
<stop stop-color="#8AA742"/>
<stop offset="1" stop-color="#767E47"/>
</linearGradient>
<linearGradient id="paint5_linear_289_2614" x1="167.612" y1="84.1059" x2="166.091" y2="83.9995" gradientUnits="userSpaceOnUse">
<stop stop-color="#767E47"/>
<stop offset="1" stop-color="#8AA742"/>
</linearGradient>
<linearGradient id="paint6_linear_289_2614" x1="168.327" y1="84.2419" x2="167.344" y2="85.3331" gradientUnits="userSpaceOnUse">
<stop stop-color="#767E47"/>
<stop offset="1" stop-color="#595E48"/>
</linearGradient>
<linearGradient id="paint7_linear_289_2614" x1="97.5127" y1="86.1578" x2="166.888" y2="86.1578" gradientUnits="userSpaceOnUse">
<stop stop-color="#8AA742"/>
<stop offset="0.4" stop-color="#B7CA33"/>
<stop offset="1" stop-color="#8AA742"/>
</linearGradient>
<linearGradient id="paint8_linear_289_2614" x1="97.09" y1="80.8464" x2="95.9915" y2="79.6262" gradientUnits="userSpaceOnUse">
<stop stop-color="#767E47"/>
<stop offset="0.1" stop-color="#767E47"/>
<stop offset="0.65" stop-color="#83B641"/>
<stop offset="1" stop-color="#8AA742"/>
</linearGradient>
<linearGradient id="paint9_linear_289_2614" x1="97.0537" y1="78.872" x2="97.8533" y2="80.3145" gradientUnits="userSpaceOnUse">
<stop stop-color="#8AA742"/>
<stop offset="0.4045" stop-color="#83B641"/>
<stop offset="0.8" stop-color="#8AA742"/>
<stop offset="1" stop-color="#8AA742"/>
</linearGradient>
<linearGradient id="paint10_linear_289_2614" x1="176.532" y1="53.4496" x2="174.915" y2="52.986" gradientUnits="userSpaceOnUse">
<stop stop-color="#595E48"/>
<stop offset="1" stop-color="#83B641"/>
</linearGradient>
<linearGradient id="paint11_linear_289_2614" x1="172.522" y1="62.4178" x2="108.411" y2="44.0342" gradientUnits="userSpaceOnUse">
<stop stop-color="#6FBC48"/>
<stop offset="0.3333" stop-color="#98C74F"/>
<stop offset="0.6666" stop-color="#80C046"/>
<stop offset="1" stop-color="#607D3A"/>
</linearGradient>
<linearGradient id="paint12_linear_289_2614" x1="0.202752" y1="139.416" x2="68.142" y2="139.416" gradientUnits="userSpaceOnUse">
<stop stop-color="#76A5D8"/>
<stop offset="0.45" stop-color="#DAE3EC"/>
<stop offset="1" stop-color="#3F87C7"/>
</linearGradient>
<linearGradient id="paint13_linear_289_2614" x1="75.7145" y1="119.738" x2="11.5284" y2="101.332" gradientUnits="userSpaceOnUse">
<stop stop-color="#2E499E"/>
<stop offset="0.4" stop-color="#4496D1"/>
<stop offset="0.725" stop-color="#A5CDED"/>
<stop offset="1" stop-color="#007FC4"/>
</linearGradient>
<linearGradient id="paint14_linear_289_2614" x1="17.5333" y1="80.0861" x2="17.5333" y2="80.5266" gradientUnits="userSpaceOnUse">
<stop stop-color="#76A5D8"/>
<stop offset="1" stop-color="#2E499E"/>
</linearGradient>
<linearGradient id="paint15_linear_289_2614" x1="20.6242" y1="67.2887" x2="88.9081" y2="67.2887" gradientUnits="userSpaceOnUse">
<stop stop-color="#FAAB4F"/>
<stop offset="0.25" stop-color="#FAAB4F"/>
<stop offset="0.475" stop-color="#FCC193"/>
<stop offset="0.525" stop-color="#FCC193"/>
<stop offset="0.75" stop-color="#F89C3E"/>
<stop offset="1" stop-color="#F89C3E"/>
</linearGradient>
<linearGradient id="paint16_linear_289_2614" x1="96.2455" y1="48.0534" x2="32.0017" y2="29.6317" gradientUnits="userSpaceOnUse">
<stop stop-color="#CD2B2B"/>
<stop offset="0.4" stop-color="#F2692A"/>
<stop offset="0.725" stop-color="#FCB544"/>
<stop offset="1" stop-color="#F37237"/>
</linearGradient>
<linearGradient id="paint17_linear_289_2614" x1="148.575" y1="155.913" x2="148.212" y2="157.27" gradientUnits="userSpaceOnUse">
<stop stop-color="#D4A52E"/>
<stop offset="1" stop-color="#A87C3C"/>
</linearGradient>
<linearGradient id="paint18_linear_289_2614" x1="165.68" y1="96.438" x2="165.68" y2="97.5552" gradientUnits="userSpaceOnUse">
<stop offset="0.0056" stop-color="#C19236"/>
<stop offset="1" stop-color="#D4A52E"/>
</linearGradient>
<linearGradient id="paint19_linear_289_2614" x1="163.199" y1="95.1176" x2="163.902" y2="96.2874" gradientUnits="userSpaceOnUse">
<stop offset="0.0056" stop-color="#FFCD02"/>
<stop offset="1" stop-color="#A87C3C"/>
</linearGradient>
<linearGradient id="paint20_linear_289_2614" x1="165.03" y1="96.0145" x2="164.6" y2="96.5272" gradientUnits="userSpaceOnUse">
<stop offset="0.0056" stop-color="#FFCD02"/>
<stop offset="1" stop-color="#A87C3C"/>
</linearGradient>
<linearGradient id="paint21_linear_289_2614" x1="147.159" y1="155.292" x2="145.635" y2="155.186" gradientUnits="userSpaceOnUse">
<stop stop-color="#C19236"/>
<stop offset="1" stop-color="#FFCD02"/>
</linearGradient>
<linearGradient id="paint22_linear_289_2614" x1="86.517" y1="120.47" x2="84.9215" y2="120.012" gradientUnits="userSpaceOnUse">
<stop stop-color="#D4A52E"/>
<stop offset="0.1" stop-color="#D4A52E"/>
<stop offset="0.2" stop-color="#FFC222"/>
<stop offset="0.35" stop-color="#FFC222"/>
<stop offset="1" stop-color="#D4A52E"/>
</linearGradient>
<linearGradient id="paint23_linear_289_2614" x1="155.719" y1="125.48" x2="154.208" y2="125.047" gradientUnits="userSpaceOnUse">
<stop stop-color="#A87C3C"/>
<stop offset="1" stop-color="#FFD200"/>
</linearGradient>
<linearGradient id="paint24_linear_289_2614" x1="147.794" y1="155.125" x2="147.034" y2="156.83" gradientUnits="userSpaceOnUse">
<stop stop-color="#C19236"/>
<stop offset="1" stop-color="#D4A52E"/>
</linearGradient>
<linearGradient id="paint25_linear_289_2614" x1="77.0913" y1="157.15" x2="146.433" y2="157.15" gradientUnits="userSpaceOnUse">
<stop stop-color="#D4A52E"/>
<stop offset="0.4" stop-color="#FFD200"/>
<stop offset="1" stop-color="#D4A52E"/>
</linearGradient>
<linearGradient id="paint26_linear_289_2614" x1="76.6113" y1="152.012" x2="75.4943" y2="150.771" gradientUnits="userSpaceOnUse">
<stop stop-color="#D4A52E"/>
<stop offset="0.1" stop-color="#D4A52E"/>
<stop offset="0.7" stop-color="#FFD200"/>
<stop offset="1" stop-color="#D4A52E"/>
</linearGradient>
<linearGradient id="paint27_linear_289_2614" x1="76.644" y1="149.929" x2="77.4343" y2="151.355" gradientUnits="userSpaceOnUse">
<stop stop-color="#D4A52E"/>
<stop offset="0.4" stop-color="#FFC222"/>
<stop offset="0.8" stop-color="#FFCD02"/>
<stop offset="1" stop-color="#D4A52E"/>
</linearGradient>
<linearGradient id="paint28_linear_289_2614" x1="152.122" y1="133.409" x2="87.8676" y2="114.984" gradientUnits="userSpaceOnUse">
<stop stop-color="#FFC907"/>
<stop offset="0.1667" stop-color="#FFD200"/>
<stop offset="0.3333" stop-color="#FFD952"/>
<stop offset="0.625" stop-color="#FFCD02"/>
<stop offset="1" stop-color="#B77A36"/>
</linearGradient>
<linearGradient id="paint29_linear_289_2614" x1="95.1679" y1="89.9664" x2="93.5805" y2="89.8554" gradientUnits="userSpaceOnUse">
<stop stop-color="#FFC222"/>
<stop offset="0.2" stop-color="#FFC222"/>
<stop offset="0.525" stop-color="#FFD200"/>
<stop offset="1" stop-color="#D4A52E"/>
</linearGradient>
<clipPath id="clip0_289_2614">
<rect width="595.414" height="165.072" fill="white"/>
</clipPath>
</defs>
</svg>
