<svg width="121" height="123" viewBox="0 0 121 123" fill="none" xmlns="http://www.w3.org/2000/svg">
<g clip-path="url(#clip0_292_2589)">
<path d="M54.0299 108.91C52.4799 110.54 51.7199 112.65 51.7499 114.76C51.7799 116.87 52.5899 118.96 54.1899 120.55L54.3099 120.67C55.8899 122.17 57.9099 122.9 59.9199 122.87C61.9299 122.84 63.9299 122.05 65.4699 120.5C83.1299 102.84 100.6 84.89 118.15 67.1C118.22 67.05 118.28 67 118.34 66.94C119.89 65.31 120.65 63.18 120.62 61.07C120.59 58.96 119.77 56.86 118.17 55.27L117.9 55.01C100.43 37.47 82.9799 19.87 65.4599 2.35997C63.9299 0.819973 61.9299 0.0299725 59.9199 -2.75233e-05C57.9099 -0.0300275 55.8899 0.699973 54.3099 2.20997L54.1599 2.35997C52.5899 3.93997 51.7799 6.01997 51.7499 8.11997C51.7199 10.22 52.4799 12.34 54.0299 13.97L101.25 61.24L54.0299 108.91ZM2.25989 106.91C0.719889 108.53 -0.0301112 110.64 -0.000111249 112.74C0.0298888 114.85 0.839889 116.94 2.43989 118.53L2.55989 118.65C4.12989 120.15 6.15989 120.88 8.16989 120.86C10.1799 120.83 12.1899 120.04 13.7199 118.49C31.0099 101.2 48.8699 84.2 66.3899 67.12C66.4599 67.07 66.5299 67.01 66.5999 66.95C68.1499 65.32 68.9099 63.19 68.8799 61.08C68.8499 58.97 68.0299 56.87 66.4299 55.28C48.9399 38.33 31.3599 21.44 13.8299 4.50997L13.7099 4.37997C12.1799 2.83997 10.1799 2.05997 8.16989 2.02997C6.15989 1.99997 4.13989 2.72997 2.55989 4.22997L2.40989 4.37997C0.839889 5.95997 0.0298888 8.04997 -0.000111249 10.14C-0.0301112 12.24 0.729889 14.36 2.27989 15.99L49.4599 61.23L2.25989 106.91Z" fill="#727885"/>
</g>
<defs>
<clipPath id="clip0_292_2589">
<rect width="120.64" height="122.88" fill="white"/>
</clipPath>
</defs>
</svg>
