<svg width="107" height="39" viewBox="0 0 107 39" fill="none" xmlns="http://www.w3.org/2000/svg">
<path d="M0.844188 9.114C0.844188 8.162 1.05885 7.308 1.48819 6.552C1.91752 5.78667 2.50085 5.18933 3.23819 4.76C3.98485 4.33067 4.81085 4.116 5.71619 4.116C6.78019 4.116 7.70885 4.37267 8.50219 4.886C9.29552 5.39933 9.87419 6.12733 10.2382 7.07H8.71219C8.44152 6.482 8.04952 6.02933 7.53619 5.712C7.03219 5.39467 6.42552 5.236 5.71619 5.236C5.03485 5.236 4.42352 5.39467 3.88219 5.712C3.34085 6.02933 2.91619 6.482 2.60819 7.07C2.30019 7.64867 2.14619 8.33 2.14619 9.114C2.14619 9.88867 2.30019 10.57 2.60819 11.158C2.91619 11.7367 3.34085 12.1847 3.88219 12.502C4.42352 12.8193 5.03485 12.978 5.71619 12.978C6.42552 12.978 7.03219 12.824 7.53619 12.516C8.04952 12.1987 8.44152 11.746 8.71219 11.158H10.2382C9.87419 12.0913 9.29552 12.8147 8.50219 13.328C7.70885 13.832 6.78019 14.084 5.71619 14.084C4.81085 14.084 3.98485 13.874 3.23819 13.454C2.50085 13.0247 1.91752 12.432 1.48819 11.676C1.05885 10.92 0.844188 10.066 0.844188 9.114ZM18.9386 6.328V14H17.6646V12.866C17.422 13.258 17.0813 13.566 16.6426 13.79C16.2133 14.0047 15.7373 14.112 15.2146 14.112C14.6173 14.112 14.0806 13.9907 13.6046 13.748C13.1286 13.496 12.7506 13.1227 12.4706 12.628C12.2 12.1333 12.0646 11.5313 12.0646 10.822V6.328H13.3246V10.654C13.3246 11.41 13.516 11.9933 13.8986 12.404C14.2813 12.8053 14.804 13.006 15.4666 13.006C16.148 13.006 16.6846 12.796 17.0766 12.376C17.4686 11.956 17.6646 11.3447 17.6646 10.542V6.328H18.9386ZM23.8057 14.126C23.2177 14.126 22.6904 14.028 22.2237 13.832C21.7571 13.6267 21.3884 13.3467 21.1177 12.992C20.8471 12.628 20.6977 12.2127 20.6697 11.746H21.9857C22.0231 12.1287 22.2004 12.4413 22.5177 12.684C22.8444 12.9267 23.2691 13.048 23.7917 13.048C24.2771 13.048 24.6597 12.9407 24.9397 12.726C25.2197 12.5113 25.3597 12.2407 25.3597 11.914C25.3597 11.578 25.2104 11.3307 24.9117 11.172C24.6131 11.004 24.1511 10.8407 23.5257 10.682C22.9564 10.5327 22.4897 10.3833 22.1257 10.234C21.7711 10.0753 21.4631 9.84667 21.2017 9.548C20.9497 9.24 20.8237 8.83867 20.8237 8.344C20.8237 7.952 20.9404 7.59267 21.1737 7.266C21.4071 6.93933 21.7384 6.68267 22.1677 6.496C22.5971 6.3 23.0871 6.202 23.6377 6.202C24.4871 6.202 25.1731 6.41667 25.6957 6.846C26.2184 7.27533 26.4984 7.86333 26.5357 8.61H25.2617C25.2337 8.20867 25.0704 7.88667 24.7717 7.644C24.4824 7.40133 24.0904 7.28 23.5957 7.28C23.1384 7.28 22.7744 7.378 22.5037 7.574C22.2331 7.77 22.0977 8.02667 22.0977 8.344C22.0977 8.596 22.1771 8.806 22.3357 8.974C22.5037 9.13267 22.7091 9.26333 22.9517 9.366C23.2037 9.45933 23.5491 9.56667 23.9877 9.688C24.5384 9.83733 24.9864 9.98667 25.3317 10.136C25.6771 10.276 25.9711 10.4907 26.2137 10.78C26.4657 11.0693 26.5964 11.4473 26.6057 11.914C26.6057 12.334 26.4891 12.712 26.2557 13.048C26.0224 13.384 25.6911 13.65 25.2617 13.846C24.8417 14.0327 24.3564 14.126 23.8057 14.126ZM29.9582 7.378V11.9C29.9582 12.2733 30.0375 12.5393 30.1962 12.698C30.3548 12.8473 30.6302 12.922 31.0222 12.922H31.9602V14H30.8122C30.1028 14 29.5708 13.8367 29.2162 13.51C28.8615 13.1833 28.6842 12.6467 28.6842 11.9V7.378H27.6902V6.328H28.6842V4.396H29.9582V6.328H31.9602V7.378H29.9582ZM36.8498 14.126C36.1311 14.126 35.4778 13.9627 34.8898 13.636C34.3111 13.3093 33.8538 12.8473 33.5178 12.25C33.1911 11.6433 33.0278 10.9433 33.0278 10.15C33.0278 9.366 33.1958 8.67533 33.5318 8.078C33.8771 7.47133 34.3438 7.00933 34.9318 6.692C35.5198 6.36533 36.1778 6.202 36.9058 6.202C37.6338 6.202 38.2918 6.36533 38.8798 6.692C39.4678 7.00933 39.9298 7.46667 40.2658 8.064C40.6111 8.66133 40.7838 9.35667 40.7838 10.15C40.7838 10.9433 40.6064 11.6433 40.2518 12.25C39.9064 12.8473 39.4351 13.3093 38.8378 13.636C38.2404 13.9627 37.5778 14.126 36.8498 14.126ZM36.8498 13.006C37.3071 13.006 37.7364 12.8987 38.1378 12.684C38.5391 12.4693 38.8611 12.1473 39.1038 11.718C39.3558 11.2887 39.4818 10.766 39.4818 10.15C39.4818 9.534 39.3604 9.01133 39.1178 8.582C38.8751 8.15267 38.5578 7.83533 38.1658 7.63C37.7738 7.41533 37.3491 7.308 36.8918 7.308C36.4251 7.308 35.9958 7.41533 35.6038 7.63C35.2211 7.83533 34.9131 8.15267 34.6798 8.582C34.4464 9.01133 34.3298 9.534 34.3298 10.15C34.3298 10.7753 34.4418 11.3027 34.6658 11.732C34.8991 12.1613 35.2071 12.4833 35.5898 12.698C35.9724 12.9033 36.3924 13.006 36.8498 13.006ZM51.6849 6.188C52.2822 6.188 52.8142 6.314 53.2809 6.566C53.7475 6.80867 54.1162 7.17733 54.3869 7.672C54.6575 8.16667 54.7929 8.76867 54.7929 9.478V14H53.5329V9.66C53.5329 8.89467 53.3415 8.31133 52.9589 7.91C52.5855 7.49933 52.0769 7.294 51.4329 7.294C50.7702 7.294 50.2429 7.50867 49.8509 7.938C49.4589 8.358 49.2629 8.96933 49.2629 9.772V14H48.0029V9.66C48.0029 8.89467 47.8115 8.31133 47.4289 7.91C47.0555 7.49933 46.5469 7.294 45.9029 7.294C45.2402 7.294 44.7129 7.50867 44.3209 7.938C43.9289 8.358 43.7329 8.96933 43.7329 9.772V14H42.4589V6.328H43.7329V7.434C43.9849 7.03267 44.3209 6.72467 44.7409 6.51C45.1702 6.29533 45.6415 6.188 46.1549 6.188C46.7989 6.188 47.3682 6.33267 47.8629 6.622C48.3575 6.91133 48.7262 7.336 48.9689 7.896C49.1835 7.35467 49.5382 6.93467 50.0329 6.636C50.5275 6.33733 51.0782 6.188 51.6849 6.188ZM59.9991 9.072C59.9991 8.10133 60.2091 7.238 60.6291 6.482C61.0491 5.71667 61.6324 5.124 62.3791 4.704C63.1351 4.27467 63.9891 4.06 64.9411 4.06C66.1078 4.06 67.1064 4.368 67.9371 4.984C68.7678 5.6 69.3231 6.44 69.6031 7.504H66.9711C66.7751 7.09333 66.4951 6.78067 66.1311 6.566C65.7764 6.35133 65.3704 6.244 64.9131 6.244C64.1758 6.244 63.5784 6.50067 63.1211 7.014C62.6638 7.52733 62.4351 8.21333 62.4351 9.072C62.4351 9.93067 62.6638 10.6167 63.1211 11.13C63.5784 11.6433 64.1758 11.9 64.9131 11.9C65.3704 11.9 65.7764 11.7927 66.1311 11.578C66.4951 11.3633 66.7751 11.0507 66.9711 10.64H69.6031C69.3231 11.704 68.7678 12.544 67.9371 13.16C67.1064 13.7667 66.1078 14.07 64.9411 14.07C63.9891 14.07 63.1351 13.86 62.3791 13.44C61.6324 13.0107 61.0491 12.418 60.6291 11.662C60.2091 10.906 59.9991 10.0427 59.9991 9.072ZM76.4032 0.699999L72.6512 16.618H70.3412L74.0932 0.699999H76.4032ZM77.0069 9.072C77.0069 8.10133 77.2169 7.238 77.6369 6.482C78.0569 5.71667 78.6403 5.124 79.3869 4.704C80.1429 4.27467 80.9969 4.06 81.9489 4.06C83.1156 4.06 84.1143 4.368 84.9449 4.984C85.7756 5.6 86.3309 6.44 86.6109 7.504H83.9789C83.7829 7.09333 83.5029 6.78067 83.1389 6.566C82.7843 6.35133 82.3783 6.244 81.9209 6.244C81.1836 6.244 80.5863 6.50067 80.1289 7.014C79.6716 7.52733 79.4429 8.21333 79.4429 9.072C79.4429 9.93067 79.6716 10.6167 80.1289 11.13C80.5863 11.6433 81.1836 11.9 81.9209 11.9C82.3783 11.9 82.7843 11.7927 83.1389 11.578C83.5029 11.3633 83.7829 11.0507 83.9789 10.64H86.6109C86.3309 11.704 85.7756 12.544 84.9449 13.16C84.1143 13.7667 83.1156 14.07 81.9489 14.07C80.9969 14.07 80.1429 13.86 79.3869 13.44C78.6403 13.0107 78.0569 12.418 77.6369 11.662C77.2169 10.906 77.0069 10.0427 77.0069 9.072ZM95.175 10.178H92.739V12.67H90.471V10.178H88.035V8.036H90.471V5.53H92.739V8.036H95.175V10.178ZM103.966 10.178H101.53V12.67H99.262V10.178H96.826V8.036H99.262V5.53H101.53V8.036H103.966V10.178ZM8.88757 30.87C8.88757 31.1127 8.87357 31.3693 8.84557 31.64H2.71357C2.76024 32.396 3.0169 32.9887 3.48357 33.418C3.95957 33.838 4.53357 34.048 5.20557 34.048C5.75624 34.048 6.21357 33.922 6.57757 33.67C6.9509 33.4087 7.21224 33.0633 7.36157 32.634H8.73357C8.52824 33.3713 8.11757 33.9733 7.50157 34.44C6.88557 34.8973 6.12024 35.126 5.20557 35.126C4.47757 35.126 3.82424 34.9627 3.24557 34.636C2.67624 34.3093 2.22824 33.8473 1.90157 33.25C1.5749 32.6433 1.41157 31.9433 1.41157 31.15C1.41157 30.3567 1.57024 29.6613 1.88757 29.064C2.2049 28.4667 2.64824 28.0093 3.21757 27.692C3.79624 27.3653 4.4589 27.202 5.20557 27.202C5.93357 27.202 6.57757 27.3607 7.13757 27.678C7.69757 27.9953 8.1269 28.434 8.42557 28.994C8.73357 29.5447 8.88757 30.17 8.88757 30.87ZM7.57157 30.604C7.57157 30.1187 7.46424 29.7033 7.24957 29.358C7.0349 29.0033 6.7409 28.7373 6.36757 28.56C6.00357 28.3733 5.59757 28.28 5.14957 28.28C4.50557 28.28 3.9549 28.4853 3.49757 28.896C3.04957 29.3067 2.7929 29.876 2.72757 30.604H7.57157ZM14.3072 27.188C15.2405 27.188 15.9965 27.4727 16.5752 28.042C17.1539 28.602 17.4432 29.414 17.4432 30.478V35H16.1832V30.66C16.1832 29.8947 15.9919 29.3113 15.6092 28.91C15.2265 28.4993 14.7039 28.294 14.0412 28.294C13.3692 28.294 12.8325 28.504 12.4312 28.924C12.0392 29.344 11.8432 29.9553 11.8432 30.758V35H10.5692V27.328H11.8432V28.42C12.0952 28.028 12.4359 27.7247 12.8652 27.51C13.3039 27.2953 13.7845 27.188 14.3072 27.188ZM22.6883 27.202C23.351 27.202 23.9296 27.3467 24.4243 27.636C24.9283 27.9253 25.3016 28.2893 25.5443 28.728V27.328H26.8323V35.168C26.8323 35.868 26.683 36.4887 26.3843 37.03C26.0856 37.5807 25.6563 38.01 25.0963 38.318C24.5456 38.626 23.9016 38.78 23.1643 38.78C22.1563 38.78 21.3163 38.542 20.6443 38.066C19.9723 37.59 19.5756 36.9413 19.4543 36.12H20.7143C20.8543 36.5867 21.1436 36.96 21.5823 37.24C22.021 37.5293 22.5483 37.674 23.1643 37.674C23.8643 37.674 24.4336 37.4547 24.8723 37.016C25.3203 36.5773 25.5443 35.9613 25.5443 35.168V33.558C25.2923 34.006 24.919 34.3793 24.4243 34.678C23.9296 34.9767 23.351 35.126 22.6883 35.126C22.007 35.126 21.3863 34.958 20.8263 34.622C20.2756 34.286 19.8416 33.8147 19.5243 33.208C19.207 32.6013 19.0483 31.9107 19.0483 31.136C19.0483 30.352 19.207 29.666 19.5243 29.078C19.8416 28.4807 20.2756 28.0187 20.8263 27.692C21.3863 27.3653 22.007 27.202 22.6883 27.202ZM25.5443 31.15C25.5443 30.5713 25.4276 30.0673 25.1943 29.638C24.961 29.2087 24.6436 28.882 24.2423 28.658C23.8503 28.4247 23.4163 28.308 22.9403 28.308C22.4643 28.308 22.0303 28.42 21.6383 28.644C21.2463 28.868 20.9336 29.1947 20.7003 29.624C20.467 30.0533 20.3503 30.5573 20.3503 31.136C20.3503 31.724 20.467 32.2373 20.7003 32.676C20.9336 33.1053 21.2463 33.4367 21.6383 33.67C22.0303 33.894 22.4643 34.006 22.9403 34.006C23.4163 34.006 23.8503 33.894 24.2423 33.67C24.6436 33.4367 24.961 33.1053 25.1943 32.676C25.4276 32.2373 25.5443 31.7287 25.5443 31.15ZM29.6432 26.082C29.4006 26.082 29.1952 25.998 29.0272 25.83C28.8592 25.662 28.7752 25.4567 28.7752 25.214C28.7752 24.9713 28.8592 24.766 29.0272 24.598C29.1952 24.43 29.4006 24.346 29.6432 24.346C29.8766 24.346 30.0726 24.43 30.2312 24.598C30.3992 24.766 30.4832 24.9713 30.4832 25.214C30.4832 25.4567 30.3992 25.662 30.2312 25.83C30.0726 25.998 29.8766 26.082 29.6432 26.082ZM30.2592 27.328V35H28.9852V27.328H30.2592ZM36.1685 27.188C37.1019 27.188 37.8579 27.4727 38.4365 28.042C39.0152 28.602 39.3045 29.414 39.3045 30.478V35H38.0445V30.66C38.0445 29.8947 37.8532 29.3113 37.4705 28.91C37.0879 28.4993 36.5652 28.294 35.9025 28.294C35.2305 28.294 34.6939 28.504 34.2925 28.924C33.9005 29.344 33.7045 29.9553 33.7045 30.758V35H32.4305V27.328H33.7045V28.42C33.9565 28.028 34.2972 27.7247 34.7265 27.51C35.1652 27.2953 35.6459 27.188 36.1685 27.188ZM48.3856 30.87C48.3856 31.1127 48.3716 31.3693 48.3436 31.64H42.2116C42.2583 32.396 42.515 32.9887 42.9816 33.418C43.4576 33.838 44.0316 34.048 44.7036 34.048C45.2543 34.048 45.7116 33.922 46.0756 33.67C46.449 33.4087 46.7103 33.0633 46.8596 32.634H48.2316C48.0263 33.3713 47.6156 33.9733 46.9996 34.44C46.3836 34.8973 45.6183 35.126 44.7036 35.126C43.9756 35.126 43.3223 34.9627 42.7436 34.636C42.1743 34.3093 41.7263 33.8473 41.3996 33.25C41.073 32.6433 40.9096 31.9433 40.9096 31.15C40.9096 30.3567 41.0683 29.6613 41.3856 29.064C41.703 28.4667 42.1463 28.0093 42.7156 27.692C43.2943 27.3653 43.957 27.202 44.7036 27.202C45.4316 27.202 46.0756 27.3607 46.6356 27.678C47.1956 27.9953 47.625 28.434 47.9236 28.994C48.2316 29.5447 48.3856 30.17 48.3856 30.87ZM47.0696 30.604C47.0696 30.1187 46.9623 29.7033 46.7476 29.358C46.533 29.0033 46.239 28.7373 45.8656 28.56C45.5016 28.3733 45.0956 28.28 44.6476 28.28C44.0036 28.28 43.453 28.4853 42.9956 28.896C42.5476 29.3067 42.291 29.876 42.2256 30.604H47.0696ZM56.5157 35.126C55.9277 35.126 55.4003 35.028 54.9337 34.832C54.467 34.6267 54.0983 34.3467 53.8277 33.992C53.557 33.628 53.4077 33.2127 53.3797 32.746H54.6957C54.733 33.1287 54.9103 33.4413 55.2277 33.684C55.5543 33.9267 55.979 34.048 56.5017 34.048C56.987 34.048 57.3697 33.9407 57.6497 33.726C57.9297 33.5113 58.0697 33.2407 58.0697 32.914C58.0697 32.578 57.9203 32.3307 57.6217 32.172C57.323 32.004 56.861 31.8407 56.2357 31.682C55.6663 31.5327 55.1997 31.3833 54.8357 31.234C54.481 31.0753 54.173 30.8467 53.9117 30.548C53.6597 30.24 53.5337 29.8387 53.5337 29.344C53.5337 28.952 53.6503 28.5927 53.8837 28.266C54.117 27.9393 54.4483 27.6827 54.8777 27.496C55.307 27.3 55.797 27.202 56.3477 27.202C57.197 27.202 57.883 27.4167 58.4057 27.846C58.9283 28.2753 59.2083 28.8633 59.2457 29.61H57.9717C57.9437 29.2087 57.7803 28.8867 57.4817 28.644C57.1923 28.4013 56.8003 28.28 56.3057 28.28C55.8483 28.28 55.4843 28.378 55.2137 28.574C54.943 28.77 54.8077 29.0267 54.8077 29.344C54.8077 29.596 54.887 29.806 55.0457 29.974C55.2137 30.1327 55.419 30.2633 55.6617 30.366C55.9137 30.4593 56.259 30.5667 56.6977 30.688C57.2483 30.8373 57.6963 30.9867 58.0417 31.136C58.387 31.276 58.681 31.4907 58.9237 31.78C59.1757 32.0693 59.3063 32.4473 59.3157 32.914C59.3157 33.334 59.199 33.712 58.9657 34.048C58.7323 34.384 58.401 34.65 57.9717 34.846C57.5517 35.0327 57.0663 35.126 56.5157 35.126ZM67.9181 27.328V35H66.6441V33.866C66.4015 34.258 66.0608 34.566 65.6221 34.79C65.1928 35.0047 64.7168 35.112 64.1941 35.112C63.5968 35.112 63.0601 34.9907 62.5841 34.748C62.1081 34.496 61.7301 34.1227 61.4501 33.628C61.1795 33.1333 61.0441 32.5313 61.0441 31.822V27.328H62.3041V31.654C62.3041 32.41 62.4955 32.9933 62.8781 33.404C63.2608 33.8053 63.7835 34.006 64.4461 34.006C65.1275 34.006 65.6641 33.796 66.0561 33.376C66.4481 32.956 66.6441 32.3447 66.6441 31.542V27.328H67.9181ZM71.3432 28.742C71.5952 28.3033 71.9685 27.9393 72.4632 27.65C72.9672 27.3513 73.5505 27.202 74.2132 27.202C74.8945 27.202 75.5105 27.3653 76.0612 27.692C76.6212 28.0187 77.0599 28.4807 77.3772 29.078C77.6945 29.666 77.8532 30.352 77.8532 31.136C77.8532 31.9107 77.6945 32.6013 77.3772 33.208C77.0599 33.8147 76.6212 34.286 76.0612 34.622C75.5105 34.958 74.8945 35.126 74.2132 35.126C73.5599 35.126 72.9812 34.9813 72.4772 34.692C71.9825 34.3933 71.6045 34.0247 71.3432 33.586V38.64H70.0692V27.328H71.3432V28.742ZM76.5512 31.136C76.5512 30.5573 76.4345 30.0533 76.2012 29.624C75.9679 29.1947 75.6505 28.868 75.2492 28.644C74.8572 28.42 74.4232 28.308 73.9472 28.308C73.4805 28.308 73.0465 28.4247 72.6452 28.658C72.2532 28.882 71.9359 29.2133 71.6932 29.652C71.4599 30.0813 71.3432 30.5807 71.3432 31.15C71.3432 31.7287 71.4599 32.2373 71.6932 32.676C71.9359 33.1053 72.2532 33.4367 72.6452 33.67C73.0465 33.894 73.4805 34.006 73.9472 34.006C74.4232 34.006 74.8572 33.894 75.2492 33.67C75.6505 33.4367 75.9679 33.1053 76.2012 32.676C76.4345 32.2373 76.5512 31.724 76.5512 31.136ZM80.8041 28.742C81.0561 28.3033 81.4295 27.9393 81.9241 27.65C82.4281 27.3513 83.0115 27.202 83.6741 27.202C84.3555 27.202 84.9715 27.3653 85.5221 27.692C86.0821 28.0187 86.5208 28.4807 86.8381 29.078C87.1555 29.666 87.3141 30.352 87.3141 31.136C87.3141 31.9107 87.1555 32.6013 86.8381 33.208C86.5208 33.8147 86.0821 34.286 85.5221 34.622C84.9715 34.958 84.3555 35.126 83.6741 35.126C83.0208 35.126 82.4421 34.9813 81.9381 34.692C81.4435 34.3933 81.0655 34.0247 80.8041 33.586V38.64H79.5301V27.328H80.8041V28.742ZM86.0121 31.136C86.0121 30.5573 85.8955 30.0533 85.6621 29.624C85.4288 29.1947 85.1115 28.868 84.7101 28.644C84.3181 28.42 83.8841 28.308 83.4081 28.308C82.9415 28.308 82.5075 28.4247 82.1061 28.658C81.7141 28.882 81.3968 29.2133 81.1541 29.652C80.9208 30.0813 80.8041 30.5807 80.8041 31.15C80.8041 31.7287 80.9208 32.2373 81.1541 32.676C81.3968 33.1053 81.7141 33.4367 82.1061 33.67C82.5075 33.894 82.9415 34.006 83.4081 34.006C83.8841 34.006 84.3181 33.894 84.7101 33.67C85.1115 33.4367 85.4288 33.1053 85.6621 32.676C85.8955 32.2373 86.0121 31.724 86.0121 31.136ZM92.3371 35.126C91.6184 35.126 90.9651 34.9627 90.3771 34.636C89.7984 34.3093 89.3411 33.8473 89.0051 33.25C88.6784 32.6433 88.5151 31.9433 88.5151 31.15C88.5151 30.366 88.6831 29.6753 89.0191 29.078C89.3644 28.4713 89.8311 28.0093 90.4191 27.692C91.0071 27.3653 91.6651 27.202 92.3931 27.202C93.1211 27.202 93.7791 27.3653 94.3671 27.692C94.9551 28.0093 95.4171 28.4667 95.7531 29.064C96.0984 29.6613 96.2711 30.3567 96.2711 31.15C96.2711 31.9433 96.0938 32.6433 95.7391 33.25C95.3938 33.8473 94.9224 34.3093 94.3251 34.636C93.7278 34.9627 93.0651 35.126 92.3371 35.126ZM92.3371 34.006C92.7944 34.006 93.2238 33.8987 93.6251 33.684C94.0264 33.4693 94.3484 33.1473 94.5911 32.718C94.8431 32.2887 94.9691 31.766 94.9691 31.15C94.9691 30.534 94.8478 30.0113 94.6051 29.582C94.3624 29.1527 94.0451 28.8353 93.6531 28.63C93.2611 28.4153 92.8364 28.308 92.3791 28.308C91.9124 28.308 91.4831 28.4153 91.0911 28.63C90.7084 28.8353 90.4004 29.1527 90.1671 29.582C89.9338 30.0113 89.8171 30.534 89.8171 31.15C89.8171 31.7753 89.9291 32.3027 90.1531 32.732C90.3864 33.1613 90.6944 33.4833 91.0771 33.698C91.4598 33.9033 91.8798 34.006 92.3371 34.006ZM99.2202 28.574C99.4442 28.1353 99.7615 27.7947 100.172 27.552C100.592 27.3093 101.101 27.188 101.698 27.188V28.504H101.362C99.9342 28.504 99.2202 29.2787 99.2202 30.828V35H97.9462V27.328H99.2202V28.574ZM104.723 28.378V32.9C104.723 33.2733 104.802 33.5393 104.961 33.698C105.119 33.8473 105.395 33.922 105.787 33.922H106.725V35H105.577C104.867 35 104.335 34.8367 103.981 34.51C103.626 34.1833 103.449 33.6467 103.449 32.9V28.378H102.455V27.328H103.449V25.396H104.723V27.328H106.725V28.378H104.723Z" fill="white"/>
</svg>
