<svg width="356" height="41" viewBox="0 0 356 41" fill="none" xmlns="http://www.w3.org/2000/svg">
<path d="M0.145982 40V2.65628H13.3751C26.639 2.65628 33.271 8.72398 33.271 20.8594C33.271 26.6754 31.4567 31.3195 27.8283 34.7917C24.2171 38.2639 19.3994 40 13.3751 40H0.145982ZM8.55743 9.50523V33.1771H12.7241C16.3699 33.1771 19.2258 32.0833 21.2918 29.8958C23.3751 27.7083 24.4168 24.7309 24.4168 20.9636C24.4168 17.4045 23.3838 14.6094 21.3178 12.5781C19.2692 10.5295 16.3873 9.50523 12.672 9.50523H8.55743ZM62.6199 29.0104H45.2241C45.5018 32.882 47.9411 34.8177 52.5418 34.8177C55.4758 34.8177 58.0539 34.1233 60.2761 32.7344V38.6719C57.8109 39.9913 54.6077 40.651 50.6668 40.651C46.3612 40.651 43.0192 39.4618 40.6407 37.0833C38.2623 34.6875 37.073 31.3542 37.073 27.0833C37.073 22.6563 38.3578 19.1493 40.9272 16.5625C43.4966 13.9757 46.6564 12.6823 50.4064 12.6823C54.2952 12.6823 57.2987 13.8368 59.4168 16.1459C61.5522 18.4549 62.6199 21.5886 62.6199 25.5469V29.0104ZM54.9897 23.9583C54.9897 20.1389 53.4445 18.2292 50.3543 18.2292C49.0348 18.2292 47.889 18.7761 46.9168 19.8698C45.9619 20.9636 45.3803 22.3264 45.172 23.9583H54.9897ZM75.849 36.901H75.7449V40H67.5157V0.520865H75.7449V17.3438H75.849C77.8803 14.2361 80.7709 12.6823 84.5209 12.6823C87.9584 12.6823 90.606 13.8629 92.4636 16.224C94.3213 18.5851 95.2501 21.8143 95.2501 25.9115C95.2501 30.3559 94.165 33.9236 91.9949 36.6146C89.8247 39.3056 86.9254 40.651 83.297 40.651C80.0157 40.651 77.5331 39.401 75.849 36.901ZM75.6147 25.6511V28.3854C75.6147 30.1042 76.1095 31.5278 77.099 32.6563C78.0886 33.7847 79.356 34.349 80.9011 34.349C82.7761 34.349 84.2258 33.6285 85.2501 32.1875C86.2917 30.7292 86.8126 28.6719 86.8126 26.0156C86.8126 23.8108 86.3351 22.092 85.3803 20.8594C84.4428 19.6094 83.0973 18.9844 81.3438 18.9844C79.6945 18.9844 78.323 19.6007 77.2293 20.8333C76.1529 22.066 75.6147 23.6719 75.6147 25.6511ZM108.818 40H100.589V0.520865H108.818V40ZM137.932 40H130.146V36.1719H130.042C128.254 39.158 125.606 40.651 122.099 40.651C119.512 40.651 117.472 39.9219 115.979 38.4635C114.504 36.9878 113.766 35.026 113.766 32.5781C113.766 27.4045 116.83 24.4184 122.958 23.6198L130.198 22.6563C130.198 19.7396 128.618 18.2813 125.458 18.2813C122.281 18.2813 119.26 19.2274 116.396 21.1198V14.9219C117.542 14.3316 119.104 13.8108 121.083 13.3594C123.08 12.908 124.894 12.6823 126.526 12.6823C134.13 12.6823 137.932 16.4757 137.932 24.0625V40ZM130.198 29.1667V27.3698L125.354 27.9948C122.681 28.342 121.344 29.5486 121.344 31.6146C121.344 32.5521 121.665 33.3247 122.307 33.9323C122.967 34.5226 123.852 34.8177 124.964 34.8177C126.509 34.8177 127.767 34.2882 128.74 33.2292C129.712 32.1528 130.198 30.7986 130.198 29.1667ZM170.198 40H161.995V25.1823C161.995 21.0504 160.519 18.9844 157.568 18.9844C156.144 18.9844 154.972 19.5313 154.052 20.625C153.132 21.7188 152.672 23.1077 152.672 24.7917V40H144.443V13.3334H152.672V17.5521H152.776C154.738 14.3056 157.594 12.6823 161.344 12.6823C167.247 12.6823 170.198 16.3455 170.198 23.6719V40ZM225.12 40H215.953L213.297 31.6927H200.016L197.385 40H188.271L201.865 2.65628H211.839L225.12 40ZM211.37 25.2344L207.359 12.6823C207.064 11.7448 206.856 10.625 206.734 9.32294H206.526C206.439 10.4167 206.222 11.5018 205.875 12.5781L201.812 25.2344H211.37ZM246.37 20.7552C245.38 20.217 244.226 19.9479 242.906 19.9479C241.118 19.9479 239.72 20.6077 238.713 21.9271C237.707 23.2292 237.203 25.0087 237.203 27.2656V40H228.974V13.3334H237.203V18.2813H237.307C238.609 14.6702 240.953 12.8646 244.338 12.8646C245.207 12.8646 245.884 12.9688 246.37 13.1771V20.7552ZM292.724 40H284.521V24.7917C284.521 20.9202 283.097 18.9844 280.25 18.9844C278.896 18.9844 277.793 19.566 276.943 20.7292C276.092 21.8924 275.667 23.342 275.667 25.0781V40H267.437V24.6354C267.437 20.8681 266.04 18.9844 263.245 18.9844C261.838 18.9844 260.71 19.5399 259.859 20.6511C259.026 21.7622 258.609 23.2726 258.609 25.1823V40H250.38V13.3334H258.609V17.5H258.713C259.564 16.0764 260.753 14.9219 262.281 14.0365C263.826 13.1337 265.51 12.6823 267.333 12.6823C271.101 12.6823 273.679 14.3403 275.068 17.6563C277.099 14.3403 280.085 12.6823 284.026 12.6823C289.825 12.6823 292.724 16.2587 292.724 23.4115V40ZM324.677 27.5781C324.677 29.4184 324.356 31.1372 323.713 32.7344C323.071 34.3316 322.177 35.7205 321.031 36.901C319.885 38.0642 318.522 38.9844 316.943 39.6615C315.363 40.3212 313.635 40.651 311.76 40.651C309.66 40.651 307.776 40.2604 306.109 39.4792C304.46 38.6979 303.062 37.5694 301.917 36.0938C300.771 34.6007 299.894 32.7778 299.286 30.625C298.679 28.4722 298.375 26.033 298.375 23.3073C298.375 20.0955 298.766 17.1875 299.547 14.5834C300.345 11.9618 301.474 9.72225 302.932 7.86461C304.408 6.00697 306.187 4.57468 308.271 3.56774C310.354 2.54343 312.698 2.03128 315.302 2.03128C318.184 2.03128 320.424 2.36982 322.021 3.0469V9.9219C320.128 8.84551 318.062 8.30732 315.823 8.30732C314.434 8.30732 313.175 8.57641 312.047 9.11461C310.918 9.6528 309.946 10.4167 309.13 11.4063C308.332 12.3959 307.698 13.5938 307.229 15C306.778 16.3889 306.535 17.9427 306.5 19.6615H306.656C308.427 17.2136 311.04 15.9896 314.495 15.9896C316.04 15.9896 317.437 16.2674 318.687 16.8229C319.937 17.3785 321.005 18.1684 321.891 19.1927C322.776 20.1997 323.462 21.4149 323.948 22.8386C324.434 24.2622 324.677 25.842 324.677 27.5781ZM316.63 28.099C316.63 24.0886 314.989 22.0833 311.708 22.0833C310.962 22.0833 310.285 22.2222 309.677 22.5C309.069 22.7778 308.549 23.1684 308.114 23.6719C307.68 24.1754 307.342 24.7743 307.099 25.4688C306.873 26.1458 306.76 26.9011 306.76 27.7344C306.76 28.6545 306.882 29.5139 307.125 30.3125C307.368 31.1111 307.707 31.8142 308.141 32.4219C308.592 33.0122 309.121 33.4809 309.729 33.8281C310.337 34.1754 311.014 34.349 311.76 34.349C312.507 34.349 313.175 34.2014 313.766 33.9063C314.373 33.5938 314.885 33.1684 315.302 32.6302C315.736 32.0747 316.066 31.4149 316.292 30.651C316.517 29.8698 316.63 29.0191 316.63 28.099ZM351.239 2.65628V26.1979H355.719V32.3438H351.239V40H343.739V32.3438H327.463V25.9115C328.904 24.2969 330.397 22.5347 331.943 20.625C333.488 18.6979 334.981 16.7188 336.422 14.6875C337.863 12.6563 339.2 10.6163 340.432 8.56773C341.682 6.50176 342.741 4.53128 343.609 2.65628H351.239ZM334.833 26.1979H343.739V13.1511C343.132 14.2795 342.472 15.4254 341.76 16.5886C341.048 17.7344 340.302 18.8715 339.521 20C338.739 21.1111 337.95 22.1962 337.151 23.2552C336.352 24.2969 335.58 25.2778 334.833 26.1979Z" fill="white"/>
</svg>
