<svg width="2152" height="486" viewBox="0 0 2152 486" fill="none" xmlns="http://www.w3.org/2000/svg">
<g clip-path="url(#clip0_277_2609)">
<path fill-rule="evenodd" clip-rule="evenodd" d="M1475.65 95.574C1431.72 95.5743 1396.1 131.189 1396.1 175.123V310.859C1396.1 335.695 1375.97 355.829 1351.13 355.828H1198.01V389.529H1380.13C1424.06 389.529 1459.67 353.912 1459.67 309.978V174.242C1459.67 149.406 1479.81 129.273 1504.64 129.273L1660.62 129.273V95.574H1475.65Z" fill="white"/>
<path fill-rule="evenodd" clip-rule="evenodd" d="M789.379 95.574V129.273H1109.23C1134.72 129.273 1155.39 149.939 1155.39 175.431C1155.39 200.924 1134.72 221.589 1109.23 221.59H868.928C824.994 221.59 789.379 257.205 789.379 301.138V389.529H852.949V300.26C852.95 275.423 873.084 255.29 897.92 255.291H1139.1C1183.21 255.29 1218.96 219.536 1218.96 175.431C1218.96 131.327 1183.21 95.5743 1139.1 95.574H789.379Z" fill="white"/>
<path fill-rule="evenodd" clip-rule="evenodd" d="M1721.88 95.574V205.338C1721.88 232.926 1744.24 255.291 1771.83 255.291H2038C2065.76 255.291 2088.26 277.796 2088.27 305.558C2088.27 333.321 2065.76 355.828 2038 355.828H1721.88V389.529H2067.87C2114.24 389.529 2151.84 351.935 2151.84 305.56C2151.84 259.185 2114.24 221.59 2067.87 221.59H1805.53C1794.44 221.589 1785.45 212.601 1785.45 201.513V129.273H2140.32V95.574H1721.88Z" fill="white"/>
<path d="M235.268 0V452.933L337.768 485.479V105.554C337.768 87.8001 345.704 75.8606 358.502 80.0294C375.232 84.6552 378.487 101.038 378.487 118.828V270.549C442.408 301.395 492.671 270.53 492.671 189.112C492.671 105.554 463.252 68.4921 376.476 38.6342C342.321 27.1884 278.875 8.04499 235.268 0Z" fill="white"/>
<path d="M357.184 419.303L522.052 360.52C540.738 353.828 543.627 344.32 528.433 339.365C513.257 334.41 485.758 335.854 467.071 342.528L357.184 381.254V319.673L363.51 317.552C363.51 317.552 395.27 306.289 439.865 301.334C484.514 296.489 539.184 301.974 582.06 318.283C630.439 333.587 635.87 356.058 623.601 371.545C611.278 387.068 581.2 398.148 581.2 398.148L357.184 478.598V419.303Z" fill="white"/>
<path d="M47.2401 413.035C-2.38287 399.048 -10.6656 369.995 11.9335 353.21C32.9054 337.687 68.4496 326.058 68.4496 326.058L215.38 273.857V333.353L109.644 371.22C90.9389 377.912 88.1232 387.419 103.244 392.338C118.475 397.347 145.937 395.921 164.66 389.193L215.38 370.817V424.097C212.144 424.646 208.579 425.212 205.287 425.743C154.531 434.025 100.483 430.588 47.2401 413.035Z" fill="white"/>
</g>
<defs>
<clipPath id="clip0_277_2609">
<rect width="2151.84" height="485.478" fill="white"/>
</clipPath>
</defs>
</svg>
