<svg width="138" height="151" viewBox="0 0 138 151" fill="none" xmlns="http://www.w3.org/2000/svg">
<path d="M61.7365 0.00103076C56.5838 0.0249117 51.6631 0.46324 47.3334 1.22743C34.5787 3.47503 32.2629 8.17945 32.2629 16.8552V28.3132H62.404V32.1326H32.2629H20.9512C12.1914 32.1326 4.52105 37.3843 2.12186 47.3749C-0.645577 58.8265 -0.768328 65.9724 2.12186 77.9297C4.26439 86.8302 9.38105 93.172 18.1409 93.172H28.5041V79.4364C28.5041 69.5132 37.1118 60.7601 47.3334 60.7601H77.4394C85.8198 60.7601 92.5099 53.8776 92.5099 45.4828V16.8552C92.5099 8.70763 85.6189 2.58722 77.4394 1.22743C72.2616 0.367716 66.8892 -0.0228505 61.7365 0.00103076ZM45.4364 9.21651C48.5498 9.21651 51.0923 11.7939 51.0923 14.963C51.0923 18.1209 48.5498 20.6745 45.4364 20.6745C42.3119 20.6745 39.7806 18.1209 39.7806 14.963C39.7806 11.7939 42.3119 9.21651 45.4364 9.21651Z" fill="url(#paint0_linear_289_2835)"/>
<path d="M96.2688 32.1326V45.4827C96.2688 55.833 87.4713 64.5444 77.4394 64.5444H47.3335C39.0869 64.5444 32.2629 71.5843 32.2629 79.8218V108.449C32.2629 116.597 39.3659 121.389 47.3335 123.727C56.8744 126.525 66.0237 127.031 77.4394 123.727C85.0275 121.535 92.5099 117.125 92.5099 108.449V96.9913H62.404V93.172H92.5099H107.58C116.34 93.172 119.605 87.0774 122.651 77.9296C125.798 68.5122 125.664 59.4558 122.651 47.3749C120.486 38.6767 116.351 32.1326 107.58 32.1326H96.2688ZM79.3364 104.63C82.4609 104.63 84.9922 107.184 84.9922 110.342C84.9922 113.511 82.4609 116.088 79.3364 116.088C76.223 116.088 73.6805 113.511 73.6805 110.342C73.6805 107.184 76.223 104.63 79.3364 104.63Z" fill="url(#paint1_linear_289_2835)"/>
<path opacity="0.44382" d="M62.7459 151C85.0536 151 103.137 147.502 103.137 143.188C103.137 138.873 85.0536 135.375 62.7459 135.375C40.4383 135.375 22.3544 138.873 22.3544 143.188C22.3544 147.502 40.4383 151 62.7459 151Z" fill="url(#paint2_radial_289_2835)"/>
<defs>
<linearGradient id="paint0_linear_289_2835" x1="-3.75334e-07" y1="-3.2521e-07" x2="69.3526" y2="59.2491" gradientUnits="userSpaceOnUse">
<stop stop-color="#5A9FD4"/>
<stop offset="1" stop-color="#306998"/>
</linearGradient>
<linearGradient id="paint1_linear_289_2835" x1="78.612" y1="109.378" x2="53.7617" y2="74.4664" gradientUnits="userSpaceOnUse">
<stop stop-color="#FFD43B"/>
<stop offset="1" stop-color="#FFE873"/>
</linearGradient>
<radialGradient id="paint2_radial_289_2835" cx="0" cy="0" r="1" gradientUnits="userSpaceOnUse" gradientTransform="translate(62.7459 143.188) rotate(-90) scale(7.81229 34.4261)">
<stop stop-color="#B8B8B8" stop-opacity="0.498039"/>
<stop offset="1" stop-color="#7F7F7F" stop-opacity="0"/>
</radialGradient>
</defs>
</svg>
