<svg width="180" height="81" viewBox="0 0 180 81" fill="none" xmlns="http://www.w3.org/2000/svg">
<path fill-rule="evenodd" clip-rule="evenodd" d="M28.9094 54.3248C30.0955 56.3811 32.2209 57.6087 34.5948 57.6087H34.5949C37.2869 57.6087 39.7966 56.1611 41.1445 53.8307L44.298 48.3785H28.5959C27.7359 50.2947 27.8403 52.4714 28.9094 54.3248Z" fill="#C2D1D9"/>
<path fill-rule="evenodd" clip-rule="evenodd" d="M55.2536 53.8256C56.6009 56.1591 59.1117 57.6087 61.8062 57.6087H61.8077C64.1818 57.6087 66.3079 56.3813 67.4949 54.3252C68.5647 52.4724 68.6703 50.2954 67.812 48.3785H52.1087L55.2536 53.8256Z" fill="#C2D1D9"/>
<path fill-rule="evenodd" clip-rule="evenodd" d="M66.4202 45.8973L60.7813 36.1334H35.6273L29.9884 45.8973H66.4202Z" fill="#C2D1D9"/>
<path fill-rule="evenodd" clip-rule="evenodd" d="M48.51 24.0248H47.9107C44.6497 24.0248 41.6109 25.779 39.98 28.6028L37.0612 33.6521H59.3506L56.4402 28.6018C54.8099 25.779 51.771 24.0248 48.51 24.0248Z" fill="#C2D1D9"/>
<path fill-rule="evenodd" clip-rule="evenodd" d="M78.6359 44.5804C78.6359 42.629 79.4996 41.1895 81.1311 40.5497C81.8668 40.2618 83.1464 40.1019 84.9698 40.1019H85.9294C86.7292 40.1019 87.4329 40.1338 88.0727 40.1978V38.3744C88.0727 36.0393 86.8891 35.2395 84.202 35.2395C83.0824 35.2395 81.9948 35.3994 80.9071 35.7193C80.4273 35.8473 80.1714 35.8473 80.0754 35.4634L79.9155 34.7916C79.7875 34.4078 79.8835 34.1839 80.2674 34.0879C81.6429 33.672 83.0184 33.4481 84.362 33.4481C88.4566 33.4481 90.152 34.8236 90.152 38.1505V49.0908C90.152 49.3467 90.088 49.4107 89.8001 49.4107H88.7445C88.4566 49.4107 88.3286 49.3148 88.3286 49.0908L88.2646 48.0032H88.2006C87.4969 49.1228 86.3773 49.6986 84.8098 49.6986H83.2104C81.8028 49.6986 80.5233 49.2828 79.7875 48.547C79.0198 47.7793 78.6359 46.7876 78.6359 45.54V44.5804ZM80.7472 45.2841C80.7472 46.2758 80.9711 46.9475 81.419 47.3634C81.8348 47.7473 82.4746 47.9392 83.3703 47.9392H84.6819C86.8252 47.9392 88.0727 46.7876 88.0727 44.6124V41.9572C87.5609 41.8933 86.9211 41.8613 86.1533 41.8613H84.362C83.0184 41.8613 82.0908 42.0852 81.5469 42.501C81.0031 42.9169 80.7472 43.6207 80.7472 44.6124V45.2841Z" fill="#C2D1D9"/>
<path fill-rule="evenodd" clip-rule="evenodd" d="M94.5021 28.1059C94.5021 27.882 94.63 27.754 94.8859 27.754H96.1975C96.4534 27.754 96.5814 27.882 96.5814 28.1059V45.2201C96.5814 46.3717 96.6134 46.7556 96.8693 47.2354C97.0292 47.4594 97.4131 47.5873 98.0209 47.5873H98.8846C99.0765 47.5873 99.2685 47.6193 99.2685 47.9392V49.0268C99.2685 49.2828 99.1725 49.4107 98.9486 49.4107H97.733C96.5814 49.4107 95.7496 49.1548 95.2698 48.675C94.758 48.1311 94.5021 47.1395 94.5021 45.732V28.1059Z" fill="#C2D1D9"/>
<path fill-rule="evenodd" clip-rule="evenodd" d="M102.403 29.5135C102.403 28.4898 102.979 28.0099 103.875 28.0099H104.003C104.93 28.0099 105.41 28.5218 105.41 29.5135V29.7054C105.41 30.729 104.866 31.2409 104.003 31.2409H103.875C102.819 31.2409 102.403 30.761 102.403 29.7054V29.5135ZM102.883 34.0879C102.883 33.864 103.011 33.736 103.267 33.736H104.579C104.835 33.736 104.962 33.864 104.962 34.0879V49.1548C104.962 49.3148 104.866 49.4107 104.675 49.4107H103.139C102.979 49.4107 102.883 49.3148 102.883 49.1548V34.0879Z" fill="#C2D1D9"/>
<path fill-rule="evenodd" clip-rule="evenodd" d="M109.025 40.9975C109.025 35.3355 110.912 33.4481 115.167 33.4481C117.214 33.4481 118.653 34.0879 119.517 35.3675H119.581L119.741 34.1199C119.773 33.864 119.933 33.736 120.221 33.736H120.989C121.34 33.736 121.436 33.8 121.436 34.1519V54.7209C121.436 54.9448 121.34 55.0728 121.117 55.0728H119.677C119.453 55.0728 119.357 54.9448 119.357 54.7209V48.0032H119.293C118.397 49.1228 116.99 49.6986 115.071 49.6986C110.72 49.6986 109.025 47.6193 109.025 42.501V40.9975ZM111.136 42.3411C111.136 44.5164 111.488 46.0198 112.192 46.8196C112.863 47.5873 113.759 47.9072 115.327 47.9072C117.886 47.9072 119.357 46.5957 119.357 44.0685V39.3341C119.357 36.743 117.886 35.2395 115.199 35.2395C113.791 35.2395 112.959 35.5274 112.32 36.1992C111.52 37.0629 111.136 38.7583 111.136 41.2854V42.3411Z" fill="#C2D1D9"/>
<path fill-rule="evenodd" clip-rule="evenodd" d="M125.595 34.2479C125.595 33.9599 125.787 33.736 126.043 33.736H127.226C127.514 33.736 127.674 33.896 127.674 34.1839V44.6443C127.674 45.9239 127.898 46.6277 128.506 47.1395C129.049 47.6513 130.009 47.9072 131.385 47.9072C132.696 47.9072 133.688 47.6193 134.328 47.0115C134.872 46.4997 135.063 45.9239 135.063 44.6443V34.1519C135.063 33.896 135.223 33.736 135.447 33.736H136.791C137.015 33.736 137.143 33.864 137.143 34.1519V44.9002C137.143 46.5317 136.663 47.7473 135.735 48.547C134.808 49.3467 133.56 49.6986 131.385 49.6986C129.401 49.6986 127.962 49.3148 127.034 48.547C126.074 47.7473 125.595 46.5317 125.595 44.9002V34.2479Z" fill="#C2D1D9"/>
<path fill-rule="evenodd" clip-rule="evenodd" d="M140.469 44.5804C140.469 42.629 141.333 41.1895 142.965 40.5497C143.7 40.2618 144.98 40.1019 146.803 40.1019H147.763C148.563 40.1019 149.267 40.1338 149.906 40.1978V38.3744C149.906 36.0393 148.723 35.2395 146.036 35.2395C144.916 35.2395 143.828 35.3994 142.741 35.7193C142.261 35.8473 142.005 35.8473 141.909 35.4634L141.749 34.7916C141.621 34.4078 141.717 34.1839 142.101 34.0879C143.476 33.672 144.852 33.4481 146.196 33.4481C150.29 33.4481 151.986 34.8236 151.986 38.1505V49.0908C151.986 49.3467 151.922 49.4107 151.634 49.4107H150.578C150.29 49.4107 150.162 49.3148 150.162 49.0908L150.098 48.0032H150.034C149.33 49.1228 148.211 49.6986 146.643 49.6986H145.044C143.636 49.6986 142.357 49.2828 141.621 48.547C140.853 47.7793 140.469 46.7876 140.469 45.54V44.5804ZM142.581 45.2841C142.581 46.2758 142.805 46.9475 143.253 47.3634C143.668 47.7473 144.308 47.9392 145.204 47.9392H146.515C148.659 47.9392 149.906 46.7876 149.906 44.6124V41.9572C149.394 41.8933 148.755 41.8613 147.987 41.8613H146.196C144.852 41.8613 143.924 42.0852 143.381 42.501C142.837 42.9169 142.581 43.6207 142.581 44.6124V45.2841Z" fill="#C2D1D9"/>
</svg>
