<svg width="207" height="207" viewBox="0 0 207 207" fill="none" xmlns="http://www.w3.org/2000/svg">
<path d="M171.13 111.152L168.119 107.539C165.71 104.829 164.505 101.817 165.107 98.2039C165.408 92.7835 163.602 87.0621 159.085 82.5452C152.159 75.6192 142.523 74.7158 137.102 80.1361C132.887 84.6531 132.585 92.1813 135.898 98.505C137.403 100.914 136.801 104.226 134.693 106.334L134.392 106.635C131.682 109.045 128.37 109.647 124.756 108.141C120.841 106.635 116.927 106.334 113.614 106.937C110.001 107.84 106.387 106.635 103.677 104.226L102.774 103.323C99.7623 100.613 98.5578 96.3971 99.7623 92.4824C100.666 89.4711 100.063 85.5564 98.8589 82.5452C97.6544 79.5339 98.5578 75.9203 101.268 73.8124L102.472 72.6079C104.881 70.8011 106.989 70.1989 109.398 71.4034C115.421 74.4147 122.347 74.1135 126.563 69.8977C130.477 66.2842 131.08 60.5627 128.972 55.1424C127.767 52.1311 128.671 49.1198 130.779 46.7108C132.585 45.2051 135.296 44.3018 137.705 45.5063C138.909 45.8074 139.511 46.4097 140.716 46.4097C143.426 46.7108 145.835 47.9153 147.642 50.0232L156.977 59.9605C158.482 61.7672 159.687 63.8752 159.988 66.5853C160.289 68.9943 161.494 71.1023 163.602 72.6079C167.516 76.5226 172.937 77.1248 175.647 74.1135C177.152 72.6079 177.454 70.1989 176.851 68.091C176.55 66.2842 176.851 63.8752 178.357 62.3695L180.164 60.5627C180.465 59.6593 181.368 59.3582 181.971 59.3582C182.272 59.3582 182.874 59.0571 183.175 58.4548C184.38 57.2503 184.078 54.5402 181.971 53.0345C180.465 51.5289 177.755 51.2277 176.55 52.1311C176.249 52.4322 176.249 53.0345 175.647 53.6368C175.647 54.8413 174.743 56.0458 174.141 57.2503L173.84 57.5514C172.334 59.0571 169.925 59.9605 167.817 59.3582C167.516 59.3582 167.516 59.3582 166.914 59.3582C164.505 59.0571 162.397 57.5514 160.891 55.7447L150.653 44.6029C149.147 43.0972 147.943 40.9893 147.642 39.1826C147.341 37.3758 146.136 35.2679 144.631 33.7622C140.415 30.7509 134.994 30.1487 131.983 32.8589C130.779 34.0634 130.176 35.569 130.176 37.0747C130.176 39.4837 128.972 41.5916 127.466 43.0972L127.165 43.3984C124.455 46.1085 120.239 46.4097 116.927 44.904C113.915 43.6995 110.302 43.0972 107.291 43.3984C104.279 43.6995 101.268 43.0972 98.8589 40.9893L95.2454 37.978C93.4386 36.1713 91.6318 33.7622 91.3307 31.0521C91.0296 29.2453 89.825 26.8363 88.3194 25.0295C84.1036 21.1148 77.7799 20.2114 73.8652 22.6205C69.9505 25.0295 70.2516 31.0521 74.1663 35.2679C76.5754 37.6769 79.5867 39.1826 82.5979 39.1826C85.3081 39.1826 88.0183 40.3871 89.825 42.1939L92.2341 44.0006C94.9442 46.4097 96.4499 49.7221 95.8476 53.6368C95.5465 56.3469 95.8476 59.3582 97.3533 62.3695C98.5578 65.0797 97.6544 68.091 95.5465 70.1989L94.342 71.1023C91.9329 73.5113 88.6205 73.8124 85.6092 72.3068C78.9844 69.2955 71.7573 69.8977 66.337 74.1135C60.9167 78.3294 59.7121 85.5564 62.4223 92.1813C63.9279 96.3971 63.3257 100.914 60.0133 104.528L58.8087 105.732C57.3031 107.539 54.5929 108.442 52.1839 108.141C50.9794 107.84 50.3771 107.84 49.1726 107.84C44.6557 107.84 40.4399 106.334 37.1274 102.721L27.4913 93.0847C25.0823 90.6756 24.48 87.6644 25.0823 84.6531C25.3834 83.4485 25.3834 81.9429 25.0823 80.7384C24.7812 77.7271 25.9857 74.7158 28.0936 72.6079C30.5026 70.8011 33.5139 68.3921 36.2241 66.5853C39.2353 64.1763 43.4512 62.9718 47.3658 63.8752C50.9794 64.7785 54.2918 64.1763 57.002 62.3695C61.2178 58.756 61.2178 52.7334 56.7008 48.5176C53.6895 45.5063 49.7749 44.3018 45.8602 44.6029C44.0534 44.6029 41.9455 43.6995 40.741 42.7961L36.5252 38.2792C36.2241 37.3758 35.6218 36.1713 35.6218 35.569C35.6218 34.9668 34.7184 33.7622 34.1162 32.8589C32.3094 30.7509 28.6958 30.1487 26.5879 31.6543C24.1789 33.16 24.1789 35.8701 26.5879 38.2792C27.4913 39.1826 28.0936 39.4837 28.997 39.7848C29.9003 40.086 30.5026 40.6882 30.8037 40.9893L36.2241 46.7108C37.4286 48.2164 38.0308 50.3243 37.7297 52.1311C37.7297 52.4322 37.7297 52.4322 37.7297 53.0345C37.7297 56.6481 35.9229 59.6593 33.2128 61.4661C30.2015 63.8752 25.9857 66.8864 22.9744 69.2955C20.2642 71.1023 17.2529 72.0056 14.2416 71.7045C10.6281 70.8011 7.01454 71.7045 4.30437 74.1135C-1.11595 78.0282 -1.41708 85.2553 3.40099 89.7723C6.11115 92.4824 10.0258 93.9881 13.6394 93.9881C16.6507 93.9881 19.3608 95.1926 21.7699 97.6016L32.9116 108.743C35.9229 111.755 38.0308 115.669 38.0308 119.885C38.0308 122.896 39.2353 125.607 41.6444 128.317C46.7636 133.436 54.2918 133.436 58.8087 129.22C61.82 126.209 62.7234 121.993 61.5189 118.078C60.6155 115.669 61.5189 112.959 63.0246 111.454L64.5302 109.948C67.5415 106.334 72.3596 105.431 76.5754 106.334C79.5867 107.238 82.2968 107.238 85.007 106.635C88.6205 105.732 92.2341 106.937 94.9442 109.346L97.3533 111.755C100.063 114.465 101.268 117.777 100.365 121.391C99.4612 125.305 100.063 129.822 101.87 133.737C103.075 136.146 102.774 139.157 100.666 140.964L97.0521 144.578C95.2454 146.385 92.5352 146.987 90.1262 146.083C85.9104 144.277 81.3934 144.879 77.7799 148.492C73.2629 153.009 73.5641 160.839 78.6833 165.657C80.7912 167.464 83.8025 168.668 86.8138 168.668C90.7284 168.668 94.0408 170.174 96.751 172.583L107.893 183.423C110.603 186.134 112.109 189.446 112.41 193.361C112.41 196.974 113.915 200.588 116.626 203.298C121.745 208.417 128.671 207.815 132.284 202.395C136.199 197.275 135.296 189.446 130.477 184.628C127.767 181.918 124.756 180.713 121.745 181.014C117.83 181.315 113.614 180.111 110.904 177.1L102.171 168.668C99.16 165.657 97.0521 161.441 97.6544 157.225C97.6544 156.322 97.6544 155.72 97.6544 154.816C97.3533 153.009 97.9555 150.901 99.4612 149.396L104.58 144.277C106.387 142.47 109.7 141.868 112.41 143.072C119.336 146.083 127.165 144.879 131.682 139.459C135.597 134.942 136.199 128.317 134.392 122.595C133.188 118.681 134.392 114.164 137.403 111.152L137.705 110.851C139.511 109.346 141.92 108.442 144.329 109.346C147.04 110.55 149.75 110.851 152.159 110.55C156.073 110.249 159.988 111.755 162.096 114.465L163.602 115.97C165.408 117.777 166.613 120.487 166.312 123.198C166.312 124.402 166.312 125.908 167.215 127.112C168.119 128.919 167.516 131.328 166.011 132.834L158.784 142.169C156.977 144.879 153.664 146.083 150.653 145.782C147.943 145.782 145.534 146.686 143.727 148.794C140.114 153.009 141.017 160.236 145.534 165.055C147.943 167.464 150.653 168.668 153.363 168.668C156.073 168.668 158.784 169.873 161.193 171.679L165.107 175.293C166.011 176.196 166.613 176.799 166.914 178.003C167.215 179.208 167.817 179.81 168.42 180.713C170.227 182.52 173.539 182.52 175.045 180.713C176.55 178.304 175.948 175.293 173.84 172.884C172.937 171.981 172.334 171.679 171.431 171.378C170.227 171.077 169.624 170.475 168.721 170.174L166.011 167.464C163.602 165.657 162.096 162.344 162.096 159.333C162.096 158.129 162.096 157.526 161.795 156.322C160.892 153.311 161.795 150.299 163.602 147.89L170.829 138.555C172.334 136.748 174.442 135.845 176.55 136.146C179.26 136.447 181.971 135.845 183.476 133.436C186.186 129.521 184.982 123.499 181.067 119.283C179.26 117.476 177.152 116.573 175.346 116.272C175.045 114.465 172.636 112.658 171.13 111.152Z" fill="url(#paint0_linear_269_2571)"/>
<path d="M68.4449 14.7911C70.2517 13.5866 69.9505 10.8764 68.4449 9.06962C66.6381 7.26284 63.3257 6.66058 61.5189 7.8651C59.7121 9.06962 59.7121 11.7798 61.5189 13.5866C63.3257 15.3933 66.6381 15.6945 68.4449 14.7911ZM65.4336 172.583C63.0246 174.992 63.0246 179.208 65.7347 181.315C68.1438 183.725 71.7573 183.724 74.1663 181.014C76.5754 178.605 75.9731 174.992 73.8652 172.282C71.7573 169.571 67.2404 169.873 65.4336 172.583ZM25.9857 133.135C23.5766 135.544 23.2755 139.157 25.6846 141.566C28.0936 143.975 31.7071 143.975 34.4173 141.868C36.8263 139.459 36.8263 136.146 34.4173 133.436C32.3094 131.027 28.3947 131.027 25.9857 133.135ZM102.774 1.24026C99.16 3.64929 99.7623 9.06962 103.677 12.6832C107.592 16.2967 113.313 17.8024 116.324 15.0922C119.336 12.6832 119.035 7.26284 115.12 3.95042C111.807 0.0357434 106.086 -1.16877 102.774 1.24026ZM192.209 138.254C191.004 140.061 191.306 143.373 193.413 145.18C195.521 146.987 197.93 146.987 199.135 145.18C200.339 143.373 200.038 140.061 197.93 138.254C196.124 136.748 193.413 136.748 192.209 138.254ZM148.545 23.5238C147.341 24.7283 147.341 27.1374 149.449 28.9441C151.557 30.7509 153.664 31.3532 154.869 29.8475C156.073 28.643 155.772 26.234 153.966 24.4272C152.159 22.6204 150.051 22.3193 148.545 23.5238ZM203.05 91.2779C199.135 87.3632 194.317 87.0621 191.908 90.0733C189.198 93.0846 190.402 98.8061 194.317 102.721C198.232 106.635 203.05 106.937 205.76 103.624C208.169 100.914 206.964 95.1925 203.05 91.2779Z" fill="url(#paint1_linear_269_2571)"/>
<defs>
<linearGradient id="paint0_linear_269_2571" x1="1.83301" y1="114.023" x2="186.827" y2="114.023" gradientUnits="userSpaceOnUse">
<stop stop-color="#00C4F4"/>
<stop offset="1" stop-color="#0094C4"/>
</linearGradient>
<linearGradient id="paint1_linear_269_2571" x1="3.86805" y1="91.507" x2="325.033" y2="91.507" gradientUnits="userSpaceOnUse">
<stop stop-color="#564DCA"/>
<stop offset="0.2423" stop-color="#5550CC"/>
<stop offset="0.4485" stop-color="#525BD1"/>
<stop offset="0.6414" stop-color="#4E6CD9"/>
<stop offset="0.8251" stop-color="#4785E5"/>
<stop offset="1" stop-color="#3FA4F4"/>
</linearGradient>
</defs>
</svg>
