<svg width="169" height="20" viewBox="0 0 169 20" fill="none" xmlns="http://www.w3.org/2000/svg">
<path d="M12.1126 19.4277C11.6486 18.4997 11.1366 17.5637 10.5766 16.6197C10.0326 15.6597 9.40063 14.6837 8.68063 13.6917C8.45663 13.9797 8.16863 14.3797 7.81663 14.8917C7.48063 15.4037 7.13663 15.9477 6.78463 16.5237C6.44863 17.0997 6.12863 17.6517 5.82463 18.1797C5.52063 18.7077 5.29663 19.1237 5.15263 19.4277H0.880625C1.58463 18.1317 2.40063 16.7717 3.32863 15.3477C4.27263 13.9237 5.32063 12.4117 6.47263 10.8117L1.12063 2.79567H5.65663L8.89663 7.97967L12.0646 2.79567H16.3366L11.0566 10.8597C12.4006 12.6037 13.5286 14.2197 14.4406 15.7077C15.3526 17.1797 16.0726 18.4197 16.6006 19.4277H12.1126ZM26.6039 13.0197C26.6039 10.7157 25.7559 9.56367 24.0599 9.56367C23.6919 9.56367 23.3239 9.61167 22.9559 9.70767C22.6039 9.80367 22.3159 9.92367 22.0919 10.0677V16.5717C22.2679 16.6037 22.4919 16.6357 22.7639 16.6677C23.0359 16.6837 23.3319 16.6917 23.6519 16.6917C24.6279 16.6917 25.3639 16.3557 25.8599 15.6837C26.3559 15.0117 26.6039 14.1237 26.6039 13.0197ZM30.2519 13.1157C30.2519 14.1237 30.0999 15.0357 29.7959 15.8517C29.5079 16.6677 29.0839 17.3637 28.5239 17.9397C27.9639 18.5157 27.2759 18.9637 26.4599 19.2837C25.6439 19.5877 24.7159 19.7397 23.6759 19.7397C23.2439 19.7397 22.7879 19.7157 22.3079 19.6677C21.8439 19.6357 21.3799 19.5877 20.9159 19.5237C20.4679 19.4597 20.0359 19.3877 19.6199 19.3077C19.2039 19.2117 18.8359 19.1157 18.5159 19.0197V1.37967L22.0919 0.803673V7.09167C22.4919 6.91567 22.9079 6.77967 23.3399 6.68367C23.7719 6.58767 24.2359 6.53967 24.7319 6.53967C25.6279 6.53967 26.4199 6.69967 27.1079 7.01967C27.7959 7.32367 28.3719 7.76367 28.8359 8.33967C29.2999 8.91567 29.6519 9.61167 29.8919 10.4277C30.1319 11.2277 30.2519 12.1237 30.2519 13.1157ZM44.8083 13.0917C44.8083 14.0837 44.6643 14.9957 44.3763 15.8277C44.0883 16.6437 43.6723 17.3477 43.1283 17.9397C42.5843 18.5157 41.9283 18.9637 41.1603 19.2837C40.4083 19.6037 39.5603 19.7637 38.6163 19.7637C37.6883 19.7637 36.8403 19.6037 36.0723 19.2837C35.3203 18.9637 34.6723 18.5157 34.1283 17.9397C33.5843 17.3477 33.1603 16.6437 32.8563 15.8277C32.5523 14.9957 32.4003 14.0837 32.4003 13.0917C32.4003 12.0997 32.5523 11.1957 32.8563 10.3797C33.1763 9.56367 33.6083 8.86767 34.1523 8.29167C34.7123 7.71567 35.3683 7.26767 36.1203 6.94767C36.8883 6.62767 37.7203 6.46767 38.6163 6.46767C39.5283 6.46767 40.3603 6.62767 41.1123 6.94767C41.8803 7.26767 42.5363 7.71567 43.0803 8.29167C43.6243 8.86767 44.0483 9.56367 44.3523 10.3797C44.6563 11.1957 44.8083 12.0997 44.8083 13.0917ZM41.1603 13.0917C41.1603 11.9877 40.9363 11.1237 40.4883 10.4997C40.0563 9.85967 39.4323 9.53967 38.6163 9.53967C37.8003 9.53967 37.1683 9.85967 36.7203 10.4997C36.2723 11.1237 36.0483 11.9877 36.0483 13.0917C36.0483 14.1957 36.2723 15.0757 36.7203 15.7317C37.1683 16.3717 37.8003 16.6917 38.6163 16.6917C39.4323 16.6917 40.0563 16.3717 40.4883 15.7317C40.9363 15.0757 41.1603 14.1957 41.1603 13.0917ZM52.1726 10.6437L54.6686 6.80367H58.3646L54.0446 12.8757C55.0046 14.0757 55.8766 15.2437 56.6606 16.3797C57.4446 17.5157 58.0686 18.5317 58.5326 19.4277H54.6926C54.5646 19.1877 54.4046 18.8917 54.2126 18.5397C54.0206 18.1717 53.8046 17.7957 53.5646 17.4117C53.3246 17.0117 53.0686 16.6197 52.7966 16.2357C52.5406 15.8357 52.2846 15.4757 52.0286 15.1557C51.7886 15.4597 51.5406 15.7957 51.2846 16.1637C51.0446 16.5317 50.8126 16.9077 50.5886 17.2917C50.3646 17.6597 50.1406 18.0277 49.9166 18.3957C49.7086 18.7637 49.5246 19.1077 49.3646 19.4277H45.7166C45.9086 19.0277 46.1726 18.5557 46.5086 18.0117C46.8446 17.4677 47.2046 16.9077 47.5886 16.3317C47.9886 15.7397 48.4046 15.1557 48.8366 14.5797C49.2686 13.9877 49.6926 13.4357 50.1086 12.9237C49.3886 11.9157 48.6686 10.8997 47.9486 9.87567C47.2286 8.83567 46.5166 7.81167 45.8126 6.80367H49.6766L52.1726 10.6437ZM69.5953 11.0997C69.5953 11.9157 69.6913 12.6517 69.8833 13.3077C70.0913 13.9637 70.3793 14.5317 70.7473 15.0117C71.1313 15.4757 71.5953 15.8357 72.1393 16.0917C72.6833 16.3477 73.3073 16.4757 74.0113 16.4757C74.6993 16.4757 75.3153 16.3477 75.8593 16.0917C76.4193 15.8357 76.8833 15.4757 77.2513 15.0117C77.6353 14.5317 77.9233 13.9637 78.1153 13.3077C78.3233 12.6517 78.4273 11.9157 78.4273 11.0997C78.4273 10.2837 78.3233 9.54767 78.1153 8.89167C77.9233 8.21967 77.6353 7.65167 77.2513 7.18767C76.8833 6.70767 76.4193 6.33967 75.8593 6.08367C75.3153 5.82767 74.6993 5.69967 74.0113 5.69967C73.3073 5.69967 72.6833 5.83567 72.1393 6.10767C71.5953 6.36367 71.1313 6.73167 70.7473 7.21167C70.3793 7.67567 70.0913 8.24367 69.8833 8.91567C69.6913 9.57167 69.5953 10.2997 69.5953 11.0997ZM82.2913 11.0997C82.2913 12.5237 82.0753 13.7797 81.6433 14.8677C81.2273 15.9397 80.6513 16.8437 79.9153 17.5797C79.1793 18.2997 78.2993 18.8437 77.2753 19.2117C76.2673 19.5797 75.1793 19.7637 74.0113 19.7637C72.8753 19.7637 71.8033 19.5797 70.7953 19.2117C69.7873 18.8437 68.9073 18.2997 68.1553 17.5797C67.4033 16.8437 66.8113 15.9397 66.3793 14.8677C65.9473 13.7797 65.7313 12.5237 65.7313 11.0997C65.7313 9.67567 65.9553 8.42767 66.4033 7.35567C66.8513 6.26767 67.4513 5.35567 68.2033 4.61967C68.9713 3.88367 69.8513 3.33167 70.8433 2.96367C71.8513 2.59567 72.9073 2.41167 74.0113 2.41167C75.1473 2.41167 76.2193 2.59567 77.2273 2.96367C78.2353 3.33167 79.1153 3.88367 79.8673 4.61967C80.6193 5.35567 81.2113 6.26767 81.6433 7.35567C82.0753 8.42767 82.2913 9.67567 82.2913 11.0997ZM85.1722 7.23567C85.7802 7.05967 86.5642 6.89967 87.5242 6.75567C88.4842 6.59567 89.4922 6.51567 90.5482 6.51567C91.6202 6.51567 92.5082 6.65967 93.2122 6.94767C93.9322 7.21967 94.5002 7.61167 94.9162 8.12367C95.3322 8.63567 95.6282 9.24367 95.8042 9.94767C95.9802 10.6517 96.0682 11.4357 96.0682 12.2997V19.4277H92.4922V12.7317C92.4922 11.5797 92.3402 10.7637 92.0362 10.2837C91.7322 9.80367 91.1642 9.56367 90.3322 9.56367C90.0762 9.56367 89.8042 9.57967 89.5162 9.61167C89.2282 9.62767 88.9722 9.65167 88.7482 9.68367V19.4277H85.1722V7.23567ZM98.705 13.2117C98.705 12.0917 98.873 11.1157 99.209 10.2837C99.561 9.43567 100.017 8.73167 100.577 8.17167C101.137 7.61167 101.777 7.18767 102.497 6.89967C103.233 6.61167 103.985 6.46767 104.753 6.46767C106.545 6.46767 107.961 7.01967 109.001 8.12367C110.041 9.21167 110.561 10.8197 110.561 12.9477C110.561 13.1557 110.553 13.3877 110.537 13.6437C110.521 13.8837 110.505 14.0997 110.489 14.2917H102.377C102.457 15.0277 102.801 15.6117 103.409 16.0437C104.017 16.4757 104.833 16.6917 105.857 16.6917C106.513 16.6917 107.153 16.6357 107.777 16.5237C108.417 16.3957 108.937 16.2437 109.337 16.0677L109.817 18.9717C109.625 19.0677 109.369 19.1637 109.049 19.2597C108.729 19.3557 108.369 19.4357 107.969 19.4997C107.585 19.5797 107.169 19.6437 106.721 19.6917C106.273 19.7397 105.825 19.7637 105.377 19.7637C104.241 19.7637 103.249 19.5957 102.401 19.2597C101.569 18.9237 100.873 18.4677 100.313 17.8917C99.769 17.2997 99.361 16.6037 99.089 15.8037C98.833 15.0037 98.705 14.1397 98.705 13.2117ZM107.105 11.8437C107.089 11.5397 107.033 11.2437 106.937 10.9557C106.857 10.6677 106.721 10.4117 106.529 10.1877C106.353 9.96367 106.121 9.77967 105.833 9.63567C105.561 9.49167 105.217 9.41967 104.801 9.41967C104.401 9.41967 104.057 9.49167 103.769 9.63567C103.481 9.76367 103.241 9.93967 103.049 10.1637C102.857 10.3877 102.705 10.6517 102.593 10.9557C102.497 11.2437 102.425 11.5397 102.377 11.8437H107.105ZM127.438 5.67567C125.694 5.67567 124.43 6.16367 123.646 7.13967C122.878 8.09967 122.494 9.41967 122.494 11.0997C122.494 11.9157 122.59 12.6597 122.782 13.3317C122.974 13.9877 123.262 14.5557 123.646 15.0357C124.03 15.5157 124.51 15.8917 125.086 16.1637C125.662 16.4197 126.334 16.5477 127.102 16.5477C127.518 16.5477 127.87 16.5397 128.158 16.5237C128.462 16.5077 128.726 16.4757 128.95 16.4277V10.6437H132.694V18.8757C132.246 19.0517 131.526 19.2357 130.534 19.4277C129.542 19.6357 128.318 19.7397 126.862 19.7397C125.614 19.7397 124.478 19.5477 123.454 19.1637C122.446 18.7797 121.582 18.2197 120.862 17.4837C120.142 16.7477 119.582 15.8437 119.182 14.7717C118.798 13.6997 118.606 12.4757 118.606 11.0997C118.606 9.70767 118.822 8.47567 119.254 7.40367C119.686 6.33167 120.278 5.42767 121.03 4.69167C121.782 3.93967 122.662 3.37167 123.67 2.98767C124.694 2.60367 125.782 2.41167 126.934 2.41167C127.718 2.41167 128.422 2.46767 129.046 2.57967C129.686 2.67567 130.23 2.79567 130.678 2.93967C131.142 3.06767 131.518 3.20367 131.806 3.34767C132.11 3.49167 132.326 3.60367 132.454 3.68367L131.374 6.68367C130.862 6.41167 130.27 6.17967 129.598 5.98767C128.942 5.77967 128.222 5.67567 127.438 5.67567ZM139.922 16.3797C140.098 16.3957 140.298 16.4117 140.522 16.4277C140.762 16.4277 141.042 16.4277 141.362 16.4277C143.234 16.4277 144.618 15.9557 145.514 15.0117C146.426 14.0677 146.882 12.7637 146.882 11.0997C146.882 9.35567 146.45 8.03567 145.586 7.13967C144.722 6.24367 143.354 5.79567 141.482 5.79567C141.226 5.79567 140.962 5.80367 140.69 5.81967C140.418 5.81967 140.162 5.83567 139.922 5.86767V16.3797ZM150.746 11.0997C150.746 12.5397 150.522 13.7957 150.074 14.8677C149.626 15.9397 148.986 16.8277 148.154 17.5317C147.338 18.2357 146.338 18.7637 145.154 19.1157C143.97 19.4677 142.642 19.6437 141.17 19.6437C140.498 19.6437 139.714 19.6117 138.818 19.5477C137.922 19.4997 137.042 19.3877 136.178 19.2117V3.01167C137.042 2.85167 137.938 2.74767 138.866 2.69967C139.81 2.63567 140.618 2.60367 141.29 2.60367C142.714 2.60367 144.002 2.76367 145.154 3.08367C146.322 3.40367 147.322 3.90767 148.154 4.59567C148.986 5.28367 149.626 6.16367 150.074 7.23567C150.522 8.30767 150.746 9.59567 150.746 11.0997ZM163.689 19.4277C163.353 18.8837 162.953 18.2997 162.489 17.6757C162.041 17.0357 161.545 16.4037 161.001 15.7797C160.473 15.1397 159.921 14.5317 159.345 13.9557C158.769 13.3637 158.193 12.8437 157.617 12.3957V19.4277H153.873V2.79567H157.617V9.08367C158.593 8.05967 159.569 6.99567 160.545 5.89167C161.537 4.77167 162.457 3.73967 163.305 2.79567H167.745C166.609 4.13967 165.465 5.43567 164.313 6.68367C163.177 7.93167 161.977 9.18767 160.713 10.4517C162.041 11.5557 163.321 12.8677 164.553 14.3877C165.801 15.9077 166.993 17.5877 168.129 19.4277H163.689Z" fill="#505D68"/>
</svg>
