<svg width="1792" height="1792" viewBox="0 0 1792 1792" fill="none" xmlns="http://www.w3.org/2000/svg">
<path d="M192 1664H1600V640H192V1664ZM576 448V160C576 150.667 573 143 567 137C561 131 553.333 128 544 128H480C470.667 128 463 131 457 137C451 143 448 150.667 448 160V448C448 457.333 451 465 457 471C463 477 470.667 480 480 480H544C553.333 480 561 477 567 471C573 465 576 457.333 576 448ZM1344 448V160C1344 150.667 1341 143 1335 137C1329 131 1321.33 128 1312 128H1248C1238.67 128 1231 131 1225 137C1219 143 1216 150.667 1216 160V448C1216 457.333 1219 465 1225 471C1231 477 1238.67 480 1248 480H1312C1321.33 480 1329 477 1335 471C1341 465 1344 457.333 1344 448ZM1728 384V1664C1728 1698.67 1715.33 1728.67 1690 1754C1664.67 1779.33 1634.67 1792 1600 1792H192C157.333 1792 127.333 1779.33 102 1754C76.6667 1728.67 64 1698.67 64 1664V384C64 349.333 76.6667 319.333 102 294C127.333 268.667 157.333 256 192 256H320V160C320 116 335.667 78.3333 367 47C398.333 15.6667 436 0 480 0H544C588 0 625.667 15.6667 657 47C688.333 78.3333 704 116 704 160V256H1088V160C1088 116 1103.67 78.3333 1135 47C1166.33 15.6667 1204 0 1248 0H1312C1356 0 1393.67 15.6667 1425 47C1456.33 78.3333 1472 116 1472 160V256H1600C1634.67 256 1664.67 268.667 1690 294C1715.33 319.333 1728 349.333 1728 384Z" fill="#564DCA"/>
<rect x="1088" width="383" height="480" fill="#564DCA"/>
<rect x="384" y="808" width="270" height="270" rx="20" fill="#564DCA"/>
<rect x="761" y="808" width="270" height="270" rx="20" fill="#564DCA"/>
<rect x="1138" y="808" width="270" height="270" rx="20" fill="#564DCA"/>
<rect x="384" y="1172" width="270" height="270" rx="20" fill="#564DCA"/>
<rect x="761" y="1172" width="270" height="270" rx="20" fill="#564DCA"/>
<rect x="1138" y="1172" width="270" height="270" rx="20" fill="#564DCA"/>
<rect x="320" width="384" height="480" fill="#564DCA"/>
</svg>
