<svg width="750" height="527" viewBox="0 0 750 527" fill="none" xmlns="http://www.w3.org/2000/svg">
<mask id="mask0_1_4411" style="mask-type:luminance" maskUnits="userSpaceOnUse" x="0" y="0" width="750" height="527">
<rect x="0.359863" y="0.218018" width="749.64" height="526.127" fill="white"/>
</mask>
<g mask="url(#mask0_1_4411)">
<path fill-rule="evenodd" clip-rule="evenodd" d="M294.995 188.959C337.59 188.959 372.237 154.744 372.237 112.694C372.237 70.6165 337.59 36.4014 294.995 36.4014C252.401 36.4014 217.754 70.6165 217.754 112.68C217.754 154.744 252.401 188.959 294.995 188.959ZM294.995 63.7954C322.291 63.7954 344.497 85.738 344.497 112.68C344.497 139.622 322.291 161.565 294.995 161.565C267.699 161.565 245.494 139.636 245.494 112.694C245.494 85.7517 267.699 63.7954 294.995 63.7954ZM12.418 556.321C9.79193 558.6 6.53002 559.72 3.29576 559.72C-0.532841 559.72 -4.34762 558.164 -7.0843 555.093C-12.1292 549.428 -11.5763 540.802 -5.84035 535.82L411.106 158.099C416.58 153.35 424.845 153.609 430.014 158.7L495.57 223.437L630.94 77.0246C633.414 74.3494 636.869 72.7525 640.532 72.5887C644.167 72.5068 647.774 73.7216 650.484 76.1647L816.343 226.303C821.982 231.394 822.356 240.034 817.2 245.589C812.045 251.144 803.296 251.526 797.67 246.435L642.025 105.537L515.128 242.764L581.569 308.374C586.973 313.711 586.973 322.337 581.569 327.674C576.164 333.011 567.429 333.011 562.025 327.674L419.634 187.076L12.418 556.321Z" fill="#C2D1D9"/>
</g>
</svg>
