<svg width="35" height="34" viewBox="0 0 35 34" fill="none" xmlns="http://www.w3.org/2000/svg">
<path d="M16.3 20.64C16.3 23.5 14.81 25.3 12.43 25.3C10.05 25.3 8.56 23.49 8.56 20.64C8.56 17.77 10.05 15.97 12.43 15.97C14.81 15.97 16.3 17.77 16.3 20.64ZM19.62 10.55L18.58 10.62C17.99 10.66 17.73 10.87 17.73 11.25C17.73 11.65 18.06 11.87 18.52 11.87C19.15 11.87 19.62 11.46 19.62 10.91V10.55ZM34.5 17C34.5 26.49 26.99 34 17.5 34C8.01 34 0.5 26.49 0.5 17C0.5 7.51 8.01 0 17.5 0C26.99 0 34.5 7.51 34.5 17ZM21.44 10.34C21.44 11.72 22.2 12.56 23.44 12.56C24.49 12.56 25.15 11.97 25.26 11.13H24.44C24.33 11.59 23.97 11.84 23.44 11.84C22.74 11.84 22.31 11.27 22.31 10.34C22.31 9.42 22.74 8.87 23.44 8.87C24 8.87 24.35 9.19 24.44 9.6H25.26C25.15 8.78 24.51 8.16 23.44 8.16C22.2 8.15 21.44 8.99 21.44 10.34ZM10.01 8.24V12.48H10.85V9.88C10.85 9.33 11.24 8.89 11.75 8.89C12.25 8.89 12.57 9.19 12.57 9.67V12.48H13.39V9.8C13.39 9.29 13.74 8.89 14.29 8.89C14.84 8.89 15.11 9.17 15.11 9.76V12.48H15.95V9.55C15.95 8.67 15.45 8.15 14.59 8.15C14 8.15 13.51 8.45 13.3 8.91H13.23C13.04 8.45 12.64 8.15 12.06 8.15C11.49 8.15 11.06 8.43 10.88 8.91H10.82V8.23L10.01 8.24ZM17.79 20.64C17.79 16.95 15.73 14.63 12.43 14.63C9.13 14.63 7.07 16.95 7.07 20.64C7.07 24.33 9.13 26.64 12.43 26.64C15.73 26.64 17.79 24.32 17.79 20.64ZM18.31 12.55C18.87 12.55 19.33 12.31 19.59 11.88H19.66V12.48H20.47V9.58C20.47 8.69 19.87 8.16 18.8 8.16C17.83 8.16 17.15 8.63 17.06 9.34H17.87C17.96 9.03 18.29 8.86 18.76 8.86C19.33 8.86 19.63 9.12 19.63 9.59V9.96L18.48 10.03C17.47 10.09 16.9 10.53 16.9 11.3C16.89 12.06 17.49 12.55 18.31 12.55ZM27.48 23.14C27.48 21.49 26.52 20.53 24.1 20L22.81 19.72C21.22 19.37 20.6 18.74 20.6 17.83C20.6 16.65 21.72 15.94 23.17 15.94C24.69 15.94 25.69 16.72 25.82 18H27.27C27.2 16.03 25.53 14.64 23.21 14.64C20.8 14.64 19.11 15.99 19.11 17.9C19.11 19.55 20.12 20.61 22.45 21.12L23.74 21.4C25.35 21.75 26 22.4 26 23.37C26 24.51 24.85 25.34 23.28 25.34C21.61 25.34 20.45 24.58 20.28 23.33H18.83C18.97 25.34 20.66 26.64 23.2 26.64C25.79 26.64 27.48 25.29 27.48 23.14Z" fill="white"/>
</svg>
