<svg width="141" height="19" viewBox="0 0 141 19" fill="none" xmlns="http://www.w3.org/2000/svg">
<path d="M5.70319 1.24764C5.99119 1.77564 6.31919 2.43164 6.68719 3.21564C7.07119 3.98364 7.46319 4.82364 7.86319 5.73564C8.27919 6.63164 8.68719 7.55164 9.08719 8.49564C9.48719 9.43964 9.86319 10.3276 10.2152 11.1596C10.5672 10.3276 10.9432 9.43964 11.3432 8.49564C11.7432 7.55164 12.1432 6.63164 12.5432 5.73564C12.9592 4.82364 13.3512 3.98364 13.7192 3.21564C14.1032 2.43164 14.4392 1.77564 14.7272 1.24764H18.1352C18.2952 2.35164 18.4392 3.59164 18.5672 4.96764C18.7112 6.32764 18.8312 7.75164 18.9272 9.23964C19.0392 10.7116 19.1352 12.1916 19.2152 13.6796C19.3112 15.1676 19.3912 16.5676 19.4552 17.8796H15.8072C15.7592 16.2636 15.6952 14.5036 15.6152 12.5996C15.5352 10.6956 15.4152 8.77564 15.2552 6.83964C14.9672 7.51164 14.6472 8.25564 14.2952 9.07164C13.9432 9.88764 13.5912 10.7036 13.2392 11.5196C12.9032 12.3356 12.5752 13.1196 12.2552 13.8716C11.9352 14.6076 11.6632 15.2396 11.4392 15.7676H8.82319C8.59919 15.2396 8.32719 14.6076 8.00719 13.8716C7.68719 13.1196 7.35119 12.3356 6.99919 11.5196C6.66319 10.7036 6.31919 9.88764 5.96719 9.07164C5.61519 8.25564 5.29519 7.51164 5.00719 6.83964C4.84719 8.77564 4.72719 10.6956 4.64719 12.5996C4.56719 14.5036 4.50319 16.2636 4.45519 17.8796H0.807188C0.871188 16.5676 0.943188 15.1676 1.02319 13.6796C1.11919 12.1916 1.21519 10.7116 1.31119 9.23964C1.42319 7.75164 1.54319 6.32764 1.67119 4.96764C1.81519 3.59164 1.96719 2.35164 2.12719 1.24764H5.70319ZM27.4103 15.3836C27.7623 15.3836 28.0983 15.3756 28.4183 15.3596C28.7383 15.3436 28.9943 15.3196 29.1863 15.2876V12.5756C29.0423 12.5436 28.8263 12.5116 28.5383 12.4796C28.2503 12.4476 27.9863 12.4316 27.7463 12.4316C27.4103 12.4316 27.0903 12.4556 26.7863 12.5036C26.4983 12.5356 26.2423 12.6076 26.0183 12.7196C25.7943 12.8316 25.6183 12.9836 25.4903 13.1756C25.3623 13.3676 25.2983 13.6076 25.2983 13.8956C25.2983 14.4556 25.4823 14.8476 25.8503 15.0716C26.2343 15.2796 26.7543 15.3836 27.4103 15.3836ZM27.1223 4.91964C28.1783 4.91964 29.0583 5.03964 29.7623 5.27964C30.4663 5.51964 31.0263 5.86364 31.4423 6.31164C31.8743 6.75964 32.1783 7.30364 32.3543 7.94364C32.5303 8.58364 32.6183 9.29564 32.6183 10.0796V17.5196C32.1063 17.6316 31.3943 17.7596 30.4823 17.9036C29.5703 18.0636 28.4663 18.1436 27.1703 18.1436C26.3543 18.1436 25.6103 18.0716 24.9383 17.9276C24.2823 17.7836 23.7143 17.5516 23.2343 17.2316C22.7543 16.8956 22.3863 16.4636 22.1303 15.9356C21.8743 15.4076 21.7463 14.7596 21.7463 13.9916C21.7463 13.2556 21.8903 12.6316 22.1783 12.1196C22.4823 11.6076 22.8823 11.1996 23.3783 10.8956C23.8743 10.5916 24.4423 10.3756 25.0823 10.2476C25.7223 10.1036 26.3863 10.0316 27.0742 10.0316C27.5383 10.0316 27.9463 10.0556 28.2983 10.1036C28.6663 10.1356 28.9623 10.1836 29.1863 10.2476V9.91164C29.1863 9.30364 29.0023 8.81564 28.6343 8.44764C28.2663 8.07964 27.6263 7.89564 26.7143 7.89564C26.1063 7.89564 25.5063 7.94364 24.9143 8.03964C24.3223 8.11964 23.8103 8.23964 23.3783 8.39964L22.9223 5.51964C23.1303 5.45564 23.3863 5.39164 23.6903 5.32764C24.0103 5.24764 24.3543 5.18364 24.7223 5.13564C25.0903 5.07164 25.4743 5.02364 25.8743 4.99164C26.2903 4.94364 26.7063 4.91964 27.1223 4.91964ZM35.2519 11.5676C35.2519 10.6556 35.3959 9.79964 35.6839 8.99964C35.9879 8.18364 36.4199 7.47964 36.9799 6.88764C37.5399 6.27964 38.2199 5.79964 39.0199 5.44764C39.8199 5.09564 40.7319 4.91964 41.7559 4.91964C42.4279 4.91964 43.0439 4.98364 43.6039 5.11164C44.1639 5.22364 44.7079 5.39164 45.2359 5.61564L44.4919 8.47164C44.1559 8.34364 43.7879 8.23164 43.3879 8.13564C42.9879 8.03964 42.5399 7.99164 42.0439 7.99164C40.9879 7.99164 40.1959 8.31964 39.6679 8.97564C39.1559 9.63164 38.8999 10.4956 38.8999 11.5676C38.8999 12.7036 39.1399 13.5836 39.6199 14.2076C40.1159 14.8316 40.9719 15.1436 42.1879 15.1436C42.6199 15.1436 43.0839 15.1036 43.5799 15.0236C44.0759 14.9436 44.5319 14.8156 44.9479 14.6396L45.4519 17.5676C45.0359 17.7436 44.5159 17.8956 43.8919 18.0236C43.2679 18.1516 42.5799 18.2156 41.8279 18.2156C40.6759 18.2156 39.6839 18.0476 38.8519 17.7116C38.0199 17.3596 37.3319 16.8876 36.7879 16.2956C36.2599 15.7036 35.8679 15.0076 35.6119 14.2076C35.3719 13.3916 35.2519 12.5116 35.2519 11.5676ZM51.2359 9.55164C51.2359 10.3676 51.3319 11.1036 51.5239 11.7596C51.7319 12.4156 52.0199 12.9836 52.3879 13.4636C52.7719 13.9276 53.2359 14.2876 53.7799 14.5436C54.3239 14.7996 54.9479 14.9276 55.6519 14.9276C56.3399 14.9276 56.9559 14.7996 57.4999 14.5436C58.0599 14.2876 58.5239 13.9276 58.8919 13.4636C59.2759 12.9836 59.5639 12.4156 59.7559 11.7596C59.9639 11.1036 60.0679 10.3676 60.0679 9.55164C60.0679 8.73564 59.9639 7.99964 59.7559 7.34364C59.5639 6.67164 59.2759 6.10364 58.8919 5.63964C58.5239 5.15964 58.0599 4.79164 57.4999 4.53564C56.9559 4.27964 56.3399 4.15164 55.6519 4.15164C54.9479 4.15164 54.3239 4.28764 53.7799 4.55964C53.2359 4.81564 52.7719 5.18364 52.3879 5.66364C52.0199 6.12764 51.7319 6.69564 51.5239 7.36764C51.3319 8.02364 51.2359 8.75164 51.2359 9.55164ZM63.9319 9.55164C63.9319 10.9756 63.7159 12.2316 63.2839 13.3196C62.8679 14.3916 62.2919 15.2956 61.5559 16.0316C60.8199 16.7516 59.9399 17.2956 58.9159 17.6636C57.9079 18.0316 56.8199 18.2156 55.6519 18.2156C54.5159 18.2156 53.4439 18.0316 52.4359 17.6636C51.4279 17.2956 50.5479 16.7516 49.7959 16.0316C49.0439 15.2956 48.4519 14.3916 48.0199 13.3196C47.5879 12.2316 47.3719 10.9756 47.3719 9.55164C47.3719 8.12764 47.5959 6.87964 48.0439 5.80764C48.4919 4.71964 49.0919 3.80764 49.8439 3.07164C50.6119 2.33564 51.4919 1.78364 52.4839 1.41564C53.4919 1.04764 54.5479 0.863637 55.6519 0.863637C56.7879 0.863637 57.8599 1.04764 58.8679 1.41564C59.8759 1.78364 60.7559 2.33564 61.5079 3.07164C62.2599 3.80764 62.8519 4.71964 63.2839 5.80764C63.7159 6.87964 63.9319 8.12764 63.9319 9.55164ZM71.5888 15.0236C72.1168 15.0236 72.5488 14.9836 72.8848 14.9036C73.2368 14.8076 73.5168 14.6876 73.7248 14.5436C73.9328 14.3836 74.0768 14.1996 74.1568 13.9916C74.2368 13.7836 74.2768 13.5516 74.2768 13.2956C74.2768 12.7516 74.0208 12.3036 73.5088 11.9516C72.9968 11.5836 72.1168 11.1916 70.8688 10.7756C70.3248 10.5836 69.7808 10.3676 69.2368 10.1276C68.6928 9.87164 68.2048 9.55964 67.7728 9.19164C67.3408 8.80764 66.9888 8.35164 66.7168 7.82364C66.4448 7.27964 66.3088 6.62364 66.3088 5.85564C66.3088 5.08764 66.4528 4.39964 66.7408 3.79164C67.0288 3.16764 67.4368 2.63964 67.9648 2.20764C68.4928 1.77564 69.1328 1.44764 69.8848 1.22364C70.6368 0.983638 71.4848 0.863637 72.4288 0.863637C73.5488 0.863637 74.5168 0.983638 75.3328 1.22364C76.1488 1.46364 76.8208 1.72764 77.3488 2.01564L76.2688 4.96764C75.8048 4.72764 75.2848 4.51964 74.7088 4.34364C74.1488 4.15164 73.4688 4.05564 72.6688 4.05564C71.7728 4.05564 71.1248 4.18364 70.7248 4.43964C70.3408 4.67964 70.1488 5.05564 70.1488 5.56764C70.1488 5.87164 70.2208 6.12764 70.3648 6.33564C70.5088 6.54364 70.7088 6.73564 70.9648 6.91164C71.2368 7.07164 71.5408 7.22364 71.8768 7.36764C72.2288 7.49564 72.6128 7.63164 73.0288 7.77564C73.8928 8.09564 74.6448 8.41564 75.2848 8.73564C75.9248 9.03964 76.4528 9.39964 76.8688 9.81564C77.3008 10.2316 77.6208 10.7196 77.8288 11.2796C78.0368 11.8396 78.1408 12.5196 78.1408 13.3196C78.1408 14.8716 77.5968 16.0796 76.5088 16.9436C75.4208 17.7916 73.7808 18.2156 71.5888 18.2156C70.8528 18.2156 70.1888 18.1676 69.5968 18.0716C69.0048 17.9916 68.4768 17.8876 68.0128 17.7596C67.5648 17.6316 67.1728 17.4956 66.8368 17.3516C66.5168 17.2076 66.2448 17.0716 66.0208 16.9436L67.0768 13.9676C67.5728 14.2396 68.1808 14.4876 68.9008 14.7116C69.6368 14.9196 70.5328 15.0236 71.5888 15.0236ZM90.5736 17.8796C90.1096 16.9516 89.5976 16.0156 89.0376 15.0716C88.4936 14.1116 87.8616 13.1356 87.1416 12.1436C86.9176 12.4316 86.6296 12.8316 86.2776 13.3436C85.9416 13.8556 85.5976 14.3996 85.2456 14.9756C84.9096 15.5516 84.5896 16.1036 84.2856 16.6316C83.9816 17.1596 83.7576 17.5756 83.6136 17.8796H79.3416C80.0456 16.5836 80.8616 15.2236 81.7896 13.7996C82.7336 12.3756 83.7816 10.8636 84.9336 9.26364L79.5816 1.24764H84.1176L87.3576 6.43164L90.5256 1.24764H94.7976L89.5176 9.31164C90.8616 11.0556 91.9896 12.6716 92.9016 14.1596C93.8136 15.6316 94.5336 16.8716 95.0616 17.8796H90.5736ZM107.759 9.09564L110.255 5.25564H113.951L109.631 11.3276C110.591 12.5276 111.463 13.6956 112.247 14.8316C113.031 15.9676 113.655 16.9836 114.119 17.8796H110.279C110.151 17.6396 109.991 17.3436 109.799 16.9916C109.607 16.6236 109.391 16.2476 109.151 15.8636C108.911 15.4636 108.655 15.0716 108.383 14.6876C108.127 14.2876 107.871 13.9276 107.615 13.6076C107.375 13.9116 107.127 14.2476 106.871 14.6156C106.631 14.9836 106.399 15.3596 106.175 15.7436C105.951 16.1116 105.727 16.4796 105.503 16.8476C105.295 17.2156 105.111 17.5596 104.951 17.8796H101.303C101.495 17.4796 101.759 17.0076 102.095 16.4636C102.431 15.9196 102.791 15.3596 103.175 14.7836C103.575 14.1916 103.991 13.6076 104.423 13.0316C104.855 12.4396 105.279 11.8876 105.695 11.3756C104.975 10.3676 104.255 9.35164 103.535 8.32764C102.815 7.28764 102.103 6.26364 101.399 5.25564H105.263L107.759 9.09564ZM120.928 10.0556C120.576 10.0556 120.2 10.0876 119.8 10.1516C119.4 10.2156 119.088 10.3036 118.864 10.4156C118.864 10.4796 118.856 10.5756 118.84 10.7036C118.84 10.8316 118.84 10.9436 118.84 11.0396C118.84 11.6156 118.88 12.1596 118.96 12.6716C119.04 13.1836 119.176 13.6316 119.368 14.0156C119.56 14.3996 119.816 14.7036 120.136 14.9276C120.456 15.1356 120.856 15.2396 121.336 15.2396C121.736 15.2396 122.072 15.1596 122.344 14.9996C122.632 14.8236 122.864 14.6076 123.04 14.3516C123.232 14.0956 123.368 13.8156 123.448 13.5116C123.544 13.1916 123.592 12.8876 123.592 12.5996C123.592 11.7836 123.384 11.1596 122.968 10.7276C122.568 10.2796 121.888 10.0556 120.928 10.0556ZM121.384 7.27164C122.424 7.27164 123.304 7.41564 124.024 7.70364C124.76 7.97564 125.36 8.35164 125.824 8.83164C126.288 9.31164 126.624 9.87164 126.832 10.5116C127.04 11.1516 127.144 11.8316 127.144 12.5516C127.144 13.1916 127.024 13.8476 126.784 14.5196C126.56 15.1916 126.208 15.7996 125.728 16.3436C125.264 16.8876 124.664 17.3356 123.928 17.6876C123.208 18.0396 122.352 18.2156 121.36 18.2156C119.36 18.2156 117.84 17.5836 116.8 16.3196C115.76 15.0556 115.24 13.3116 115.24 11.0876C115.24 9.48764 115.488 8.07164 115.984 6.83964C116.48 5.60764 117.184 4.57564 118.096 3.74364C119.024 2.89564 120.136 2.25564 121.432 1.82364C122.744 1.37564 124.216 1.14364 125.848 1.12764C125.88 1.62364 125.912 2.11164 125.944 2.59164C125.976 3.05564 126.008 3.54364 126.04 4.05564C125.224 4.07164 124.456 4.15164 123.736 4.29564C123.032 4.42364 122.384 4.63164 121.792 4.91964C121.216 5.20764 120.712 5.58364 120.28 6.04764C119.848 6.49564 119.512 7.04764 119.272 7.70364C119.624 7.54364 119.984 7.43164 120.352 7.36764C120.72 7.30364 121.064 7.27164 121.384 7.27164ZM135.648 5.61564C135.024 6.43164 134.36 7.31964 133.656 8.27964C132.952 9.23964 132.36 10.2236 131.88 11.2316H135.648V5.61564ZM139.152 1.24764V11.2316H140.928V14.1596H139.152V17.8796H135.648V14.1596H128.472V11.5436C128.824 10.8396 129.264 10.0476 129.792 9.16764C130.32 8.27164 130.904 7.35964 131.544 6.43164C132.2 5.48764 132.888 4.56764 133.608 3.67164C134.328 2.77564 135.048 1.96764 135.768 1.24764H139.152Z" fill="#505D68"/>
</svg>
