<svg width="149" height="20" viewBox="0 0 149 20" fill="none" xmlns="http://www.w3.org/2000/svg">
<path d="M12.873 4.57167C13.065 5.22767 13.273 5.97167 13.497 6.80367C13.737 7.61967 13.985 8.46767 14.241 9.34767C14.513 10.2277 14.785 11.1077 15.057 11.9877C15.329 12.8677 15.593 13.6837 15.849 14.4357C16.057 13.6197 16.265 12.7317 16.473 11.7717C16.697 10.8117 16.905 9.81967 17.097 8.79567C17.289 7.77167 17.473 6.75567 17.649 5.74767C17.841 4.72367 18.017 3.73967 18.177 2.79567H22.065C21.505 5.57967 20.857 8.40367 20.121 11.2677C19.401 14.1317 18.617 16.8517 17.769 19.4277H14.337C13.777 17.8917 13.233 16.2837 12.705 14.6037C12.177 12.9077 11.657 11.2117 11.145 9.51567C10.633 11.2117 10.121 12.9077 9.60897 14.6037C9.09697 16.2837 8.56097 17.8917 8.00097 19.4277H4.56897C3.72097 16.8517 2.92897 14.1317 2.19297 11.2677C1.47297 8.40367 0.832969 5.57967 0.272969 2.79567H4.32897C4.48897 3.73967 4.66497 4.72367 4.85697 5.74767C5.04897 6.75567 5.24897 7.77167 5.45697 8.79567C5.66497 9.81967 5.87297 10.8117 6.08097 11.7717C6.30497 12.7317 6.52897 13.6197 6.75297 14.4357C7.04097 13.6517 7.32097 12.8197 7.59297 11.9397C7.86497 11.0597 8.12897 10.1797 8.38497 9.29967C8.64097 8.41967 8.87297 7.57167 9.08097 6.75567C9.30497 5.93967 9.50497 5.21167 9.68097 4.57167H12.873ZM27.8068 19.4277H24.2308V6.80367H27.8068V19.4277ZM28.1428 3.15567C28.1428 3.81167 27.9268 4.33167 27.4948 4.71567C27.0788 5.08367 26.5828 5.26767 26.0068 5.26767C25.4308 5.26767 24.9268 5.08367 24.4948 4.71567C24.0788 4.33167 23.8708 3.81167 23.8708 3.15567C23.8708 2.49967 24.0788 1.98767 24.4948 1.61967C24.9268 1.23567 25.4308 1.04367 26.0068 1.04367C26.5828 1.04367 27.0788 1.23567 27.4948 1.61967C27.9268 1.98767 28.1428 2.49967 28.1428 3.15567ZM31.1683 7.23567C31.7763 7.05967 32.5603 6.89967 33.5203 6.75567C34.4803 6.59567 35.4883 6.51567 36.5443 6.51567C37.6163 6.51567 38.5043 6.65967 39.2083 6.94767C39.9283 7.21967 40.4963 7.61167 40.9123 8.12367C41.3283 8.63567 41.6243 9.24367 41.8003 9.94767C41.9763 10.6517 42.0643 11.4357 42.0643 12.2997V19.4277H38.4883V12.7317C38.4883 11.5797 38.3363 10.7637 38.0323 10.2837C37.7283 9.80367 37.1603 9.56367 36.3283 9.56367C36.0723 9.56367 35.8003 9.57967 35.5123 9.61167C35.2243 9.62767 34.9683 9.65167 34.7443 9.68367V19.4277H31.1683V7.23567ZM48.3491 13.0197C48.3491 14.1237 48.5971 15.0117 49.0931 15.6837C49.5891 16.3557 50.3251 16.6917 51.3011 16.6917C51.6211 16.6917 51.9171 16.6837 52.1891 16.6677C52.4611 16.6357 52.6851 16.6037 52.8611 16.5717V10.0677C52.6371 9.92367 52.3411 9.80367 51.9731 9.70767C51.6211 9.61167 51.2611 9.56367 50.8931 9.56367C49.1971 9.56367 48.3491 10.7157 48.3491 13.0197ZM56.4371 19.0197C56.1171 19.1157 55.7491 19.2117 55.3331 19.3077C54.9171 19.3877 54.4771 19.4597 54.0131 19.5237C53.5651 19.5877 53.1011 19.6357 52.6211 19.6677C52.1571 19.7157 51.7091 19.7397 51.2771 19.7397C50.2371 19.7397 49.3091 19.5877 48.4931 19.2837C47.6771 18.9797 46.9891 18.5477 46.4291 17.9877C45.8691 17.4117 45.4371 16.7237 45.1331 15.9237C44.8451 15.1077 44.7011 14.1957 44.7011 13.1877C44.7011 12.1637 44.8291 11.2437 45.0851 10.4277C45.3411 9.59567 45.7091 8.89167 46.1891 8.31567C46.6691 7.73967 47.2531 7.29967 47.9411 6.99567C48.6451 6.69167 49.4451 6.53967 50.3411 6.53967C50.8371 6.53967 51.2771 6.58767 51.6611 6.68367C52.0611 6.77967 52.4611 6.91567 52.8611 7.09167V1.37967L56.4371 0.803673V19.0197ZM71.5935 13.0917C71.5935 14.0837 71.4495 14.9957 71.1615 15.8277C70.8735 16.6437 70.4575 17.3477 69.9135 17.9397C69.3695 18.5157 68.7135 18.9637 67.9455 19.2837C67.1935 19.6037 66.3455 19.7637 65.4015 19.7637C64.4735 19.7637 63.6255 19.6037 62.8575 19.2837C62.1055 18.9637 61.4575 18.5157 60.9135 17.9397C60.3695 17.3477 59.9455 16.6437 59.6415 15.8277C59.3375 14.9957 59.1855 14.0837 59.1855 13.0917C59.1855 12.0997 59.3375 11.1957 59.6415 10.3797C59.9615 9.56367 60.3935 8.86767 60.9375 8.29167C61.4975 7.71567 62.1535 7.26767 62.9055 6.94767C63.6735 6.62767 64.5055 6.46767 65.4015 6.46767C66.3135 6.46767 67.1455 6.62767 67.8975 6.94767C68.6655 7.26767 69.3215 7.71567 69.8655 8.29167C70.4095 8.86767 70.8335 9.56367 71.1375 10.3797C71.4415 11.1957 71.5935 12.0997 71.5935 13.0917ZM67.9455 13.0917C67.9455 11.9877 67.7215 11.1237 67.2735 10.4997C66.8415 9.85967 66.2175 9.53967 65.4015 9.53967C64.5855 9.53967 63.9535 9.85967 63.5055 10.4997C63.0575 11.1237 62.8335 11.9877 62.8335 13.0917C62.8335 14.1957 63.0575 15.0757 63.5055 15.7317C63.9535 16.3717 64.5855 16.6917 65.4015 16.6917C66.2175 16.6917 66.8415 16.3717 67.2735 15.7317C67.7215 15.0757 67.9455 14.1957 67.9455 13.0917ZM81.7623 12.1797C81.4423 13.3957 81.0983 14.6037 80.7303 15.8037C80.3783 17.0037 80.0023 18.2117 79.6023 19.4277H76.8183C76.5303 18.7557 76.2183 17.9557 75.8823 17.0277C75.5463 16.0997 75.1943 15.0917 74.8263 14.0037C74.4743 12.8997 74.1063 11.7397 73.7223 10.5237C73.3543 9.29167 72.9943 8.05167 72.6423 6.80367H76.4103C76.5383 7.37967 76.6743 8.01167 76.8183 8.69967C76.9783 9.37167 77.1383 10.0677 77.2983 10.7877C77.4743 11.5077 77.6503 12.2357 77.8263 12.9717C78.0183 13.6917 78.2103 14.3877 78.4023 15.0597C78.6103 14.3557 78.8103 13.6357 79.0023 12.8997C79.2103 12.1637 79.4023 11.4437 79.5783 10.7397C79.7703 10.0197 79.9463 9.33167 80.1063 8.67567C80.2823 8.00367 80.4343 7.37967 80.5623 6.80367H83.1543C83.2823 7.37967 83.4263 8.00367 83.5863 8.67567C83.7463 9.33167 83.9143 10.0197 84.0903 10.7397C84.2663 11.4437 84.4503 12.1637 84.6423 12.8997C84.8343 13.6357 85.0343 14.3557 85.2423 15.0597C85.4343 14.3877 85.6263 13.6917 85.8183 12.9717C86.0103 12.2357 86.1863 11.5077 86.3463 10.7877C86.5223 10.0677 86.6823 9.37167 86.8263 8.69967C86.9863 8.01167 87.1303 7.37967 87.2583 6.80367H90.9783C90.6263 8.05167 90.2583 9.29167 89.8743 10.5237C89.5063 11.7397 89.1383 12.8997 88.7703 14.0037C88.4183 15.0917 88.0663 16.0997 87.7143 17.0277C87.3783 17.9557 87.0663 18.7557 86.7783 19.4277H83.9943C83.5943 18.2117 83.2023 17.0037 82.8183 15.8037C82.4343 14.6037 82.0823 13.3957 81.7623 12.1797ZM96.5267 16.8597C97.1827 16.8597 97.6467 16.7957 97.9187 16.6677C98.1907 16.5397 98.3267 16.2917 98.3267 15.9237C98.3267 15.6357 98.1507 15.3877 97.7987 15.1797C97.4467 14.9557 96.9107 14.7077 96.1907 14.4357C95.6307 14.2277 95.1187 14.0117 94.6547 13.7877C94.2067 13.5637 93.8227 13.2997 93.5027 12.9957C93.1827 12.6757 92.9347 12.2997 92.7587 11.8677C92.5827 11.4357 92.4947 10.9157 92.4947 10.3077C92.4947 9.12367 92.9347 8.18767 93.8147 7.49967C94.6947 6.81167 95.9027 6.46767 97.4387 6.46767C98.2067 6.46767 98.9427 6.53967 99.6467 6.68367C100.351 6.81167 100.911 6.95567 101.327 7.11567L100.703 9.89967C100.287 9.75567 99.8307 9.62767 99.3347 9.51567C98.8547 9.40367 98.3107 9.34767 97.7027 9.34767C96.5827 9.34767 96.0227 9.65967 96.0227 10.2837C96.0227 10.4277 96.0467 10.5557 96.0947 10.6677C96.1427 10.7797 96.2387 10.8917 96.3827 11.0037C96.5267 11.0997 96.7187 11.2117 96.9587 11.3397C97.2147 11.4517 97.5347 11.5797 97.9187 11.7237C98.7027 12.0117 99.3507 12.2997 99.8627 12.5877C100.375 12.8597 100.775 13.1637 101.063 13.4997C101.367 13.8197 101.575 14.1797 101.687 14.5797C101.815 14.9797 101.879 15.4437 101.879 15.9717C101.879 17.2197 101.407 18.1637 100.463 18.8037C99.5347 19.4437 98.2147 19.7637 96.5027 19.7637C95.3827 19.7637 94.4467 19.6677 93.6947 19.4757C92.9587 19.2837 92.4467 19.1237 92.1587 18.9957L92.7587 16.0917C93.3667 16.3317 93.9907 16.5237 94.6307 16.6677C95.2707 16.7957 95.9027 16.8597 96.5267 16.8597ZM115.333 10.6437L117.829 6.80367H121.525L117.205 12.8757C118.165 14.0757 119.037 15.2437 119.821 16.3797C120.605 17.5157 121.229 18.5317 121.693 19.4277H117.853C117.725 19.1877 117.565 18.8917 117.373 18.5397C117.181 18.1717 116.965 17.7957 116.725 17.4117C116.485 17.0117 116.229 16.6197 115.957 16.2357C115.701 15.8357 115.445 15.4757 115.189 15.1557C114.949 15.4597 114.701 15.7957 114.445 16.1637C114.205 16.5317 113.973 16.9077 113.749 17.2917C113.525 17.6597 113.301 18.0277 113.077 18.3957C112.869 18.7637 112.685 19.1077 112.525 19.4277H108.877C109.069 19.0277 109.333 18.5557 109.669 18.0117C110.005 17.4677 110.365 16.9077 110.749 16.3317C111.149 15.7397 111.565 15.1557 111.997 14.5797C112.429 13.9877 112.853 13.4357 113.269 12.9237C112.549 11.9157 111.829 10.8997 111.109 9.87567C110.389 8.83567 109.677 7.81167 108.973 6.80367H112.837L115.333 10.6437ZM128.502 11.6037C128.15 11.6037 127.774 11.6357 127.374 11.6997C126.974 11.7637 126.662 11.8517 126.438 11.9637C126.438 12.0277 126.43 12.1237 126.414 12.2517C126.414 12.3797 126.414 12.4917 126.414 12.5877C126.414 13.1637 126.454 13.7077 126.534 14.2197C126.614 14.7317 126.75 15.1797 126.942 15.5637C127.134 15.9477 127.39 16.2517 127.71 16.4757C128.03 16.6837 128.43 16.7877 128.91 16.7877C129.31 16.7877 129.646 16.7077 129.918 16.5477C130.206 16.3717 130.438 16.1557 130.614 15.8997C130.806 15.6437 130.942 15.3637 131.022 15.0597C131.118 14.7397 131.166 14.4357 131.166 14.1477C131.166 13.3317 130.958 12.7077 130.542 12.2757C130.142 11.8277 129.462 11.6037 128.502 11.6037ZM128.958 8.81967C129.998 8.81967 130.878 8.96367 131.598 9.25167C132.334 9.52367 132.934 9.89967 133.398 10.3797C133.862 10.8597 134.198 11.4197 134.406 12.0597C134.614 12.6997 134.718 13.3797 134.718 14.0997C134.718 14.7397 134.598 15.3957 134.358 16.0677C134.134 16.7397 133.782 17.3477 133.302 17.8917C132.838 18.4357 132.238 18.8837 131.502 19.2357C130.782 19.5877 129.926 19.7637 128.934 19.7637C126.934 19.7637 125.414 19.1317 124.374 17.8677C123.334 16.6037 122.814 14.8597 122.814 12.6357C122.814 11.0357 123.062 9.61967 123.558 8.38767C124.054 7.15567 124.758 6.12367 125.67 5.29167C126.598 4.44367 127.71 3.80367 129.006 3.37167C130.318 2.92367 131.79 2.69167 133.422 2.67567C133.454 3.17167 133.486 3.65967 133.518 4.13967C133.55 4.60367 133.582 5.09167 133.614 5.60367C132.798 5.61967 132.03 5.69967 131.31 5.84367C130.606 5.97167 129.958 6.17967 129.366 6.46767C128.79 6.75567 128.286 7.13167 127.854 7.59567C127.422 8.04367 127.086 8.59567 126.846 9.25167C127.198 9.09167 127.558 8.97967 127.926 8.91567C128.294 8.85167 128.638 8.81967 128.958 8.81967ZM143.222 7.16367C142.598 7.97967 141.934 8.86767 141.23 9.82767C140.526 10.7877 139.934 11.7717 139.454 12.7797H143.222V7.16367ZM146.726 2.79567V12.7797H148.502V15.7077H146.726V19.4277H143.222V15.7077H136.046V13.0917C136.398 12.3877 136.838 11.5957 137.366 10.7157C137.894 9.81967 138.478 8.90767 139.118 7.97967C139.774 7.03567 140.462 6.11567 141.182 5.21967C141.902 4.32367 142.622 3.51567 143.342 2.79567H146.726Z" fill="#505D68"/>
</svg>
