<svg width="168" height="20" viewBox="0 0 168 20" fill="none" xmlns="http://www.w3.org/2000/svg">
<path d="M11.9408 19.4277C11.4768 18.4997 10.9648 17.5637 10.4048 16.6197C9.86075 15.6597 9.22875 14.6837 8.50875 13.6917C8.28475 13.9797 7.99675 14.3797 7.64475 14.8917C7.30875 15.4037 6.96475 15.9477 6.61275 16.5237C6.27675 17.0997 5.95675 17.6517 5.65275 18.1797C5.34875 18.7077 5.12475 19.1237 4.98075 19.4277H0.70875C1.41275 18.1317 2.22875 16.7717 3.15675 15.3477C4.10075 13.9237 5.14875 12.4117 6.30075 10.8117L0.94875 2.79567H5.48475L8.72475 7.97967L11.8928 2.79567H16.1648L10.8848 10.8597C12.2288 12.6037 13.3568 14.2197 14.2688 15.7077C15.1808 17.1797 15.9008 18.4197 16.4288 19.4277H11.9408ZM26.4321 13.0197C26.4321 10.7157 25.5841 9.56367 23.8881 9.56367C23.5201 9.56367 23.1521 9.61167 22.7841 9.70767C22.4321 9.80367 22.1441 9.92367 21.9201 10.0677V16.5717C22.0961 16.6037 22.3201 16.6357 22.5921 16.6677C22.8641 16.6837 23.1601 16.6917 23.4801 16.6917C24.4561 16.6917 25.1921 16.3557 25.6881 15.6837C26.1841 15.0117 26.4321 14.1237 26.4321 13.0197ZM30.0801 13.1157C30.0801 14.1237 29.9281 15.0357 29.6241 15.8517C29.3361 16.6677 28.9121 17.3637 28.3521 17.9397C27.7921 18.5157 27.1041 18.9637 26.2881 19.2837C25.4721 19.5877 24.5441 19.7397 23.5041 19.7397C23.0721 19.7397 22.6161 19.7157 22.1361 19.6677C21.6721 19.6357 21.2081 19.5877 20.7441 19.5237C20.2961 19.4597 19.8641 19.3877 19.4481 19.3077C19.0321 19.2117 18.6641 19.1157 18.3441 19.0197V1.37967L21.9201 0.803673V7.09167C22.3201 6.91567 22.7361 6.77967 23.1681 6.68367C23.6001 6.58767 24.0641 6.53967 24.5601 6.53967C25.4561 6.53967 26.2481 6.69967 26.9361 7.01967C27.6241 7.32367 28.2001 7.76367 28.6641 8.33967C29.1281 8.91567 29.4801 9.61167 29.7201 10.4277C29.9601 11.2277 30.0801 12.1237 30.0801 13.1157ZM44.6364 13.0917C44.6364 14.0837 44.4924 14.9957 44.2044 15.8277C43.9164 16.6437 43.5004 17.3477 42.9564 17.9397C42.4124 18.5157 41.7564 18.9637 40.9884 19.2837C40.2364 19.6037 39.3884 19.7637 38.4444 19.7637C37.5164 19.7637 36.6684 19.6037 35.9004 19.2837C35.1484 18.9637 34.5004 18.5157 33.9564 17.9397C33.4124 17.3477 32.9884 16.6437 32.6844 15.8277C32.3804 14.9957 32.2284 14.0837 32.2284 13.0917C32.2284 12.0997 32.3804 11.1957 32.6844 10.3797C33.0044 9.56367 33.4364 8.86767 33.9804 8.29167C34.5404 7.71567 35.1964 7.26767 35.9484 6.94767C36.7164 6.62767 37.5484 6.46767 38.4444 6.46767C39.3564 6.46767 40.1884 6.62767 40.9404 6.94767C41.7084 7.26767 42.3644 7.71567 42.9084 8.29167C43.4524 8.86767 43.8764 9.56367 44.1804 10.3797C44.4844 11.1957 44.6364 12.0997 44.6364 13.0917ZM40.9884 13.0917C40.9884 11.9877 40.7644 11.1237 40.3164 10.4997C39.8844 9.85967 39.2604 9.53967 38.4444 9.53967C37.6284 9.53967 36.9964 9.85967 36.5484 10.4997C36.1004 11.1237 35.8764 11.9877 35.8764 13.0917C35.8764 14.1957 36.1004 15.0757 36.5484 15.7317C36.9964 16.3717 37.6284 16.6917 38.4444 16.6917C39.2604 16.6917 39.8844 16.3717 40.3164 15.7317C40.7644 15.0757 40.9884 14.1957 40.9884 13.0917ZM52.0007 10.6437L54.4967 6.80367H58.1927L53.8727 12.8757C54.8327 14.0757 55.7047 15.2437 56.4887 16.3797C57.2727 17.5157 57.8967 18.5317 58.3607 19.4277H54.5207C54.3927 19.1877 54.2327 18.8917 54.0407 18.5397C53.8487 18.1717 53.6327 17.7957 53.3927 17.4117C53.1527 17.0117 52.8967 16.6197 52.6247 16.2357C52.3687 15.8357 52.1127 15.4757 51.8567 15.1557C51.6167 15.4597 51.3687 15.7957 51.1127 16.1637C50.8727 16.5317 50.6407 16.9077 50.4167 17.2917C50.1927 17.6597 49.9687 18.0277 49.7447 18.3957C49.5367 18.7637 49.3527 19.1077 49.1927 19.4277H45.5447C45.7367 19.0277 46.0007 18.5557 46.3367 18.0117C46.6727 17.4677 47.0327 16.9077 47.4167 16.3317C47.8167 15.7397 48.2327 15.1557 48.6647 14.5797C49.0967 13.9877 49.5207 13.4357 49.9367 12.9237C49.2167 11.9157 48.4967 10.8997 47.7767 9.87567C47.0567 8.83567 46.3447 7.81167 45.6407 6.80367H49.5047L52.0007 10.6437ZM69.4234 11.0997C69.4234 11.9157 69.5194 12.6517 69.7114 13.3077C69.9194 13.9637 70.2074 14.5317 70.5754 15.0117C70.9594 15.4757 71.4234 15.8357 71.9674 16.0917C72.5114 16.3477 73.1354 16.4757 73.8394 16.4757C74.5274 16.4757 75.1434 16.3477 75.6874 16.0917C76.2474 15.8357 76.7114 15.4757 77.0794 15.0117C77.4634 14.5317 77.7514 13.9637 77.9434 13.3077C78.1514 12.6517 78.2554 11.9157 78.2554 11.0997C78.2554 10.2837 78.1514 9.54767 77.9434 8.89167C77.7514 8.21967 77.4634 7.65167 77.0794 7.18767C76.7114 6.70767 76.2474 6.33967 75.6874 6.08367C75.1434 5.82767 74.5274 5.69967 73.8394 5.69967C73.1354 5.69967 72.5114 5.83567 71.9674 6.10767C71.4234 6.36367 70.9594 6.73167 70.5754 7.21167C70.2074 7.67567 69.9194 8.24367 69.7114 8.91567C69.5194 9.57167 69.4234 10.2997 69.4234 11.0997ZM82.1194 11.0997C82.1194 12.5237 81.9034 13.7797 81.4714 14.8677C81.0554 15.9397 80.4794 16.8437 79.7434 17.5797C79.0074 18.2997 78.1274 18.8437 77.1034 19.2117C76.0954 19.5797 75.0074 19.7637 73.8394 19.7637C72.7034 19.7637 71.6314 19.5797 70.6234 19.2117C69.6154 18.8437 68.7354 18.2997 67.9834 17.5797C67.2314 16.8437 66.6394 15.9397 66.2074 14.8677C65.7754 13.7797 65.5594 12.5237 65.5594 11.0997C65.5594 9.67567 65.7834 8.42767 66.2314 7.35567C66.6794 6.26767 67.2794 5.35567 68.0314 4.61967C68.7994 3.88367 69.6794 3.33167 70.6714 2.96367C71.6794 2.59567 72.7354 2.41167 73.8394 2.41167C74.9754 2.41167 76.0474 2.59567 77.0554 2.96367C78.0634 3.33167 78.9434 3.88367 79.6954 4.61967C80.4474 5.35567 81.0394 6.26767 81.4714 7.35567C81.9034 8.42767 82.1194 9.67567 82.1194 11.0997ZM85.0003 7.23567C85.6083 7.05967 86.3923 6.89967 87.3523 6.75567C88.3123 6.59567 89.3203 6.51567 90.3763 6.51567C91.4483 6.51567 92.3363 6.65967 93.0403 6.94767C93.7603 7.21967 94.3283 7.61167 94.7443 8.12367C95.1603 8.63567 95.4563 9.24367 95.6323 9.94767C95.8083 10.6517 95.8963 11.4357 95.8963 12.2997V19.4277H92.3203V12.7317C92.3203 11.5797 92.1683 10.7637 91.8643 10.2837C91.5603 9.80367 90.9923 9.56367 90.1603 9.56367C89.9043 9.56367 89.6323 9.57967 89.3443 9.61167C89.0563 9.62767 88.8003 9.65167 88.5763 9.68367V19.4277H85.0003V7.23567ZM98.5331 13.2117C98.5331 12.0917 98.7011 11.1157 99.0371 10.2837C99.3891 9.43567 99.8451 8.73167 100.405 8.17167C100.965 7.61167 101.605 7.18767 102.325 6.89967C103.061 6.61167 103.813 6.46767 104.581 6.46767C106.373 6.46767 107.789 7.01967 108.829 8.12367C109.869 9.21167 110.389 10.8197 110.389 12.9477C110.389 13.1557 110.381 13.3877 110.365 13.6437C110.349 13.8837 110.333 14.0997 110.317 14.2917H102.205C102.285 15.0277 102.629 15.6117 103.237 16.0437C103.845 16.4757 104.661 16.6917 105.685 16.6917C106.341 16.6917 106.981 16.6357 107.605 16.5237C108.245 16.3957 108.765 16.2437 109.165 16.0677L109.645 18.9717C109.453 19.0677 109.197 19.1637 108.877 19.2597C108.557 19.3557 108.197 19.4357 107.797 19.4997C107.413 19.5797 106.997 19.6437 106.549 19.6917C106.101 19.7397 105.653 19.7637 105.205 19.7637C104.069 19.7637 103.077 19.5957 102.229 19.2597C101.397 18.9237 100.701 18.4677 100.141 17.8917C99.5971 17.2997 99.1891 16.6037 98.9171 15.8037C98.6611 15.0037 98.5331 14.1397 98.5331 13.2117ZM106.933 11.8437C106.917 11.5397 106.861 11.2437 106.765 10.9557C106.685 10.6677 106.549 10.4117 106.357 10.1877C106.181 9.96367 105.949 9.77967 105.661 9.63567C105.389 9.49167 105.045 9.41967 104.629 9.41967C104.229 9.41967 103.885 9.49167 103.597 9.63567C103.309 9.76367 103.069 9.93967 102.877 10.1637C102.685 10.3877 102.533 10.6517 102.421 10.9557C102.325 11.2437 102.253 11.5397 102.205 11.8437H106.933ZM128.706 19.4277C128.242 18.4997 127.73 17.5637 127.17 16.6197C126.626 15.6597 125.994 14.6837 125.274 13.6917C125.05 13.9797 124.762 14.3797 124.41 14.8917C124.074 15.4037 123.73 15.9477 123.378 16.5237C123.042 17.0997 122.722 17.6517 122.418 18.1797C122.114 18.7077 121.89 19.1237 121.746 19.4277H117.474C118.178 18.1317 118.994 16.7717 119.922 15.3477C120.866 13.9237 121.914 12.4117 123.066 10.8117L117.714 2.79567H122.25L125.49 7.97967L128.658 2.79567H132.93L127.65 10.8597C128.994 12.6037 130.122 14.2197 131.034 15.7077C131.946 17.1797 132.666 18.4197 133.194 19.4277H128.706ZM139.094 16.3797C139.27 16.3957 139.47 16.4117 139.694 16.4277C139.934 16.4277 140.214 16.4277 140.534 16.4277C142.406 16.4277 143.79 15.9557 144.686 15.0117C145.598 14.0677 146.054 12.7637 146.054 11.0997C146.054 9.35567 145.622 8.03567 144.758 7.13967C143.894 6.24367 142.526 5.79567 140.654 5.79567C140.398 5.79567 140.134 5.80367 139.862 5.81967C139.59 5.81967 139.334 5.83567 139.094 5.86767V16.3797ZM149.918 11.0997C149.918 12.5397 149.694 13.7957 149.246 14.8677C148.798 15.9397 148.158 16.8277 147.326 17.5317C146.51 18.2357 145.51 18.7637 144.326 19.1157C143.142 19.4677 141.814 19.6437 140.342 19.6437C139.67 19.6437 138.886 19.6117 137.99 19.5477C137.094 19.4997 136.214 19.3877 135.35 19.2117V3.01167C136.214 2.85167 137.11 2.74767 138.038 2.69967C138.982 2.63567 139.79 2.60367 140.462 2.60367C141.886 2.60367 143.174 2.76367 144.326 3.08367C145.494 3.40367 146.494 3.90767 147.326 4.59567C148.158 5.28367 148.798 6.16367 149.246 7.23567C149.694 8.30767 149.918 9.59567 149.918 11.0997ZM162.861 19.4277C162.525 18.8837 162.125 18.2997 161.661 17.6757C161.213 17.0357 160.717 16.4037 160.173 15.7797C159.645 15.1397 159.093 14.5317 158.517 13.9557C157.941 13.3637 157.365 12.8437 156.789 12.3957V19.4277H153.045V2.79567H156.789V9.08367C157.765 8.05967 158.741 6.99567 159.717 5.89167C160.709 4.77167 161.629 3.73967 162.477 2.79567H166.917C165.781 4.13967 164.637 5.43567 163.485 6.68367C162.349 7.93167 161.149 9.18767 159.885 10.4517C161.213 11.5557 162.493 12.8677 163.725 14.3877C164.973 15.9077 166.165 17.5877 167.301 19.4277H162.861Z" fill="#505D68"/>
</svg>
