<svg width="91" height="20" viewBox="0 0 91 20" fill="none" xmlns="http://www.w3.org/2000/svg">
<path d="M13.1537 18.9935C12.9777 18.4175 12.7777 17.8255 12.5537 17.2175C12.3457 16.6095 12.1377 16.0015 11.9297 15.3935H5.44966C5.24166 16.0015 5.02566 16.6095 4.80166 17.2175C4.59366 17.8255 4.40166 18.4175 4.22566 18.9935H0.337656C0.961656 17.2015 1.55366 15.5455 2.11366 14.0255C2.67366 12.5055 3.21766 11.0735 3.74566 9.72947C4.28966 8.38547 4.81766 7.11347 5.32966 5.91347C5.85766 4.69747 6.40166 3.51347 6.96166 2.36147H10.5377C11.0817 3.51347 11.6177 4.69747 12.1457 5.91347C12.6737 7.11347 13.2017 8.38547 13.7297 9.72947C14.2737 11.0735 14.8257 12.5055 15.3857 14.0255C15.9457 15.5455 16.5377 17.2015 17.1617 18.9935H13.1537ZM8.66566 6.12947C8.58566 6.36947 8.46566 6.69747 8.30566 7.11347C8.14566 7.52947 7.96166 8.00947 7.75366 8.55347C7.54566 9.09747 7.31366 9.69747 7.05766 10.3535C6.81766 11.0095 6.56966 11.6975 6.31366 12.4175H11.0417C10.7857 11.6975 10.5377 11.0095 10.2977 10.3535C10.0577 9.69747 9.82566 9.09747 9.60166 8.55347C9.39366 8.00947 9.20966 7.52947 9.04966 7.11347C8.88966 6.69747 8.76166 6.36947 8.66566 6.12947ZM19.0745 6.80147C19.6825 6.62547 20.4665 6.46547 21.4265 6.32147C22.3865 6.16147 23.3945 6.08147 24.4505 6.08147C25.5225 6.08147 26.4105 6.22547 27.1145 6.51347C27.8345 6.78547 28.4025 7.17747 28.8185 7.68947C29.2345 8.20147 29.5305 8.80947 29.7065 9.51347C29.8825 10.2175 29.9705 11.0015 29.9705 11.8655V18.9935H26.3945V12.2975C26.3945 11.1455 26.2425 10.3295 25.9385 9.84947C25.6345 9.36947 25.0665 9.12947 24.2345 9.12947C23.9785 9.12947 23.7065 9.14547 23.4185 9.17747C23.1305 9.19347 22.8745 9.21747 22.6505 9.24947V18.9935H19.0745V6.80147ZM36.2553 12.5855C36.2553 13.6895 36.5033 14.5775 36.9993 15.2495C37.4953 15.9215 38.2313 16.2575 39.2073 16.2575C39.5273 16.2575 39.8233 16.2495 40.0953 16.2335C40.3673 16.2015 40.5913 16.1695 40.7673 16.1375V9.63347C40.5433 9.48947 40.2473 9.36947 39.8793 9.27347C39.5273 9.17747 39.1673 9.12947 38.7993 9.12947C37.1033 9.12947 36.2553 10.2815 36.2553 12.5855ZM44.3433 18.5855C44.0233 18.6815 43.6553 18.7775 43.2393 18.8735C42.8233 18.9535 42.3833 19.0255 41.9193 19.0895C41.4713 19.1535 41.0073 19.2015 40.5273 19.2335C40.0633 19.2815 39.6153 19.3055 39.1833 19.3055C38.1433 19.3055 37.2153 19.1535 36.3993 18.8495C35.5833 18.5455 34.8953 18.1135 34.3353 17.5535C33.7753 16.9775 33.3433 16.2895 33.0393 15.4895C32.7513 14.6735 32.6073 13.7615 32.6073 12.7535C32.6073 11.7295 32.7353 10.8095 32.9913 9.99347C33.2473 9.16147 33.6153 8.45747 34.0953 7.88147C34.5753 7.30547 35.1593 6.86547 35.8473 6.56147C36.5513 6.25747 37.3513 6.10547 38.2473 6.10547C38.7433 6.10547 39.1833 6.15347 39.5673 6.24947C39.9673 6.34547 40.3673 6.48147 40.7673 6.65747V0.945468L44.3433 0.369469V18.5855ZM55.2997 9.53747C54.9797 9.45747 54.6037 9.37747 54.1717 9.29747C53.7397 9.20147 53.2757 9.15347 52.7797 9.15347C52.5557 9.15347 52.2837 9.17747 51.9637 9.22547C51.6597 9.25747 51.4277 9.29747 51.2677 9.34547V18.9935H47.6917V7.04147C48.3317 6.81747 49.0837 6.60947 49.9477 6.41747C50.8277 6.20947 51.8037 6.10547 52.8757 6.10547C53.0677 6.10547 53.2997 6.12147 53.5717 6.15347C53.8437 6.16947 54.1157 6.20147 54.3877 6.24947C54.6597 6.28147 54.9317 6.32947 55.2037 6.39347C55.4757 6.44147 55.7077 6.50547 55.8997 6.58547L55.2997 9.53747ZM69.3903 12.6575C69.3903 13.6495 69.2463 14.5615 68.9583 15.3935C68.6703 16.2095 68.2543 16.9135 67.7103 17.5055C67.1663 18.0815 66.5103 18.5295 65.7423 18.8495C64.9903 19.1695 64.1423 19.3295 63.1983 19.3295C62.2703 19.3295 61.4223 19.1695 60.6543 18.8495C59.9023 18.5295 59.2543 18.0815 58.7103 17.5055C58.1663 16.9135 57.7423 16.2095 57.4383 15.3935C57.1343 14.5615 56.9823 13.6495 56.9823 12.6575C56.9823 11.6655 57.1343 10.7615 57.4383 9.94547C57.7583 9.12947 58.1903 8.43347 58.7343 7.85747C59.2943 7.28147 59.9503 6.83347 60.7023 6.51347C61.4703 6.19347 62.3023 6.03347 63.1983 6.03347C64.1103 6.03347 64.9423 6.19347 65.6943 6.51347C66.4623 6.83347 67.1183 7.28147 67.6623 7.85747C68.2063 8.43347 68.6303 9.12947 68.9343 9.94547C69.2383 10.7615 69.3903 11.6655 69.3903 12.6575ZM65.7423 12.6575C65.7423 11.5535 65.5183 10.6895 65.0703 10.0655C64.6383 9.42547 64.0143 9.10547 63.1983 9.10547C62.3823 9.10547 61.7503 9.42547 61.3023 10.0655C60.8543 10.6895 60.6303 11.5535 60.6303 12.6575C60.6303 13.7615 60.8543 14.6415 61.3023 15.2975C61.7503 15.9375 62.3823 16.2575 63.1983 16.2575C64.0143 16.2575 64.6383 15.9375 65.0703 15.2975C65.5183 14.6415 65.7423 13.7615 65.7423 12.6575ZM75.7365 18.9935H72.1605V6.36947H75.7365V18.9935ZM76.0725 2.72147C76.0725 3.37747 75.8565 3.89747 75.4245 4.28147C75.0085 4.64947 74.5125 4.83347 73.9365 4.83347C73.3605 4.83347 72.8565 4.64947 72.4245 4.28147C72.0085 3.89747 71.8005 3.37747 71.8005 2.72147C71.8005 2.06547 72.0085 1.55347 72.4245 1.18547C72.8565 0.801468 73.3605 0.609468 73.9365 0.609468C74.5125 0.609468 75.0085 0.801468 75.4245 1.18547C75.8565 1.55347 76.0725 2.06547 76.0725 2.72147ZM82.146 12.5855C82.146 13.6895 82.394 14.5775 82.89 15.2495C83.386 15.9215 84.122 16.2575 85.098 16.2575C85.418 16.2575 85.714 16.2495 85.986 16.2335C86.258 16.2015 86.482 16.1695 86.658 16.1375V9.63347C86.434 9.48947 86.138 9.36947 85.77 9.27347C85.418 9.17747 85.058 9.12947 84.69 9.12947C82.994 9.12947 82.146 10.2815 82.146 12.5855ZM90.234 18.5855C89.914 18.6815 89.546 18.7775 89.13 18.8735C88.714 18.9535 88.274 19.0255 87.81 19.0895C87.362 19.1535 86.898 19.2015 86.418 19.2335C85.954 19.2815 85.506 19.3055 85.074 19.3055C84.034 19.3055 83.106 19.1535 82.29 18.8495C81.474 18.5455 80.786 18.1135 80.226 17.5535C79.666 16.9775 79.234 16.2895 78.93 15.4895C78.642 14.6735 78.498 13.7615 78.498 12.7535C78.498 11.7295 78.626 10.8095 78.882 9.99347C79.138 9.16147 79.506 8.45747 79.986 7.88147C80.466 7.30547 81.05 6.86547 81.738 6.56147C82.442 6.25747 83.242 6.10547 84.138 6.10547C84.634 6.10547 85.074 6.15347 85.458 6.24947C85.858 6.34547 86.258 6.48147 86.658 6.65747V0.945468L90.234 0.369469V18.5855Z" fill="#505D68"/>
</svg>
