<svg width="193" height="20" viewBox="0 0 193 20" fill="none" xmlns="http://www.w3.org/2000/svg">
<path d="M11.7078 15.6636V18.8796H0.595781V2.24764H4.33978V15.6636H11.7078ZM17.4552 18.8796H13.8792V6.25564H17.4552V18.8796ZM17.7912 2.60764C17.7912 3.26364 17.5752 3.78364 17.1432 4.16764C16.7272 4.53564 16.2312 4.71964 15.6552 4.71964C15.0792 4.71964 14.5752 4.53564 14.1432 4.16764C13.7272 3.78364 13.5192 3.26364 13.5192 2.60764C13.5192 1.95164 13.7272 1.43964 14.1432 1.07164C14.5752 0.687638 15.0792 0.495638 15.6552 0.495638C16.2312 0.495638 16.7272 0.687638 17.1432 1.07164C17.5752 1.43964 17.7912 1.95164 17.7912 2.60764ZM20.8167 6.68764C21.4247 6.51164 22.2087 6.35164 23.1687 6.20764C24.1287 6.04764 25.1367 5.96764 26.1927 5.96764C27.2647 5.96764 28.1527 6.11164 28.8567 6.39964C29.5767 6.67164 30.1447 7.06364 30.5607 7.57564C30.9767 8.08764 31.2727 8.69564 31.4487 9.39964C31.6247 10.1036 31.7127 10.8876 31.7127 11.7516V18.8796H28.1367V12.1836C28.1367 11.0316 27.9847 10.2156 27.6807 9.73564C27.3767 9.25564 26.8087 9.01564 25.9767 9.01564C25.7207 9.01564 25.4487 9.03164 25.1607 9.06364C24.8727 9.07964 24.6167 9.10364 24.3927 9.13564V18.8796H20.8167V6.68764ZM45.7255 18.4476C45.1175 18.6236 44.3335 18.7836 43.3735 18.9276C42.4135 19.0876 41.4055 19.1676 40.3495 19.1676C39.2775 19.1676 38.3815 19.0236 37.6615 18.7356C36.9575 18.4476 36.3975 18.0476 35.9815 17.5356C35.5655 17.0076 35.2695 16.3836 35.0935 15.6636C34.9175 14.9436 34.8295 14.1516 34.8295 13.2876V6.25564H38.4055V12.8556C38.4055 14.0076 38.5575 14.8396 38.8615 15.3516C39.1655 15.8636 39.7335 16.1196 40.5655 16.1196C40.8215 16.1196 41.0935 16.1116 41.3815 16.0956C41.6695 16.0636 41.9255 16.0316 42.1495 15.9996V6.25564H45.7255V18.4476ZM54.0983 10.0956L56.5943 6.25564H60.2903L55.9703 12.3276C56.9303 13.5276 57.8023 14.6956 58.5863 15.8316C59.3703 16.9676 59.9943 17.9836 60.4583 18.8796H56.6183C56.4903 18.6396 56.3303 18.3436 56.1383 17.9916C55.9463 17.6236 55.7303 17.2476 55.4903 16.8636C55.2503 16.4636 54.9943 16.0716 54.7223 15.6876C54.4663 15.2876 54.2103 14.9276 53.9543 14.6076C53.7143 14.9116 53.4663 15.2476 53.2103 15.6156C52.9703 15.9836 52.7383 16.3596 52.5143 16.7436C52.2903 17.1116 52.0663 17.4796 51.8423 17.8476C51.6343 18.2156 51.4503 18.5596 51.2903 18.8796H47.6423C47.8343 18.4796 48.0983 18.0076 48.4343 17.4636C48.7703 16.9196 49.1303 16.3596 49.5143 15.7836C49.9143 15.1916 50.3303 14.6076 50.7623 14.0316C51.1943 13.4396 51.6183 12.8876 52.0343 12.3756C51.3143 11.3676 50.5943 10.3516 49.8743 9.32764C49.1543 8.28764 48.4423 7.26364 47.7383 6.25564H51.6023L54.0983 10.0956ZM72.121 15.8316C72.297 15.8476 72.497 15.8636 72.721 15.8796C72.961 15.8796 73.241 15.8796 73.561 15.8796C75.433 15.8796 76.817 15.4076 77.713 14.4636C78.625 13.5196 79.081 12.2156 79.081 10.5516C79.081 8.80764 78.649 7.48764 77.785 6.59164C76.921 5.69564 75.553 5.24764 73.681 5.24764C73.425 5.24764 73.161 5.25564 72.889 5.27164C72.617 5.27164 72.361 5.28764 72.121 5.31964V15.8316ZM82.945 10.5516C82.945 11.9916 82.721 13.2476 82.273 14.3196C81.825 15.3916 81.185 16.2796 80.353 16.9836C79.537 17.6876 78.537 18.2156 77.353 18.5676C76.169 18.9196 74.841 19.0956 73.369 19.0956C72.697 19.0956 71.913 19.0636 71.017 18.9996C70.121 18.9516 69.241 18.8396 68.377 18.6636V2.46364C69.241 2.30364 70.137 2.19964 71.065 2.15164C72.009 2.08764 72.817 2.05564 73.489 2.05564C74.913 2.05564 76.201 2.21564 77.353 2.53564C78.521 2.85564 79.521 3.35964 80.353 4.04764C81.185 4.73564 81.825 5.61564 82.273 6.68764C82.721 7.75964 82.945 9.04764 82.945 10.5516ZM85.2323 12.6636C85.2323 11.5436 85.4003 10.5676 85.7363 9.73564C86.0883 8.88764 86.5443 8.18364 87.1043 7.62364C87.6643 7.06364 88.3043 6.63964 89.0243 6.35164C89.7603 6.06364 90.5123 5.91964 91.2803 5.91964C93.0723 5.91964 94.4883 6.47164 95.5283 7.57564C96.5683 8.66364 97.0883 10.2716 97.0883 12.3996C97.0883 12.6076 97.0803 12.8396 97.0643 13.0956C97.0483 13.3356 97.0323 13.5516 97.0163 13.7436H88.9043C88.9843 14.4796 89.3283 15.0636 89.9363 15.4956C90.5443 15.9276 91.3603 16.1436 92.3843 16.1436C93.0403 16.1436 93.6803 16.0876 94.3043 15.9756C94.9443 15.8476 95.4643 15.6956 95.8643 15.5196L96.3443 18.4236C96.1523 18.5196 95.8963 18.6156 95.5763 18.7116C95.2563 18.8076 94.8963 18.8876 94.4963 18.9516C94.1123 19.0316 93.6963 19.0956 93.2483 19.1436C92.8003 19.1916 92.3523 19.2156 91.9043 19.2156C90.7683 19.2156 89.7763 19.0476 88.9283 18.7116C88.0963 18.3756 87.4003 17.9196 86.8403 17.3436C86.2963 16.7516 85.8883 16.0556 85.6163 15.2556C85.3603 14.4556 85.2323 13.5916 85.2323 12.6636ZM93.6323 11.2956C93.6163 10.9916 93.5603 10.6956 93.4643 10.4076C93.3843 10.1196 93.2483 9.86364 93.0563 9.63964C92.8803 9.41564 92.6483 9.23164 92.3603 9.08764C92.0883 8.94364 91.7443 8.87164 91.3283 8.87164C90.9283 8.87164 90.5843 8.94364 90.2963 9.08764C90.0083 9.21564 89.7683 9.39164 89.5763 9.61564C89.3843 9.83964 89.2323 10.1036 89.1203 10.4076C89.0243 10.6956 88.9523 10.9916 88.9043 11.2956H93.6323ZM107.936 12.4716C107.936 10.1676 107.088 9.01564 105.392 9.01564C105.024 9.01564 104.656 9.06364 104.288 9.15964C103.936 9.25564 103.648 9.37564 103.424 9.51964V16.0236C103.6 16.0556 103.824 16.0876 104.096 16.1196C104.368 16.1356 104.664 16.1436 104.984 16.1436C105.96 16.1436 106.696 15.8076 107.192 15.1356C107.688 14.4636 107.936 13.5756 107.936 12.4716ZM111.584 12.5676C111.584 13.5756 111.432 14.4876 111.128 15.3036C110.84 16.1196 110.416 16.8156 109.856 17.3916C109.296 17.9676 108.608 18.4156 107.792 18.7356C106.976 19.0396 106.048 19.1916 105.008 19.1916C104.576 19.1916 104.12 19.1676 103.64 19.1196C103.176 19.0876 102.712 19.0396 102.248 18.9756C101.8 18.9116 101.368 18.8396 100.952 18.7596C100.536 18.6636 100.168 18.5676 99.848 18.4716V0.831638L103.424 0.255638V6.54364C103.824 6.36764 104.24 6.23164 104.672 6.13564C105.104 6.03964 105.568 5.99164 106.064 5.99164C106.96 5.99164 107.752 6.15164 108.44 6.47164C109.128 6.77564 109.704 7.21564 110.168 7.79164C110.632 8.36764 110.984 9.06364 111.224 9.87964C111.464 10.6796 111.584 11.5756 111.584 12.5676ZM117.908 18.8796H114.332V6.25564H117.908V18.8796ZM118.244 2.60764C118.244 3.26364 118.028 3.78364 117.596 4.16764C117.18 4.53564 116.684 4.71964 116.108 4.71964C115.532 4.71964 115.028 4.53564 114.596 4.16764C114.18 3.78364 113.972 3.26364 113.972 2.60764C113.972 1.95164 114.18 1.43964 114.596 1.07164C115.028 0.687638 115.532 0.495638 116.108 0.495638C116.684 0.495638 117.18 0.687638 117.596 1.07164C118.028 1.43964 118.244 1.95164 118.244 2.60764ZM126.094 16.3836C126.446 16.3836 126.782 16.3756 127.102 16.3596C127.422 16.3436 127.678 16.3196 127.87 16.2876V13.5756C127.726 13.5436 127.51 13.5116 127.222 13.4796C126.934 13.4476 126.67 13.4316 126.43 13.4316C126.094 13.4316 125.774 13.4556 125.47 13.5036C125.182 13.5356 124.926 13.6076 124.702 13.7196C124.478 13.8316 124.302 13.9836 124.174 14.1756C124.046 14.3676 123.982 14.6076 123.982 14.8956C123.982 15.4556 124.166 15.8476 124.534 16.0716C124.918 16.2796 125.438 16.3836 126.094 16.3836ZM125.806 5.91964C126.862 5.91964 127.742 6.03964 128.446 6.27964C129.15 6.51964 129.71 6.86364 130.126 7.31164C130.558 7.75964 130.862 8.30364 131.038 8.94364C131.214 9.58364 131.302 10.2956 131.302 11.0796V18.5196C130.79 18.6316 130.078 18.7596 129.166 18.9036C128.254 19.0636 127.15 19.1436 125.854 19.1436C125.038 19.1436 124.294 19.0716 123.622 18.9276C122.966 18.7836 122.398 18.5516 121.918 18.2316C121.438 17.8956 121.07 17.4636 120.814 16.9356C120.558 16.4076 120.43 15.7596 120.43 14.9916C120.43 14.2556 120.574 13.6316 120.862 13.1196C121.166 12.6076 121.566 12.1996 122.062 11.8956C122.558 11.5916 123.126 11.3756 123.766 11.2476C124.406 11.1036 125.07 11.0316 125.758 11.0316C126.222 11.0316 126.63 11.0556 126.982 11.1036C127.35 11.1356 127.646 11.1836 127.87 11.2476V10.9116C127.87 10.3036 127.686 9.81564 127.318 9.44764C126.95 9.07964 126.31 8.89564 125.398 8.89564C124.79 8.89564 124.19 8.94364 123.598 9.03964C123.006 9.11964 122.494 9.23964 122.062 9.39964L121.606 6.51964C121.814 6.45564 122.07 6.39164 122.374 6.32764C122.694 6.24764 123.038 6.18364 123.406 6.13564C123.774 6.07164 124.158 6.02364 124.558 5.99164C124.974 5.94364 125.39 5.91964 125.806 5.91964ZM134.535 6.68764C135.143 6.51164 135.927 6.35164 136.887 6.20764C137.847 6.04764 138.855 5.96764 139.911 5.96764C140.983 5.96764 141.871 6.11164 142.575 6.39964C143.295 6.67164 143.863 7.06364 144.279 7.57564C144.695 8.08764 144.991 8.69564 145.167 9.39964C145.343 10.1036 145.431 10.8876 145.431 11.7516V18.8796H141.855V12.1836C141.855 11.0316 141.703 10.2156 141.399 9.73564C141.095 9.25564 140.527 9.01564 139.695 9.01564C139.439 9.01564 139.167 9.03164 138.879 9.06364C138.591 9.07964 138.335 9.10364 138.111 9.13564V18.8796H134.535V6.68764ZM159.45 10.0956L161.946 6.25564H165.642L161.322 12.3276C162.282 13.5276 163.154 14.6956 163.938 15.8316C164.722 16.9676 165.346 17.9836 165.81 18.8796H161.97C161.842 18.6396 161.682 18.3436 161.49 17.9916C161.298 17.6236 161.082 17.2476 160.842 16.8636C160.602 16.4636 160.346 16.0716 160.074 15.6876C159.818 15.2876 159.562 14.9276 159.306 14.6076C159.066 14.9116 158.818 15.2476 158.562 15.6156C158.322 15.9836 158.09 16.3596 157.866 16.7436C157.642 17.1116 157.418 17.4796 157.194 17.8476C156.986 18.2156 156.802 18.5596 156.642 18.8796H152.994C153.186 18.4796 153.45 18.0076 153.786 17.4636C154.122 16.9196 154.482 16.3596 154.866 15.7836C155.266 15.1916 155.682 14.6076 156.114 14.0316C156.546 13.4396 156.97 12.8876 157.386 12.3756C156.666 11.3676 155.946 10.3516 155.226 9.32764C154.506 8.28764 153.794 7.26364 153.09 6.25564H156.954L159.45 10.0956ZM172.619 11.0556C172.267 11.0556 171.891 11.0876 171.491 11.1516C171.091 11.2156 170.779 11.3036 170.555 11.4156C170.555 11.4796 170.547 11.5756 170.531 11.7036C170.531 11.8316 170.531 11.9436 170.531 12.0396C170.531 12.6156 170.571 13.1596 170.651 13.6716C170.731 14.1836 170.867 14.6316 171.059 15.0156C171.251 15.3996 171.507 15.7036 171.827 15.9276C172.147 16.1356 172.547 16.2396 173.027 16.2396C173.427 16.2396 173.763 16.1596 174.035 15.9996C174.323 15.8236 174.555 15.6076 174.731 15.3516C174.923 15.0956 175.059 14.8156 175.139 14.5116C175.235 14.1916 175.283 13.8876 175.283 13.5996C175.283 12.7836 175.075 12.1596 174.659 11.7276C174.259 11.2796 173.579 11.0556 172.619 11.0556ZM173.075 8.27164C174.115 8.27164 174.995 8.41564 175.715 8.70364C176.451 8.97564 177.051 9.35164 177.515 9.83164C177.979 10.3116 178.315 10.8716 178.523 11.5116C178.731 12.1516 178.835 12.8316 178.835 13.5516C178.835 14.1916 178.715 14.8476 178.475 15.5196C178.251 16.1916 177.899 16.7996 177.419 17.3436C176.955 17.8876 176.355 18.3356 175.619 18.6876C174.899 19.0396 174.043 19.2156 173.051 19.2156C171.051 19.2156 169.531 18.5836 168.491 17.3196C167.451 16.0556 166.931 14.3116 166.931 12.0876C166.931 10.4876 167.179 9.07164 167.675 7.83964C168.171 6.60764 168.875 5.57564 169.787 4.74364C170.715 3.89564 171.827 3.25564 173.123 2.82364C174.435 2.37564 175.907 2.14364 177.539 2.12764C177.571 2.62364 177.603 3.11164 177.635 3.59164C177.667 4.05564 177.699 4.54364 177.731 5.05564C176.915 5.07164 176.147 5.15164 175.427 5.29564C174.723 5.42364 174.075 5.63164 173.483 5.91964C172.907 6.20764 172.403 6.58364 171.971 7.04764C171.539 7.49564 171.203 8.04764 170.963 8.70364C171.315 8.54364 171.675 8.43164 172.043 8.36764C172.411 8.30364 172.755 8.27164 173.075 8.27164ZM187.34 6.61564C186.716 7.43164 186.052 8.31964 185.348 9.27964C184.644 10.2396 184.052 11.2236 183.572 12.2316H187.34V6.61564ZM190.844 2.24764V12.2316H192.62V15.1596H190.844V18.8796H187.34V15.1596H180.164V12.5436C180.516 11.8396 180.956 11.0476 181.484 10.1676C182.012 9.27164 182.596 8.35964 183.236 7.43164C183.892 6.48764 184.58 5.56764 185.3 4.67164C186.02 3.77564 186.74 2.96764 187.46 2.24764H190.844Z" fill="#505D68"/>
</svg>
