<svg width="60" height="19" viewBox="0 0 60 19" fill="none" xmlns="http://www.w3.org/2000/svg">
<path d="M11.1388 15.2537V18.4697H0.0268365V1.83767H3.77084V15.2537H11.1388ZM16.8863 18.4697H13.3103V5.84566H16.8863V18.4697ZM17.2223 2.19766C17.2223 2.85366 17.0063 3.37366 16.5743 3.75766C16.1583 4.12566 15.6623 4.30966 15.0863 4.30966C14.5103 4.30966 14.0063 4.12566 13.5743 3.75766C13.1583 3.37366 12.9503 2.85366 12.9503 2.19766C12.9503 1.54166 13.1583 1.02966 13.5743 0.661664C14.0063 0.277665 14.5103 0.0856647 15.0863 0.0856647C15.6623 0.0856647 16.1583 0.277665 16.5743 0.661664C17.0063 1.02966 17.2223 1.54166 17.2223 2.19766ZM20.2478 6.27767C20.8558 6.10166 21.6398 5.94166 22.5998 5.79767C23.5598 5.63766 24.5678 5.55766 25.6238 5.55766C26.6958 5.55766 27.5838 5.70166 28.2878 5.98966C29.0078 6.26166 29.5758 6.65367 29.9918 7.16567C30.4078 7.67767 30.7038 8.28567 30.8798 8.98967C31.0558 9.69367 31.1438 10.4777 31.1438 11.3417V18.4697H27.5678V11.7737C27.5678 10.6217 27.4158 9.80567 27.1118 9.32567C26.8078 8.84567 26.2398 8.60567 25.4078 8.60567C25.1518 8.60567 24.8798 8.62167 24.5918 8.65367C24.3038 8.66967 24.0478 8.69367 23.8238 8.72567V18.4697H20.2478V6.27767ZM45.1566 18.0377C44.5486 18.2137 43.7646 18.3737 42.8046 18.5177C41.8446 18.6777 40.8366 18.7577 39.7806 18.7577C38.7086 18.7577 37.8126 18.6137 37.0926 18.3257C36.3886 18.0377 35.8286 17.6377 35.4126 17.1257C34.9966 16.5977 34.7006 15.9737 34.5246 15.2537C34.3486 14.5337 34.2606 13.7417 34.2606 12.8777V5.84566H37.8366V12.4457C37.8366 13.5977 37.9886 14.4297 38.2926 14.9417C38.5966 15.4537 39.1646 15.7097 39.9966 15.7097C40.2526 15.7097 40.5246 15.7017 40.8126 15.6857C41.1006 15.6537 41.3566 15.6217 41.5806 15.5897V5.84566H45.1566V18.0377ZM53.5294 9.68566L56.0254 5.84566H59.7214L55.4014 11.9177C56.3614 13.1177 57.2334 14.2857 58.0174 15.4217C58.8014 16.5577 59.4254 17.5737 59.8894 18.4697H56.0494C55.9214 18.2297 55.7614 17.9337 55.5694 17.5817C55.3774 17.2137 55.1614 16.8377 54.9214 16.4537C54.6814 16.0537 54.4254 15.6617 54.1534 15.2777C53.8974 14.8777 53.6414 14.5177 53.3854 14.1977C53.1454 14.5017 52.8974 14.8377 52.6414 15.2057C52.4014 15.5737 52.1694 15.9497 51.9454 16.3337C51.7214 16.7017 51.4974 17.0697 51.2734 17.4377C51.0654 17.8057 50.8814 18.1497 50.7214 18.4697H47.0734C47.2654 18.0697 47.5294 17.5977 47.8654 17.0537C48.2014 16.5097 48.5614 15.9497 48.9454 15.3737C49.3454 14.7817 49.7614 14.1977 50.1934 13.6217C50.6254 13.0297 51.0494 12.4777 51.4654 11.9657C50.7454 10.9577 50.0254 9.94166 49.3054 8.91766C48.5854 7.87766 47.8734 6.85366 47.1694 5.84566H51.0334L53.5294 9.68566Z" fill="#505D68"/>
</svg>
