<svg width="103" height="20" viewBox="0 0 103 20" fill="none" xmlns="http://www.w3.org/2000/svg">
<path d="M13.5409 4.68544C13.7329 5.34144 13.9409 6.08544 14.1649 6.91744C14.4049 7.73344 14.6529 8.58144 14.9089 9.46144C15.1809 10.3414 15.4529 11.2214 15.7249 12.1014C15.9969 12.9814 16.2609 13.7974 16.5169 14.5494C16.7249 13.7334 16.9329 12.8454 17.1409 11.8854C17.3649 10.9254 17.5729 9.93344 17.7649 8.90944C17.9569 7.88544 18.1409 6.86944 18.3169 5.86144C18.5089 4.83744 18.6849 3.85344 18.8449 2.90944H22.7329C22.1729 5.69344 21.5249 8.51744 20.7889 11.3814C20.0689 14.2454 19.2849 16.9654 18.4369 19.5414H15.0049C14.4449 18.0054 13.9009 16.3974 13.3729 14.7174C12.8449 13.0214 12.3249 11.3254 11.8129 9.62944C11.3009 11.3254 10.7889 13.0214 10.2769 14.7174C9.76494 16.3974 9.22894 18.0054 8.66894 19.5414H5.23694C4.38894 16.9654 3.59694 14.2454 2.86094 11.3814C2.14094 8.51744 1.50094 5.69344 0.940938 2.90944H4.99694C5.15694 3.85344 5.33294 4.83744 5.52494 5.86144C5.71694 6.86944 5.91694 7.88544 6.12494 8.90944C6.33294 9.93344 6.54094 10.9254 6.74894 11.8854C6.97294 12.8454 7.19694 13.7334 7.42094 14.5494C7.70894 13.7654 7.98894 12.9334 8.26094 12.0534C8.53294 11.1734 8.79694 10.2934 9.05294 9.41344C9.30894 8.53344 9.54094 7.68544 9.74894 6.86944C9.97294 6.05344 10.1729 5.32544 10.3489 4.68544H13.5409ZM28.4748 19.5414H24.8988V6.91744H28.4748V19.5414ZM28.8108 3.26944C28.8108 3.92544 28.5948 4.44544 28.1628 4.82944C27.7468 5.19744 27.2508 5.38144 26.6748 5.38144C26.0988 5.38144 25.5948 5.19744 25.1628 4.82944C24.7468 4.44544 24.5388 3.92544 24.5388 3.26944C24.5388 2.61344 24.7468 2.10144 25.1628 1.73344C25.5948 1.34944 26.0988 1.15744 26.6748 1.15744C27.2508 1.15744 27.7468 1.34944 28.1628 1.73344C28.5948 2.10144 28.8108 2.61344 28.8108 3.26944ZM31.8363 7.34944C32.4443 7.17344 33.2283 7.01344 34.1883 6.86944C35.1483 6.70944 36.1563 6.62944 37.2122 6.62944C38.2843 6.62944 39.1723 6.77344 39.8763 7.06144C40.5963 7.33344 41.1643 7.72544 41.5803 8.23744C41.9963 8.74944 42.2923 9.35744 42.4683 10.0614C42.6443 10.7654 42.7323 11.5494 42.7323 12.4134V19.5414H39.1563V12.8454C39.1563 11.6934 39.0043 10.8774 38.7003 10.3974C38.3963 9.91744 37.8283 9.67744 36.9963 9.67744C36.7403 9.67744 36.4683 9.69344 36.1803 9.72544C35.8923 9.74144 35.6363 9.76544 35.4123 9.79744V19.5414H31.8363V7.34944ZM49.0171 13.1334C49.0171 14.2374 49.2651 15.1254 49.7611 15.7974C50.2571 16.4694 50.9931 16.8054 51.9691 16.8054C52.2891 16.8054 52.5851 16.7974 52.8571 16.7814C53.1291 16.7494 53.3531 16.7174 53.5291 16.6854V10.1814C53.3051 10.0374 53.0091 9.91744 52.6411 9.82144C52.2891 9.72544 51.9291 9.67744 51.5611 9.67744C49.8651 9.67744 49.0171 10.8294 49.0171 13.1334ZM57.1051 19.1334C56.7851 19.2294 56.4171 19.3254 56.0011 19.4214C55.5851 19.5014 55.1451 19.5734 54.6811 19.6374C54.2331 19.7014 53.7691 19.7494 53.2891 19.7814C52.8251 19.8294 52.3771 19.8534 51.9451 19.8534C50.9051 19.8534 49.9771 19.7014 49.1611 19.3974C48.3451 19.0934 47.6571 18.6614 47.0971 18.1014C46.5371 17.5254 46.1051 16.8374 45.8011 16.0374C45.5131 15.2214 45.3691 14.3094 45.3691 13.3014C45.3691 12.2774 45.4971 11.3574 45.7531 10.5414C46.0091 9.70944 46.3771 9.00544 46.8571 8.42944C47.3371 7.85344 47.9211 7.41344 48.6091 7.10944C49.3131 6.80544 50.1131 6.65344 51.0091 6.65344C51.5051 6.65344 51.9451 6.70144 52.3291 6.79744C52.7291 6.89344 53.1291 7.02944 53.5291 7.20544V1.49344L57.1051 0.917442V19.1334ZM72.2614 13.2054C72.2614 14.1974 72.1174 15.1094 71.8294 15.9414C71.5414 16.7574 71.1254 17.4614 70.5814 18.0534C70.0374 18.6294 69.3814 19.0774 68.6134 19.3974C67.8614 19.7174 67.0134 19.8774 66.0694 19.8774C65.1414 19.8774 64.2934 19.7174 63.5254 19.3974C62.7734 19.0774 62.1254 18.6294 61.5814 18.0534C61.0374 17.4614 60.6134 16.7574 60.3094 15.9414C60.0054 15.1094 59.8534 14.1974 59.8534 13.2054C59.8534 12.2134 60.0054 11.3094 60.3094 10.4934C60.6294 9.67744 61.0614 8.98144 61.6054 8.40544C62.1654 7.82944 62.8214 7.38144 63.5734 7.06144C64.3414 6.74144 65.1734 6.58144 66.0694 6.58144C66.9814 6.58144 67.8134 6.74144 68.5654 7.06144C69.3334 7.38144 69.9894 7.82944 70.5334 8.40544C71.0774 8.98144 71.5014 9.67744 71.8054 10.4934C72.1094 11.3094 72.2614 12.2134 72.2614 13.2054ZM68.6134 13.2054C68.6134 12.1014 68.3894 11.2374 67.9414 10.6134C67.5094 9.97344 66.8854 9.65344 66.0694 9.65344C65.2534 9.65344 64.6214 9.97344 64.1734 10.6134C63.7254 11.2374 63.5014 12.1014 63.5014 13.2054C63.5014 14.3094 63.7254 15.1894 64.1734 15.8454C64.6214 16.4854 65.2534 16.8054 66.0694 16.8054C66.8854 16.8054 67.5094 16.4854 67.9414 15.8454C68.3894 15.1894 68.6134 14.3094 68.6134 13.2054ZM82.4303 12.2934C82.1103 13.5094 81.7663 14.7174 81.3983 15.9174C81.0463 17.1174 80.6703 18.3254 80.2703 19.5414H77.4863C77.1983 18.8694 76.8863 18.0694 76.5503 17.1414C76.2143 16.2134 75.8623 15.2054 75.4943 14.1174C75.1423 13.0134 74.7743 11.8534 74.3903 10.6374C74.0223 9.40544 73.6623 8.16544 73.3103 6.91744H77.0783C77.2063 7.49344 77.3423 8.12544 77.4863 8.81344C77.6463 9.48544 77.8063 10.1814 77.9663 10.9014C78.1423 11.6214 78.3183 12.3494 78.4943 13.0854C78.6863 13.8054 78.8783 14.5014 79.0703 15.1734C79.2783 14.4694 79.4783 13.7494 79.6703 13.0134C79.8783 12.2774 80.0703 11.5574 80.2463 10.8534C80.4383 10.1334 80.6143 9.44544 80.7743 8.78944C80.9503 8.11744 81.1023 7.49344 81.2303 6.91744H83.8223C83.9503 7.49344 84.0943 8.11744 84.2543 8.78944C84.4143 9.44544 84.5823 10.1334 84.7583 10.8534C84.9343 11.5574 85.1183 12.2774 85.3103 13.0134C85.5023 13.7494 85.7023 14.4694 85.9103 15.1734C86.1023 14.5014 86.2943 13.8054 86.4863 13.0854C86.6783 12.3494 86.8543 11.6214 87.0143 10.9014C87.1903 10.1814 87.3503 9.48544 87.4943 8.81344C87.6543 8.12544 87.7983 7.49344 87.9263 6.91744H91.6463C91.2943 8.16544 90.9263 9.40544 90.5423 10.6374C90.1743 11.8534 89.8063 13.0134 89.4383 14.1174C89.0863 15.2054 88.7343 16.2134 88.3823 17.1414C88.0463 18.0694 87.7343 18.8694 87.4463 19.5414H84.6623C84.2623 18.3254 83.8703 17.1174 83.4863 15.9174C83.1023 14.7174 82.7503 13.5094 82.4303 12.2934ZM97.1946 16.9734C97.8506 16.9734 98.3146 16.9094 98.5866 16.7814C98.8586 16.6534 98.9946 16.4054 98.9946 16.0374C98.9946 15.7494 98.8186 15.5014 98.4666 15.2934C98.1146 15.0694 97.5786 14.8214 96.8586 14.5494C96.2986 14.3414 95.7866 14.1254 95.3226 13.9014C94.8746 13.6774 94.4906 13.4134 94.1706 13.1094C93.8506 12.7894 93.6026 12.4134 93.4266 11.9814C93.2506 11.5494 93.1626 11.0294 93.1626 10.4214C93.1626 9.23744 93.6026 8.30144 94.4826 7.61344C95.3626 6.92544 96.5706 6.58144 98.1066 6.58144C98.8746 6.58144 99.6106 6.65344 100.315 6.79744C101.019 6.92544 101.579 7.06944 101.995 7.22944L101.371 10.0134C100.955 9.86944 100.499 9.74144 100.003 9.62944C99.5226 9.51744 98.9786 9.46144 98.3706 9.46144C97.2506 9.46144 96.6906 9.77344 96.6906 10.3974C96.6906 10.5414 96.7146 10.6694 96.7626 10.7814C96.8106 10.8934 96.9066 11.0054 97.0506 11.1174C97.1946 11.2134 97.3866 11.3254 97.6266 11.4534C97.8826 11.5654 98.2026 11.6934 98.5866 11.8374C99.3706 12.1254 100.019 12.4134 100.531 12.7014C101.043 12.9734 101.443 13.2774 101.731 13.6134C102.035 13.9334 102.243 14.2934 102.355 14.6934C102.483 15.0934 102.547 15.5574 102.547 16.0854C102.547 17.3334 102.075 18.2774 101.131 18.9174C100.203 19.5574 98.8826 19.8774 97.1706 19.8774C96.0506 19.8774 95.1146 19.7814 94.3626 19.5894C93.6266 19.3974 93.1146 19.2374 92.8266 19.1094L93.4266 16.2054C94.0346 16.4454 94.6586 16.6374 95.2986 16.7814C95.9386 16.9094 96.5706 16.9734 97.1946 16.9734Z" fill="#505D68"/>
</svg>
