<svg width="676" height="544" viewBox="0 0 676 544" fill="none" xmlns="http://www.w3.org/2000/svg">
<path fill-rule="evenodd" clip-rule="evenodd" d="M218.53 532.89H168.3V486.79H217.74V497H181.74V504.85H215.82V514.48H181.76V522.42H218.53V532.91V532.89Z" fill="white"/>
<path fill-rule="evenodd" clip-rule="evenodd" d="M507.53 532.89H458.09V487.52H506.76V497.52H471.34V505.24H504.88V514.71H471.34V522.53H507.53V532.86V532.89Z" fill="white"/>
<path fill-rule="evenodd" clip-rule="evenodd" d="M286.64 532.89H266.32L239.56 498.41H239.3V532.89H226V486.79H246.65L273.08 521.31H273.34V486.79H286.67V532.89H286.64Z" fill="white"/>
<path fill-rule="evenodd" clip-rule="evenodd" d="M447.7 532.89H427.38L400.62 498.41H400.36V532.89H387V486.79H407.65L434.08 521.31H434.34V486.79H447.7V532.89Z" fill="white"/>
<path fill-rule="evenodd" clip-rule="evenodd" d="M325.91 533.5C321.65 533.5 317.983 533.393 314.91 533.18C312.241 533.044 309.592 532.649 307 532C305.1 531.526 303.31 530.687 301.73 529.53C300.347 528.452 299.26 527.042 298.57 525.43C297.739 523.478 297.21 521.411 297 519.3C296.719 516.469 296.589 513.625 296.61 510.78V509.43C296.59 506.565 296.727 503.7 297.02 500.85C297.217 498.73 297.736 496.653 298.56 494.69C299.261 493.085 300.35 491.679 301.73 490.6C303.312 489.45 305.107 488.627 307.01 488.18C309.596 487.536 312.238 487.144 314.9 487.01C318 486.81 321.667 486.71 325.9 486.71H327.9C331.447 486.71 334.553 486.787 337.22 486.94C339.527 487.055 341.823 487.335 344.09 487.78C345.748 488.091 347.349 488.65 348.84 489.44C350.039 490.077 351.068 490.993 351.84 492.11C352.605 493.289 353.119 494.614 353.35 496C353.649 497.747 353.79 499.518 353.77 501.29V503.06H340.77V502.5C340.795 501.595 340.628 500.696 340.28 499.86C339.873 499.076 339.194 498.468 338.37 498.15C337.088 497.654 335.74 497.351 334.37 497.25C332.65 497.083 330.383 496.997 327.57 496.99H326.43C323.877 496.99 321.697 497.033 319.89 497.12C318.373 497.173 316.863 497.363 315.38 497.69C314.352 497.91 313.381 498.343 312.53 498.96C311.802 499.538 311.254 500.312 310.95 501.19C310.573 502.322 310.351 503.499 310.29 504.69C310.19 506.08 310.14 507.75 310.14 509.69V510.51C310.14 512.42 310.19 514.05 310.29 515.41C310.353 516.578 310.575 517.732 310.95 518.84C311.254 519.713 311.803 520.48 312.53 521.05C313.381 521.667 314.352 522.1 315.38 522.32C316.863 522.646 318.373 522.837 319.89 522.89C321.697 522.983 323.877 523.027 326.43 523.02H327.57C329.65 523.02 331.44 523.02 332.94 522.91C334.44 522.8 335.71 522.71 336.74 522.55C337.587 522.431 338.415 522.199 339.2 521.86C339.761 521.609 340.252 521.225 340.63 520.74C340.975 520.277 341.204 519.739 341.3 519.17C341.411 518.469 341.464 517.76 341.46 517.05V515.77H323.77V506.87H354.3V517.11C354.322 519.062 354.178 521.012 353.87 522.94C353.623 524.468 353.094 525.936 352.31 527.27C351.555 528.488 350.528 529.515 349.31 530.27C347.814 531.163 346.182 531.808 344.48 532.18C342.177 532.7 339.836 533.035 337.48 533.18C334.76 533.38 331.6 533.48 327.98 533.48L325.91 533.5Z" fill="white"/>
<path fill-rule="evenodd" clip-rule="evenodd" d="M377.2 533H363.69V487.24H377.2V533Z" fill="white"/>
<path fill-rule="evenodd" clip-rule="evenodd" d="M64.72 462.64C58.1866 462.64 52.46 462.463 47.54 462.11C43.2518 461.859 38.9912 461.261 34.8 460.32C31.6808 459.647 28.6874 458.486 25.93 456.88C23.6693 455.519 21.7503 453.658 20.32 451.44C18.8444 449.061 17.8427 446.419 17.37 443.66C16.7534 440.181 16.4655 436.653 16.51 433.12V381.12H40.21V425.44C40.21 428.18 40.3066 430.533 40.5 432.5C40.6358 434.216 41.0302 435.902 41.67 437.5C42.21 438.825 43.0895 439.983 44.22 440.86C45.5437 441.811 47.0425 442.491 48.63 442.86C50.8406 443.419 53.1021 443.755 55.38 443.86C58.06 444.01 61.24 444.09 64.95 444.09H66.95C70.65 444.09 73.8366 444.003 76.51 443.83C78.7871 443.716 81.0495 443.398 83.27 442.88C84.8618 442.523 86.363 441.843 87.68 440.88C88.7957 439.991 89.6693 438.836 90.22 437.52C90.8679 435.924 91.2659 434.237 91.4 432.52C91.5866 430.52 91.68 428.187 91.68 425.52V381.11H115.39V433.11C115.424 436.63 115.157 440.146 114.59 443.62C114.151 446.385 113.176 449.038 111.72 451.43C110.312 453.645 108.413 455.507 106.17 456.87C103.421 458.478 100.433 459.639 97.32 460.31C93.1123 461.253 88.8348 461.852 84.53 462.1C79.5633 462.447 73.78 462.623 67.18 462.63L64.72 462.64Z" fill="white"/>
<path fill-rule="evenodd" clip-rule="evenodd" d="M237.26 461.65H201.82L155.16 401.35H154.7V461.65H131.46V381H167.46L213.55 441.36H214V381H237.24V461.61L237.26 461.65Z" fill="white"/>
<path fill-rule="evenodd" clip-rule="evenodd" d="M307.13 421.72C311.22 421.72 314.47 421.6 316.9 421.35C318.833 421.237 320.717 420.701 322.42 419.78C323.637 419.045 324.52 417.865 324.88 416.49C325.31 414.659 325.505 412.78 325.46 410.9V409.51C325.503 407.653 325.308 405.798 324.88 403.99C324.705 403.31 324.395 402.672 323.967 402.115C323.539 401.558 323.002 401.094 322.39 400.75C320.666 399.864 318.775 399.35 316.84 399.24C314.41 398.99 311.18 398.87 307.13 398.87H277.59V421.72H307.13ZM349.33 461.65H325.91V455.11C325.927 453.08 325.834 451.05 325.63 449.03C325.492 447.532 325.082 446.071 324.42 444.72C323.827 443.567 322.941 442.591 321.85 441.89C320.502 441.078 319.018 440.519 317.47 440.24C315.261 439.803 313.02 439.542 310.77 439.46C308.103 439.32 304.943 439.25 301.29 439.25H277.59V461.65H254.11V381H316.64C322.066 380.911 327.489 381.319 332.84 382.22C336.449 382.772 339.875 384.17 342.84 386.3C345.29 388.226 347.065 390.88 347.91 393.88C348.925 397.681 349.396 401.607 349.31 405.54V408.37C349.343 411.158 349.095 413.942 348.57 416.68C348.149 418.854 347.332 420.932 346.16 422.81C345.056 424.522 343.592 425.972 341.87 427.06C339.875 428.273 337.687 429.136 335.4 429.61V430.07C337.772 430.418 340.101 431.011 342.35 431.84C344.052 432.463 345.536 433.568 346.62 435.02C347.748 436.673 348.474 438.567 348.74 440.55C349.163 443.44 349.354 446.359 349.31 449.28V461.61L349.33 461.65Z" fill="white"/>
<path fill-rule="evenodd" clip-rule="evenodd" d="M452.32 461.65H364.72V381H450.94V398.83H388.19V412.54H447.62V429.38H388.19V443.27H452.32V461.61V461.65Z" fill="white"/>
<path fill-rule="evenodd" clip-rule="evenodd" d="M531.52 430.41L515.09 398.06H514.51L498.2 430.41H531.52ZM573 461.71H547.44L540.05 447.24H489.78L482.51 461.71H457.14L500.43 381.11H529.52L573 461.71Z" fill="white"/>
<path fill-rule="evenodd" clip-rule="evenodd" d="M659.33 461.71H581.69V381.11H605.39V443H659.33V461.75V461.71Z" fill="white"/>
<path fill-rule="evenodd" clip-rule="evenodd" d="M434.82 195C432.01 208.56 419.5 243.34 379.63 262.18L363.63 244.18L336.63 271.34C321.257 271.133 306.139 267.374 292.459 260.357C278.779 253.341 266.907 243.255 257.77 230.89C260.643 231.783 263.609 232.341 266.61 232.55C271.03 232.63 275.82 231.01 275.82 223.55V150.3C275.886 148.415 275.509 146.541 274.719 144.828C273.93 143.115 272.749 141.612 271.273 140.438C269.797 139.264 268.066 138.453 266.219 138.069C264.372 137.686 262.462 137.741 260.64 138.23C248.14 141.09 238.14 172.3 238.14 172.3C238.001 157.888 241.003 143.618 246.936 130.483C252.87 117.348 261.594 105.663 272.5 96.24C291.12 80.46 309.31 75 323.13 72.86C309.48 80.64 301.8 93.34 301.8 104C301.8 121.09 312.12 119.07 315.18 116.55V215.47C315.697 216.713 316.369 217.885 317.18 218.96C318.547 220.85 320.347 222.385 322.43 223.436C324.513 224.487 326.817 225.024 329.15 225C339.49 225 352.9 213.2 352.9 213.2V133.1C352.9 124.95 346.76 115.1 340.61 111.74C340.61 111.74 351.99 109.74 360.79 116.45C362.44 114.429 364.196 112.496 366.05 110.66C386.51 90.56 405.82 84.86 421.9 82C421.9 82 392.63 105 392.63 135.8C392.63 158.73 393.22 214.64 393.22 214.64C404.11 225.1 420.24 210 434.82 195Z" fill="white"/>
<path fill-rule="evenodd" clip-rule="evenodd" d="M337.92 8.47998C305.668 8.48196 274.14 18.0478 247.325 35.9678C220.509 53.8878 199.61 79.3571 187.269 109.155C174.929 138.953 171.701 171.741 177.995 203.373C184.289 235.005 199.822 264.061 222.629 286.865C245.436 309.669 274.494 325.198 306.126 331.489C337.759 337.779 370.547 334.547 400.343 322.203C430.14 309.859 455.607 288.956 473.523 262.139C491.44 235.321 501.002 203.792 501 171.54C501 150.125 496.782 128.92 488.586 109.135C480.39 89.3503 468.377 71.3739 453.234 56.2321C438.09 41.0903 420.112 29.0798 400.327 20.8864C380.541 12.6931 359.335 8.47736 337.92 8.47998ZM337.92 328.09C306.957 328.092 276.689 318.912 250.943 301.711C225.197 284.511 205.13 260.062 193.28 231.456C181.429 202.85 178.327 171.373 184.367 141.005C190.406 110.636 205.315 82.7409 227.209 60.846C249.102 38.951 276.997 24.0401 307.365 17.9988C337.733 11.9575 369.21 15.0571 397.817 26.9057C426.423 38.7543 450.873 58.8197 468.076 84.5644C485.278 110.309 494.46 140.577 494.46 171.54C494.46 213.058 477.968 252.875 448.611 282.234C419.254 311.593 379.438 328.087 337.92 328.09Z" fill="white"/>
</svg>
