<svg width="29" height="24" viewBox="0 0 29 24" fill="none" xmlns="http://www.w3.org/2000/svg">
<rect x="0.5625" width="28" height="23.0588" rx="4" fill="white"/>
<path fill-rule="evenodd" clip-rule="evenodd" d="M26.9154 0H2.20956C1.29991 0 0.5625 0.737413 0.5625 1.64706V21.4118C0.5625 22.3214 1.29991 23.0588 2.20956 23.0588H26.9154C27.8251 23.0588 28.5625 22.3214 28.5625 21.4118V1.64706C28.5625 0.737413 27.8251 0 26.9154 0ZM2.20956 21.4118V1.64706H26.9154V21.4118H2.20956Z" fill="#C2D1D9"/>
<path fill-rule="evenodd" clip-rule="evenodd" d="M5.09191 6.79417C5.09191 8.49975 6.47456 9.8824 8.18015 9.8824C9.88573 9.8824 11.2684 8.49975 11.2684 6.79417C11.2684 5.08858 9.88573 3.70593 8.18015 3.70593C6.47456 3.70593 5.09191 5.08858 5.09191 6.79417ZM9.62132 6.79417C9.62132 7.59011 8.97609 8.23534 8.18015 8.23534C7.38421 8.23534 6.73897 7.59011 6.73897 6.79417C6.73897 5.99823 7.38421 5.35299 8.18015 5.35299C8.97609 5.35299 9.62132 5.99823 9.62132 6.79417Z" fill="#C2D1D9"/>
<path d="M6.49524 19.526C6.17225 19.8462 5.65082 19.844 5.33061 19.521C5.01039 19.198 5.01264 18.6765 5.33564 18.3563L12.1089 11.6414L15.9265 14.9619C16.2697 15.2604 16.3059 15.7806 16.0074 16.1237C15.7089 16.4669 15.1887 16.5031 14.8456 16.2046L12.1822 13.888L6.49524 19.526Z" fill="#C2D1D9"/>
<path d="M12.6743 19.5235C12.3527 19.8451 11.8312 19.8451 11.5096 19.5235C11.188 19.2019 11.188 18.6805 11.5096 18.3589L22.3483 7.51917L28.2821 12.7257C28.624 13.0257 28.658 13.546 28.358 13.8879C28.058 14.2297 27.5377 14.2637 27.1958 13.9637L22.4219 9.77495L12.6743 19.5235Z" fill="#C2D1D9"/>
</svg>
