<svg width="759" height="538" viewBox="0 0 759 538" fill="none" xmlns="http://www.w3.org/2000/svg">
<g opacity="0.4">
<mask id="mask0_1_4787" style="mask-type:luminance" maskUnits="userSpaceOnUse" x="0" y="0" width="791" height="538">
<rect x="0.880859" width="790.119" height="538" fill="white"/>
</mask>
<g mask="url(#mask0_1_4787)">
<path fill-rule="evenodd" clip-rule="evenodd" d="M312.47 203C357.364 203 393.882 168.013 393.882 125.014C393.882 81.9873 357.364 47 312.47 47C267.575 47 231.057 81.9873 231.057 125C231.057 168.013 267.575 203 312.47 203ZM312.47 75.0122C341.24 75.0122 364.644 97.45 364.644 125C364.644 152.55 341.24 174.988 312.47 174.988C283.7 174.988 260.295 152.564 260.295 125.014C260.295 97.464 283.7 75.0122 312.47 75.0122ZM14.6339 578.652C11.866 580.983 8.42795 582.128 5.01904 582.128C0.983714 582.128 -3.03705 580.536 -5.92151 577.396C-11.2388 571.604 -10.6561 562.783 -4.61039 557.689L434.85 171.444C440.619 166.587 449.331 166.852 454.779 172.058L523.875 238.256L666.554 88.54C669.162 85.8044 672.804 84.1715 676.664 84.004C680.496 83.9202 684.298 85.1624 687.153 87.6607L861.969 241.187C867.913 246.393 868.306 255.228 862.872 260.908C857.438 266.589 848.217 266.98 842.287 261.774L678.237 117.696L544.489 258.019L614.517 325.11C620.213 330.568 620.213 339.388 614.517 344.846C608.821 350.303 599.614 350.303 593.918 344.846L443.839 201.075L14.6339 578.652Z" fill="#C2D1D9"/>
</g>
</g>
</svg>
