<svg width="300" height="300" viewBox="0 0 300 300" fill="none" xmlns="http://www.w3.org/2000/svg">
<g clip-path="url(#clip0_282_2570)">
<path d="M125.25 298.5C54 285.75 0 224.25 0 150C0 67.5 67.5 0 150 0C232.5 0 300 67.5 300 150C300 224.25 246 285.75 174.75 298.5L166.5 291.75H133.5L125.25 298.5Z" fill="url(#paint0_linear_282_2570)"/>
<path d="M208.5 192L215.25 150H175.5V120.75C175.5 108.75 180 99.75 198 99.75H217.5V61.5C207 60 195 58.5 184.5 58.5C150 58.5 126 79.5 126 117V150H88.5V192H126V297.75C134.25 299.25 142.5 300 150.75 300C159 300 167.25 299.25 175.5 297.75V192H208.5Z" fill="white"/>
</g>
<defs>
<linearGradient id="paint0_linear_282_2570" x1="150.007" y1="289.567" x2="150.007" y2="-0.0552583" gradientUnits="userSpaceOnUse">
<stop stop-color="#0062E0"/>
<stop offset="1" stop-color="#19AFFF"/>
</linearGradient>
<clipPath id="clip0_282_2570">
<rect width="300" height="300" fill="white"/>
</clipPath>
</defs>
</svg>
