<svg width="100" height="101" viewBox="0 0 100 101" fill="none" xmlns="http://www.w3.org/2000/svg">
<path d="M50.0932 0.53064C45.5932 0.53064 41.8719 1.75307 38.483 3.80862C38.4275 3.80862 38.4266 3.86375 38.4266 3.9193C38.4266 3.97486 38.4828 3.97572 38.5384 3.97572C42.8717 3.03128 49.4268 6.75306 50.0379 7.14195H50.0932H50.1497C50.7608 6.75306 57.3159 3.03128 61.6492 3.97572C61.7047 3.97572 61.7599 3.97486 61.7599 3.9193C61.7599 3.86374 61.7601 3.80862 61.7045 3.80862C58.3156 1.75307 54.5932 0.53064 50.0932 0.53064ZM64.9934 6.79255C63.8918 6.85766 61.3293 7.71117 56.2043 12.7528L56.149 12.8082C56.149 12.8082 56.1488 12.8646 56.2043 12.8646C60.7043 18.1979 69.3716 30.9201 67.7049 36.1978V36.3085C67.7605 36.3085 67.8156 36.3087 67.8156 36.2532C70.6489 32.531 72.3718 27.8083 72.3718 22.7528C72.3718 16.5861 69.8716 10.975 65.7605 6.91951C65.7049 6.86395 65.7043 6.86417 65.6487 6.86417C65.5654 6.83639 65.3605 6.77085 64.9934 6.79255ZM35.1703 6.81643C34.7953 6.80167 34.5796 6.87784 34.4824 6.91951C34.4268 6.91951 34.4273 6.97485 34.3717 6.97485C30.3162 11.0304 27.8157 16.6415 27.8157 22.8081C27.8157 27.8637 29.5386 32.5863 32.3719 36.3085C32.3719 36.3641 32.4271 36.3639 32.4826 36.3639C32.5382 36.3639 32.5382 36.3087 32.4826 36.2532C30.7604 30.9754 39.4822 18.2532 43.9821 12.9199L44.0386 12.8646C44.0386 12.809 44.0377 12.8082 43.9821 12.8082C38.8572 7.72485 36.2953 6.8607 35.1703 6.81643ZM50.0932 18.4201C50.0932 18.4201 50.0379 18.4199 50.0379 18.4755C43.3712 23.531 31.9275 36.0863 35.4275 39.6418C39.3164 43.0863 44.4821 45.142 50.0932 45.142C55.7043 45.142 60.8156 43.0863 64.7601 39.6418C68.2045 36.0863 56.8163 23.531 50.1497 18.4755C50.1497 18.4199 50.0932 18.4201 50.0932 18.4201ZM63.5383 51.4756C61.5938 51.4756 59.7607 51.8085 58.2052 52.4196C56.5941 53.0862 55.2052 54.0302 54.0385 55.308C52.8163 56.5858 51.9272 58.1422 51.3161 59.8089C50.705 61.4755 50.4274 63.4195 50.4274 65.4751C50.4274 67.5306 50.705 69.4746 51.3161 71.1413C51.9272 72.808 52.8163 74.308 54.0385 75.5857C55.2607 76.8635 56.6496 77.8086 58.2052 78.4753C59.7607 79.0864 61.5938 79.4193 63.5383 79.4193C65.5383 79.4193 67.3158 79.1419 68.8714 78.4753C70.4269 77.8642 71.8158 76.8635 73.038 75.5857C74.2047 74.308 75.094 72.808 75.7051 71.1413C76.3162 69.4746 76.5938 67.5306 76.5938 65.4751C76.5938 63.364 76.2607 61.4755 75.7051 59.8089C75.1496 58.1422 74.2047 56.5858 73.038 55.308C71.8714 54.0302 70.4269 53.0307 68.8714 52.4196C67.2603 51.8085 65.4827 51.4756 63.5383 51.4756ZM1.3716 52.0865L10.6489 64.9195L0.538269 78.8637H5.09338L12.9829 68.0304L20.816 78.8637H25.3711L15.2604 64.9195L24.5942 52.0865H20.038L12.9829 61.8087L5.92671 52.0865H1.3716ZM27.538 52.0865V63.4753H24.0386L21.5386 66.9193H27.538V78.8637H40.0379C42.9268 78.8637 45.149 78.1419 46.7046 76.8086C48.2601 75.4753 49.0385 73.5864 49.0385 71.2531C49.0385 69.8086 48.649 68.4751 47.8157 67.4195C47.0379 66.364 45.927 65.4751 44.427 64.9195C46.7603 63.6418 47.9274 61.6418 47.9274 59.0862C47.9274 57.0307 47.205 55.3087 45.7606 54.0309C44.3161 52.7531 42.2599 52.0865 39.5377 52.0865H27.538ZM75.5934 52.0865L84.9271 64.9195L74.8154 78.8637H79.3716L87.2047 68.0304L95.0931 78.8637H99.6493L89.4822 64.9195L98.8159 52.0865H94.2597L87.2047 61.8087L80.1496 52.0865H75.5934ZM63.5383 55.142C66.2049 55.142 68.3714 56.0864 69.9825 57.9198C71.5936 59.7531 72.3718 62.3084 72.3718 65.4751C72.3718 68.6417 71.5936 71.1417 69.9825 72.9751C68.3714 74.8084 66.2049 75.7528 63.5383 75.7528C60.8161 75.7528 58.7052 74.8084 57.0941 72.9751C55.483 71.1417 54.6494 68.6417 54.6494 65.4751C54.6494 62.3084 55.483 59.8087 57.0941 57.9198C58.7052 56.0864 60.8716 55.142 63.5383 55.142ZM31.5939 55.5858H39.2599C40.7599 55.5858 41.9272 55.9196 42.705 56.5862C43.5383 57.2529 43.9268 58.1973 43.9268 59.364C43.9268 60.7529 43.5381 61.8082 42.7604 62.4749C41.9826 63.1971 40.8155 63.5307 39.2599 63.5307H31.5939V55.5858ZM31.5939 66.9193H39.8719C41.5386 66.9193 42.8157 67.2529 43.649 67.9751C44.4824 68.6417 44.9272 69.7524 44.9272 71.1413C44.9272 72.4746 44.4826 73.531 43.5937 74.2533C42.7048 74.9199 41.4266 75.308 39.8155 75.308H31.5939V66.9193ZM11.9271 89.3086C10.7605 89.3086 9.81602 89.5866 9.14935 90.0866C8.48269 90.5865 8.14892 91.3081 8.14892 92.197C8.14892 93.0859 8.4267 93.7532 8.98225 94.2532C9.53781 94.7532 10.3711 95.1421 11.4822 95.3643L12.372 95.5857C13.2609 95.8079 13.9267 96.0308 14.26 96.253C14.5933 96.5308 14.7602 96.8643 14.7602 97.3088C14.7602 97.8643 14.5382 98.3079 14.1493 98.6412C13.7049 98.919 13.0933 99.0861 12.3156 99.0861C11.3711 99.0861 10.6498 98.8641 10.1498 98.4752C9.64978 98.0863 9.42713 97.4745 9.42713 96.6968H7.87114C7.87114 97.919 8.26068 98.8643 9.09401 99.531C9.87179 100.198 10.9831 100.475 12.372 100.475C13.6498 100.475 14.7053 100.197 15.4275 99.6416C16.1498 99.0861 16.5387 98.2532 16.5387 97.3088C16.5387 96.4754 16.2609 95.8079 15.7053 95.3079C15.1498 94.8079 14.2604 94.419 13.0382 94.1968L12.0942 93.9754C11.2053 93.8088 10.5938 93.5303 10.2605 93.3081C9.92713 93.0859 9.76024 92.697 9.76024 92.197C9.76024 91.697 9.92691 91.3637 10.3158 91.0859C10.7047 90.8081 11.2049 90.6974 11.9271 90.6974C12.816 90.6974 13.4827 90.8643 13.8716 91.1977C14.2604 91.531 14.4822 92.0306 14.5378 92.6972H16.2045C16.2045 91.6417 15.8156 90.8083 15.0933 90.1972C14.3711 89.5861 13.316 89.3086 11.9271 89.3086ZM69.4823 89.3086C68.3156 89.3086 67.3712 89.5866 66.7045 90.0866C66.0378 90.5865 65.7052 91.3081 65.7052 92.197C65.7052 93.0859 65.9829 93.7532 66.5385 94.2532C67.094 94.7532 67.9274 95.1421 69.0385 95.3643L69.9271 95.5857C70.816 95.8079 71.4829 96.0308 71.8162 96.253C72.1496 96.5308 72.3154 96.8643 72.3154 97.3088C72.3154 97.8643 72.0934 98.3079 71.7045 98.6412C71.26 98.919 70.6496 99.0861 69.8718 99.0861C68.9274 99.0861 68.2049 98.8641 67.7049 98.4752C67.2049 98.0863 66.9823 97.4745 66.9823 96.6968H65.371C65.371 97.919 65.7605 98.8643 66.5938 99.531C67.3716 100.198 68.4829 100.475 69.8718 100.475C71.1496 100.475 72.2051 100.197 72.9274 99.6416C73.6496 99.0861 74.0385 98.2532 74.0385 97.3088C74.1496 96.4754 73.8714 95.8079 73.3158 95.3079C72.7603 94.8079 71.8709 94.419 70.6487 94.1968L69.7047 93.9754C68.8158 93.8088 68.2043 93.5303 67.8709 93.3081C67.5376 93.0859 67.3718 92.697 67.3718 92.197C67.3718 91.697 67.5385 91.3637 67.9274 91.0859C68.3163 90.8081 68.8154 90.6974 69.5376 90.6974C70.4265 90.6974 71.0932 90.8643 71.482 91.1977C71.8709 91.531 72.0938 92.0306 72.1494 92.6972H73.7607C73.7607 91.6417 73.3718 90.8083 72.6496 90.1972C71.9274 89.5861 70.8712 89.3086 69.4823 89.3086ZM20.9267 89.5863V100.308H28.5384V98.8083H22.538V95.5303H27.8711V94.1414H22.538V91.0306H28.5384V89.5863H20.9267ZM33.2053 89.5863V100.308H34.8155V95.9199H37.9275C38.5386 95.9199 38.9822 96.0859 39.2599 96.3637C39.5377 96.6414 39.7048 97.1412 39.7048 97.8079L39.7601 98.9754C39.7601 99.5865 39.871 100.031 40.0933 100.364H41.7599C41.5933 99.9754 41.4824 99.531 41.4268 98.9754L41.3161 97.3088C41.3161 96.6976 41.1488 96.2523 40.9266 95.8634C40.7044 95.5301 40.3155 95.253 39.8155 95.1419C40.371 94.9752 40.8159 94.6412 41.0937 94.1968C41.427 93.7523 41.5939 93.1968 41.5939 92.5301C41.5939 91.5857 41.2601 90.8643 40.5935 90.3643C39.9268 89.8643 39.0377 89.5863 37.871 89.5863H33.2053ZM46.4268 89.5863V100.308H48.0381V89.5863H46.4268ZM53.4266 89.5863V100.308H61.0936V98.8083H55.0379V95.5303H60.371V94.1414H55.0379V91.0306H61.0936V89.5863H53.4266ZM82.5931 89.5863L86.316 94.697L82.26 100.308H84.0938L87.2047 95.9752L90.3709 100.308H92.2046L88.1487 94.697L91.8715 89.5863H90.0378L87.2047 93.4752L84.4269 89.5863H82.5931ZM34.9273 90.9752H37.8157C38.4824 90.9752 39.0384 91.1412 39.3717 91.419C39.705 91.6968 39.9272 92.1417 39.9272 92.6972C39.9272 93.2528 39.7604 93.753 39.427 94.0308C39.0937 94.3641 38.5939 94.531 37.9828 94.531H34.9273V90.9752Z" fill="white"/>
</svg>
