<svg width="200" height="69" viewBox="0 0 200 69" fill="none" xmlns="http://www.w3.org/2000/svg">
<path d="M98.3294 17.1119C98.0294 17.1119 97.8294 17.0119 97.8294 16.6119V16.1119C97.8294 15.5119 97.4294 15.1119 96.8294 15.1119H91.2294C89.7294 15.1119 89.3294 15.4119 89.3294 16.8119V22.9119C89.3294 24.2119 89.6294 24.6119 91.2294 24.6119H96.8294C97.6294 24.6119 97.8294 24.2119 97.8294 23.6119V21.8119H94.1294C93.7294 21.8119 93.6294 21.7119 93.6294 21.3119V19.5119C93.6294 19.2119 93.7294 19.0119 94.1294 19.0119H100.629C100.929 19.0119 101.129 19.1119 101.129 19.5119V24.0119C101.129 26.4119 100.229 27.3119 97.7294 27.3119H89.5294C87.1294 27.3119 85.9294 26.3119 85.9294 23.9119V15.9119C85.9294 13.6119 87.1294 12.5119 89.5294 12.5119H97.8294C100.429 12.5119 101.229 13.4119 101.229 15.8119V16.8119C101.229 17.1119 101.129 17.3119 100.729 17.3119H98.3294V17.1119Z" fill="white"/>
<path d="M115.729 24.5119H107.729L106.729 26.9119C106.629 27.2119 106.429 27.3119 106.129 27.3119H103.429C103.129 27.3119 103.029 27.0119 103.129 26.8119L109.429 12.7119C109.529 12.4119 109.729 12.3119 110.029 12.3119H113.629C114.029 12.3119 114.129 12.4119 114.229 12.7119L120.529 26.8119C120.629 27.1119 120.529 27.3119 120.229 27.3119H117.429C117.029 27.3119 116.929 27.2119 116.829 26.9119L115.729 24.5119ZM108.829 21.7119H114.529L111.629 14.9119L108.829 21.7119Z" fill="white"/>
<path d="M127.929 12.4119C128.329 12.4119 128.429 12.5119 128.529 12.8119L132.629 23.8119L136.729 12.8119C136.829 12.5119 137.029 12.4119 137.329 12.4119H141.929C142.329 12.4119 142.429 12.5119 142.429 12.9119V27.0119C142.429 27.3119 142.329 27.5119 141.929 27.5119H139.329C139.029 27.5119 138.829 27.4119 138.829 27.0119V15.3119L134.429 27.0119C134.329 27.3119 134.129 27.4119 133.829 27.4119H131.029C130.629 27.4119 130.529 27.3119 130.429 27.0119L125.829 15.3119V27.0119C125.829 27.3119 125.729 27.5119 125.329 27.5119H123.029C122.629 27.5119 122.529 27.4119 122.529 27.0119V12.9119C122.529 12.6119 122.629 12.4119 123.029 12.4119H127.929Z" fill="white"/>
<path d="M160.229 12.4119C160.529 12.4119 160.729 12.5119 160.729 12.9119V14.8119C160.729 15.1119 160.629 15.3119 160.229 15.3119H149.629V18.5119H158.529C158.829 18.5119 159.029 18.6119 159.029 19.0119V20.8119C159.029 21.1119 158.729 21.3119 158.529 21.3119H149.629V24.6119H160.229C160.529 24.6119 160.729 24.7119 160.729 25.1119V27.0119C160.729 27.3119 160.629 27.5119 160.229 27.5119H146.729C146.329 27.5119 146.229 27.4119 146.229 27.0119V13.0119C146.229 12.7119 146.329 12.5119 146.729 12.5119H160.229V12.4119Z" fill="white"/>
<path d="M100.429 45.8119C100.729 45.8119 100.929 45.9119 100.929 46.3119V47.5119C100.929 49.9119 100.029 50.8119 97.5294 50.8119H89.6294C87.2294 50.8119 86.0294 49.8119 86.0294 47.4119V39.4119C86.0294 37.1119 87.2294 36.0119 89.6294 36.0119H97.5294C100.129 36.0119 100.929 36.9119 100.929 39.3119V40.5119C100.929 40.8119 100.829 41.0119 100.429 41.0119H98.0294C97.6294 41.0119 97.5294 40.9119 97.5294 40.5119V39.7119C97.5294 39.1119 97.1294 38.7119 96.5294 38.7119H91.3294C89.8294 38.7119 89.4294 39.0119 89.4294 40.4119V46.5119C89.4294 47.8119 89.7294 48.2119 91.3294 48.2119H96.5294C97.3294 48.2119 97.5294 47.8119 97.5294 47.2119V46.4119C97.5294 46.1119 97.6294 45.9119 98.0294 45.9119H100.429V45.8119Z" fill="white"/>
<path d="M115.329 47.8118H107.329L106.329 50.2118C106.229 50.5118 106.029 50.6118 105.729 50.6118H103.029C102.729 50.6118 102.629 50.3118 102.729 50.1118L109.029 36.0118C109.129 35.7118 109.329 35.6118 109.629 35.6118H113.229C113.629 35.6118 113.729 35.7118 113.829 36.0118L120.129 50.1118C120.229 50.4118 120.129 50.6118 119.829 50.6118H117.029C116.629 50.6118 116.529 50.5118 116.429 50.2118L115.329 47.8118ZM108.429 45.1118H114.129L111.229 38.3118L108.429 45.1118Z" fill="white"/>
<path d="M137.629 39.1119V42.0119C137.629 44.3119 136.629 45.4119 134.229 45.4119H133.629L138.129 50.1119C138.429 50.2119 138.229 50.6119 138.029 50.6119H134.829C134.429 50.6119 134.229 50.5119 134.029 50.2119L129.829 45.5119H125.829V50.1119C125.829 50.4119 125.529 50.6119 125.329 50.6119H122.729C122.329 50.6119 122.229 50.5119 122.229 50.1119V36.2119C122.229 35.9119 122.329 35.7119 122.729 35.7119H133.929C136.529 35.8119 137.629 36.8119 137.629 39.1119ZM125.929 42.8119H132.429C133.929 42.8119 134.229 42.5119 134.229 41.3119V40.0119C134.229 38.7119 133.929 38.5119 132.429 38.5119H125.929V42.8119Z" fill="white"/>
<path d="M156.029 39.1119V42.0119C156.029 44.3119 155.029 45.4119 152.629 45.4119H152.029L156.529 50.1119C156.829 50.2119 156.629 50.6119 156.429 50.6119H153.229C152.829 50.6119 152.629 50.5119 152.429 50.2119L148.229 45.5119H144.429V50.1119C144.429 50.4119 144.129 50.6119 143.929 50.6119H141.329C141.029 50.6119 140.829 50.5119 140.829 50.1119V36.2119C140.829 35.9119 140.929 35.7119 141.329 35.7119H152.529C154.929 35.8119 156.029 36.8119 156.029 39.1119ZM144.229 42.8119H150.729C152.229 42.8119 152.529 42.5119 152.529 41.3119V40.0119C152.529 38.7119 152.229 38.5119 150.729 38.5119H144.229V42.8119Z" fill="white"/>
<path d="M162.629 50.2119C162.629 50.5119 162.329 50.7119 162.129 50.7119H159.529C159.129 50.7119 159.029 50.6119 159.029 50.2119V36.2119C159.029 35.9119 159.129 35.7119 159.529 35.7119H162.129C162.429 35.7119 162.629 35.8119 162.629 36.2119V50.2119Z" fill="white"/>
<path d="M180.429 35.8119C180.729 35.8119 180.929 35.9119 180.929 36.3119V38.2119C180.929 38.5119 180.829 38.7119 180.429 38.7119H169.829V41.9119H178.729C179.029 41.9119 179.229 42.0119 179.229 42.4119V44.2119C179.229 44.5119 178.929 44.7119 178.729 44.7119H169.829V48.0119H180.429C180.729 48.0119 180.929 48.1119 180.929 48.5119V50.4119C180.929 50.7119 180.829 50.9119 180.429 50.9119H166.829C166.429 50.9119 166.329 50.8119 166.329 50.4119V36.4119C166.329 36.1119 166.429 35.9119 166.829 35.9119H180.329V35.8119H180.429Z" fill="white"/>
<path d="M199.329 39.1119V42.0119C199.329 44.3119 198.329 45.4119 195.929 45.4119H195.329L199.829 50.1119C200.129 50.2119 199.929 50.6119 199.729 50.6119H196.529C196.129 50.6119 195.929 50.5119 195.729 50.2119L191.529 45.5119H187.729V50.1119C187.729 50.4119 187.429 50.6119 187.229 50.6119H184.629C184.229 50.6119 184.129 50.5119 184.129 50.1119V36.2119C184.129 35.9119 184.229 35.7119 184.629 35.7119H195.829C198.129 35.8119 199.329 36.8119 199.329 39.1119ZM187.529 42.8119H194.029C195.529 42.8119 195.829 42.5119 195.829 41.3119V40.0119C195.829 38.7119 195.529 38.5119 194.029 38.5119H187.529V42.8119Z" fill="white"/>
<path d="M56.8294 36.9119L55.8294 35.7119C55.0294 34.8119 54.6294 33.8119 54.8294 32.6119C54.9294 30.8119 54.3294 28.9119 52.8294 27.4119C50.5294 25.1119 47.3294 24.8119 45.5294 26.6119C44.1294 28.1119 44.0294 30.6119 45.1294 32.7119C45.6294 33.5119 45.4294 34.6119 44.7294 35.3119L44.6294 35.4119C43.7294 36.2119 42.6294 36.4119 41.4294 35.9119C40.1294 35.4119 38.8294 35.3119 37.7294 35.5119C36.5294 35.8119 35.3294 35.4119 34.4294 34.6119L34.1294 34.3119C33.1294 33.4119 32.7294 32.0119 33.1294 30.7119C33.4294 29.7119 33.2294 28.4119 32.8294 27.4119C32.4294 26.4119 32.7294 25.2119 33.6294 24.5119L34.0294 24.1119C34.8294 23.5119 35.5294 23.3119 36.3294 23.7119C38.3294 24.7119 40.6294 24.6119 42.0294 23.2119C43.3294 22.0119 43.5294 20.1119 42.8294 18.3119C42.4294 17.3119 42.7294 16.3119 43.4294 15.5119C44.0294 15.0119 44.9294 14.7119 45.7294 15.1119C46.1294 15.2119 46.3294 15.4119 46.7294 15.4119C47.6294 15.5119 48.4294 15.9119 49.0294 16.6119L52.1294 19.9119C52.6294 20.5119 53.0294 21.2119 53.1294 22.1119C53.2294 22.9119 53.6294 23.6119 54.3294 24.1119C55.6294 25.4119 57.4294 25.6119 58.3294 24.6119C58.8294 24.1119 58.9294 23.3119 58.7294 22.6119C58.6294 22.0119 58.7294 21.2119 59.2294 20.7119L59.8294 20.1119C59.9294 19.8119 60.2294 19.7119 60.4294 19.7119C60.5294 19.7119 60.7294 19.6119 60.8294 19.4119C61.2294 19.0119 61.1294 18.1119 60.4294 17.6119C59.9294 17.1119 59.0294 17.0119 58.6294 17.3119C58.5294 17.4119 58.5294 17.6119 58.3294 17.8119C58.3294 18.2119 58.0294 18.6119 57.8294 19.0119L57.7294 19.1119C57.2294 19.6119 56.4294 19.9119 55.7294 19.7119C55.6294 19.7119 55.6294 19.7119 55.4294 19.7119C54.6294 19.6119 53.9294 19.1119 53.4294 18.5119L50.0294 14.8119C49.5294 14.3119 49.1294 13.6119 49.0294 13.0119C48.9294 12.4119 48.5294 11.7119 48.0294 11.2119C46.6294 10.2119 44.8294 10.0119 43.8294 10.9119C43.4294 11.3119 43.2294 11.8119 43.2294 12.3119C43.2294 13.1119 42.8294 13.8119 42.3294 14.3119L42.2294 14.4119C41.3294 15.3119 39.9294 15.4119 38.8294 14.9119C37.8294 14.5119 36.6294 14.3119 35.6294 14.4119C34.6294 14.5119 33.6294 14.3119 32.8294 13.6119L31.6294 12.6119C31.0294 12.0119 30.4294 11.2119 30.3294 10.3119C30.2294 9.71188 29.8294 8.91188 29.3294 8.31188C27.9294 7.01188 25.8294 6.71188 24.5294 7.51188C23.2294 8.31188 23.3294 10.3119 24.6294 11.7119C25.4294 12.5119 26.4294 13.0119 27.4294 13.0119C28.3294 13.0119 29.2294 13.4119 29.8294 14.0119L30.6294 14.6119C31.5294 15.4119 32.0294 16.5119 31.8294 17.8119C31.7294 18.7119 31.8294 19.7119 32.3294 20.7119C32.7294 21.6119 32.4294 22.6119 31.7294 23.3119L31.3294 23.6119C30.5294 24.4119 29.4294 24.5119 28.4294 24.0119C26.2294 23.0119 23.8294 23.2119 22.0294 24.6119C20.2294 26.0119 19.8294 28.4119 20.7294 30.6119C21.2294 32.0119 21.0294 33.5119 19.9294 34.7119L19.5294 35.1119C19.0294 35.7119 18.1294 36.0119 17.3294 35.9119C16.9294 35.8119 16.7294 35.8119 16.3294 35.8119C14.8294 35.8119 13.4294 35.3119 12.3294 34.1119L9.12941 30.9119C8.32941 30.1119 8.12941 29.1119 8.32941 28.1119C8.42941 27.7119 8.42941 27.2119 8.32941 26.8119C8.22941 25.8119 8.62941 24.8119 9.32941 24.1119C10.1294 23.5119 11.1294 22.7119 12.0294 22.1119C13.0294 21.3119 14.4294 20.9119 15.7294 21.2119C16.9294 21.5119 18.0294 21.3119 18.9294 20.7119C20.3294 19.5119 20.3294 17.5119 18.8294 16.1119C17.8294 15.1119 16.5294 14.7119 15.2294 14.8119C14.6294 14.8119 13.9294 14.5119 13.5294 14.2119L12.1294 12.7119C12.0294 12.4119 11.8294 12.0119 11.8294 11.8119C11.8294 11.6119 11.5294 11.2119 11.3294 10.9119C10.7294 10.2119 9.52941 10.0119 8.82941 10.5119C8.02941 11.0119 8.02941 11.9119 8.82941 12.7119C9.12941 13.0119 9.32941 13.1119 9.62941 13.2119C9.92941 13.3119 10.1294 13.5119 10.2294 13.6119L12.0294 15.5119C12.4294 16.0119 12.6294 16.7119 12.5294 17.3119C12.5294 17.4119 12.5294 17.4119 12.5294 17.6119C12.5294 18.8119 11.9294 19.8119 11.0294 20.4119C10.0294 21.2119 8.62941 22.2119 7.62941 23.0119C6.72941 23.6119 5.72941 23.9119 4.72941 23.8119C3.52941 23.5119 2.32941 23.8119 1.42941 24.6119C-0.370588 25.9119 -0.470588 28.3119 1.12941 29.8119C2.02941 30.7119 3.32941 31.2119 4.52941 31.2119C5.52941 31.2119 6.42941 31.6119 7.22941 32.4119L10.9294 36.1119C11.9294 37.1119 12.6294 38.4119 12.6294 39.8119C12.6294 40.8119 13.0294 41.7119 13.8294 42.6119C15.5294 44.3119 18.0294 44.3119 19.5294 42.9119C20.5294 41.9119 20.8294 40.5119 20.4294 39.2119C20.1294 38.4119 20.4294 37.5119 20.9294 37.0119L21.4294 36.5119C22.4294 35.3119 24.0294 35.0119 25.4294 35.3119C26.4294 35.6119 27.3294 35.6119 28.2294 35.4119C29.4294 35.1119 30.6294 35.5119 31.5294 36.3119L32.3294 37.1119C33.2294 38.0119 33.6294 39.1119 33.3294 40.3119C33.0294 41.6119 33.2294 43.1119 33.8294 44.4119C34.2294 45.2119 34.1294 46.2119 33.4294 46.8119L32.2294 48.0119C31.6294 48.6119 30.7294 48.8119 29.9294 48.5119C28.5294 47.9119 27.0294 48.1119 25.8294 49.3119C24.3294 50.8119 24.4294 53.4119 26.1294 55.0119C26.8294 55.6119 27.8294 56.0119 28.8294 56.0119C30.1294 56.0119 31.2294 56.5119 32.1294 57.3119L35.8294 60.9119C36.7294 61.8119 37.2294 62.9119 37.3294 64.2119C37.3294 65.4119 37.8294 66.6119 38.7294 67.5119C40.4294 69.2119 42.7294 69.0119 43.9294 67.2119C45.2294 65.5119 44.9294 62.9119 43.3294 61.3119C42.4294 60.4119 41.4294 60.0119 40.4294 60.1119C39.1294 60.2119 37.7294 59.8119 36.8294 58.8119L33.9294 56.0119C32.9294 55.0119 32.2294 53.6119 32.4294 52.2119C32.4294 51.9119 32.4294 51.7119 32.4294 51.4119C32.3294 50.8119 32.5294 50.1119 33.0294 49.6119L34.7294 47.9119C35.3294 47.3119 36.4294 47.1119 37.3294 47.5119C39.6294 48.5119 42.2294 48.1119 43.7294 46.3119C45.0294 44.8119 45.2294 42.6119 44.6294 40.7119C44.2294 39.4119 44.6294 37.9119 45.6294 36.9119L45.7294 36.8119C46.3294 36.3119 47.1294 36.0119 47.9294 36.3119C48.8294 36.7119 49.7294 36.8119 50.5294 36.7119C51.8294 36.6119 53.1294 37.1119 53.8294 38.0119L54.3294 38.5119C54.9294 39.1119 55.3294 40.0119 55.2294 40.9119C55.2294 41.3119 55.2294 41.8119 55.5294 42.2119C55.8294 42.8119 55.6294 43.6119 55.1294 44.1119L52.7294 47.2119C52.1294 48.1119 51.0294 48.5119 50.0294 48.4119C49.1294 48.4119 48.3294 48.7119 47.7294 49.4119C46.5294 50.8119 46.8294 53.2119 48.3294 54.8119C49.1294 55.6119 50.0294 56.0119 50.9294 56.0119C51.8294 56.0119 52.7294 56.4119 53.5294 57.0119L54.8294 58.2119C55.1294 58.5119 55.3294 58.7119 55.4294 59.1119C55.5294 59.5119 55.7294 59.7119 55.9294 60.0119C56.5294 60.6119 57.6294 60.6119 58.1294 60.0119C58.6294 59.2119 58.4294 58.2119 57.7294 57.4119C57.4294 57.1119 57.2294 57.0119 56.9294 56.9119C56.5294 56.8119 56.3294 56.6119 56.0294 56.5119L55.1294 55.6119C54.3294 55.0119 53.8294 53.9119 53.8294 52.9119C53.8294 52.5119 53.8294 52.3119 53.7294 51.9119C53.4294 50.9119 53.7294 49.9119 54.3294 49.1119L56.7294 46.0119C57.2294 45.4119 57.9294 45.1119 58.6294 45.2119C59.5294 45.3119 60.4294 45.1119 60.9294 44.3119C61.8294 43.0119 61.4294 41.0119 60.1294 39.6119C59.5294 39.0119 58.8294 38.7119 58.2294 38.6119C58.1294 38.0119 57.3294 37.4119 56.8294 36.9119Z" fill="url(#paint0_linear_269_2571)"/>
<path d="M22.7294 4.91187C23.3294 4.51187 23.2294 3.61187 22.7294 3.01187C22.1294 2.41187 21.0294 2.21187 20.4294 2.61187C19.8294 3.01187 19.8294 3.91187 20.4294 4.51187C21.0294 5.11187 22.1294 5.21187 22.7294 4.91187ZM21.7294 57.3119C20.9294 58.1119 20.9294 59.5119 21.8294 60.2119C22.6294 61.0119 23.8294 61.0119 24.6294 60.1119C25.4294 59.3119 25.2294 58.1119 24.5294 57.2119C23.8294 56.3119 22.3294 56.4119 21.7294 57.3119ZM8.62942 44.2119C7.82942 45.0119 7.72942 46.2119 8.52942 47.0119C9.32942 47.8119 10.5294 47.8119 11.4294 47.1119C12.2294 46.3119 12.2294 45.2119 11.4294 44.3119C10.7294 43.5119 9.42942 43.5119 8.62942 44.2119ZM34.1294 0.41187C32.9294 1.21187 33.1294 3.01187 34.4294 4.21187C35.7294 5.41187 37.6294 5.91187 38.6294 5.01187C39.6294 4.21187 39.5294 2.41187 38.2294 1.31187C37.1294 0.0118698 35.2294 -0.38813 34.1294 0.41187ZM63.8294 45.9119C63.4294 46.5119 63.5294 47.6119 64.2294 48.2119C64.9294 48.8119 65.7294 48.8119 66.1294 48.2119C66.5294 47.6119 66.4294 46.5119 65.7294 45.9119C65.1294 45.4119 64.2294 45.4119 63.8294 45.9119ZM49.3294 7.81187C48.9294 8.21187 48.9294 9.01187 49.6294 9.61187C50.3294 10.2119 51.0294 10.4119 51.4294 9.91187C51.8294 9.51187 51.7294 8.71187 51.1294 8.11187C50.5294 7.51187 49.8294 7.41187 49.3294 7.81187ZM67.4294 30.3119C66.1294 29.0119 64.5294 28.9119 63.7294 29.9119C62.8294 30.9119 63.2294 32.8119 64.5294 34.1119C65.8294 35.4119 67.4294 35.5119 68.3294 34.4119C69.1294 33.5119 68.7294 31.6119 67.4294 30.3119Z" fill="url(#paint1_linear_269_2571)"/>
<defs>
<linearGradient id="paint0_linear_269_2571" x1="0.608712" y1="37.8653" x2="62.042" y2="37.8653" gradientUnits="userSpaceOnUse">
<stop stop-color="#00C4F4"/>
<stop offset="1" stop-color="#0094C4"/>
</linearGradient>
<linearGradient id="paint1_linear_269_2571" x1="1.28452" y1="30.388" x2="107.938" y2="30.388" gradientUnits="userSpaceOnUse">
<stop stop-color="#564DCA"/>
<stop offset="0.2423" stop-color="#5550CC"/>
<stop offset="0.4485" stop-color="#525BD1"/>
<stop offset="0.6414" stop-color="#4E6CD9"/>
<stop offset="0.8251" stop-color="#4785E5"/>
<stop offset="1" stop-color="#3FA4F4"/>
</linearGradient>
</defs>
</svg>
