<svg width="120" height="13" viewBox="0 0 120 13" fill="none" xmlns="http://www.w3.org/2000/svg">
<path d="M6.78175 2.832C5.61908 2.832 4.77642 3.15733 4.25375 3.808C3.74175 4.448 3.48575 5.328 3.48575 6.448C3.48575 6.992 3.54975 7.488 3.67775 7.936C3.80575 8.37333 3.99775 8.752 4.25375 9.072C4.50975 9.392 4.82975 9.64267 5.21375 9.824C5.59775 9.99467 6.04575 10.08 6.55775 10.08C6.83508 10.08 7.06975 10.0747 7.26175 10.064C7.46442 10.0533 7.64042 10.032 7.78975 10V6.144H10.2858V11.632C9.98708 11.7493 9.50708 11.872 8.84575 12C8.18442 12.1387 7.36842 12.208 6.39775 12.208C5.56575 12.208 4.80842 12.08 4.12575 11.824C3.45375 11.568 2.87775 11.1947 2.39775 10.704C1.91775 10.2133 1.54442 9.61067 1.27775 8.896C1.02175 8.18133 0.89375 7.36533 0.89375 6.448C0.89375 5.52 1.03775 4.69867 1.32575 3.984C1.61375 3.26933 2.00842 2.66667 2.50975 2.176C3.01108 1.67467 3.59775 1.296 4.26975 1.04C4.95242 0.783999 5.67775 0.655999 6.44575 0.655999C6.96842 0.655999 7.43775 0.693333 7.85375 0.768C8.28042 0.831999 8.64308 0.911999 8.94175 1.008C9.25108 1.09333 9.50175 1.184 9.69375 1.28C9.89642 1.376 10.0404 1.45067 10.1258 1.504L9.40575 3.504C9.06442 3.32267 8.66975 3.168 8.22175 3.04C7.78442 2.90133 7.30442 2.832 6.78175 2.832ZM20.0321 12C19.9148 11.616 19.7815 11.2213 19.6321 10.816C19.4935 10.4107 19.3548 10.0053 19.2161 9.6H14.8961C14.7575 10.0053 14.6135 10.4107 14.4641 10.816C14.3255 11.2213 14.1975 11.616 14.0801 12H11.4881C11.9041 10.8053 12.2988 9.70133 12.6721 8.688C13.0455 7.67467 13.4081 6.72 13.7601 5.824C14.1228 4.928 14.4748 4.08 14.8161 3.28C15.1681 2.46933 15.5308 1.68 15.9041 0.912H18.2881C18.6508 1.68 19.0081 2.46933 19.3601 3.28C19.7121 4.08 20.0641 4.928 20.4161 5.824C20.7788 6.72 21.1468 7.67467 21.5201 8.688C21.8935 9.70133 22.2881 10.8053 22.7041 12H20.0321ZM17.0401 3.424C16.9868 3.584 16.9068 3.80267 16.8001 4.08C16.6935 4.35733 16.5708 4.67733 16.4321 5.04C16.2935 5.40267 16.1388 5.80267 15.9681 6.24C15.8081 6.67733 15.6428 7.136 15.4721 7.616H18.6241C18.4535 7.136 18.2881 6.67733 18.1281 6.24C17.9681 5.80267 17.8135 5.40267 17.6641 5.04C17.5255 4.67733 17.4028 4.35733 17.2961 4.08C17.1895 3.80267 17.1041 3.584 17.0401 3.424ZM27.0834 0.912C27.2754 1.264 27.494 1.70133 27.7394 2.224C27.9954 2.736 28.2567 3.296 28.5234 3.904C28.8007 4.50133 29.0727 5.11467 29.3394 5.744C29.606 6.37333 29.8567 6.96533 30.0914 7.52C30.326 6.96533 30.5767 6.37333 30.8434 5.744C31.11 5.11467 31.3767 4.50133 31.6434 3.904C31.9207 3.296 32.182 2.736 32.4274 2.224C32.6834 1.70133 32.9074 1.264 33.0994 0.912H35.3714C35.478 1.648 35.574 2.47467 35.6594 3.392C35.7554 4.29867 35.8354 5.248 35.8994 6.24C35.974 7.22133 36.038 8.208 36.0914 9.2C36.1554 10.192 36.2087 11.1253 36.2514 12H33.8194C33.7874 10.9227 33.7447 9.74933 33.6914 8.48C33.638 7.21067 33.558 5.93067 33.4514 4.64C33.2594 5.088 33.046 5.584 32.8114 6.128C32.5767 6.672 32.342 7.216 32.1074 7.76C31.8834 8.304 31.6647 8.82667 31.4514 9.328C31.238 9.81867 31.0567 10.24 30.9074 10.592H29.1634C29.014 10.24 28.8327 9.81867 28.6194 9.328C28.406 8.82667 28.182 8.304 27.9474 7.76C27.7234 7.216 27.494 6.672 27.2594 6.128C27.0247 5.584 26.8114 5.088 26.6194 4.64C26.5127 5.93067 26.4327 7.21067 26.3794 8.48C26.326 9.74933 26.2834 10.9227 26.2514 12H23.8194C23.862 11.1253 23.91 10.192 23.9634 9.2C24.0274 8.208 24.0914 7.22133 24.1554 6.24C24.23 5.248 24.31 4.29867 24.3954 3.392C24.4914 2.47467 24.5927 1.648 24.6994 0.912H27.0834ZM38.4988 12V0.912H45.9868V3.008H40.9948V5.184H45.4268V7.232H40.9948V9.904H46.3548V12H38.4988ZM57.1016 12.224C55.299 12.224 53.923 11.7227 52.9736 10.72C52.035 9.71733 51.5656 8.29333 51.5656 6.448C51.5656 5.53067 51.7096 4.71467 51.9976 4C52.2856 3.27467 52.6803 2.66667 53.1816 2.176C53.683 1.67467 54.2803 1.296 54.9736 1.04C55.667 0.783999 56.419 0.655999 57.2296 0.655999C57.699 0.655999 58.1256 0.693333 58.5096 0.768C58.8936 0.831999 59.2296 0.911999 59.5176 1.008C59.8056 1.09333 60.0456 1.184 60.2376 1.28C60.4296 1.376 60.5683 1.45067 60.6536 1.504L59.9336 3.52C59.5923 3.33867 59.1923 3.184 58.7336 3.056C58.2856 2.928 57.7736 2.864 57.1976 2.864C56.8136 2.864 56.435 2.928 56.0616 3.056C55.699 3.184 55.3736 3.392 55.0856 3.68C54.8083 3.95733 54.5843 4.32 54.4136 4.768C54.243 5.216 54.1576 5.76 54.1576 6.4C54.1576 6.912 54.211 7.392 54.3176 7.84C54.435 8.27733 54.6163 8.656 54.8616 8.976C55.1176 9.296 55.4483 9.552 55.8536 9.744C56.259 9.92533 56.7496 10.016 57.3256 10.016C57.6883 10.016 58.0136 9.99467 58.3016 9.952C58.5896 9.90933 58.8456 9.86133 59.0696 9.808C59.2936 9.744 59.491 9.67467 59.6616 9.6C59.8323 9.52533 59.987 9.456 60.1256 9.392L60.8136 11.392C60.4616 11.6053 59.9656 11.7973 59.3256 11.968C58.6856 12.1387 57.9443 12.224 57.1016 12.224ZM70.2978 12C70.1804 11.616 70.0471 11.2213 69.8978 10.816C69.7591 10.4107 69.6204 10.0053 69.4818 9.6H65.1618C65.0231 10.0053 64.8791 10.4107 64.7298 10.816C64.5911 11.2213 64.4631 11.616 64.3458 12H61.7538C62.1698 10.8053 62.5644 9.70133 62.9378 8.688C63.3111 7.67467 63.6738 6.72 64.0258 5.824C64.3884 4.928 64.7404 4.08 65.0818 3.28C65.4338 2.46933 65.7964 1.68 66.1698 0.912H68.5538C68.9164 1.68 69.2738 2.46933 69.6258 3.28C69.9778 4.08 70.3298 4.928 70.6818 5.824C71.0444 6.72 71.4124 7.67467 71.7858 8.688C72.1591 9.70133 72.5538 10.8053 72.9698 12H70.2978ZM67.3058 3.424C67.2524 3.584 67.1724 3.80267 67.0658 4.08C66.9591 4.35733 66.8364 4.67733 66.6978 5.04C66.5591 5.40267 66.4044 5.80267 66.2338 6.24C66.0738 6.67733 65.9084 7.136 65.7378 7.616H68.8898C68.7191 7.136 68.5538 6.67733 68.3938 6.24C68.2338 5.80267 68.0791 5.40267 67.9298 5.04C67.7911 4.67733 67.6684 4.35733 67.5618 4.08C67.4551 3.80267 67.3698 3.584 67.3058 3.424ZM77.653 0.783999C79.317 0.783999 80.5917 1.08267 81.477 1.68C82.3623 2.26667 82.805 3.184 82.805 4.432C82.805 5.21067 82.6237 5.84533 82.261 6.336C81.909 6.816 81.397 7.19467 80.725 7.472C80.949 7.74933 81.1837 8.06933 81.429 8.432C81.6743 8.784 81.9143 9.15733 82.149 9.552C82.3943 9.936 82.629 10.3413 82.853 10.768C83.077 11.184 83.285 11.5947 83.477 12H80.677C80.4743 11.6373 80.2663 11.2693 80.053 10.896C79.8503 10.5227 79.637 10.16 79.413 9.808C79.1997 9.456 78.9863 9.12533 78.773 8.816C78.5597 8.496 78.3463 8.208 78.133 7.952H76.901V12H74.405V1.072C74.949 0.965333 75.509 0.890666 76.085 0.848C76.6717 0.805333 77.1943 0.783999 77.653 0.783999ZM77.797 2.912C77.6157 2.912 77.4503 2.91733 77.301 2.928C77.1623 2.93867 77.029 2.94933 76.901 2.96V5.968H77.605C78.5437 5.968 79.2157 5.85067 79.621 5.616C80.0263 5.38133 80.229 4.98133 80.229 4.416C80.229 3.872 80.021 3.488 79.605 3.264C79.1997 3.02933 78.597 2.912 77.797 2.912ZM88.3249 0.783999C89.9889 0.783999 91.2635 1.08267 92.1489 1.68C93.0342 2.26667 93.4769 3.184 93.4769 4.432C93.4769 5.21067 93.2955 5.84533 92.9329 6.336C92.5809 6.816 92.0689 7.19467 91.3969 7.472C91.6209 7.74933 91.8555 8.06933 92.1009 8.432C92.3462 8.784 92.5862 9.15733 92.8209 9.552C93.0662 9.936 93.3009 10.3413 93.5249 10.768C93.7489 11.184 93.9569 11.5947 94.1489 12H91.3489C91.1462 11.6373 90.9382 11.2693 90.7249 10.896C90.5222 10.5227 90.3089 10.16 90.0849 9.808C89.8715 9.456 89.6582 9.12533 89.4449 8.816C89.2315 8.496 89.0182 8.208 88.8049 7.952H87.5729V12H85.0769V1.072C85.6209 0.965333 86.1809 0.890666 86.7569 0.848C87.3435 0.805333 87.8662 0.783999 88.3249 0.783999ZM88.4689 2.912C88.2875 2.912 88.1222 2.91733 87.9729 2.928C87.8342 2.93867 87.7009 2.94933 87.5729 2.96V5.968H88.2769C89.2155 5.968 89.8875 5.85067 90.2929 5.616C90.6982 5.38133 90.9009 4.98133 90.9009 4.416C90.9009 3.872 90.6929 3.488 90.2769 3.264C89.8715 3.02933 89.2689 2.912 88.4689 2.912ZM95.7488 0.912H98.2448V12H95.7488V0.912ZM100.811 12V0.912H108.299V3.008H103.307V5.184H107.739V7.232H103.307V9.904H108.667V12H100.811ZM113.762 0.783999C115.426 0.783999 116.701 1.08267 117.586 1.68C118.472 2.26667 118.914 3.184 118.914 4.432C118.914 5.21067 118.733 5.84533 118.37 6.336C118.018 6.816 117.506 7.19467 116.834 7.472C117.058 7.74933 117.293 8.06933 117.538 8.432C117.784 8.784 118.024 9.15733 118.258 9.552C118.504 9.936 118.738 10.3413 118.962 10.768C119.186 11.184 119.394 11.5947 119.586 12H116.786C116.584 11.6373 116.376 11.2693 116.162 10.896C115.96 10.5227 115.746 10.16 115.522 9.808C115.309 9.456 115.096 9.12533 114.882 8.816C114.669 8.496 114.456 8.208 114.242 7.952H113.01V12H110.514V1.072C111.058 0.965333 111.618 0.890666 112.194 0.848C112.781 0.805333 113.304 0.783999 113.762 0.783999ZM113.906 2.912C113.725 2.912 113.56 2.91733 113.41 2.928C113.272 2.93867 113.138 2.94933 113.01 2.96V5.968H113.714C114.653 5.968 115.325 5.85067 115.73 5.616C116.136 5.38133 116.338 4.98133 116.338 4.416C116.338 3.872 116.13 3.488 115.714 3.264C115.309 3.02933 114.706 2.912 113.906 2.912Z" fill="#505D68"/>
</svg>
