<svg width="1000" height="873" viewBox="0 0 1000 873" fill="none" xmlns="http://www.w3.org/2000/svg">
<path d="M69.7651 721.841C35.3801 721.841 0.0229492 749.395 0.0229492 797.624C0.0229492 841.714 31.11 872.857 69.7651 872.857C101.673 872.857 115.894 851.44 115.894 851.44V860.776C115.894 865.188 120.065 870.111 125.229 870.111H148.293V725.136H115.894V743.532C115.894 743.532 101.554 721.841 69.7651 721.841ZM75.5366 751.486C103.843 751.486 118.691 776.38 118.691 797.613C118.691 821.263 101.062 843.724 75.5967 843.724C54.3096 843.724 32.986 826.484 32.986 797.301C32.986 770.958 51.3363 751.486 75.5366 751.486Z" fill="white"/>
<path d="M193.324 870.109C188.347 870.109 183.989 866.539 183.989 860.774V725.134H216.389V743.075C223.731 732.039 238.074 721.795 260.09 721.795C296.074 721.795 315.236 750.48 315.236 777.303V870.109H292.721C286.817 870.109 282.836 865.167 282.836 860.224V784.442C282.836 769.574 273.726 751.517 252.658 751.517C229.925 751.517 216.389 773.001 216.389 793.228V870.109L193.324 870.109Z" fill="white"/>
<path d="M409.687 721.841C375.302 721.841 339.945 749.395 339.945 797.624C339.945 841.715 371.032 872.857 409.687 872.857C441.594 872.857 455.815 851.44 455.815 851.44V860.776C455.815 865.188 459.987 870.112 465.151 870.112H488.215V652.648H455.815V743.532C455.815 743.532 441.475 721.841 409.687 721.841ZM415.458 751.486C443.764 751.486 458.613 776.38 458.613 797.613C458.613 821.264 440.983 843.725 415.518 843.725C394.231 843.725 372.908 826.485 372.908 797.301C372.908 770.958 391.258 751.486 415.458 751.486Z" fill="white"/>
<path d="M533.246 870.109C528.268 870.109 523.911 866.539 523.911 860.774V725.134H556.31V749.297C561.887 735.761 573.921 723.487 595.3 723.487C601.26 723.487 606.832 724.585 606.832 724.585V758.083C606.832 758.083 599.874 755.337 591.456 755.337C568.723 755.337 556.31 776.822 556.31 797.049V870.109H533.246Z" fill="white"/>
<path d="M803.426 870.109C798.448 870.109 794.09 866.539 794.09 860.774V725.134H826.49V870.11L803.426 870.109Z" fill="white"/>
<path d="M921.492 721.841C887.107 721.841 851.75 749.395 851.75 797.624C851.75 841.715 882.837 872.857 921.492 872.857C953.399 872.857 967.62 851.44 967.62 851.44V860.776C967.62 865.188 971.792 870.112 976.956 870.112H1000.02V652.648H967.62V743.532C967.62 743.532 953.28 721.841 921.492 721.841ZM927.263 751.486C955.569 751.486 970.417 776.38 970.417 797.613C970.417 821.264 952.788 843.725 927.323 843.725C906.036 843.725 884.713 826.485 884.713 797.301C884.713 770.958 903.063 751.486 927.263 751.486Z" fill="white"/>
<path d="M810.062 693.871C821.894 693.871 831.485 684.28 831.485 672.448C831.485 660.617 821.894 651.025 810.062 651.025C798.231 651.025 788.639 660.617 788.639 672.448C788.639 684.28 798.231 693.871 810.062 693.871Z" fill="white"/>
<path d="M692.281 721.792C656.27 721.792 616.708 748.671 616.708 797.365C616.708 841.737 650.406 872.861 692.202 872.861C743.713 872.861 768.864 831.452 768.864 797.646C768.864 756.162 736.477 721.792 692.281 721.792ZM692.399 752.048C717.301 752.048 735.876 772.119 735.876 797.456C735.876 823.233 716.157 843.123 692.473 843.123C670.486 843.123 649.114 825.231 649.114 797.889C649.114 770.092 669.441 752.048 692.399 752.048Z" fill="white"/>
<path d="M744.065 168.834L826.962 25.2329C831.64 17.1825 828.811 6.95631 820.87 2.27838C812.928 -2.39947 802.593 0.320159 798.024 8.37053L714.039 153.821C649.963 124.557 577.836 108.238 500.269 108.238C422.703 108.238 350.576 124.557 286.499 153.821L202.514 8.37053C197.836 0.320159 187.61 -2.39947 179.56 2.27838C171.509 6.95631 168.79 17.1825 173.468 25.2329L256.365 168.834C113.416 246.292 16.594 390.98 0.602417 560.363H999.937C983.945 390.979 887.122 246.29 744.065 168.834ZM270.834 420.027C247.662 420.027 228.95 401.206 228.95 378.143C228.95 354.971 247.77 336.26 270.834 336.26C294.006 336.26 312.717 355.08 312.717 378.143C312.827 401.206 294.006 420.027 270.834 420.027ZM729.597 420.027C706.425 420.027 687.713 401.206 687.713 378.143C687.713 354.971 706.534 336.26 729.597 336.26C752.769 336.26 771.481 355.08 771.481 378.143C771.59 401.206 752.769 420.027 729.597 420.027Z" fill="#32DE84"/>
</svg>
