<svg width="160" height="20" viewBox="0 0 160 20" fill="none" xmlns="http://www.w3.org/2000/svg">
<path d="M3.81634 15.8316C3.99234 15.8476 4.19234 15.8636 4.41634 15.8796C4.65634 15.8796 4.93634 15.8796 5.25634 15.8796C7.12834 15.8796 8.51234 15.4076 9.40834 14.4636C10.3203 13.5196 10.7763 12.2156 10.7763 10.5516C10.7763 8.80764 10.3443 7.48764 9.48034 6.59164C8.61634 5.69564 7.24834 5.24764 5.37634 5.24764C5.12034 5.24764 4.85634 5.25564 4.58434 5.27164C4.31234 5.27164 4.05634 5.28764 3.81634 5.31964V15.8316ZM14.6403 10.5516C14.6403 11.9916 14.4163 13.2476 13.9683 14.3196C13.5203 15.3916 12.8803 16.2796 12.0483 16.9836C11.2323 17.6876 10.2323 18.2156 9.04834 18.5676C7.86434 18.9196 6.53634 19.0956 5.06434 19.0956C4.39234 19.0956 3.60834 19.0636 2.71234 18.9996C1.81634 18.9516 0.936344 18.8396 0.0723439 18.6636V2.46364C0.936344 2.30364 1.83234 2.19964 2.76034 2.15164C3.70434 2.08764 4.51234 2.05564 5.18434 2.05564C6.60834 2.05564 7.89634 2.21564 9.04834 2.53564C10.2163 2.85564 11.2163 3.35964 12.0483 4.04764C12.8803 4.73564 13.5203 5.61564 13.9683 6.68764C14.4163 7.75964 14.6403 9.04764 14.6403 10.5516ZM16.9277 12.6636C16.9277 11.5436 17.0957 10.5676 17.4317 9.73564C17.7837 8.88764 18.2397 8.18364 18.7997 7.62364C19.3597 7.06364 19.9997 6.63964 20.7197 6.35164C21.4557 6.06364 22.2077 5.91964 22.9757 5.91964C24.7677 5.91964 26.1837 6.47164 27.2237 7.57564C28.2637 8.66364 28.7837 10.2716 28.7837 12.3996C28.7837 12.6076 28.7757 12.8396 28.7597 13.0956C28.7437 13.3356 28.7277 13.5516 28.7117 13.7436H20.5997C20.6797 14.4796 21.0237 15.0636 21.6317 15.4956C22.2397 15.9276 23.0557 16.1436 24.0797 16.1436C24.7357 16.1436 25.3757 16.0876 25.9997 15.9756C26.6397 15.8476 27.1597 15.6956 27.5597 15.5196L28.0397 18.4236C27.8477 18.5196 27.5917 18.6156 27.2717 18.7116C26.9517 18.8076 26.5917 18.8876 26.1917 18.9516C25.8077 19.0316 25.3917 19.0956 24.9437 19.1436C24.4957 19.1916 24.0477 19.2156 23.5997 19.2156C22.4637 19.2156 21.4717 19.0476 20.6237 18.7116C19.7917 18.3756 19.0957 17.9196 18.5357 17.3436C17.9917 16.7516 17.5837 16.0556 17.3117 15.2556C17.0557 14.4556 16.9277 13.5916 16.9277 12.6636ZM25.3277 11.2956C25.3117 10.9916 25.2557 10.6956 25.1597 10.4076C25.0797 10.1196 24.9437 9.86364 24.7517 9.63964C24.5757 9.41564 24.3437 9.23164 24.0557 9.08764C23.7837 8.94364 23.4397 8.87164 23.0237 8.87164C22.6237 8.87164 22.2797 8.94364 21.9917 9.08764C21.7037 9.21564 21.4637 9.39164 21.2717 9.61564C21.0797 9.83964 20.9277 10.1036 20.8157 10.4076C20.7197 10.6956 20.6477 10.9916 20.5997 11.2956H25.3277ZM39.6313 12.4716C39.6313 10.1676 38.7833 9.01564 37.0873 9.01564C36.7193 9.01564 36.3513 9.06364 35.9833 9.15964C35.6313 9.25564 35.3433 9.37564 35.1193 9.51964V16.0236C35.2953 16.0556 35.5193 16.0876 35.7913 16.1196C36.0633 16.1356 36.3593 16.1436 36.6793 16.1436C37.6553 16.1436 38.3913 15.8076 38.8873 15.1356C39.3833 14.4636 39.6313 13.5756 39.6313 12.4716ZM43.2793 12.5676C43.2793 13.5756 43.1273 14.4876 42.8233 15.3036C42.5353 16.1196 42.1113 16.8156 41.5513 17.3916C40.9913 17.9676 40.3033 18.4156 39.4873 18.7356C38.6713 19.0396 37.7433 19.1916 36.7033 19.1916C36.2713 19.1916 35.8153 19.1676 35.3353 19.1196C34.8713 19.0876 34.4073 19.0396 33.9433 18.9756C33.4953 18.9116 33.0633 18.8396 32.6473 18.7596C32.2313 18.6636 31.8633 18.5676 31.5433 18.4716V0.831638L35.1193 0.255638V6.54364C35.5193 6.36764 35.9353 6.23164 36.3673 6.13564C36.7993 6.03964 37.2633 5.99164 37.7593 5.99164C38.6553 5.99164 39.4473 6.15164 40.1353 6.47164C40.8233 6.77564 41.3993 7.21564 41.8633 7.79164C42.3273 8.36764 42.6793 9.06364 42.9193 9.87964C43.1593 10.6796 43.2793 11.5756 43.2793 12.5676ZM49.6037 18.8796H46.0277V6.25564H49.6037V18.8796ZM49.9397 2.60764C49.9397 3.26364 49.7237 3.78364 49.2917 4.16764C48.8757 4.53564 48.3797 4.71964 47.8037 4.71964C47.2277 4.71964 46.7237 4.53564 46.2917 4.16764C45.8757 3.78364 45.6677 3.26364 45.6677 2.60764C45.6677 1.95164 45.8757 1.43964 46.2917 1.07164C46.7237 0.687638 47.2277 0.495638 47.8037 0.495638C48.3797 0.495638 48.8757 0.687638 49.2917 1.07164C49.7237 1.43964 49.9397 1.95164 49.9397 2.60764ZM57.7892 16.3836C58.1412 16.3836 58.4772 16.3756 58.7972 16.3596C59.1172 16.3436 59.3732 16.3196 59.5652 16.2876V13.5756C59.4212 13.5436 59.2052 13.5116 58.9172 13.4796C58.6292 13.4476 58.3652 13.4316 58.1252 13.4316C57.7892 13.4316 57.4692 13.4556 57.1652 13.5036C56.8772 13.5356 56.6212 13.6076 56.3972 13.7196C56.1732 13.8316 55.9972 13.9836 55.8692 14.1756C55.7412 14.3676 55.6772 14.6076 55.6772 14.8956C55.6772 15.4556 55.8612 15.8476 56.2292 16.0716C56.6132 16.2796 57.1332 16.3836 57.7892 16.3836ZM57.5012 5.91964C58.5572 5.91964 59.4372 6.03964 60.1412 6.27964C60.8452 6.51964 61.4052 6.86364 61.8212 7.31164C62.2532 7.75964 62.5572 8.30364 62.7332 8.94364C62.9092 9.58364 62.9972 10.2956 62.9972 11.0796V18.5196C62.4852 18.6316 61.7732 18.7596 60.8612 18.9036C59.9492 19.0636 58.8452 19.1436 57.5492 19.1436C56.7332 19.1436 55.9892 19.0716 55.3172 18.9276C54.6612 18.7836 54.0932 18.5516 53.6132 18.2316C53.1332 17.8956 52.7652 17.4636 52.5092 16.9356C52.2532 16.4076 52.1252 15.7596 52.1252 14.9916C52.1252 14.2556 52.2692 13.6316 52.5572 13.1196C52.8612 12.6076 53.2612 12.1996 53.7572 11.8956C54.2532 11.5916 54.8212 11.3756 55.4612 11.2476C56.1012 11.1036 56.7652 11.0316 57.4532 11.0316C57.9172 11.0316 58.3252 11.0556 58.6772 11.1036C59.0452 11.1356 59.3412 11.1836 59.5652 11.2476V10.9116C59.5652 10.3036 59.3812 9.81564 59.0132 9.44764C58.6452 9.07964 58.0052 8.89564 57.0932 8.89564C56.4852 8.89564 55.8852 8.94364 55.2932 9.03964C54.7012 9.11964 54.1892 9.23964 53.7572 9.39964L53.3012 6.51964C53.5092 6.45564 53.7652 6.39164 54.0692 6.32764C54.3892 6.24764 54.7332 6.18364 55.1012 6.13564C55.4692 6.07164 55.8532 6.02364 56.2532 5.99164C56.6692 5.94364 57.0852 5.91964 57.5012 5.91964ZM66.2308 6.68764C66.8388 6.51164 67.6228 6.35164 68.5828 6.20764C69.5428 6.04764 70.5508 5.96764 71.6068 5.96764C72.6788 5.96764 73.5668 6.11164 74.2708 6.39964C74.9908 6.67164 75.5588 7.06364 75.9748 7.57564C76.3908 8.08764 76.6868 8.69564 76.8628 9.39964C77.0388 10.1036 77.1268 10.8876 77.1268 11.7516V18.8796H73.5508V12.1836C73.5508 11.0316 73.3988 10.2156 73.0948 9.73564C72.7908 9.25564 72.2228 9.01564 71.3908 9.01564C71.1348 9.01564 70.8628 9.03164 70.5748 9.06364C70.2868 9.07964 70.0308 9.10364 69.8068 9.13564V18.8796H66.2308V6.68764ZM97.5052 18.8796C97.3292 18.3036 97.1292 17.7116 96.9052 17.1036C96.6972 16.4956 96.4892 15.8876 96.2812 15.2796H89.8012C89.5932 15.8876 89.3772 16.4956 89.1532 17.1036C88.9452 17.7116 88.7532 18.3036 88.5772 18.8796H84.6892C85.3132 17.0876 85.9052 15.4316 86.4652 13.9116C87.0252 12.3916 87.5692 10.9596 88.0972 9.61564C88.6412 8.27164 89.1692 6.99964 89.6812 5.79964C90.2092 4.58364 90.7532 3.39964 91.3132 2.24764H94.8892C95.4332 3.39964 95.9692 4.58364 96.4972 5.79964C97.0252 6.99964 97.5532 8.27164 98.0812 9.61564C98.6252 10.9596 99.1772 12.3916 99.7372 13.9116C100.297 15.4316 100.889 17.0876 101.513 18.8796H97.5052ZM93.0172 6.01564C92.9372 6.25564 92.8172 6.58364 92.6572 6.99964C92.4972 7.41564 92.3132 7.89564 92.1052 8.43964C91.8972 8.98364 91.6652 9.58364 91.4092 10.2396C91.1692 10.8956 90.9212 11.5836 90.6652 12.3036H95.3932C95.1372 11.5836 94.8892 10.8956 94.6492 10.2396C94.4092 9.58364 94.1772 8.98364 93.9532 8.43964C93.7452 7.89564 93.5612 7.41564 93.4012 6.99964C93.2412 6.58364 93.1132 6.25564 93.0172 6.01564ZM111.034 9.42364C110.714 9.34364 110.338 9.26364 109.906 9.18364C109.474 9.08764 109.01 9.03964 108.514 9.03964C108.29 9.03964 108.018 9.06364 107.698 9.11164C107.394 9.14364 107.162 9.18364 107.002 9.23164V18.8796H103.426V6.92764C104.066 6.70364 104.818 6.49564 105.682 6.30364C106.562 6.09564 107.538 5.99164 108.61 5.99164C108.802 5.99164 109.034 6.00764 109.306 6.03964C109.578 6.05564 109.85 6.08764 110.122 6.13564C110.394 6.16764 110.666 6.21564 110.938 6.27964C111.21 6.32764 111.442 6.39164 111.634 6.47164L111.034 9.42364ZM120.487 12.1836C120.487 11.0316 120.335 10.2156 120.031 9.73564C119.743 9.25564 119.239 9.01564 118.519 9.01564C118.295 9.01564 118.063 9.03164 117.823 9.06364C117.583 9.07964 117.351 9.10364 117.127 9.13564V18.8796H113.551V6.68764C113.855 6.60764 114.207 6.52764 114.607 6.44764C115.023 6.35164 115.455 6.27164 115.903 6.20764C116.367 6.12764 116.839 6.07164 117.319 6.03964C117.799 5.99164 118.271 5.96764 118.735 5.96764C119.647 5.96764 120.383 6.08764 120.943 6.32764C121.519 6.55164 121.991 6.82364 122.359 7.14364C122.871 6.77564 123.455 6.48764 124.111 6.27964C124.783 6.07164 125.399 5.96764 125.959 5.96764C126.967 5.96764 127.791 6.11164 128.431 6.39964C129.087 6.67164 129.607 7.06364 129.991 7.57564C130.375 8.08764 130.639 8.69564 130.783 9.39964C130.927 10.1036 130.999 10.8876 130.999 11.7516V18.8796H127.423V12.1836C127.423 11.0316 127.271 10.2156 126.967 9.73564C126.679 9.25564 126.175 9.01564 125.455 9.01564C125.263 9.01564 124.991 9.06364 124.639 9.15964C124.303 9.25564 124.023 9.37564 123.799 9.51964C123.911 9.88764 123.983 10.2796 124.015 10.6956C124.047 11.0956 124.063 11.5276 124.063 11.9916V18.8796H120.487V12.1836ZM139.142 11.0556C138.79 11.0556 138.414 11.0876 138.014 11.1516C137.614 11.2156 137.302 11.3036 137.078 11.4156C137.078 11.4796 137.07 11.5756 137.054 11.7036C137.054 11.8316 137.054 11.9436 137.054 12.0396C137.054 12.6156 137.094 13.1596 137.174 13.6716C137.254 14.1836 137.39 14.6316 137.582 15.0156C137.774 15.3996 138.03 15.7036 138.35 15.9276C138.67 16.1356 139.07 16.2396 139.55 16.2396C139.95 16.2396 140.286 16.1596 140.558 15.9996C140.846 15.8236 141.078 15.6076 141.254 15.3516C141.446 15.0956 141.582 14.8156 141.662 14.5116C141.758 14.1916 141.806 13.8876 141.806 13.5996C141.806 12.7836 141.598 12.1596 141.182 11.7276C140.782 11.2796 140.102 11.0556 139.142 11.0556ZM139.598 8.27164C140.638 8.27164 141.518 8.41564 142.238 8.70364C142.974 8.97564 143.574 9.35164 144.038 9.83164C144.502 10.3116 144.838 10.8716 145.046 11.5116C145.254 12.1516 145.358 12.8316 145.358 13.5516C145.358 14.1916 145.238 14.8476 144.998 15.5196C144.774 16.1916 144.422 16.7996 143.942 17.3436C143.478 17.8876 142.878 18.3356 142.142 18.6876C141.422 19.0396 140.566 19.2156 139.574 19.2156C137.574 19.2156 136.054 18.5836 135.014 17.3196C133.974 16.0556 133.454 14.3116 133.454 12.0876C133.454 10.4876 133.702 9.07164 134.198 7.83964C134.694 6.60764 135.398 5.57564 136.31 4.74364C137.238 3.89564 138.35 3.25564 139.646 2.82364C140.958 2.37564 142.43 2.14364 144.062 2.12764C144.094 2.62364 144.126 3.11164 144.158 3.59164C144.19 4.05564 144.222 4.54364 144.254 5.05564C143.438 5.07164 142.67 5.15164 141.95 5.29564C141.246 5.42364 140.598 5.63164 140.006 5.91964C139.43 6.20764 138.926 6.58364 138.494 7.04764C138.062 7.49564 137.726 8.04764 137.486 8.70364C137.838 8.54364 138.198 8.43164 138.566 8.36764C138.934 8.30364 139.278 8.27164 139.598 8.27164ZM153.863 6.61564C153.239 7.43164 152.575 8.31964 151.871 9.27964C151.167 10.2396 150.575 11.2236 150.095 12.2316H153.863V6.61564ZM157.367 2.24764V12.2316H159.143V15.1596H157.367V18.8796H153.863V15.1596H146.687V12.5436C147.039 11.8396 147.479 11.0476 148.007 10.1676C148.535 9.27164 149.119 8.35964 149.759 7.43164C150.415 6.48764 151.103 5.56764 151.823 4.67164C152.543 3.77564 153.263 2.96764 153.983 2.24764H157.367Z" fill="#505D68"/>
</svg>
