<svg width="38" height="19" viewBox="0 0 38 19" fill="none" xmlns="http://www.w3.org/2000/svg">
<path d="M4.32241 18.5414H0.746406V5.91744H4.32241V18.5414ZM4.65841 2.26944C4.65841 2.92544 4.44241 3.44544 4.01041 3.82944C3.59441 4.19744 3.09841 4.38144 2.52241 4.38144C1.94641 4.38144 1.44241 4.19744 1.01041 3.82944C0.594406 3.44544 0.386406 2.92544 0.386406 2.26944C0.386406 1.61344 0.594406 1.10144 1.01041 0.733442C1.44241 0.349442 1.94641 0.157442 2.52241 0.157442C3.09841 0.157442 3.59441 0.349442 4.01041 0.733442C4.44241 1.10144 4.65841 1.61344 4.65841 2.26944ZM11.0679 10.2134C11.0679 11.0294 11.1639 11.7654 11.3559 12.4214C11.5639 13.0774 11.8519 13.6454 12.2199 14.1254C12.6039 14.5894 13.0679 14.9494 13.6119 15.2054C14.1559 15.4614 14.7799 15.5894 15.4839 15.5894C16.1719 15.5894 16.7879 15.4614 17.3319 15.2054C17.8919 14.9494 18.3559 14.5894 18.7239 14.1254C19.1079 13.6454 19.3959 13.0774 19.5879 12.4214C19.7959 11.7654 19.8999 11.0294 19.8999 10.2134C19.8999 9.39744 19.7959 8.66144 19.5879 8.00544C19.3959 7.33344 19.1079 6.76544 18.7239 6.30144C18.3559 5.82144 17.8919 5.45344 17.3319 5.19744C16.7879 4.94144 16.1719 4.81344 15.4839 4.81344C14.7799 4.81344 14.1559 4.94944 13.6119 5.22144C13.0679 5.47744 12.6039 5.84544 12.2199 6.32544C11.8519 6.78944 11.5639 7.35744 11.3559 8.02944C11.1639 8.68544 11.0679 9.41344 11.0679 10.2134ZM23.7639 10.2134C23.7639 11.6374 23.5479 12.8934 23.1159 13.9814C22.6999 15.0534 22.1239 15.9574 21.3879 16.6934C20.6519 17.4134 19.7719 17.9574 18.7479 18.3254C17.7399 18.6934 16.6519 18.8774 15.4839 18.8774C14.3479 18.8774 13.2759 18.6934 12.2679 18.3254C11.2599 17.9574 10.3799 17.4134 9.62791 16.6934C8.87591 15.9574 8.28391 15.0534 7.85191 13.9814C7.41991 12.8934 7.20391 11.6374 7.20391 10.2134C7.20391 8.78944 7.42791 7.54144 7.87591 6.46944C8.32391 5.38144 8.92391 4.46944 9.67591 3.73344C10.4439 2.99744 11.3239 2.44544 12.3159 2.07744C13.3239 1.70944 14.3799 1.52544 15.4839 1.52544C16.6199 1.52544 17.6919 1.70944 18.6999 2.07744C19.7079 2.44544 20.5879 2.99744 21.3399 3.73344C22.0919 4.46944 22.6839 5.38144 23.1159 6.46944C23.5479 7.54144 23.7639 8.78944 23.7639 10.2134ZM31.4208 15.6854C31.9488 15.6854 32.3808 15.6454 32.7168 15.5654C33.0688 15.4694 33.3488 15.3494 33.5568 15.2054C33.7648 15.0454 33.9088 14.8614 33.9888 14.6534C34.0688 14.4454 34.1088 14.2134 34.1088 13.9574C34.1088 13.4134 33.8528 12.9654 33.3408 12.6134C32.8288 12.2454 31.9488 11.8534 30.7008 11.4374C30.1568 11.2454 29.6128 11.0294 29.0688 10.7894C28.5248 10.5334 28.0368 10.2214 27.6048 9.85344C27.1728 9.46944 26.8208 9.01344 26.5488 8.48544C26.2768 7.94144 26.1408 7.28544 26.1408 6.51744C26.1408 5.74944 26.2848 5.06144 26.5728 4.45344C26.8608 3.82944 27.2688 3.30144 27.7968 2.86944C28.3248 2.43744 28.9648 2.10944 29.7168 1.88544C30.4688 1.64544 31.3168 1.52544 32.2608 1.52544C33.3808 1.52544 34.3488 1.64544 35.1648 1.88544C35.9808 2.12544 36.6528 2.38944 37.1808 2.67744L36.1008 5.62944C35.6368 5.38944 35.1168 5.18144 34.5408 5.00544C33.9808 4.81344 33.3008 4.71744 32.5008 4.71744C31.6048 4.71744 30.9568 4.84544 30.5568 5.10144C30.1728 5.34144 29.9808 5.71744 29.9808 6.22944C29.9808 6.53344 30.0528 6.78944 30.1968 6.99744C30.3408 7.20544 30.5408 7.39744 30.7968 7.57344C31.0688 7.73344 31.3728 7.88544 31.7088 8.02944C32.0608 8.15744 32.4448 8.29344 32.8608 8.43744C33.7248 8.75744 34.4768 9.07744 35.1168 9.39744C35.7568 9.70144 36.2848 10.0614 36.7008 10.4774C37.1328 10.8934 37.4528 11.3814 37.6608 11.9414C37.8688 12.5014 37.9728 13.1814 37.9728 13.9814C37.9728 15.5334 37.4288 16.7414 36.3408 17.6054C35.2528 18.4534 33.6128 18.8774 31.4208 18.8774C30.6848 18.8774 30.0208 18.8294 29.4288 18.7334C28.8368 18.6534 28.3088 18.5494 27.8448 18.4214C27.3968 18.2934 27.0048 18.1574 26.6688 18.0134C26.3488 17.8694 26.0768 17.7334 25.8528 17.6054L26.9088 14.6294C27.4048 14.9014 28.0128 15.1494 28.7328 15.3734C29.4688 15.5814 30.3648 15.6854 31.4208 15.6854Z" fill="#505D68"/>
</svg>
