<svg width="199" height="20" viewBox="0 0 199 20" fill="none" xmlns="http://www.w3.org/2000/svg">
<path d="M11.4617 15.6636V18.8796H0.349688V2.24764H4.09369V15.6636H11.4617ZM17.2091 18.8796H13.6331V6.25564H17.2091V18.8796ZM17.5451 2.60764C17.5451 3.26364 17.3291 3.78364 16.8971 4.16764C16.4811 4.53564 15.9851 4.71964 15.4091 4.71964C14.8331 4.71964 14.3291 4.53564 13.8971 4.16764C13.4811 3.78364 13.2731 3.26364 13.2731 2.60764C13.2731 1.95164 13.4811 1.43964 13.8971 1.07164C14.3291 0.687638 14.8331 0.495638 15.4091 0.495638C15.9851 0.495638 16.4811 0.687638 16.8971 1.07164C17.3291 1.43964 17.5451 1.95164 17.5451 2.60764ZM20.5706 6.68764C21.1786 6.51164 21.9626 6.35164 22.9226 6.20764C23.8826 6.04764 24.8906 5.96764 25.9466 5.96764C27.0186 5.96764 27.9066 6.11164 28.6106 6.39964C29.3306 6.67164 29.8986 7.06364 30.3146 7.57564C30.7306 8.08764 31.0266 8.69564 31.2026 9.39964C31.3786 10.1036 31.4666 10.8876 31.4666 11.7516V18.8796H27.8906V12.1836C27.8906 11.0316 27.7386 10.2156 27.4346 9.73564C27.1306 9.25564 26.5626 9.01564 25.7306 9.01564C25.4746 9.01564 25.2026 9.03164 24.9146 9.06364C24.6266 9.07964 24.3706 9.10364 24.1466 9.13564V18.8796H20.5706V6.68764ZM45.4794 18.4476C44.8714 18.6236 44.0874 18.7836 43.1274 18.9276C42.1674 19.0876 41.1594 19.1676 40.1034 19.1676C39.0314 19.1676 38.1354 19.0236 37.4154 18.7356C36.7114 18.4476 36.1514 18.0476 35.7354 17.5356C35.3194 17.0076 35.0234 16.3836 34.8474 15.6636C34.6714 14.9436 34.5834 14.1516 34.5834 13.2876V6.25564H38.1594V12.8556C38.1594 14.0076 38.3114 14.8396 38.6154 15.3516C38.9194 15.8636 39.4874 16.1196 40.3194 16.1196C40.5754 16.1196 40.8474 16.1116 41.1354 16.0956C41.4234 16.0636 41.6794 16.0316 41.9034 15.9996V6.25564H45.4794V18.4476ZM53.8523 10.0956L56.3483 6.25564H60.0443L55.7243 12.3276C56.6843 13.5276 57.5563 14.6956 58.3403 15.8316C59.1243 16.9676 59.7483 17.9836 60.2123 18.8796H56.3723C56.2443 18.6396 56.0843 18.3436 55.8923 17.9916C55.7003 17.6236 55.4843 17.2476 55.2443 16.8636C55.0043 16.4636 54.7483 16.0716 54.4763 15.6876C54.2203 15.2876 53.9643 14.9276 53.7083 14.6076C53.4683 14.9116 53.2203 15.2476 52.9643 15.6156C52.7243 15.9836 52.4923 16.3596 52.2683 16.7436C52.0443 17.1116 51.8203 17.4796 51.5963 17.8476C51.3883 18.2156 51.2043 18.5596 51.0443 18.8796H47.3963C47.5883 18.4796 47.8523 18.0076 48.1883 17.4636C48.5243 16.9196 48.8843 16.3596 49.2683 15.7836C49.6683 15.1916 50.0843 14.6076 50.5163 14.0316C50.9483 13.4396 51.3723 12.8876 51.7883 12.3756C51.0683 11.3676 50.3483 10.3516 49.6283 9.32764C48.9083 8.28764 48.1963 7.26364 47.4923 6.25564H51.3563L53.8523 10.0956ZM75.7149 19.2156C73.0109 19.2156 70.9469 18.4636 69.5229 16.9596C68.1149 15.4556 67.4109 13.3196 67.4109 10.5516C67.4109 9.17564 67.6269 7.95164 68.0589 6.87964C68.4909 5.79164 69.0829 4.87964 69.8349 4.14364C70.5869 3.39164 71.4829 2.82364 72.5229 2.43964C73.5629 2.05564 74.6909 1.86364 75.9069 1.86364C76.6109 1.86364 77.2509 1.91964 77.8269 2.03164C78.4029 2.12764 78.9069 2.24764 79.3389 2.39164C79.7709 2.51964 80.1309 2.65564 80.4189 2.79964C80.7069 2.94364 80.9149 3.05564 81.0429 3.13564L79.9629 6.15964C79.4509 5.88764 78.8509 5.65564 78.1629 5.46364C77.4909 5.27164 76.7229 5.17564 75.8589 5.17564C75.2829 5.17564 74.7149 5.27164 74.1549 5.46364C73.6109 5.65564 73.1229 5.96764 72.6909 6.39964C72.2749 6.81564 71.9389 7.35964 71.6829 8.03164C71.4269 8.70364 71.2989 9.51964 71.2989 10.4796C71.2989 11.2476 71.3789 11.9676 71.5389 12.6396C71.7149 13.2956 71.9869 13.8636 72.3549 14.3436C72.7389 14.8236 73.2349 15.2076 73.8429 15.4956C74.4509 15.7676 75.1869 15.9036 76.0509 15.9036C76.5949 15.9036 77.0829 15.8716 77.5149 15.8076C77.9469 15.7436 78.3309 15.6716 78.6669 15.5916C79.0029 15.4956 79.2989 15.3916 79.5549 15.2796C79.8109 15.1676 80.0429 15.0636 80.2509 14.9676L81.2829 17.9676C80.7549 18.2876 80.0109 18.5756 79.0509 18.8316C78.0909 19.0876 76.9789 19.2156 75.7149 19.2156ZM82.5722 12.6636C82.5722 11.5436 82.7402 10.5676 83.0762 9.73564C83.4282 8.88764 83.8842 8.18364 84.4442 7.62364C85.0042 7.06364 85.6442 6.63964 86.3642 6.35164C87.1002 6.06364 87.8522 5.91964 88.6202 5.91964C90.4122 5.91964 91.8282 6.47164 92.8682 7.57564C93.9082 8.66364 94.4282 10.2716 94.4282 12.3996C94.4282 12.6076 94.4202 12.8396 94.4042 13.0956C94.3882 13.3356 94.3722 13.5516 94.3562 13.7436H86.2442C86.3242 14.4796 86.6682 15.0636 87.2762 15.4956C87.8842 15.9276 88.7002 16.1436 89.7242 16.1436C90.3802 16.1436 91.0202 16.0876 91.6442 15.9756C92.2842 15.8476 92.8042 15.6956 93.2042 15.5196L93.6842 18.4236C93.4922 18.5196 93.2362 18.6156 92.9162 18.7116C92.5962 18.8076 92.2362 18.8876 91.8362 18.9516C91.4522 19.0316 91.0362 19.0956 90.5882 19.1436C90.1402 19.1916 89.6922 19.2156 89.2442 19.2156C88.1082 19.2156 87.1162 19.0476 86.2682 18.7116C85.4362 18.3756 84.7402 17.9196 84.1802 17.3436C83.6362 16.7516 83.2282 16.0556 82.9562 15.2556C82.7002 14.4556 82.5722 13.5916 82.5722 12.6636ZM90.9722 11.2956C90.9562 10.9916 90.9002 10.6956 90.8042 10.4076C90.7242 10.1196 90.5882 9.86364 90.3962 9.63964C90.2202 9.41564 89.9882 9.23164 89.7002 9.08764C89.4282 8.94364 89.0842 8.87164 88.6682 8.87164C88.2682 8.87164 87.9242 8.94364 87.6362 9.08764C87.3482 9.21564 87.1082 9.39164 86.9162 9.61564C86.7242 9.83964 86.5722 10.1036 86.4602 10.4076C86.3642 10.6956 86.2922 10.9916 86.2442 11.2956H90.9722ZM97.1878 6.68764C97.7958 6.51164 98.5798 6.35164 99.5398 6.20764C100.5 6.04764 101.508 5.96764 102.564 5.96764C103.636 5.96764 104.524 6.11164 105.228 6.39964C105.948 6.67164 106.516 7.06364 106.932 7.57564C107.348 8.08764 107.644 8.69564 107.82 9.39964C107.996 10.1036 108.084 10.8876 108.084 11.7516V18.8796H104.508V12.1836C104.508 11.0316 104.356 10.2156 104.052 9.73564C103.748 9.25564 103.18 9.01564 102.348 9.01564C102.092 9.01564 101.82 9.03164 101.532 9.06364C101.244 9.07964 100.988 9.10364 100.764 9.13564V18.8796H97.1878V6.68764ZM111.201 3.11164L114.777 2.53564V6.25564H119.073V9.23164H114.777V13.6716C114.777 14.4236 114.905 15.0236 115.161 15.4716C115.433 15.9196 115.969 16.1436 116.769 16.1436C117.153 16.1436 117.545 16.1116 117.945 16.0476C118.361 15.9676 118.737 15.8636 119.073 15.7356L119.577 18.5196C119.145 18.6956 118.665 18.8476 118.137 18.9756C117.609 19.1036 116.961 19.1676 116.193 19.1676C115.217 19.1676 114.409 19.0396 113.769 18.7836C113.129 18.5116 112.617 18.1436 112.233 17.6796C111.849 17.1996 111.577 16.6236 111.417 15.9516C111.273 15.2796 111.201 14.5356 111.201 13.7196V3.11164ZM125.369 10.5516C125.369 11.3676 125.465 12.1036 125.657 12.7596C125.865 13.4156 126.153 13.9836 126.521 14.4636C126.905 14.9276 127.369 15.2876 127.913 15.5436C128.457 15.7996 129.081 15.9276 129.785 15.9276C130.473 15.9276 131.089 15.7996 131.633 15.5436C132.193 15.2876 132.657 14.9276 133.025 14.4636C133.409 13.9836 133.697 13.4156 133.889 12.7596C134.097 12.1036 134.201 11.3676 134.201 10.5516C134.201 9.73564 134.097 8.99964 133.889 8.34364C133.697 7.67164 133.409 7.10364 133.025 6.63964C132.657 6.15964 132.193 5.79164 131.633 5.53564C131.089 5.27964 130.473 5.15164 129.785 5.15164C129.081 5.15164 128.457 5.28764 127.913 5.55964C127.369 5.81564 126.905 6.18364 126.521 6.66364C126.153 7.12764 125.865 7.69564 125.657 8.36764C125.465 9.02364 125.369 9.75164 125.369 10.5516ZM138.065 10.5516C138.065 11.9756 137.849 13.2316 137.417 14.3196C137.001 15.3916 136.425 16.2956 135.689 17.0316C134.953 17.7516 134.073 18.2956 133.049 18.6636C132.041 19.0316 130.953 19.2156 129.785 19.2156C128.649 19.2156 127.577 19.0316 126.569 18.6636C125.561 18.2956 124.681 17.7516 123.929 17.0316C123.177 16.2956 122.585 15.3916 122.153 14.3196C121.721 13.2316 121.505 11.9756 121.505 10.5516C121.505 9.12764 121.729 7.87964 122.177 6.80764C122.625 5.71964 123.225 4.80764 123.977 4.07164C124.745 3.33564 125.625 2.78364 126.617 2.41564C127.625 2.04764 128.681 1.86364 129.785 1.86364C130.921 1.86364 131.993 2.04764 133.001 2.41564C134.009 2.78364 134.889 3.33564 135.641 4.07164C136.393 4.80764 136.985 5.71964 137.417 6.80764C137.849 7.87964 138.065 9.12764 138.065 10.5516ZM145.722 16.0236C146.25 16.0236 146.682 15.9836 147.018 15.9036C147.37 15.8076 147.65 15.6876 147.858 15.5436C148.066 15.3836 148.21 15.1996 148.29 14.9916C148.37 14.7836 148.41 14.5516 148.41 14.2956C148.41 13.7516 148.154 13.3036 147.642 12.9516C147.13 12.5836 146.25 12.1916 145.002 11.7756C144.458 11.5836 143.914 11.3676 143.37 11.1276C142.826 10.8716 142.338 10.5596 141.906 10.1916C141.474 9.80764 141.122 9.35164 140.85 8.82364C140.578 8.27964 140.442 7.62364 140.442 6.85564C140.442 6.08764 140.586 5.39964 140.874 4.79164C141.162 4.16764 141.57 3.63964 142.098 3.20764C142.626 2.77564 143.266 2.44764 144.018 2.22364C144.77 1.98364 145.618 1.86364 146.562 1.86364C147.682 1.86364 148.65 1.98364 149.466 2.22364C150.282 2.46364 150.954 2.72764 151.482 3.01564L150.402 5.96764C149.938 5.72764 149.418 5.51964 148.842 5.34364C148.282 5.15164 147.602 5.05564 146.802 5.05564C145.906 5.05564 145.258 5.18364 144.858 5.43964C144.474 5.67964 144.282 6.05564 144.282 6.56764C144.282 6.87164 144.354 7.12764 144.498 7.33564C144.642 7.54364 144.842 7.73564 145.098 7.91164C145.37 8.07164 145.674 8.22364 146.01 8.36764C146.362 8.49564 146.746 8.63164 147.162 8.77564C148.026 9.09564 148.778 9.41564 149.418 9.73564C150.058 10.0396 150.586 10.3996 151.002 10.8156C151.434 11.2316 151.754 11.7196 151.962 12.2796C152.17 12.8396 152.274 13.5196 152.274 14.3196C152.274 15.8716 151.73 17.0796 150.642 17.9436C149.554 18.7916 147.914 19.2156 145.722 19.2156C144.986 19.2156 144.322 19.1676 143.73 19.0716C143.138 18.9916 142.61 18.8876 142.146 18.7596C141.698 18.6316 141.306 18.4956 140.97 18.3516C140.65 18.2076 140.378 18.0716 140.154 17.9436L141.21 14.9676C141.706 15.2396 142.314 15.4876 143.034 15.7116C143.77 15.9196 144.666 16.0236 145.722 16.0236ZM165.696 10.0956L168.192 6.25564H171.888L167.568 12.3276C168.528 13.5276 169.4 14.6956 170.184 15.8316C170.968 16.9676 171.592 17.9836 172.056 18.8796H168.216C168.088 18.6396 167.928 18.3436 167.736 17.9916C167.544 17.6236 167.328 17.2476 167.088 16.8636C166.848 16.4636 166.592 16.0716 166.32 15.6876C166.064 15.2876 165.808 14.9276 165.552 14.6076C165.312 14.9116 165.064 15.2476 164.808 15.6156C164.568 15.9836 164.336 16.3596 164.112 16.7436C163.888 17.1116 163.664 17.4796 163.44 17.8476C163.232 18.2156 163.048 18.5596 162.888 18.8796H159.24C159.432 18.4796 159.696 18.0076 160.032 17.4636C160.368 16.9196 160.728 16.3596 161.112 15.7836C161.512 15.1916 161.928 14.6076 162.36 14.0316C162.792 13.4396 163.216 12.8876 163.632 12.3756C162.912 11.3676 162.192 10.3516 161.472 9.32764C160.752 8.28764 160.04 7.26364 159.336 6.25564H163.2L165.696 10.0956ZM178.865 11.0556C178.513 11.0556 178.137 11.0876 177.737 11.1516C177.337 11.2156 177.025 11.3036 176.801 11.4156C176.801 11.4796 176.793 11.5756 176.777 11.7036C176.777 11.8316 176.777 11.9436 176.777 12.0396C176.777 12.6156 176.817 13.1596 176.897 13.6716C176.977 14.1836 177.113 14.6316 177.305 15.0156C177.497 15.3996 177.753 15.7036 178.073 15.9276C178.393 16.1356 178.793 16.2396 179.273 16.2396C179.673 16.2396 180.009 16.1596 180.281 15.9996C180.569 15.8236 180.801 15.6076 180.977 15.3516C181.169 15.0956 181.305 14.8156 181.385 14.5116C181.481 14.1916 181.529 13.8876 181.529 13.5996C181.529 12.7836 181.321 12.1596 180.905 11.7276C180.505 11.2796 179.825 11.0556 178.865 11.0556ZM179.321 8.27164C180.361 8.27164 181.241 8.41564 181.961 8.70364C182.697 8.97564 183.297 9.35164 183.761 9.83164C184.225 10.3116 184.561 10.8716 184.769 11.5116C184.977 12.1516 185.081 12.8316 185.081 13.5516C185.081 14.1916 184.961 14.8476 184.721 15.5196C184.497 16.1916 184.145 16.7996 183.665 17.3436C183.201 17.8876 182.601 18.3356 181.865 18.6876C181.145 19.0396 180.289 19.2156 179.297 19.2156C177.297 19.2156 175.777 18.5836 174.737 17.3196C173.697 16.0556 173.177 14.3116 173.177 12.0876C173.177 10.4876 173.425 9.07164 173.921 7.83964C174.417 6.60764 175.121 5.57564 176.033 4.74364C176.961 3.89564 178.073 3.25564 179.369 2.82364C180.681 2.37564 182.153 2.14364 183.785 2.12764C183.817 2.62364 183.849 3.11164 183.881 3.59164C183.913 4.05564 183.945 4.54364 183.977 5.05564C183.161 5.07164 182.393 5.15164 181.673 5.29564C180.969 5.42364 180.321 5.63164 179.729 5.91964C179.153 6.20764 178.649 6.58364 178.217 7.04764C177.785 7.49564 177.449 8.04764 177.209 8.70364C177.561 8.54364 177.921 8.43164 178.289 8.36764C178.657 8.30364 179.001 8.27164 179.321 8.27164ZM193.586 6.61564C192.962 7.43164 192.298 8.31964 191.594 9.27964C190.89 10.2396 190.298 11.2236 189.818 12.2316H193.586V6.61564ZM197.09 2.24764V12.2316H198.866V15.1596H197.09V18.8796H193.586V15.1596H186.41V12.5436C186.762 11.8396 187.202 11.0476 187.73 10.1676C188.258 9.27164 188.842 8.35964 189.482 7.43164C190.138 6.48764 190.826 5.56764 191.546 4.67164C192.266 3.77564 192.986 2.96764 193.706 2.24764H197.09Z" fill="#505D68"/>
</svg>
