<svg width="78" height="18" viewBox="0 0 78 18" fill="none" xmlns="http://www.w3.org/2000/svg">
<path d="M5.46881 0.909442C5.75681 1.43744 6.08481 2.09344 6.45281 2.87744C6.83681 3.64544 7.22881 4.48544 7.62881 5.39744C8.04481 6.29344 8.45281 7.21344 8.85281 8.15744C9.25281 9.10144 9.62881 9.98944 9.98081 10.8214C10.3328 9.98944 10.7088 9.10144 11.1088 8.15744C11.5088 7.21344 11.9088 6.29344 12.3088 5.39744C12.7248 4.48544 13.1168 3.64544 13.4848 2.87744C13.8688 2.09344 14.2048 1.43744 14.4928 0.909442H17.9008C18.0608 2.01344 18.2048 3.25344 18.3328 4.62944C18.4768 5.98944 18.5968 7.41344 18.6928 8.90144C18.8048 10.3734 18.9008 11.8534 18.9808 13.3414C19.0768 14.8294 19.1568 16.2294 19.2208 17.5414H15.5728C15.5248 15.9254 15.4608 14.1654 15.3808 12.2614C15.3008 10.3574 15.1808 8.43744 15.0208 6.50144C14.7328 7.17344 14.4128 7.91744 14.0608 8.73344C13.7088 9.54944 13.3568 10.3654 13.0048 11.1814C12.6688 11.9974 12.3408 12.7814 12.0208 13.5334C11.7008 14.2694 11.4288 14.9014 11.2048 15.4294H8.58881C8.36481 14.9014 8.09281 14.2694 7.77281 13.5334C7.45281 12.7814 7.11681 11.9974 6.76481 11.1814C6.42881 10.3654 6.08481 9.54944 5.73281 8.73344C5.38081 7.91744 5.06081 7.17344 4.77281 6.50144C4.61281 8.43744 4.49281 10.3574 4.41281 12.2614C4.33281 14.1654 4.26881 15.9254 4.22081 17.5414H0.572813C0.636813 16.2294 0.708813 14.8294 0.788813 13.3414C0.884813 11.8534 0.980813 10.3734 1.07681 8.90144C1.18881 7.41344 1.30881 5.98944 1.43681 4.62944C1.58081 3.25344 1.73281 2.01344 1.89281 0.909442H5.46881ZM27.1759 15.0454C27.5279 15.0454 27.8639 15.0374 28.1839 15.0214C28.5039 15.0054 28.7599 14.9814 28.9519 14.9494V12.2374C28.8079 12.2054 28.5919 12.1734 28.3039 12.1414C28.0159 12.1094 27.7519 12.0934 27.5119 12.0934C27.1759 12.0934 26.8559 12.1174 26.5519 12.1654C26.2639 12.1974 26.0079 12.2694 25.7839 12.3814C25.5599 12.4934 25.3839 12.6454 25.2559 12.8374C25.1279 13.0294 25.0639 13.2694 25.0639 13.5574C25.0639 14.1174 25.2479 14.5094 25.6159 14.7334C25.9999 14.9414 26.5199 15.0454 27.1759 15.0454ZM26.8879 4.58144C27.9439 4.58144 28.8239 4.70144 29.5279 4.94144C30.2319 5.18144 30.7919 5.52544 31.2079 5.97344C31.6399 6.42144 31.9439 6.96544 32.1199 7.60544C32.2959 8.24544 32.3839 8.95744 32.3839 9.74144V17.1814C31.8719 17.2934 31.1599 17.4214 30.2479 17.5654C29.3359 17.7254 28.2319 17.8054 26.9359 17.8054C26.1199 17.8054 25.3759 17.7334 24.7039 17.5894C24.0479 17.4454 23.4799 17.2134 22.9999 16.8934C22.5199 16.5574 22.1519 16.1254 21.8959 15.5974C21.6399 15.0694 21.5119 14.4214 21.5119 13.6534C21.5119 12.9174 21.6559 12.2934 21.9439 11.7814C22.2479 11.2694 22.6479 10.8614 23.1439 10.5574C23.6399 10.2534 24.2079 10.0374 24.8479 9.90944C25.4879 9.76544 26.1519 9.69344 26.8399 9.69344C27.3039 9.69344 27.7119 9.71744 28.0639 9.76544C28.4319 9.79744 28.7279 9.84544 28.9519 9.90944V9.57344C28.9519 8.96544 28.7679 8.47744 28.3999 8.10944C28.0319 7.74144 27.3919 7.55744 26.4799 7.55744C25.8719 7.55744 25.2719 7.60544 24.6799 7.70144C24.0879 7.78144 23.5759 7.90144 23.1439 8.06144L22.6879 5.18144C22.8959 5.11744 23.1519 5.05344 23.4559 4.98944C23.7759 4.90944 24.1199 4.84544 24.4879 4.79744C24.8559 4.73344 25.2399 4.68544 25.6399 4.65344C26.0559 4.60544 26.4719 4.58144 26.8879 4.58144ZM35.0175 11.2294C35.0175 10.3174 35.1615 9.46144 35.4495 8.66144C35.7535 7.84544 36.1855 7.14144 36.7455 6.54944C37.3055 5.94144 37.9855 5.46144 38.7855 5.10944C39.5855 4.75744 40.4975 4.58144 41.5215 4.58144C42.1935 4.58144 42.8095 4.64544 43.3695 4.77344C43.9295 4.88544 44.4735 5.05344 45.0015 5.27744L44.2575 8.13344C43.9215 8.00544 43.5535 7.89344 43.1535 7.79744C42.7535 7.70144 42.3055 7.65344 41.8095 7.65344C40.7535 7.65344 39.9615 7.98144 39.4335 8.63744C38.9215 9.29344 38.6655 10.1574 38.6655 11.2294C38.6655 12.3654 38.9055 13.2454 39.3855 13.8694C39.8815 14.4934 40.7375 14.8054 41.9535 14.8054C42.3855 14.8054 42.8495 14.7654 43.3455 14.6854C43.8415 14.6054 44.2975 14.4774 44.7135 14.3014L45.2175 17.2294C44.8015 17.4054 44.2815 17.5574 43.6575 17.6854C43.0335 17.8134 42.3455 17.8774 41.5935 17.8774C40.4415 17.8774 39.4495 17.7094 38.6175 17.3734C37.7855 17.0214 37.0975 16.5494 36.5535 15.9574C36.0255 15.3654 35.6335 14.6694 35.3775 13.8694C35.1375 13.0534 35.0175 12.1734 35.0175 11.2294ZM51.0015 9.21344C51.0015 10.0294 51.0975 10.7654 51.2895 11.4214C51.4975 12.0774 51.7855 12.6454 52.1535 13.1254C52.5375 13.5894 53.0015 13.9494 53.5455 14.2054C54.0895 14.4614 54.7135 14.5894 55.4175 14.5894C56.1055 14.5894 56.7215 14.4614 57.2655 14.2054C57.8255 13.9494 58.2895 13.5894 58.6575 13.1254C59.0415 12.6454 59.3295 12.0774 59.5215 11.4214C59.7295 10.7654 59.8335 10.0294 59.8335 9.21344C59.8335 8.39744 59.7295 7.66144 59.5215 7.00544C59.3295 6.33344 59.0415 5.76544 58.6575 5.30144C58.2895 4.82144 57.8255 4.45344 57.2655 4.19744C56.7215 3.94144 56.1055 3.81344 55.4175 3.81344C54.7135 3.81344 54.0895 3.94944 53.5455 4.22144C53.0015 4.47744 52.5375 4.84544 52.1535 5.32544C51.7855 5.78944 51.4975 6.35744 51.2895 7.02944C51.0975 7.68544 51.0015 8.41344 51.0015 9.21344ZM63.6975 9.21344C63.6975 10.6374 63.4815 11.8934 63.0495 12.9814C62.6335 14.0534 62.0575 14.9574 61.3215 15.6934C60.5855 16.4134 59.7055 16.9574 58.6815 17.3254C57.6735 17.6934 56.5855 17.8774 55.4175 17.8774C54.2815 17.8774 53.2095 17.6934 52.2015 17.3254C51.1935 16.9574 50.3135 16.4134 49.5615 15.6934C48.8095 14.9574 48.2175 14.0534 47.7855 12.9814C47.3535 11.8934 47.1375 10.6374 47.1375 9.21344C47.1375 7.78944 47.3615 6.54144 47.8095 5.46944C48.2575 4.38144 48.8575 3.46944 49.6095 2.73344C50.3775 1.99744 51.2575 1.44544 52.2495 1.07744C53.2575 0.709442 54.3135 0.525442 55.4175 0.525442C56.5535 0.525442 57.6255 0.709442 58.6335 1.07744C59.6415 1.44544 60.5215 1.99744 61.2735 2.73344C62.0255 3.46944 62.6175 4.38144 63.0495 5.46944C63.4815 6.54144 63.6975 7.78944 63.6975 9.21344ZM71.3544 14.6854C71.8824 14.6854 72.3144 14.6454 72.6504 14.5654C73.0024 14.4694 73.2824 14.3494 73.4904 14.2054C73.6984 14.0454 73.8424 13.8614 73.9224 13.6534C74.0024 13.4454 74.0424 13.2134 74.0424 12.9574C74.0424 12.4134 73.7864 11.9654 73.2744 11.6134C72.7624 11.2454 71.8824 10.8534 70.6344 10.4374C70.0904 10.2454 69.5464 10.0294 69.0024 9.78944C68.4584 9.53344 67.9704 9.22144 67.5384 8.85344C67.1064 8.46944 66.7544 8.01344 66.4824 7.48544C66.2104 6.94144 66.0744 6.28544 66.0744 5.51744C66.0744 4.74944 66.2184 4.06144 66.5064 3.45344C66.7944 2.82944 67.2024 2.30144 67.7304 1.86944C68.2584 1.43744 68.8984 1.10944 69.6504 0.885443C70.4024 0.645442 71.2504 0.525442 72.1944 0.525442C73.3144 0.525442 74.2824 0.645442 75.0984 0.885443C75.9144 1.12544 76.5864 1.38944 77.1144 1.67744L76.0344 4.62944C75.5704 4.38944 75.0504 4.18144 74.4744 4.00544C73.9144 3.81344 73.2344 3.71744 72.4344 3.71744C71.5384 3.71744 70.8904 3.84544 70.4904 4.10144C70.1064 4.34144 69.9144 4.71744 69.9144 5.22944C69.9144 5.53344 69.9864 5.78944 70.1304 5.99744C70.2744 6.20544 70.4744 6.39744 70.7304 6.57344C71.0024 6.73344 71.3064 6.88544 71.6424 7.02944C71.9944 7.15744 72.3784 7.29344 72.7944 7.43744C73.6584 7.75744 74.4104 8.07744 75.0504 8.39744C75.6904 8.70144 76.2184 9.06144 76.6344 9.47744C77.0664 9.89344 77.3864 10.3814 77.5944 10.9414C77.8024 11.5014 77.9064 12.1814 77.9064 12.9814C77.9064 14.5334 77.3624 15.7414 76.2744 16.6054C75.1864 17.4534 73.5464 17.8774 71.3544 17.8774C70.6184 17.8774 69.9544 17.8294 69.3624 17.7334C68.7704 17.6534 68.2424 17.5494 67.7784 17.4214C67.3304 17.2934 66.9384 17.1574 66.6024 17.0134C66.2824 16.8694 66.0104 16.7334 65.7864 16.6054L66.8424 13.6294C67.3384 13.9014 67.9464 14.1494 68.6664 14.3734C69.4024 14.5814 70.2984 14.6854 71.3544 14.6854Z" fill="#505D68"/>
</svg>
