<svg width="186" height="20" viewBox="0 0 186 20" fill="none" xmlns="http://www.w3.org/2000/svg">
<path d="M11.5136 18.9935C10.4416 17.0895 9.28159 15.2095 8.03359 13.3535C6.78559 11.4975 5.45759 9.74547 4.04959 8.09747V18.9935H0.353594V2.36147H3.40159C3.92959 2.88947 4.51359 3.53747 5.15359 4.30547C5.79359 5.07347 6.44159 5.89747 7.09759 6.77747C7.76959 7.64147 8.43359 8.54547 9.08959 9.48947C9.74559 10.4175 10.3616 11.3135 10.9376 12.1775V2.36147H14.6576V18.9935H11.5136ZM21.8302 18.9935H18.2542V6.36947H21.8302V18.9935ZM22.1662 2.72147C22.1662 3.37747 21.9502 3.89747 21.5182 4.28147C21.1022 4.64947 20.6062 4.83347 20.0302 4.83347C19.4542 4.83347 18.9502 4.64947 18.5182 4.28147C18.1022 3.89747 17.8942 3.37747 17.8942 2.72147C17.8942 2.06547 18.1022 1.55347 18.5182 1.18547C18.9502 0.801468 19.4542 0.609468 20.0302 0.609468C20.6062 0.609468 21.1022 0.801468 21.5182 1.18547C21.9502 1.55347 22.1662 2.06547 22.1662 2.72147ZM25.1917 6.80147C25.7997 6.62547 26.5837 6.46547 27.5437 6.32147C28.5037 6.16147 29.5117 6.08147 30.5677 6.08147C31.6397 6.08147 32.5277 6.22547 33.2317 6.51347C33.9517 6.78547 34.5197 7.17747 34.9357 7.68947C35.3517 8.20147 35.6477 8.80947 35.8237 9.51347C35.9997 10.2175 36.0877 11.0015 36.0877 11.8655V18.9935H32.5117V12.2975C32.5117 11.1455 32.3597 10.3295 32.0557 9.84947C31.7517 9.36947 31.1837 9.12947 30.3517 9.12947C30.0957 9.12947 29.8237 9.14547 29.5357 9.17747C29.2477 9.19347 28.9917 9.21747 28.7677 9.24947V18.9935H25.1917V6.80147ZM39.2045 3.22547L42.7805 2.64947V6.36947H47.0765V9.34547H42.7805V13.7855C42.7805 14.5375 42.9085 15.1375 43.1645 15.5855C43.4365 16.0335 43.9725 16.2575 44.7725 16.2575C45.1565 16.2575 45.5485 16.2255 45.9485 16.1615C46.3645 16.0815 46.7405 15.9775 47.0765 15.8495L47.5805 18.6335C47.1485 18.8095 46.6685 18.9615 46.1405 19.0895C45.6125 19.2175 44.9645 19.2815 44.1965 19.2815C43.2205 19.2815 42.4125 19.1535 41.7725 18.8975C41.1325 18.6255 40.6205 18.2575 40.2365 17.7935C39.8525 17.3135 39.5805 16.7375 39.4205 16.0655C39.2765 15.3935 39.2045 14.6495 39.2045 13.8335V3.22547ZM48.9198 12.7775C48.9198 11.6575 49.0878 10.6815 49.4238 9.84947C49.7758 9.00147 50.2318 8.29747 50.7918 7.73747C51.3518 7.17747 51.9918 6.75347 52.7118 6.46547C53.4478 6.17747 54.1998 6.03347 54.9678 6.03347C56.7598 6.03347 58.1758 6.58547 59.2158 7.68947C60.2558 8.77747 60.7758 10.3855 60.7758 12.5135C60.7758 12.7215 60.7678 12.9535 60.7518 13.2095C60.7358 13.4495 60.7198 13.6655 60.7038 13.8575H52.5918C52.6718 14.5935 53.0158 15.1775 53.6238 15.6095C54.2318 16.0415 55.0478 16.2575 56.0718 16.2575C56.7278 16.2575 57.3678 16.2015 57.9918 16.0895C58.6318 15.9615 59.1518 15.8095 59.5518 15.6335L60.0318 18.5375C59.8398 18.6335 59.5838 18.7295 59.2638 18.8255C58.9438 18.9215 58.5838 19.0015 58.1838 19.0655C57.7998 19.1455 57.3838 19.2095 56.9358 19.2575C56.4878 19.3055 56.0398 19.3295 55.5918 19.3295C54.4558 19.3295 53.4638 19.1615 52.6158 18.8255C51.7838 18.4895 51.0878 18.0335 50.5278 17.4575C49.9838 16.8655 49.5758 16.1695 49.3038 15.3695C49.0478 14.5695 48.9198 13.7055 48.9198 12.7775ZM57.3198 11.4095C57.3038 11.1055 57.2478 10.8095 57.1518 10.5215C57.0718 10.2335 56.9358 9.97747 56.7438 9.75347C56.5678 9.52947 56.3358 9.34547 56.0478 9.20147C55.7758 9.05747 55.4318 8.98547 55.0158 8.98547C54.6158 8.98547 54.2718 9.05747 53.9838 9.20147C53.6958 9.32947 53.4558 9.50547 53.2638 9.72947C53.0718 9.95347 52.9198 10.2175 52.8078 10.5215C52.7118 10.8095 52.6398 11.1055 52.5918 11.4095H57.3198ZM63.5355 6.80147C64.1435 6.62547 64.9275 6.46547 65.8875 6.32147C66.8475 6.16147 67.8555 6.08147 68.9115 6.08147C69.9835 6.08147 70.8715 6.22547 71.5755 6.51347C72.2955 6.78547 72.8635 7.17747 73.2795 7.68947C73.6955 8.20147 73.9915 8.80947 74.1675 9.51347C74.3435 10.2175 74.4315 11.0015 74.4315 11.8655V18.9935H70.8555V12.2975C70.8555 11.1455 70.7035 10.3295 70.3995 9.84947C70.0955 9.36947 69.5275 9.12947 68.6955 9.12947C68.4395 9.12947 68.1675 9.14547 67.8795 9.17747C67.5915 9.19347 67.3355 9.21747 67.1115 9.24947V18.9935H63.5355V6.80147ZM80.7163 12.5855C80.7163 13.6895 80.9643 14.5775 81.4603 15.2495C81.9563 15.9215 82.6923 16.2575 83.6683 16.2575C83.9883 16.2575 84.2843 16.2495 84.5563 16.2335C84.8283 16.2015 85.0523 16.1695 85.2283 16.1375V9.63347C85.0043 9.48947 84.7083 9.36947 84.3403 9.27347C83.9883 9.17747 83.6283 9.12947 83.2603 9.12947C81.5643 9.12947 80.7163 10.2815 80.7163 12.5855ZM88.8043 18.5855C88.4843 18.6815 88.1163 18.7775 87.7003 18.8735C87.2843 18.9535 86.8443 19.0255 86.3803 19.0895C85.9323 19.1535 85.4683 19.2015 84.9883 19.2335C84.5243 19.2815 84.0763 19.3055 83.6443 19.3055C82.6043 19.3055 81.6763 19.1535 80.8603 18.8495C80.0443 18.5455 79.3563 18.1135 78.7963 17.5535C78.2363 16.9775 77.8043 16.2895 77.5003 15.4895C77.2123 14.6735 77.0683 13.7615 77.0683 12.7535C77.0683 11.7295 77.1963 10.8095 77.4523 9.99347C77.7083 9.16147 78.0763 8.45747 78.5563 7.88147C79.0363 7.30547 79.6203 6.86547 80.3083 6.56147C81.0123 6.25747 81.8123 6.10547 82.7083 6.10547C83.2043 6.10547 83.6443 6.15347 84.0283 6.24947C84.4283 6.34547 84.8283 6.48147 85.2283 6.65747V0.945468L88.8043 0.369469V18.5855ZM103.961 12.6575C103.961 13.6495 103.817 14.5615 103.529 15.3935C103.241 16.2095 102.825 16.9135 102.281 17.5055C101.737 18.0815 101.081 18.5295 100.313 18.8495C99.5607 19.1695 98.7127 19.3295 97.7687 19.3295C96.8407 19.3295 95.9927 19.1695 95.2247 18.8495C94.4727 18.5295 93.8247 18.0815 93.2807 17.5055C92.7367 16.9135 92.3127 16.2095 92.0087 15.3935C91.7047 14.5615 91.5527 13.6495 91.5527 12.6575C91.5527 11.6655 91.7047 10.7615 92.0087 9.94547C92.3287 9.12947 92.7607 8.43347 93.3047 7.85747C93.8647 7.28147 94.5207 6.83347 95.2727 6.51347C96.0407 6.19347 96.8727 6.03347 97.7687 6.03347C98.6807 6.03347 99.5127 6.19347 100.265 6.51347C101.033 6.83347 101.689 7.28147 102.233 7.85747C102.777 8.43347 103.201 9.12947 103.505 9.94547C103.809 10.7615 103.961 11.6655 103.961 12.6575ZM100.313 12.6575C100.313 11.5535 100.089 10.6895 99.6407 10.0655C99.2087 9.42547 98.5847 9.10547 97.7687 9.10547C96.9527 9.10547 96.3207 9.42547 95.8727 10.0655C95.4247 10.6895 95.2007 11.5535 95.2007 12.6575C95.2007 13.7615 95.4247 14.6415 95.8727 15.2975C96.3207 15.9375 96.9527 16.2575 97.7687 16.2575C98.5847 16.2575 99.2087 15.9375 99.6407 15.2975C100.089 14.6415 100.313 13.7615 100.313 12.6575ZM117.272 16.1375C117.8 16.1375 118.232 16.0975 118.568 16.0175C118.92 15.9215 119.2 15.8015 119.408 15.6575C119.616 15.4975 119.76 15.3135 119.84 15.1055C119.92 14.8975 119.96 14.6655 119.96 14.4095C119.96 13.8655 119.704 13.4175 119.192 13.0655C118.68 12.6975 117.8 12.3055 116.552 11.8895C116.008 11.6975 115.464 11.4815 114.92 11.2415C114.376 10.9855 113.888 10.6735 113.456 10.3055C113.024 9.92147 112.672 9.46547 112.4 8.93747C112.128 8.39347 111.992 7.73747 111.992 6.96947C111.992 6.20147 112.136 5.51347 112.424 4.90547C112.712 4.28147 113.12 3.75347 113.648 3.32147C114.176 2.88947 114.816 2.56147 115.568 2.33747C116.32 2.09747 117.168 1.97747 118.112 1.97747C119.232 1.97747 120.2 2.09747 121.016 2.33747C121.832 2.57747 122.504 2.84147 123.032 3.12947L121.952 6.08147C121.488 5.84147 120.968 5.63347 120.392 5.45747C119.832 5.26547 119.152 5.16947 118.352 5.16947C117.456 5.16947 116.808 5.29747 116.408 5.55347C116.024 5.79347 115.832 6.16947 115.832 6.68147C115.832 6.98547 115.904 7.24147 116.048 7.44947C116.192 7.65747 116.392 7.84947 116.648 8.02547C116.92 8.18547 117.224 8.33747 117.56 8.48147C117.912 8.60947 118.296 8.74547 118.712 8.88947C119.576 9.20947 120.328 9.52947 120.968 9.84947C121.608 10.1535 122.136 10.5135 122.552 10.9295C122.984 11.3455 123.304 11.8335 123.512 12.3935C123.72 12.9535 123.824 13.6335 123.824 14.4335C123.824 15.9855 123.28 17.1935 122.192 18.0575C121.104 18.9055 119.464 19.3295 117.272 19.3295C116.536 19.3295 115.872 19.2815 115.28 19.1855C114.688 19.1055 114.16 19.0015 113.696 18.8735C113.248 18.7455 112.856 18.6095 112.52 18.4655C112.2 18.3215 111.928 18.1855 111.704 18.0575L112.76 15.0815C113.256 15.3535 113.864 15.6015 114.584 15.8255C115.32 16.0335 116.216 16.1375 117.272 16.1375ZM133.84 11.7455C133.52 12.9615 133.176 14.1695 132.808 15.3695C132.456 16.5695 132.08 17.7775 131.68 18.9935H128.896C128.608 18.3215 128.296 17.5215 127.96 16.5935C127.624 15.6655 127.272 14.6575 126.904 13.5695C126.552 12.4655 126.184 11.3055 125.8 10.0895C125.432 8.85747 125.072 7.61747 124.72 6.36947H128.488C128.616 6.94547 128.752 7.57747 128.896 8.26547C129.056 8.93747 129.216 9.63347 129.376 10.3535C129.552 11.0735 129.728 11.8015 129.904 12.5375C130.096 13.2575 130.288 13.9535 130.48 14.6255C130.688 13.9215 130.888 13.2015 131.08 12.4655C131.288 11.7295 131.48 11.0095 131.656 10.3055C131.848 9.58547 132.024 8.89747 132.184 8.24147C132.36 7.56947 132.512 6.94547 132.64 6.36947H135.232C135.36 6.94547 135.504 7.56947 135.664 8.24147C135.824 8.89747 135.992 9.58547 136.168 10.3055C136.344 11.0095 136.528 11.7295 136.72 12.4655C136.912 13.2015 137.112 13.9215 137.32 14.6255C137.512 13.9535 137.704 13.2575 137.896 12.5375C138.088 11.8015 138.264 11.0735 138.424 10.3535C138.6 9.63347 138.76 8.93747 138.904 8.26547C139.064 7.57747 139.208 6.94547 139.336 6.36947H143.056C142.704 7.61747 142.336 8.85747 141.952 10.0895C141.584 11.3055 141.216 12.4655 140.848 13.5695C140.496 14.6575 140.144 15.6655 139.792 16.5935C139.456 17.5215 139.144 18.3215 138.856 18.9935H136.072C135.672 17.7775 135.28 16.5695 134.896 15.3695C134.512 14.1695 134.16 12.9615 133.84 11.7455ZM148.557 18.9935H144.981V6.36947H148.557V18.9935ZM148.893 2.72147C148.893 3.37747 148.677 3.89747 148.245 4.28147C147.829 4.64947 147.333 4.83347 146.757 4.83347C146.181 4.83347 145.677 4.64947 145.245 4.28147C144.829 3.89747 144.621 3.37747 144.621 2.72147C144.621 2.06547 144.829 1.55347 145.245 1.18547C145.677 0.801468 146.181 0.609468 146.757 0.609468C147.333 0.609468 147.829 0.801468 148.245 1.18547C148.677 1.55347 148.893 2.06547 148.893 2.72147ZM151.798 3.22547L155.374 2.64947V6.36947H159.67V9.34547H155.374V13.7855C155.374 14.5375 155.502 15.1375 155.758 15.5855C156.03 16.0335 156.566 16.2575 157.366 16.2575C157.75 16.2575 158.142 16.2255 158.542 16.1615C158.958 16.0815 159.334 15.9775 159.67 15.8495L160.174 18.6335C159.742 18.8095 159.262 18.9615 158.734 19.0895C158.206 19.2175 157.558 19.2815 156.79 19.2815C155.814 19.2815 155.006 19.1535 154.366 18.8975C153.726 18.6255 153.214 18.2575 152.83 17.7935C152.446 17.3135 152.174 16.7375 152.014 16.0655C151.87 15.3935 151.798 14.6495 151.798 13.8335V3.22547ZM161.514 12.6815C161.514 11.7695 161.658 10.9135 161.946 10.1135C162.25 9.29747 162.682 8.59347 163.242 8.00147C163.802 7.39347 164.482 6.91347 165.282 6.56147C166.082 6.20947 166.994 6.03347 168.018 6.03347C168.69 6.03347 169.306 6.09747 169.866 6.22547C170.426 6.33747 170.97 6.50547 171.498 6.72947L170.754 9.58547C170.418 9.45747 170.05 9.34547 169.65 9.24947C169.25 9.15347 168.802 9.10547 168.306 9.10547C167.25 9.10547 166.458 9.43347 165.93 10.0895C165.418 10.7455 165.162 11.6095 165.162 12.6815C165.162 13.8175 165.402 14.6975 165.882 15.3215C166.378 15.9455 167.234 16.2575 168.45 16.2575C168.882 16.2575 169.346 16.2175 169.842 16.1375C170.338 16.0575 170.794 15.9295 171.21 15.7535L171.714 18.6815C171.298 18.8575 170.778 19.0095 170.154 19.1375C169.53 19.2655 168.842 19.3295 168.09 19.3295C166.938 19.3295 165.946 19.1615 165.114 18.8255C164.282 18.4735 163.594 18.0015 163.05 17.4095C162.522 16.8175 162.13 16.1215 161.874 15.3215C161.634 14.5055 161.514 13.6255 161.514 12.6815ZM174.114 18.9935V0.945468L177.69 0.369469V6.41747C177.93 6.33747 178.234 6.26547 178.602 6.20147C178.986 6.12147 179.354 6.08147 179.706 6.08147C180.73 6.08147 181.578 6.22547 182.25 6.51347C182.938 6.78547 183.482 7.17747 183.882 7.68947C184.298 8.20147 184.586 8.80947 184.746 9.51347C184.922 10.2175 185.01 11.0015 185.01 11.8655V18.9935H181.434V12.2975C181.434 11.1455 181.282 10.3295 180.978 9.84947C180.69 9.36947 180.146 9.12947 179.346 9.12947C179.026 9.12947 178.722 9.16147 178.434 9.22547C178.162 9.27347 177.914 9.32947 177.69 9.39347V18.9935H174.114Z" fill="#505D68"/>
</svg>
