<svg width="42" height="18" viewBox="0 0 42 18" fill="none" xmlns="http://www.w3.org/2000/svg">
<path d="M5.7655 0.467869C8.2455 0.467869 10.1495 0.907869 11.4775 1.78787C12.8055 2.65187 13.4695 4.07587 13.4695 6.05987C13.4695 8.05987 12.7975 9.50787 11.4535 10.4039C10.1095 11.2839 8.1895 11.7239 5.6935 11.7239H4.5175V17.2919H0.773495V0.899869C1.58949 0.73987 2.45349 0.62787 3.36549 0.563869C4.27749 0.499869 5.07749 0.467869 5.7655 0.467869ZM6.00549 3.65987C5.73349 3.65987 5.46149 3.66787 5.18949 3.68387C4.93349 3.69987 4.70949 3.71587 4.5175 3.73187V8.53187H5.6935C6.9895 8.53187 7.9655 8.35587 8.62149 8.00387C9.27749 7.65187 9.60549 6.99587 9.60549 6.03587C9.60549 5.57187 9.51749 5.18787 9.34149 4.88387C9.18149 4.57987 8.94149 4.33987 8.62149 4.16387C8.31749 3.97187 7.94149 3.84387 7.49349 3.77987C7.0455 3.69987 6.54949 3.65987 6.00549 3.65987ZM20.7548 14.4359C21.2828 14.4359 21.7148 14.3959 22.0508 14.3159C22.4028 14.2199 22.6828 14.0999 22.8908 13.9559C23.0988 13.7959 23.2428 13.6119 23.3228 13.4039C23.4028 13.1959 23.4428 12.9639 23.4428 12.7079C23.4428 12.1639 23.1868 11.7159 22.6748 11.3639C22.1628 10.9959 21.2828 10.6039 20.0348 10.1879C19.4908 9.99587 18.9468 9.77987 18.4028 9.53987C17.8588 9.28387 17.3708 8.97187 16.9388 8.60387C16.5068 8.21987 16.1548 7.76387 15.8828 7.23587C15.6108 6.69187 15.4748 6.03587 15.4748 5.26787C15.4748 4.49987 15.6188 3.81187 15.9068 3.20387C16.1948 2.57987 16.6028 2.05187 17.1308 1.61987C17.6588 1.18787 18.2988 0.85987 19.0508 0.63587C19.8028 0.395869 20.6508 0.275869 21.5948 0.275869C22.7148 0.275869 23.6828 0.395869 24.4988 0.63587C25.3148 0.87587 25.9868 1.13987 26.5148 1.42787L25.4348 4.37987C24.9708 4.13987 24.4508 3.93187 23.8748 3.75587C23.3148 3.56387 22.6348 3.46787 21.8348 3.46787C20.9388 3.46787 20.2908 3.59587 19.8908 3.85187C19.5068 4.09187 19.3148 4.46787 19.3148 4.97987C19.3148 5.28387 19.3868 5.53987 19.5308 5.74787C19.6748 5.95587 19.8748 6.14787 20.1308 6.32387C20.4028 6.48387 20.7068 6.63587 21.0428 6.77987C21.3948 6.90787 21.7788 7.04387 22.1948 7.18787C23.0588 7.50787 23.8108 7.82787 24.4508 8.14787C25.0908 8.45187 25.6188 8.81187 26.0348 9.22787C26.4668 9.64387 26.7868 10.1319 26.9948 10.6919C27.2028 11.2519 27.3068 11.9319 27.3068 12.7319C27.3068 14.2839 26.7628 15.4919 25.6748 16.3559C24.5868 17.2039 22.9468 17.6279 20.7548 17.6279C20.0188 17.6279 19.3548 17.5799 18.7628 17.4839C18.1708 17.4039 17.6428 17.2999 17.1788 17.1719C16.7308 17.0439 16.3388 16.9079 16.0028 16.7639C15.6828 16.6199 15.4108 16.4839 15.1868 16.3559L16.2428 13.3799C16.7388 13.6519 17.3468 13.8999 18.0668 14.1239C18.8028 14.3319 19.6988 14.4359 20.7548 14.4359ZM35.9236 5.02787C35.2996 5.84387 34.6356 6.73187 33.9316 7.69187C33.2276 8.65187 32.6356 9.63587 32.1556 10.6439H35.9236V5.02787ZM39.4276 0.65987V10.6439H41.2036V13.5719H39.4276V17.2919H35.9236V13.5719H28.7476V10.9559C29.0996 10.2519 29.5396 9.45987 30.0676 8.57987C30.5956 7.68387 31.1796 6.77187 31.8196 5.84387C32.4756 4.89987 33.1636 3.97987 33.8836 3.08387C34.6036 2.18787 35.3236 1.37987 36.0436 0.65987H39.4276Z" fill="#505D68"/>
</svg>
