<svg width="40" height="18" viewBox="0 0 40 18" fill="none" xmlns="http://www.w3.org/2000/svg">
<path d="M5.00426 0.467869C7.48426 0.467869 9.38826 0.907869 10.7163 1.78787C12.0443 2.65187 12.7083 4.07587 12.7083 6.05987C12.7083 8.05987 12.0363 9.50787 10.6923 10.4039C9.34826 11.2839 7.42826 11.7239 4.93226 11.7239H3.75626V17.2919H0.0122643V0.899869C0.828264 0.73987 1.69226 0.62787 2.60426 0.563869C3.51626 0.499869 4.31626 0.467869 5.00426 0.467869ZM5.24426 3.65987C4.97226 3.65987 4.70026 3.66787 4.42826 3.68387C4.17226 3.69987 3.94826 3.71587 3.75626 3.73187V8.53187H4.93226C6.22826 8.53187 7.20426 8.35587 7.86026 8.00387C8.51626 7.65187 8.84426 6.99587 8.84426 6.03587C8.84426 5.57187 8.75626 5.18787 8.58026 4.88387C8.42026 4.57987 8.18026 4.33987 7.86026 4.16387C7.55626 3.97187 7.18026 3.84387 6.73226 3.77987C6.28426 3.69987 5.78826 3.65987 5.24426 3.65987ZM19.9936 14.4359C20.5216 14.4359 20.9536 14.3959 21.2896 14.3159C21.6416 14.2199 21.9216 14.0999 22.1296 13.9559C22.3376 13.7959 22.4816 13.6119 22.5616 13.4039C22.6416 13.1959 22.6816 12.9639 22.6816 12.7079C22.6816 12.1639 22.4256 11.7159 21.9136 11.3639C21.4016 10.9959 20.5216 10.6039 19.2736 10.1879C18.7296 9.99587 18.1856 9.77987 17.6416 9.53987C17.0976 9.28387 16.6096 8.97187 16.1776 8.60387C15.7456 8.21987 15.3936 7.76387 15.1216 7.23587C14.8496 6.69187 14.7136 6.03587 14.7136 5.26787C14.7136 4.49987 14.8576 3.81187 15.1456 3.20387C15.4336 2.57987 15.8416 2.05187 16.3696 1.61987C16.8976 1.18787 17.5376 0.85987 18.2896 0.63587C19.0416 0.395869 19.8896 0.275869 20.8336 0.275869C21.9536 0.275869 22.9216 0.395869 23.7376 0.63587C24.5536 0.87587 25.2256 1.13987 25.7536 1.42787L24.6736 4.37987C24.2096 4.13987 23.6896 3.93187 23.1136 3.75587C22.5536 3.56387 21.8736 3.46787 21.0736 3.46787C20.1776 3.46787 19.5296 3.59587 19.1296 3.85187C18.7456 4.09187 18.5536 4.46787 18.5536 4.97987C18.5536 5.28387 18.6256 5.53987 18.7696 5.74787C18.9136 5.95587 19.1136 6.14787 19.3696 6.32387C19.6416 6.48387 19.9456 6.63587 20.2816 6.77987C20.6336 6.90787 21.0176 7.04387 21.4336 7.18787C22.2976 7.50787 23.0496 7.82787 23.6896 8.14787C24.3296 8.45187 24.8576 8.81187 25.2736 9.22787C25.7056 9.64387 26.0256 10.1319 26.2336 10.6919C26.4416 11.2519 26.5456 11.9319 26.5456 12.7319C26.5456 14.2839 26.0016 15.4919 24.9136 16.3559C23.8256 17.2039 22.1856 17.6279 19.9936 17.6279C19.2576 17.6279 18.5936 17.5799 18.0016 17.4839C17.4096 17.4039 16.8816 17.2999 16.4176 17.1719C15.9696 17.0439 15.5776 16.9079 15.2416 16.7639C14.9216 16.6199 14.6496 16.4839 14.4256 16.3559L15.4816 13.3799C15.9776 13.6519 16.5856 13.8999 17.3056 14.1239C18.0416 14.3319 18.9376 14.4359 19.9936 14.4359ZM36.1463 12.3959C36.1463 11.9319 36.0423 11.5239 35.8343 11.1719C35.6263 10.8039 35.2663 10.4999 34.7543 10.2599C34.2423 10.0199 33.5543 9.83587 32.6903 9.70787C31.8263 9.57987 30.7383 9.51587 29.4263 9.51587C29.6023 8.02787 29.7463 6.51587 29.8583 4.97987C29.9703 3.44387 30.0583 2.00387 30.1223 0.65987H39.1223V3.65987H33.1223C33.0903 4.23587 33.0503 4.79587 33.0023 5.33987C32.9703 5.86787 32.9303 6.33187 32.8823 6.73187C35.2183 6.89187 36.9383 7.44387 38.0423 8.38787C39.1623 9.31587 39.7223 10.6119 39.7223 12.2759C39.7223 13.0439 39.5863 13.7559 39.3143 14.4119C39.0423 15.0679 38.6343 15.6359 38.0903 16.1159C37.5463 16.5959 36.8583 16.9719 36.0263 17.2439C35.2103 17.5159 34.2503 17.6519 33.1463 17.6519C32.7143 17.6519 32.2583 17.6199 31.7783 17.5559C31.3143 17.5079 30.8583 17.4359 30.4103 17.3399C29.9783 17.2599 29.5863 17.1719 29.2343 17.0759C28.8823 16.9799 28.6103 16.8839 28.4183 16.7879L29.0663 13.8359C29.4663 14.0119 29.9943 14.1879 30.6503 14.3639C31.3063 14.5239 32.0903 14.6039 33.0023 14.6039C34.1063 14.6039 34.9063 14.3879 35.4023 13.9559C35.8983 13.5079 36.1463 12.9879 36.1463 12.3959Z" fill="#505D68"/>
</svg>
